<svg xmlns="http://www.w3.org/2000/svg" viewBox="0 0 43.33 43.33"><defs><style>.cls-1{fill:#c10a27;}.cls-2{fill:#fff;}</style></defs><g id="katman_2" data-name="katman 2"><g id="katman_1-2" data-name="katman 1"><path class="cls-1" d="M41.51,19a1.32,1.32,0,0,0-1.32,1.32v15L29.6,39.56V25.64a1.32,1.32,0,1,0-2.64,0V39.56L16.37,35.32v-21l6.14,2.45a1.32,1.32,0,0,0,1-2.45l-7.92-3.17h0a1.28,1.28,0,0,0-1,0h0L1.33,16.47A1.33,1.33,0,0,0,.5,17.7V41.51a1.34,1.34,0,0,0,.58,1.1,1.31,1.31,0,0,0,.74.22,1.33,1.33,0,0,0,.49-.09l12.74-5.09,12.72,5.08h0a1.28,1.28,0,0,0,1,0h0L42,37.45a1.33,1.33,0,0,0,.83-1.23V20.34A1.32,1.32,0,0,0,41.51,19ZM13.73,35.32,3.15,39.56v-21l10.58-4.23Z"/><path class="cls-2" d="M28.27,43.33a1.72,1.72,0,0,1-.6-.1h0l-.06,0,0,0-12.53-5L2.5,43.2A1.82,1.82,0,0,1,0,41.51V17.7A1.82,1.82,0,0,1,1.14,16l13.21-5.29a1.88,1.88,0,0,1,1.38,0l7.94,3.18a1.78,1.78,0,0,1,1,1,1.82,1.82,0,0,1-2.35,2.41L16.88,15.1V35l9.58,3.84V25.64a1.82,1.82,0,1,1,3.64,0V38.82L39.69,35V20.34a1.82,1.82,0,0,1,3.64,0V36.22a1.81,1.81,0,0,1-1.14,1.69L28.88,43.23A1.86,1.86,0,0,1,28.27,43.33Zm-.41-1.1.11,0a.79.79,0,0,0,.62,0l.09,0L41.82,37a.83.83,0,0,0,.51-.77V20.34a.82.82,0,0,0-1.64,0V35.66L29.1,40.3V25.64a.82.82,0,1,0-1.64,0V40.29L15.88,35.66v-22l6.81,2.73a.81.81,0,0,0,.63,0,.84.84,0,0,0,.44-.45.81.81,0,0,0,0-.63.78.78,0,0,0-.45-.44l-7.92-3.17a.81.81,0,0,0-.63,0L1.52,16.93A.82.82,0,0,0,1,17.7V41.51a.83.83,0,0,0,.36.68.81.81,0,0,0,.77.08l12.92-5.16ZM2.65,40.29v-22l11.58-4.63v22Zm1-21.36V38.82L13.23,35V15.1Z"/><path class="cls-1" d="M33.57,5.79a4,4,0,1,0,4,4A4,4,0,0,0,33.57,5.79Zm0,5.29A1.32,1.32,0,1,1,34.9,9.76,1.32,1.32,0,0,1,33.57,11.08Z"/><path class="cls-2" d="M33.57,14.23A4.47,4.47,0,1,1,38,9.76,4.48,4.48,0,0,1,33.57,14.23Zm0-7.94A3.47,3.47,0,1,0,37,9.76,3.48,3.48,0,0,0,33.57,6.29Zm0,5.29A1.82,1.82,0,1,1,35.4,9.76,1.82,1.82,0,0,1,33.57,11.58Zm0-2.64a.82.82,0,1,0,.83.82A.82.82,0,0,0,33.57,8.94Z"/><path class="cls-1" d="M33.57.5a9.27,9.27,0,0,0-9.26,9.26c0,4.75,7.43,13.17,8.28,14.11a1.32,1.32,0,0,0,2,0c.84-.94,8.27-9.36,8.27-14.11A9.27,9.27,0,0,0,33.57.5Zm0,20.47C30.68,17.54,27,12.28,27,9.76a6.62,6.62,0,0,1,13.23,0C40.19,12.28,36.46,17.54,33.57,21Z"/><path class="cls-2" d="M33.57,24.81a1.83,1.83,0,0,1-1.35-.6c-1.41-1.57-8.41-9.62-8.41-14.45a9.76,9.76,0,1,1,19.52,0c0,4.83-7,12.88-8.4,14.45A1.85,1.85,0,0,1,33.57,24.81ZM33.57,1a8.77,8.77,0,0,0-8.76,8.76c0,4.56,7.32,12.85,8.15,13.78a.85.85,0,0,0,1.23,0c.83-.93,8.14-9.22,8.14-13.78A8.77,8.77,0,0,0,33.57,1Zm0,20.75-.38-.46c-3.11-3.68-6.73-8.91-6.73-11.53a7.12,7.12,0,0,1,14.23,0c0,2.62-3.63,7.85-6.74,11.53Zm0-18.1a6.12,6.12,0,0,0-6.11,6.11c0,2.11,3,6.67,6.11,10.43,3.11-3.75,6.12-8.32,6.12-10.43A6.12,6.12,0,0,0,33.57,3.65Z"/></g></g></svg>