<svg xmlns="http://www.w3.org/2000/svg" viewBox="0 0 26.46 28.56"><defs><style>.cls-1{fill:#c10a27;}.cls-2{fill:#fff;}</style></defs><g id="katman_2" data-name="katman 2"><g id="katman_1-2" data-name="katman 1"><path class="cls-1" d="M1.25,1.25h0a.85.85,0,0,0,0,1.2L12.48,13.68a.85.85,0,0,1,0,1.2L1.25,26.11a.85.85,0,0,0,0,1.2h0a.85.85,0,0,0,1.2,0L14.88,14.88a.85.85,0,0,0,0-1.2L2.45,1.25A.85.85,0,0,0,1.25,1.25Z"/><path class="cls-2" d="M1.85,1a.85.85,0,0,1,.6.25L14.88,13.68a.85.85,0,0,1,0,1.2L2.45,27.31a.85.85,0,0,1-.6.25.82.82,0,0,1-.6-.25.85.85,0,0,1,0-1.2L12.48,14.88a.85.85,0,0,0,0-1.2L1.25,2.45a.85.85,0,0,1,0-1.2A.82.82,0,0,1,1.85,1m0-1A1.84,1.84,0,0,0,0,1.85a1.82,1.82,0,0,0,.54,1.3L11.67,14.28.54,25.4a1.85,1.85,0,0,0,1.31,3.16A1.82,1.82,0,0,0,3.15,28L15.59,15.59a1.86,1.86,0,0,0,0-2.62L3.15.54A1.82,1.82,0,0,0,1.85,0Z"/><path class="cls-1" d="M11.58,1.25h0a.85.85,0,0,0,0,1.2L22.81,13.68a.85.85,0,0,1,0,1.2L11.58,26.11a.85.85,0,0,0,0,1.2h0a.85.85,0,0,0,1.2,0L25.21,14.88a.85.85,0,0,0,0-1.2L12.78,1.25A.85.85,0,0,0,11.58,1.25Z"/><path class="cls-2" d="M12.18,1a.85.85,0,0,1,.6.25L25.21,13.68a.85.85,0,0,1,0,1.2L12.78,27.31a.85.85,0,0,1-.6.25.82.82,0,0,1-.6-.25.85.85,0,0,1,0-1.2L22.81,14.88a.85.85,0,0,0,0-1.2L11.58,2.45a.85.85,0,0,1,0-1.2.82.82,0,0,1,.6-.25m0-1a1.85,1.85,0,0,0-1.31,3.15L22,14.28,10.87,25.4a1.86,1.86,0,0,0,0,2.62,1.85,1.85,0,0,0,2.61,0L25.91,15.59a1.84,1.84,0,0,0,0-2.62L13.48.54A1.82,1.82,0,0,0,12.18,0Z"/></g></g></svg>