<svg xmlns="http://www.w3.org/2000/svg" viewBox="0 0 26.46 28.56"><defs><style>.cls-1{fill:#c10a27;}.cls-2{fill:#fff;}</style></defs><g id="katman_2" data-name="katman 2"><g id="katman_1-2" data-name="katman 1"><path class="cls-1" d="M25.21,1.25h0a.85.85,0,0,1,0,1.2L14,13.68a.85.85,0,0,0,0,1.2L25.21,26.11a.85.85,0,0,1,0,1.2h0a.85.85,0,0,1-1.2,0L11.58,14.88a.85.85,0,0,1,0-1.2L24,1.25A.85.85,0,0,1,25.21,1.25Z"/><path class="cls-2" d="M24.61,1a.83.83,0,0,1,.6.25.85.85,0,0,1,0,1.2L14,13.68a.85.85,0,0,0,0,1.2L25.21,26.11a.85.85,0,0,1,0,1.2.83.83,0,0,1-.6.25.82.82,0,0,1-.6-.25L11.58,14.88a.85.85,0,0,1,0-1.2L24,1.25a.82.82,0,0,1,.6-.25m0-1A1.83,1.83,0,0,0,23.3.54L10.87,13a1.86,1.86,0,0,0,0,2.62L23.3,28a1.83,1.83,0,0,0,1.31.54,1.81,1.81,0,0,0,1.3-.54,1.84,1.84,0,0,0,0-2.62L14.79,14.28,25.91,3.15a1.82,1.82,0,0,0,0-2.61A1.81,1.81,0,0,0,24.61,0Z"/><path class="cls-1" d="M14.88,1.25h0a.85.85,0,0,1,0,1.2L3.64,13.68a.85.85,0,0,0,0,1.2L14.88,26.11a.85.85,0,0,1,0,1.2h0a.85.85,0,0,1-1.2,0L1.25,14.88a.85.85,0,0,1,0-1.2L13.68,1.25A.85.85,0,0,1,14.88,1.25Z"/><path class="cls-2" d="M14.28,1a.83.83,0,0,1,.6.25.85.85,0,0,1,0,1.2L3.64,13.68a.85.85,0,0,0,0,1.2L14.88,26.11a.85.85,0,0,1,0,1.2.84.84,0,0,1-1.2,0L1.25,14.88a.85.85,0,0,1,0-1.2L13.68,1.25a.83.83,0,0,1,.6-.25m0-1A1.85,1.85,0,0,0,13,.54L.54,13a1.86,1.86,0,0,0,0,2.62L13,28a1.85,1.85,0,1,0,2.62-2.62L4.46,14.28,15.59,3.15A1.85,1.85,0,0,0,14.28,0Z"/></g></g></svg>