<svg xmlns="http://www.w3.org/2000/svg" viewBox="0 0 41.55 41.55"><defs><style>.cls-1{fill:#c10a27;}.cls-2{fill:#fff;}</style></defs><g id="katman_2" data-name="katman 2"><g id="katman_1-2" data-name="katman 1"><path class="cls-1" d="M20.77,11.59a9.19,9.19,0,0,0,0,18.37,9,9,0,0,0,2.78-.43,1.58,1.58,0,0,0-1-3,5.82,5.82,0,0,1-1.82.28,6,6,0,1,1,5.78-4.32,1.58,1.58,0,0,0,3,.89A9.06,9.06,0,0,0,30,20.77,9.19,9.19,0,0,0,20.77,11.59Z"/><path class="cls-2" d="M20.77,30.46a9.68,9.68,0,1,1,9.3-7,2.08,2.08,0,0,1-4-1.17,5.45,5.45,0,0,0,.22-1.56A5.49,5.49,0,1,0,22.44,26a2.08,2.08,0,1,1,1.26,4A9.69,9.69,0,0,1,20.77,30.46Zm0-18.37a8.69,8.69,0,1,0,2.63,17,1.08,1.08,0,0,0,.7-1.36,1.05,1.05,0,0,0-.53-.64,1.09,1.09,0,0,0-.83-.07,6.52,6.52,0,1,1,4.55-6.22A6.3,6.3,0,0,1,27,22.61a1.08,1.08,0,0,0,2.08.61,8.79,8.79,0,0,0,.35-2.45A8.69,8.69,0,0,0,20.77,12.09Z"/><path class="cls-1" d="M36.3,15.23h-.8A.52.52,0,0,1,35,14.9l0,0a.55.55,0,0,1,.11-.59l.56-.56a4.76,4.76,0,0,0,0-6.72L34.55,5.88a4.76,4.76,0,0,0-6.72,0l-.56.56a.55.55,0,0,1-.59.11l0,0a.52.52,0,0,1-.33-.48v-.8A4.75,4.75,0,0,0,21.57.5H20a4.75,4.75,0,0,0-4.75,4.75v.8a.52.52,0,0,1-.33.48l0,0a.54.54,0,0,1-.58-.11l-.56-.56A4.76,4.76,0,0,0,7,5.88L5.88,7a4.76,4.76,0,0,0,0,6.72l.56.56a.53.53,0,0,1,.1.59v0a.51.51,0,0,1-.48.34h-.8A4.75,4.75,0,0,0,.5,20v1.59a4.75,4.75,0,0,0,4.75,4.75h.8a.52.52,0,0,1,.48.33l0,0a.55.55,0,0,1-.11.59l-.56.56a4.76,4.76,0,0,0,0,6.72L7,35.67a4.76,4.76,0,0,0,6.72,0l.56-.56a.54.54,0,0,1,.58-.11l0,0a.51.51,0,0,1,.34.48v.8A4.75,4.75,0,0,0,20,41.05h1.59a4.75,4.75,0,0,0,4.75-4.75v-.8a.52.52,0,0,1,.33-.48l0,0a.55.55,0,0,1,.59.11l.56.56a4.76,4.76,0,0,0,6.72,0l1.12-1.12a4.76,4.76,0,0,0,0-6.72l-.56-.56a.55.55,0,0,1-.11-.59v0a.54.54,0,0,1,.49-.34h.8a4.75,4.75,0,0,0,4.75-4.75V20A4.75,4.75,0,0,0,36.3,15.23Zm1.58,6.34a1.58,1.58,0,0,1-1.58,1.58h-.8a3.67,3.67,0,0,0-3.41,2.3v0a3.69,3.69,0,0,0,.79,4l.56.56a1.59,1.59,0,0,1,0,2.24l-1.12,1.12a1.59,1.59,0,0,1-2.24,0l-.56-.56a3.69,3.69,0,0,0-4-.79h0a3.67,3.67,0,0,0-2.3,3.41v.8a1.58,1.58,0,0,1-1.58,1.58H20A1.58,1.58,0,0,1,18.4,36.3v-.8a3.67,3.67,0,0,0-2.3-3.41h0a3.69,3.69,0,0,0-4,.79l-.56.56a1.57,1.57,0,0,1-1.12.46,1.56,1.56,0,0,1-1.12-.46L8.12,32.31a1.57,1.57,0,0,1,0-2.24l.56-.56a3.69,3.69,0,0,0,.79-4v0a3.67,3.67,0,0,0-3.41-2.3h-.8a1.58,1.58,0,0,1-1.58-1.58V20A1.58,1.58,0,0,1,5.25,18.4h.8a3.67,3.67,0,0,0,3.41-2.3v0a3.69,3.69,0,0,0-.79-4l-.56-.56a1.58,1.58,0,0,1,0-2.24L9.24,8.12a1.57,1.57,0,0,1,1.12-.47,1.58,1.58,0,0,1,1.12.47l.56.56a3.69,3.69,0,0,0,4,.79h0a3.67,3.67,0,0,0,2.3-3.41v-.8A1.58,1.58,0,0,1,20,3.67h1.59a1.58,1.58,0,0,1,1.58,1.58v.8a3.67,3.67,0,0,0,2.3,3.41h0a3.69,3.69,0,0,0,4-.79l.56-.56a1.57,1.57,0,0,1,2.24,0l1.12,1.12a1.58,1.58,0,0,1,0,2.24l-.56.56a3.7,3.7,0,0,0-.8,4l0,0a3.67,3.67,0,0,0,3.41,2.3h.8A1.58,1.58,0,0,1,37.88,20Z"/><path class="cls-2" d="M21.57,41.55H20a5.26,5.26,0,0,1-5.25-5.25v-.8l-.1,0-.56.56a5.25,5.25,0,0,1-7.43,0L5.52,34.9a5.26,5.26,0,0,1,0-7.42l.57-.57,0-.09h-.8A5.26,5.26,0,0,1,0,21.57V20a5.26,5.26,0,0,1,5.25-5.25h.8l0-.1-.57-.56a5.28,5.28,0,0,1,0-7.43L6.64,5.53a5.25,5.25,0,0,1,7.43,0l.57.56.09,0v-.8A5.26,5.26,0,0,1,20,0h1.59a5.26,5.26,0,0,1,5.25,5.25v.8l.09,0,.57-.56a5.24,5.24,0,0,1,7.42,0L36,6.65a5.24,5.24,0,0,1,0,7.42l-.56.57,0,.09h.8A5.26,5.26,0,0,1,41.55,20v1.59a5.26,5.26,0,0,1-5.25,5.25h-.8l0,.09.56.57a5.24,5.24,0,0,1,0,7.42L34.9,36a5.24,5.24,0,0,1-7.42,0l-.57-.56-.09,0v.8A5.26,5.26,0,0,1,21.57,41.55Zm-6.93-7.09a1.25,1.25,0,0,1,.42.08,1,1,0,0,1,.67,1v.8A4.26,4.26,0,0,0,20,40.55h1.59a4.26,4.26,0,0,0,4.25-4.25v-.8a1,1,0,0,1,.64-1,1.06,1.06,0,0,1,1.16.2l.56.57a4.27,4.27,0,0,0,6,0l1.12-1.12a4.27,4.27,0,0,0,0-6l-.57-.56a1.07,1.07,0,0,1,.75-1.8h.8a4.26,4.26,0,0,0,4.25-4.25V20a4.26,4.26,0,0,0-4.25-4.25h-.8a1,1,0,0,1-1-.64,1.06,1.06,0,0,1,.2-1.16l.57-.56a4.27,4.27,0,0,0,0-6L34.2,6.23a4.27,4.27,0,0,0-6,0l-.56.57a1.07,1.07,0,0,1-1.8-.75v-.8A4.26,4.26,0,0,0,21.57,1H20a4.26,4.26,0,0,0-4.25,4.25v.8a1,1,0,0,1-.65,1,1,1,0,0,1-1.15-.2l-.57-.57a4.26,4.26,0,0,0-6,0L6.23,7.35a4.26,4.26,0,0,0,0,6l.56.56A1,1,0,0,1,7,15.06a1,1,0,0,1-1,.67h-.8A4.26,4.26,0,0,0,1,20v1.59a4.26,4.26,0,0,0,4.25,4.25h.8a1.07,1.07,0,0,1,.74,1.8l-.56.56a4.27,4.27,0,0,0,0,6l1.12,1.12a4.26,4.26,0,0,0,6,0l.57-.57A1,1,0,0,1,14.64,34.46Zm6.93,3.92H20A2.08,2.08,0,0,1,17.9,36.3v-.8a3.24,3.24,0,0,0-5.5-2.28l-.57.56a2.13,2.13,0,0,1-2.95,0L7.76,32.66a2.06,2.06,0,0,1-.61-1.47,2,2,0,0,1,.62-1.47l.56-.57a3.24,3.24,0,0,0-2.28-5.5h-.8a2.08,2.08,0,0,1-2.08-2.08V20A2.08,2.08,0,0,1,5.25,17.9h.8a3.24,3.24,0,0,0,2.28-5.5l-.57-.57a2.06,2.06,0,0,1-.61-1.47,2.11,2.11,0,0,1,.61-1.48L8.88,7.76a2.15,2.15,0,0,1,2.95,0l.57.57a3.24,3.24,0,0,0,5.5-2.28v-.8A2.08,2.08,0,0,1,20,3.17h1.59a2.08,2.08,0,0,1,2.08,2.08v.8a3.24,3.24,0,0,0,5.5,2.28l.57-.57a2.14,2.14,0,0,1,2.94,0l1.12,1.12a2.06,2.06,0,0,1,.61,1.48,2,2,0,0,1-.61,1.47l-.56.57a3.16,3.16,0,0,0-.68,3.48,3.2,3.2,0,0,0,3,2h.8A2.08,2.08,0,0,1,38.38,20v1.59a2.08,2.08,0,0,1-2.08,2.08h-.8a3.24,3.24,0,0,0-2.28,5.5l.56.57a2,2,0,0,1,.61,1.47,2.06,2.06,0,0,1-.61,1.48l-1.12,1.11a2.12,2.12,0,0,1-2.94,0l-.57-.56a3.24,3.24,0,0,0-5.5,2.28v.8A2.08,2.08,0,0,1,21.57,38.38Zm-6.93-7.09A4.28,4.28,0,0,1,18.9,35.5v.8A1.08,1.08,0,0,0,20,37.38h1.59a1.09,1.09,0,0,0,1.08-1.08v-.8a4.24,4.24,0,0,1,7.21-3l.56.57a1.12,1.12,0,0,0,1.54,0L33.08,32a1.11,1.11,0,0,0,.31-.77,1.07,1.07,0,0,0-.31-.76l-.57-.57a4.24,4.24,0,0,1,3-7.21h.8a1.09,1.09,0,0,0,1.08-1.08V20A1.08,1.08,0,0,0,36.3,18.9h-.8a4.24,4.24,0,0,1-3-7.21l.57-.56a1.11,1.11,0,0,0,0-1.54L32,8.47a1.12,1.12,0,0,0-1.54,0L29.86,9a4.24,4.24,0,0,1-7.21-3v-.8a1.08,1.08,0,0,0-1.08-1.08H20A1.08,1.08,0,0,0,18.9,5.25v.8a4.24,4.24,0,0,1-7.21,3l-.57-.57a1.11,1.11,0,0,0-1.53,0L8.47,9.59a1.09,1.09,0,0,0,0,1.54l.57.56a4.24,4.24,0,0,1-3,7.21h-.8A1.08,1.08,0,0,0,4.17,20v1.59a1.08,1.08,0,0,0,1.08,1.08h.8a4.24,4.24,0,0,1,3,7.21l-.57.56a1.09,1.09,0,0,0,0,1.54l1.12,1.12a1.11,1.11,0,0,0,1.53,0l.57-.57A4.15,4.15,0,0,1,14.64,31.29Z"/></g></g></svg>