<svg xmlns="http://www.w3.org/2000/svg" viewBox="0 0 43.5 43.5"><defs><style>.cls-1{fill:#fff;}.cls-2{fill:#c10a27;}</style></defs><g id="katman_2" data-name="katman 2"><g id="katman_1-2" data-name="katman 1"><path class="cls-1" d="M40.82,30.1H25.05a.72.72,0,1,1,0-1.39H40.82a.72.72,0,1,1,0,1.39Z"/><path class="cls-1" d="M18.45,30.1H2.59a.72.72,0,1,1,0-1.39H18.45a.72.72,0,1,1,0,1.39Z"/><path class="cls-1" d="M40.52,35.37H2.75a.71.71,0,1,1,0-1.39H40.52a.71.71,0,1,1,0,1.39Z"/><path class="cls-1" d="M21.75,27a1.67,1.67,0,1,1,1.67-1.67A1.67,1.67,0,0,1,21.75,27Zm0-2.23a.56.56,0,1,0,.56.56A.56.56,0,0,0,21.75,24.81Z"/><path class="cls-1" d="M21.75,28.15a.56.56,0,0,1-.56-.55V26.48a.56.56,0,0,1,1.12,0V27.6A.56.56,0,0,1,21.75,28.15Z"/><path class="cls-1" d="M26.41,15.83l-.21,0h0a.63.63,0,0,1,.29-1.22h0l.18.07a.62.62,0,0,1-.28,1.18Z"/><path class="cls-1" d="M17,15.59A.63.63,0,0,1,16.4,15a.63.63,0,0,1,.49-.68,20.44,20.44,0,0,1,6.8-.3.63.63,0,0,1-.16,1.24,19.2,19.2,0,0,0-6.37.28Z"/><path class="cls-1" d="M34,20.31a.72.72,0,0,1-.32-.08L23.13,14a.6.6,0,0,1-.3-.62.63.63,0,0,1,.46-.52l3.06-.79a.64.64,0,0,1,.47.07l2.39,1.41h0l4.31,2.55a.59.59,0,0,1,.29.38l.79,3.05a.62.62,0,0,1-.61.78Zm-8.93-6.62,8,4.69-.35-1.33-2.16-1.28h0l-4.09-2.42Z"/><path class="cls-1" d="M28.52,20.78a.62.62,0,0,1-.59-.41.64.64,0,0,1,.18-.7l2.31-1.91-.62-2.42-.69-.41-.06,0-2.87-1.7a.63.63,0,0,1,.64-1.08l2.83,1.67.05,0,1,.57a.66.66,0,0,1,.29.38l.78,3a.63.63,0,0,1-.21.64l-2.6,2.17A.67.67,0,0,1,28.52,20.78Z"/><path class="cls-1" d="M25.37,20.78h-.12a.62.62,0,0,1-.5-.73l1-5a.61.61,0,0,1,.45-.49l3-.79a.63.63,0,0,1,.48.07l3.83,2.27a.61.61,0,0,1,.22.85.62.62,0,0,1-.86.22L29.28,15l-2.41.62L26,20.27A.62.62,0,0,1,25.37,20.78Z"/><path class="cls-1" d="M24.34,20.78a.62.62,0,0,1-.62-.54l-.89-6.7a.62.62,0,0,1,.54-.69.61.61,0,0,1,.7.52l.89,6.7a.65.65,0,0,1-.15.5A.64.64,0,0,1,24.34,20.78Z"/><path class="cls-1" d="M32.81,20.78a.63.63,0,0,1-.23-1.21l1.19-.46a.64.64,0,0,1,.81.36.62.62,0,0,1-.35.8L33,20.74A.59.59,0,0,1,32.81,20.78Z"/><path class="cls-1" d="M19.07,20.78H19a.63.63,0,0,1-.5-.73l.49-2.63-3.3-2.81L11.56,16l-.78,4.22a.63.63,0,0,1-.41.48.61.61,0,0,1-.61-.11A.63.63,0,0,1,9.55,20l.84-4.58A.64.64,0,0,1,10.8,15l4.76-1.68a.63.63,0,0,1,.62.11L20,16.69a.63.63,0,0,1,.21.59l-.55,3A.62.62,0,0,1,19.07,20.78Z"/><path class="cls-1" d="M16.51,20.78H16.4a.63.63,0,0,1-.51-.73l.31-1.66-1.09-.94-1.36.48-.26,1.42.4.34a.63.63,0,0,1,.07.88.64.64,0,0,1-.89.07l-.67-.57a.62.62,0,0,1-.22-.48.49.49,0,0,1,0-.12l.39-2.12a.66.66,0,0,1,.41-.48l2-.72a.64.64,0,0,1,.62.12l1.6,1.38a.52.52,0,0,1,.11.1.63.63,0,0,1,.14.51l-.38,2A.62.62,0,0,1,16.51,20.78Z"/><path class="cls-1" d="M13.07,18.12a.63.63,0,0,1-.43-.17L10.58,16a.63.63,0,1,1,.85-.92L13.5,17a.63.63,0,0,1-.43,1.09Z"/><path class="cls-1" d="M11.18,20.78A.63.63,0,0,1,11,19.56L12.6,19a.63.63,0,0,1,.79.38.64.64,0,0,1-.37.8l-1.63.57A.52.52,0,0,1,11.18,20.78Z"/><path class="cls-1" d="M16.88,18.76a.62.62,0,0,1-.21-1.21l2.74-1a.63.63,0,0,1,.78.39.63.63,0,0,1-.37.8l-2.73,1A.76.76,0,0,1,16.88,18.76Z"/><path class="cls-1" d="M15.43,17.29h-.07a.59.59,0,0,1-.42-.24.63.63,0,0,1-.13-.46l.34-2.76a.62.62,0,0,1,.7-.55.62.62,0,0,1,.54.7l-.34,2.77A.62.62,0,0,1,15.43,17.29Z"/><path class="cls-2" d="M42.63,9.23A8.36,8.36,0,0,0,34.28.88h-25A8.35,8.35,0,0,0,.88,9.23v.69a.76.76,0,0,0,.05.27h0L5.38,20.36H3.06A2.07,2.07,0,0,0,1,22.59l1.2,18.09a2.11,2.11,0,0,0,2.08,2h35a2.11,2.11,0,0,0,2.08-2l1.2-18.09a2.07,2.07,0,0,0-2.08-2.23H38.12L42.57,10.2h0a.88.88,0,0,0,.06-.28Zm-33.4-7H34.28a7,7,0,0,1,6.95,7h-39A7,7,0,0,1,9.23,2.27ZM41,22a.72.72,0,0,1,.19.52L39.93,40.58a.69.69,0,0,1-.69.65h-35a.69.69,0,0,1-.69-.65L2.36,22.49A.72.72,0,0,1,2.55,22a.7.7,0,0,1,.51-.22H16.88v4.87a4.87,4.87,0,1,0,9.74,0V21.75H40.44A.7.7,0,0,1,41,22Zm-15.72-.22v4.87a3.48,3.48,0,0,1-7,0V21.75Zm.7-1.39H6.9L2.63,10.62H40.87L36.6,20.36Z"/><path class="cls-1" d="M34.28.88a8.36,8.36,0,0,1,8.35,8.35v.69a.88.88,0,0,1-.06.28h0L38.12,20.36h2.32a2.07,2.07,0,0,1,2.08,2.23l-1.2,18.09a2.11,2.11,0,0,1-2.08,2h-35a2.11,2.11,0,0,1-2.08-2L1,22.59a2.07,2.07,0,0,1,2.08-2.23H5.38L.93,10.2h0a.76.76,0,0,1-.05-.27V9.23A8.35,8.35,0,0,1,9.23.88H34.28m-32,8.35h39a7,7,0,0,0-6.95-7h-25a7,7,0,0,0-7,7M6.9,20.36H36.6l4.27-9.74H2.63L6.9,20.36M4.26,41.23h35a.69.69,0,0,0,.69-.65l1.21-18.09A.72.72,0,0,0,41,22a.69.69,0,0,0-.51-.22H26.62v4.87a4.87,4.87,0,1,1-9.74,0V21.75H3.06a.7.7,0,0,0-.51.22.72.72,0,0,0-.19.52L3.57,40.58a.69.69,0,0,0,.69.65M21.75,30.1a3.48,3.48,0,0,0,3.48-3.48V21.75h-7v4.87a3.48,3.48,0,0,0,3.48,3.48M34.28,0h-25A9.25,9.25,0,0,0,0,9.22v.7a1.56,1.56,0,0,0,.11.57v0l3.92,9h-1a3,3,0,0,0-3,3.16l1.21,18.1A3,3,0,0,0,4.26,43.5h35a3,3,0,0,0,2.95-2.76l1.21-18.1a3,3,0,0,0-3-3.16h-1l3.91-8.93a1.51,1.51,0,0,0,.13-.63V9.23A9.25,9.25,0,0,0,34.28,0ZM3.21,8.35a6.1,6.1,0,0,1,6-5.21H34.28a6.09,6.09,0,0,1,6,5.21ZM4,11.49H39.53l-3.5,8H7.47l-3.5-8Zm.46,28.87L3.25,22.63H16v4a5.75,5.75,0,1,0,11.5,0v-4H40.25L39.07,40.36ZM21.75,29.23a2.6,2.6,0,0,1-2.6-2.61v-4h5.2v4a2.6,2.6,0,0,1-2.6,2.61Z"/></g></g></svg>