<svg xmlns="http://www.w3.org/2000/svg" viewBox="0 0 412.57 105.63"><defs><style>.cls-1,.cls-2{fill:#c10a27;}.cls-2,.cls-5{fill-rule:evenodd;}.cls-3,.cls-5{fill:#1d1d1b;}.cls-4{fill:none;}.cls-6{fill:#fff;}</style></defs><g id="katman_2" data-name="katman 2"><g id="katman_1-2" data-name="katman 1"><rect class="cls-1" x="147.08" y="25.99" width="133.74" height="32.2"/><path class="cls-2" d="M113.8,37.64c2.48,4.61,3.94,14.22,4.3,20.49h-38a30.28,30.28,0,0,0-2.58-7.91ZM102.73,19.79c4.33,5,8.58,11.07,10.36,15.37L76.65,48.51A27.54,27.54,0,0,0,71.71,42ZM86,7.61a69.48,69.48,0,0,1,15,10.55L70.14,40.61a23.67,23.67,0,0,0-6.26-3.71ZM66.37,1a69.4,69.4,0,0,1,17.36,5.5L61.88,36.25A29.12,29.12,0,0,0,55,35.08ZM46.92.68C48.76.43,50.63.24,52.61.11A52.36,52.36,0,0,1,64.26.64L53.05,35a29.85,29.85,0,0,0-6.13.65ZM29,5.46A64.64,64.64,0,0,1,44.91,1V36.17a23.59,23.59,0,0,0-4.73,2ZM14.43,15.15A47.45,47.45,0,0,1,27.12,6.32L38.64,39.1a21.21,21.21,0,0,0-3.78,3.19ZM5.14,28.22a46.72,46.72,0,0,1,7.74-11.47L33.53,43.84l-.34.44a14.7,14.7,0,0,0-1.52,2.95ZM.56,43.31a54.43,54.43,0,0,1,3.63-13L31,49.13a27.71,27.71,0,0,0-.79,3.74ZM.37,57.46A62.61,62.61,0,0,1,0,50.58a37.83,37.83,0,0,1,.27-5.14L30,54.72C30,55.58,30,56.1,30,56.1A17.67,17.67,0,0,0,30.14,58ZM3.72,71A47.09,47.09,0,0,1,.67,59.79H30.45c.15.66.33,1.38.58,2.13ZM11,82.57A39.37,39.37,0,0,1,4.61,73l27.13-9.24a16.46,16.46,0,0,0,1.69,3Zm10.48,8.27a42.56,42.56,0,0,1-8.93-6.66L34.71,68.26a13.18,13.18,0,0,0,2.22,1.86Zm12.28,4.89a51.4,51.4,0,0,1-10.55-4L38.48,71a14.85,14.85,0,0,0,2.33.89Zm11.44,1.18c-1.29.09-2.63.13-4,.13a40.67,40.67,0,0,1-5.57-.86l6.92-23.91a19.07,19.07,0,0,0,2.6.26ZM57,94.58a42.18,42.18,0,0,1-9.58,2.14l-.47-24.2A16.5,16.5,0,0,0,49,72.27ZM66.65,89A29.82,29.82,0,0,1,59,93.77l-8.09-22a11.54,11.54,0,0,0,2.18-1Zm6.93-8.87a29.32,29.32,0,0,1-5.32,7.38L54.66,69.61a10.5,10.5,0,0,0,2-2.54Zm3.32-10a37.18,37.18,0,0,1-2.34,7.94L57.35,65.79a14.61,14.61,0,0,0,.81-2.45Zm.4-9.9a32.14,32.14,0,0,1,.16,3.3,28.55,28.55,0,0,1-.21,4.18L58.44,61.81a15.75,15.75,0,0,0,.15-2.09Zm-2.54-9.06a25.63,25.63,0,0,1,2.25,7H58.45c-.07-.39-.16-.86-.29-1.39Zm-5.63-7.31a23.17,23.17,0,0,1,4.74,5.66L57.72,55.21a18.25,18.25,0,0,0-1-2.47Zm-7.27-4.29a24.69,24.69,0,0,1,5.62,3L55.72,51.09a12.48,12.48,0,0,0-1.32-1.62ZM54,38a25.55,25.55,0,0,1,5.92.94L53,48.26A10.12,10.12,0,0,0,51,47.06Zm-7.09.84A27.49,27.49,0,0,1,52.08,38l-2.77,8.47a13.13,13.13,0,0,0-2.39-.38ZM41.15,41a23.94,23.94,0,0,1,3.76-1.62v6.7a15.57,15.57,0,0,0-1.95.21Zm-4.52,3.16a17.3,17.3,0,0,1,3-2.28l1.68,4.79a10.83,10.83,0,0,0-2.32,1Z"/><path class="cls-3" d="M176.91,72.87V78h-3.46V93.93a16.81,16.81,0,0,1-.57,4.55,10.25,10.25,0,0,1-6.25,6.43,14.64,14.64,0,0,1-4.61.72,15.56,15.56,0,0,1-4.46-.63,9,9,0,0,1-3.82-2.34,9.65,9.65,0,0,1-2.57-4.11,17.32,17.32,0,0,1-.63-4.8V78h-3.46V72.87h12.51V78h-2.93V93.12a19.93,19.93,0,0,0,.14,2.32,5,5,0,0,0,.81,2.18,4.82,4.82,0,0,0,1.93,1.69,5.79,5.79,0,0,0,4.77.09,4.95,4.95,0,0,0,2.84-3.76,17.8,17.8,0,0,0,.18-2.52V78H164.4V72.87Z"/><polygon class="cls-3" points="208.95 105 203.24 105 188.12 83.85 188.12 99.87 191.63 99.87 191.63 105 178.53 105 178.53 99.87 182 99.87 182 78 178.53 78 178.53 72.87 187.53 72.87 202.83 94.38 202.83 78 199.32 78 199.32 72.87 212.42 72.87 212.42 78 208.95 78 208.95 105"/><polygon class="cls-3" points="224.16 99.87 227.63 99.87 227.63 105 214.53 105 214.53 99.87 218.04 99.87 218.04 78 214.53 78 214.53 72.87 227.63 72.87 227.63 78 224.16 78 224.16 99.87"/><polygon class="cls-3" points="248.55 105 241.85 105 232.62 78 229.16 78 229.16 72.87 242.16 72.87 242.16 78 239.1 78 245.45 96.54 252.24 78 249.14 78 249.14 72.87 261.78 72.87 261.78 78 258.36 78 248.55 105"/><polygon class="cls-3" points="263.13 99.87 266.64 99.87 266.64 78 263.13 78 263.13 72.87 286.94 72.87 286.94 82.55 280.81 82.55 280.81 78.36 272.76 78.36 272.76 86.37 282.12 86.37 282.12 91.14 272.76 91.14 272.76 99.65 280.81 99.65 280.81 95.28 286.94 95.28 286.94 105 263.13 105 263.13 99.87"/><path class="cls-3" d="M292.7,78h-3.47V72.87h14.35a22.43,22.43,0,0,1,4.46.43,8.88,8.88,0,0,1,4,2,10.75,10.75,0,0,1,2.86,3.8,11.47,11.47,0,0,1,1,4.66,10.48,10.48,0,0,1-.56,3.42,10.23,10.23,0,0,1-1.6,3,8.84,8.84,0,0,1-2.49,2.23,7.34,7.34,0,0,1-3.31,1l5,6.39h3.64V105H309L298.81,90.56v9.31h2.75V105H289.23V99.87h3.47Zm9.44,12a18.05,18.05,0,0,0,2.79-.2,5.66,5.66,0,0,0,2.57-1.1,5.57,5.57,0,0,0,1.64-2.07,6.06,6.06,0,0,0,0-5.09,5.2,5.2,0,0,0-1.57-2,4.13,4.13,0,0,0-2.14-1,19.81,19.81,0,0,0-2.41-.14h-4.23V90Z"/><path class="cls-3" d="M323.74,95.46a5.45,5.45,0,0,0,.34,1.89,4.94,4.94,0,0,0,.95,1.58,4.16,4.16,0,0,0,1.48,1,4.89,4.89,0,0,0,2,.39,5,5,0,0,0,3.38-1.17A4.06,4.06,0,0,0,333.24,96a3.52,3.52,0,0,0-.52-2,4.39,4.39,0,0,0-1.3-1.31,7.51,7.51,0,0,0-1.76-.83c-.64-.21-1.28-.41-1.91-.59-1.17-.33-2.27-.68-3.28-1.06a11.38,11.38,0,0,1-3-1.68,8.3,8.3,0,0,1-3.51-7,8.64,8.64,0,0,1,.79-3.69,9,9,0,0,1,2.14-3,10.08,10.08,0,0,1,6.79-2.63,8.66,8.66,0,0,1,3.17.58,6,6,0,0,1,2.55,1.89v-1.8h4.68v8.64h-5.5a4.22,4.22,0,0,0-1.21-3,4,4,0,0,0-3-1.19,4.65,4.65,0,0,0-3.08,1.06,4.05,4.05,0,0,0-.81,4.88,4,4,0,0,0,1.23,1.26,7.27,7.27,0,0,0,1.69.79l1.87.56c1.26.33,2.46.7,3.6,1.12a13.06,13.06,0,0,1,3.28,1.8,8.2,8.2,0,0,1,2.39,3,8.71,8.71,0,0,1,.81,3.75,10.38,10.38,0,0,1-.77,4,9.57,9.57,0,0,1-5.33,5.31,10.61,10.61,0,0,1-4.07.76,8.86,8.86,0,0,1-3.44-.65,6.88,6.88,0,0,1-2.72-2.09V105h-4.87V95.46Z"/><polygon class="cls-3" points="351.06 99.87 354.52 99.87 354.52 105 341.43 105 341.43 99.87 344.94 99.87 344.94 78 341.43 78 341.43 72.87 354.52 72.87 354.52 78 351.06 78 351.06 99.87"/><polygon class="cls-3" points="372.34 99.87 375.85 99.87 375.85 105 362.71 105 362.71 99.87 366.23 99.87 366.23 78.32 361.5 78.32 361.5 83 356.64 83 356.64 72.87 381.93 72.87 381.93 83 377.07 83 377.07 78.32 372.34 78.32 372.34 99.87"/><polygon class="cls-3" points="400.92 99.87 404.43 99.87 404.43 105 391.33 105 391.33 99.87 394.8 99.87 394.8 93.8 386.29 78 383.06 78 383.06 72.87 395.48 72.87 395.48 78 392.5 78 397.9 88.62 403.26 78 400.2 78 400.2 72.87 412.57 72.87 412.57 78 409.38 78 400.92 93.8 400.92 99.87"/><rect class="cls-4" width="412.57" height="105.63"/><polygon class="cls-5" points="318.34 53.05 315.49 53.05 303.42 41.68 314.9 31.13 317.66 31.13 317.66 25.99 304.37 25.99 304.37 31.13 307.27 31.13 297.28 40.56 297.28 31.13 300.76 31.13 300.76 25.99 287.61 25.99 287.61 31.13 291.13 31.13 291.13 53.05 287.61 53.05 287.61 58.19 300.76 58.19 300.76 53.05 297.28 53.05 297.28 43.08 307.76 53.05 304.6 53.05 304.6 58.19 318.34 58.19 318.34 53.05"/><path class="cls-5" d="M333.79,58.86a16.84,16.84,0,1,0-16.9-16.77,16.93,16.93,0,0,0,16.9,16.77m0-6.13a10.71,10.71,0,1,1,10.62-10.87,10.64,10.64,0,0,1-10.62,10.87"/><path class="cls-3" d="M385.06,47.59h-6.65a10.63,10.63,0,0,1-19.56-5.73,10.34,10.34,0,0,1,10.57-10.64,10.54,10.54,0,0,1,8.91,4.92h5.87V25.85h-5.06V29.1a13.71,13.71,0,0,0-10-4,16.68,16.68,0,0,0-16.49,16.69,17.06,17.06,0,0,0,4.88,12,17.39,17.39,0,0,0,8.84,4.66V64h5.81V58.56a16.76,16.76,0,0,0,12.87-11"/><path class="cls-6" d="M182.8,48.9a5.16,5.16,0,0,0,10.28-.59c0-3.34-2.53-5.37-5.68-5.37h-1.22l-.27.05V38.3h1.26c2.66,0,5-1.13,5-4.15a3.87,3.87,0,0,0-4.06-4,3.79,3.79,0,0,0-3.92,3.74h-5.55c0-5.27,4.64-8.75,9.6-8.75s9.38,3.25,9.38,8.44a7.48,7.48,0,0,1-3.74,6.62,8.76,8.76,0,0,1,5.5,8.3,10.11,10.11,0,0,1-3.34,7.31,10.7,10.7,0,0,1-7.8,3c-5.86,0-11.22-3.66-11.54-9.92Z"/><path class="cls-6" d="M220.53,26l-7.48,10.69a5.15,5.15,0,0,1,2.84-.72c5.91,0,10.19,5.32,10.19,10.95a11.78,11.78,0,0,1-11.9,11.91,12.73,12.73,0,0,1-8.35-3.43,12.57,12.57,0,0,1-3.51-8.75c0-3.06,1.17-5.45,2.84-7.93L213.82,26Zm-.27,21.15a6,6,0,1,0-6,5.86A6,6,0,0,0,220.26,47.14Z"/><path class="cls-6" d="M251.82,46.46c0,3.47-.54,6-3,8.57a11.72,11.72,0,0,1-16.82.45c-2.79-2.61-3.42-5.27-3.42-9v-9c0-3.47.49-6,3-8.56a11.81,11.81,0,0,1,16.82-.45c2.8,2.61,3.47,5.27,3.47,9Zm-17.22.09a7.42,7.42,0,0,0,1,4.6,5.81,5.81,0,0,0,9.29-.31,7.84,7.84,0,0,0,.85-4.29V37.44a7.22,7.22,0,0,0-1.08-4.6,5.35,5.35,0,0,0-4.51-2.2,5.4,5.4,0,0,0-4.73,2.52,7.4,7.4,0,0,0-.86,4.28Z"/><path class="cls-6" d="M254,32.62a7.54,7.54,0,0,1,15.07-.09,7.54,7.54,0,1,1-15.07.09Zm7.49,4.06a4,4,0,1,0-3.92-4.06A4,4,0,0,0,261.47,36.68Z"/></g></g></svg>