<svg xmlns="http://www.w3.org/2000/svg" viewBox="0 0 29.76 29.76"><defs><style>.cls-1{fill:#c10a27;}.cls-2{fill:#fff;}</style></defs><g id="katman_2" data-name="katman 2"><g id="katman_1-2" data-name="katman 1"><path class="cls-1" d="M16.08,14.88,28.51,2.45a.85.85,0,1,0-1.2-1.2L14.88,13.68,2.45,1.25a.85.85,0,0,0-1.2,1.2L13.68,14.88,1.25,27.31a.85.85,0,0,0,1.2,1.2L14.88,16.08,27.31,28.51a.85.85,0,0,0,1.2-1.2Z"/><path class="cls-2" d="M27.91,1a.83.83,0,0,1,.6.25.85.85,0,0,1,0,1.2L16.08,14.88,28.51,27.31a.85.85,0,0,1,0,1.2.85.85,0,0,1-1.2,0L14.88,16.08,2.45,28.51a.89.89,0,0,1-.6.25.85.85,0,0,1-.6-1.45L13.68,14.88,1.25,2.45a.85.85,0,0,1,0-1.2A.82.82,0,0,1,1.85,1a.85.85,0,0,1,.6.25L14.88,13.68,27.31,1.25a.83.83,0,0,1,.6-.25m0-1A1.85,1.85,0,0,0,26.6.54L14.88,12.27,3.15.54A1.85,1.85,0,0,0,.54.54a1.85,1.85,0,0,0,0,2.61L12.27,14.88.54,26.6a1.86,1.86,0,0,0,0,2.62,1.87,1.87,0,0,0,1.31.54,1.83,1.83,0,0,0,1.3-.55L14.88,17.49,26.6,29.22a1.86,1.86,0,0,0,2.62,0,1.86,1.86,0,0,0,0-2.62L17.49,14.88,29.22,3.15A1.85,1.85,0,0,0,27.91,0Z"/></g></g></svg>