<svg xmlns="http://www.w3.org/2000/svg" viewBox="0 0 47.95 45.62"><defs><style>.cls-1{fill:#c10a27;}.cls-2{fill:#fff;}</style></defs><g id="katman_2" data-name="katman 2"><g id="katman_1-2" data-name="katman 1"><path class="cls-1" d="M1.92,26.06a1.42,1.42,0,0,0,1.41-1.42V13.57a.38.38,0,0,1,.38-.37H10.5a1.42,1.42,0,1,0,0-2.83H3.71A3.21,3.21,0,0,0,.5,13.57V24.64A1.42,1.42,0,0,0,1.92,26.06Z"/><path class="cls-2" d="M1.92,26.56A1.92,1.92,0,0,1,0,24.64V13.57a3.71,3.71,0,0,1,3.71-3.7H10.5a1.92,1.92,0,1,1,0,3.83H3.83V24.64A1.92,1.92,0,0,1,1.92,26.56ZM3.71,10.87A2.7,2.7,0,0,0,1,13.57V24.64a.92.92,0,1,0,1.83,0V13.57a.87.87,0,0,1,.88-.87H10.5a.92.92,0,1,0,0-1.83Z"/><path class="cls-1" d="M46,21.56a1.41,1.41,0,0,0,1.41-1.41V13.57a3.21,3.21,0,0,0-3.21-3.2H38.57V9a5,5,0,1,0-7.13,0v1.36H25.77a3.15,3.15,0,0,0-1.79.55,3.21,3.21,0,0,0-1.8-.55H15.71a1.42,1.42,0,0,0,0,2.83h6.47a.38.38,0,0,1,.38.37v6.19a2.32,2.32,0,0,0,2.31,2.32h2.21a2.19,2.19,0,0,0,1.59-.75,2.11,2.11,0,0,1,1.74-.68,2.16,2.16,0,0,1,2,2,2.2,2.2,0,0,1-.59,1.66,2.34,2.34,0,0,1-3.27-.12A2.28,2.28,0,0,0,27,23.55h-2.1a2.31,2.31,0,0,0-2.31,2.31v6.19a.38.38,0,0,1-.38.38H16.51V31.07a5,5,0,1,0-7.13,0v1.36H3.71a.38.38,0,0,1-.38-.38V30.47a1.42,1.42,0,1,0-2.83,0v1.58a3.21,3.21,0,0,0,3.21,3.21H9.9a2.32,2.32,0,0,0,2.31-2.32v-2.2a2.21,2.21,0,0,0-.75-1.59,2.17,2.17,0,0,1,1.33-3.75,2.08,2.08,0,0,1,1.64.58,2.16,2.16,0,0,1,0,3.13,2.4,2.4,0,0,0-.79,1.72v2.11A2.32,2.32,0,0,0,16,35.26h6.18a3.29,3.29,0,0,0,1.8-.55,3.23,3.23,0,0,0,1.79.55h5.67v1.35a5,5,0,0,0,3.62,8.51,4.92,4.92,0,0,0,4.45-2.77,5,5,0,0,0-.94-5.74V35.26h5.67a3.21,3.21,0,0,0,3.21-3.21V26.39a1.42,1.42,0,1,0-2.83,0v5.66a.38.38,0,0,1-.38.38H38.06a2.31,2.31,0,0,0-2.32,2.31v2.2a2.23,2.23,0,0,0,.75,1.6,2.15,2.15,0,0,1,.68,1.74,2.17,2.17,0,0,1-2,2,2.12,2.12,0,0,1-1.63-.58,2.15,2.15,0,0,1-.7-1.59,2.19,2.19,0,0,1,.65-1.55,2.4,2.4,0,0,0,.79-1.72V34.74A2.31,2.31,0,0,0,32,32.43H25.77a.38.38,0,0,1-.38-.38V26.38h1.36a5,5,0,1,0,0-7.14H25.39V13.57a.38.38,0,0,1,.38-.37H32a2.32,2.32,0,0,0,2.31-2.32V8.77a2.4,2.4,0,0,0-.79-1.72,2.19,2.19,0,0,1-.65-1.55,2.11,2.11,0,0,1,.7-1.58,2.07,2.07,0,0,1,1.63-.58,2.17,2.17,0,0,1,1.33,3.75,2.21,2.21,0,0,0-.75,1.59v2.2a2.32,2.32,0,0,0,2.32,2.32h6.18a.38.38,0,0,1,.38.37v6.58A1.42,1.42,0,0,0,46,21.56Z"/><path class="cls-2" d="M35.07,45.62a5.5,5.5,0,0,1-4.13-9.21v-.65H25.77A3.63,3.63,0,0,1,24,35.29a3.66,3.66,0,0,1-1.8.47H16a2.82,2.82,0,0,1-2.82-2.82V30.83a2.9,2.9,0,0,1,.94-2.07,1.68,1.68,0,0,0,.5-1.2,1.66,1.66,0,0,0-.53-1.22,1.6,1.6,0,0,0-1.26-.44,1.66,1.66,0,0,0-1.55,1.54,1.64,1.64,0,0,0,.52,1.34,2.69,2.69,0,0,1,.91,2v2.2A2.81,2.81,0,0,1,9.9,35.76H3.71A3.72,3.72,0,0,1,0,32.05V30.47a1.92,1.92,0,1,1,3.83,0v1.46H8.88v-.66a5.5,5.5,0,1,1,9.57-3.71A5.55,5.55,0,0,1,17,31.27v.66h5V25.86a2.81,2.81,0,0,1,2.81-2.81H27a2.79,2.79,0,0,1,1.93.77,1.84,1.84,0,0,0,2.56.15,1.68,1.68,0,0,0-1.08-2.83,1.64,1.64,0,0,0-1.34.53,2.71,2.71,0,0,1-2,.91H24.87a2.82,2.82,0,0,1-2.81-2.82V13.7H15.71a1.92,1.92,0,0,1,0-3.83h6.47a3.65,3.65,0,0,1,1.8.46,3.62,3.62,0,0,1,1.79-.46h5.17V9.21a5.51,5.51,0,1,1,8.13,0v.66h5.17A3.71,3.71,0,0,1,48,13.57v6.58a1.92,1.92,0,0,1-3.83,0V13.7H38.06a2.82,2.82,0,0,1-2.82-2.82V8.68a2.73,2.73,0,0,1,.91-2,1.64,1.64,0,0,0,.52-1.34,1.66,1.66,0,0,0-1.54-1.54,1.55,1.55,0,0,0-1.26.44,1.66,1.66,0,0,0,0,2.41,2.9,2.9,0,0,1,.94,2.08v2.11A2.82,2.82,0,0,1,32,13.7H25.89v5h.66a5.65,5.65,0,0,1,4.08-1.42,5.53,5.53,0,0,1,5.11,5.1,5.46,5.46,0,0,1-1.46,4.15,5.52,5.52,0,0,1-7.73.31h-.66v5.05H32a2.81,2.81,0,0,1,2.81,2.81v2.11a2.9,2.9,0,0,1-.94,2.08,1.66,1.66,0,0,0-.5,1.19,1.63,1.63,0,0,0,.54,1.22,1.67,1.67,0,0,0,2.28-2.44,2.71,2.71,0,0,1-.91-2v-2.2a2.81,2.81,0,0,1,2.82-2.81h6.06V26.39a1.92,1.92,0,1,1,3.83,0v5.66a3.72,3.72,0,0,1-3.71,3.71H39.07v.65A5.55,5.55,0,0,1,40,42.56,5.41,5.41,0,0,1,35.07,45.62ZM24,34.1l.28.19a2.64,2.64,0,0,0,1.51.47h6.17v2.06l-.15.14a4.5,4.5,0,0,0,3.27,7.66,4.39,4.39,0,0,0,4-2.48A4.56,4.56,0,0,0,38.22,37l-.15-.14V34.76h6.17A2.71,2.71,0,0,0,47,32.05V26.39a.92.92,0,1,0-1.83,0v5.66a.88.88,0,0,1-.88.88H38.06a1.82,1.82,0,0,0-1.82,1.81v2.2a1.71,1.71,0,0,0,.59,1.23,2.67,2.67,0,0,1-1.64,4.61,2.62,2.62,0,0,1-2-.71,2.66,2.66,0,0,1-.85-2,2.7,2.7,0,0,1,.8-1.91,1.91,1.91,0,0,0,.64-1.36V34.74A1.81,1.81,0,0,0,32,32.93H25.77a.89.89,0,0,1-.88-.88V25.88H27l.15.14a4.5,4.5,0,1,0,0-6.42l-.15.14H24.89V13.57a.88.88,0,0,1,.88-.87H32a1.82,1.82,0,0,0,1.81-1.82V8.77a1.91,1.91,0,0,0-.64-1.36,2.7,2.7,0,0,1-.8-1.91,2.64,2.64,0,0,1,.86-1.95,2.54,2.54,0,0,1,2-.71,2.67,2.67,0,0,1,1.62,4.61,1.73,1.73,0,0,0-.59,1.23v2.2a1.83,1.83,0,0,0,1.82,1.82h6.18a.87.87,0,0,1,.88.87v6.58a.92.92,0,0,0,1.83,0V13.57a2.7,2.7,0,0,0-2.71-2.7H38.07V8.81l.15-.15a4.51,4.51,0,1,0-6.43,0l.15.15v2.06H25.77a2.71,2.71,0,0,0-1.51.46l-.28.19-.28-.19a2.74,2.74,0,0,0-1.52-.46H15.71a.92.92,0,0,0,0,1.83h6.47a.87.87,0,0,1,.88.87v6.19a1.82,1.82,0,0,0,1.81,1.82h2.21A1.69,1.69,0,0,0,28.3,21a2.62,2.62,0,0,1,2.15-.84,2.67,2.67,0,0,1,1.74,4.5,2.84,2.84,0,0,1-4-.1,1.76,1.76,0,0,0-1.24-.5h-2.1a1.81,1.81,0,0,0-1.81,1.81v6.19a.88.88,0,0,1-.88.88H16V30.87l.15-.15a4.51,4.51,0,1,0-7.71-3.47,4.51,4.51,0,0,0,1.28,3.47l.15.15v2.06H3.71a.88.88,0,0,1-.88-.88V30.47a.92.92,0,1,0-1.83,0v1.58a2.71,2.71,0,0,0,2.71,2.71H9.9a1.82,1.82,0,0,0,1.81-1.82v-2.2a1.73,1.73,0,0,0-.59-1.23,2.67,2.67,0,0,1,1.64-4.61,2.57,2.57,0,0,1,2,.71,2.63,2.63,0,0,1,.85,1.95,2.68,2.68,0,0,1-.8,1.91,1.91,1.91,0,0,0-.64,1.36v2.11A1.83,1.83,0,0,0,16,34.76h6.18a2.67,2.67,0,0,0,1.52-.47Z"/></g></g></svg>