<?xml version="1.0" encoding="UTF-8" standalone="no"?>
<!DOCTYPE svg PUBLIC "-//W3C//DTD SVG 1.1//EN" "http://www.w3.org/Graphics/SVG/1.1/DTD/svg11.dtd">
<svg width="100%" height="100%" viewBox="0 0 375 375" version="1.1" xmlns="http://www.w3.org/2000/svg" xmlns:xlink="http://www.w3.org/1999/xlink" xml:space="preserve" xmlns:serif="http://www.serif.com/" style="fill-rule:evenodd;clip-rule:evenodd;stroke-linejoin:round;stroke-miterlimit:2;">
    <g transform="matrix(1,0,0,1,-421.875,0)">
        <g id="Page-2" serif:id="Page 2" transform="matrix(1,0,0,1,421.875,0)">
            <rect x="0" y="0" width="375" height="375" style="fill:none;"/>
            <g transform="matrix(-1,0,0,1,374.607,0)">
                <g transform="matrix(1.57733,0,0,-1.57957,-148.03,541.985)">
                    <path d="M325.98,114.78C289.41,131.41 288.93,163.52 290.91,178.36C305.65,195.18 314.49,216.52 314.49,239.75C314.49,294.06 266.3,338.09 206.85,338.09C147.4,338.09 99.21,294.06 99.21,239.75C99.215,185.43 147.4,141.4 206.85,141.4C216.22,141.4 225.31,142.5 233.98,144.56C297.33,99.73 325.98,114.78 325.98,114.78" style="fill:rgb(238,158,29);fill-rule:nonzero;"/>
                </g>
                <g transform="matrix(0,-1.59603,1.59063,0,-72.9471,604.854)">
                    <path d="M278.21,199.59C271.5,199.59 266.06,205.03 266.06,211.74C266.06,218.45 271.5,223.89 278.21,223.89C284.92,223.89 290.36,218.45 290.36,211.74C290.36,205.03 284.92,199.59 278.21,199.59" style="fill:rgb(251,211,164);fill-rule:nonzero;"/>
                </g>
                <g transform="matrix(0,-1.59603,1.59063,0,-151.286,526.25)">
                    <path d="M228.96,199.59C222.25,199.59 216.81,205.03 216.81,211.74C216.81,218.45 222.25,223.89 228.96,223.89C235.67,223.89 241.11,218.45 241.11,211.74C241.11,205.03 235.67,199.59 228.96,199.59" style="fill:rgb(251,211,164);fill-rule:nonzero;"/>
                </g>
                <g transform="matrix(0,-1.59603,1.59063,0,-226.045,451.236)">
                    <path d="M181.96,199.59C175.25,199.59 169.81,205.03 169.81,211.74C169.81,218.45 175.25,223.89 181.96,223.89C188.67,223.89 194.11,218.45 194.11,211.74C194.11,205.03 188.67,199.59 181.96,199.59" style="fill:rgb(251,211,164);fill-rule:nonzero;"/>
                </g>
            </g>
        </g>
    </g>
</svg>
