<?xml version="1.0" encoding="UTF-8" standalone="no"?>
<!DOCTYPE svg PUBLIC "-//W3C//DTD SVG 1.1//EN" "http://www.w3.org/Graphics/SVG/1.1/DTD/svg11.dtd">
<svg width="100%" height="100%" viewBox="0 0 375 375" version="1.1" xmlns="http://www.w3.org/2000/svg" xmlns:xlink="http://www.w3.org/1999/xlink" xml:space="preserve" xmlns:serif="http://www.serif.com/" style="fill-rule:evenodd;clip-rule:evenodd;stroke-linejoin:round;stroke-miterlimit:2;">
    <rect id="Page-1" serif:id="Page 1" x="0" y="0" width="375" height="375" style="fill:none;"/>
    <g id="Page-11" serif:id="Page 1">
        <g transform="matrix(-1,0,0,1,405.678,-16.4786)">
            <g>
                <g transform="matrix(1.59063,0,0,-1.59603,-149.169,570.212)">
                    <path d="M132.77,266.01C132.77,285.94 146.51,302.09 163.44,302.09L295.32,302.09C312.25,302.09 325.98,285.94 325.98,266.01L325.98,231.64C325.98,211.71 312.25,195.55 295.32,195.55L191.77,195.4C191.77,195.4 188.61,164.37 207.12,157.1C207.12,157.1 154.2,155.83 135.04,218.03C129.79,235.05 132.77,266.01 132.77,266.01" style="fill:rgb(238,158,29);fill-rule:nonzero;"/>
                </g>
                <g transform="matrix(0,-1.59603,1.59063,0,-43.4404,621.333)">
                    <path d="M278.21,199.59C271.5,199.59 266.06,205.03 266.06,211.74C266.06,218.45 271.5,223.89 278.21,223.89C284.92,223.89 290.36,218.45 290.36,211.74C290.36,205.03 284.92,199.59 278.21,199.59" style="fill:rgb(251,211,164);fill-rule:nonzero;"/>
                </g>
                <g transform="matrix(0,-1.59603,1.59063,0,-121.779,542.728)">
                    <path d="M228.96,199.59C222.25,199.59 216.81,205.03 216.81,211.74C216.81,218.45 222.25,223.89 228.96,223.89C235.67,223.89 241.11,218.45 241.11,211.74C241.11,205.03 235.67,199.59 228.96,199.59" style="fill:rgb(251,211,164);fill-rule:nonzero;"/>
                </g>
                <g transform="matrix(0,-1.59603,1.59063,0,-196.538,467.715)">
                    <path d="M181.96,199.59C175.25,199.59 169.81,205.03 169.81,211.74C169.81,218.45 175.25,223.89 181.96,223.89C188.67,223.89 194.11,218.45 194.11,211.74C194.11,205.03 188.67,199.59 181.96,199.59" style="fill:rgb(251,211,164);fill-rule:nonzero;"/>
                </g>
            </g>
        </g>
    </g>
</svg>
