<?xml version="1.0" encoding="UTF-8" standalone="no"?>
<!DOCTYPE svg PUBLIC "-//W3C//DTD SVG 1.1//EN" "http://www.w3.org/Graphics/SVG/1.1/DTD/svg11.dtd">
<svg width="100%" height="100%" viewBox="0 0 220 350" version="1.1" xmlns="http://www.w3.org/2000/svg" xmlns:xlink="http://www.w3.org/1999/xlink" xml:space="preserve" xmlns:serif="http://www.serif.com/" style="fill-rule:evenodd;clip-rule:evenodd;stroke-linejoin:round;stroke-miterlimit:2;">
    <g transform="matrix(1,0,0,1,-500.207,-63.6901)">
        <g transform="matrix(1,0,0,1,421.875,0)">
            <g transform="matrix(1.19628,0,0,-1.19695,-66.3933,322.603)">
                <path d="M278.81,121.39C278.81,121.39 286.39,169.73 282.1,184.39C282.1,184.39 272.15,203.73 257.81,210.06L264.61,196.06C264.61,196.06 243.15,221.39 195.48,215.39L203.81,208.39C203.81,208.39 170.55,207.57 151.52,216.31C151.52,216.31 156.15,203.06 159.81,201.06C163.48,199.06 151.15,206.39 149.15,212.73C149.15,212.73 140.73,192.71 145.82,158.39L142.15,166.39C142.15,166.39 142.15,135.09 147.81,124.07C153.48,113.06 173.48,103.67 173.48,103.67L278.81,121.39" style="fill:rgb(237,69,29);fill-rule:nonzero;"/>
            </g>
        </g>
        <g transform="matrix(1,0,0,1,421.875,0)">
            <g transform="matrix(1.19628,0,0,-1.19695,-66.3933,751.053)">
                <path d="M304.22,312.93C296.46,307.13 288.12,302.05 279.31,297.8C277.97,297.15 276.62,296.53 275.27,295.92C256.13,287.34 234.93,282.57 212.6,282.57C190.27,282.57 169.07,287.34 149.94,295.92C148.57,296.53 147.22,297.15 145.89,297.8C137.08,302.06 128.74,307.13 120.98,312.93C122.34,343.29 138.47,369.81 162.36,385.47C176.79,394.94 194.05,400.44 212.6,400.44C215.43,400.44 218.23,400.31 220.98,400.06C236.35,398.67 250.61,393.5 262.84,385.47C273.84,378.26 283.19,368.75 290.21,357.63C298.45,344.58 303.48,329.31 304.22,312.93" style="fill:white;fill-rule:nonzero;"/>
            </g>
        </g>
        <g transform="matrix(1,0,0,1,421.875,0)">
            <g transform="matrix(1.19628,0,0,-1.19695,-66.3933,680.504)">
                <path d="M262.84,326.53C261.44,315.94 256.77,306.37 249.86,298.89C240.6,288.86 227.34,282.57 212.6,282.57C188.99,282.57 169.15,298.72 163.52,320.58C163.02,322.52 162.63,324.51 162.36,326.53C176.79,336 194.05,341.5 212.6,341.5C215.43,341.5 218.23,341.38 220.99,341.12C221.47,341.08 221.95,341.03 222.42,340.98C222.72,340.95 223.02,340.92 223.31,340.88C223.64,340.85 223.97,340.8 224.29,340.76C224.49,340.74 224.7,340.71 224.9,340.68C225.19,340.65 225.49,340.6 225.79,340.56C226.02,340.53 226.25,340.49 226.49,340.46C226.69,340.43 226.89,340.4 227.09,340.36C227.43,340.31 227.76,340.25 228.1,340.2C229.56,339.95 231.01,339.67 232.44,339.35L233.4,339.14C233.58,339.09 233.77,339.05 233.95,339C234.29,338.92 234.64,338.84 234.97,338.75C235.03,338.74 235.08,338.73 235.12,338.72C235.55,338.61 235.98,338.5 236.4,338.38C236.86,338.27 237.31,338.14 237.75,338.01C238.26,337.87 238.76,337.72 239.27,337.57C239.66,337.45 240.05,337.33 240.44,337.2C240.69,337.12 240.95,337.04 241.19,336.96C241.6,336.83 242.01,336.69 242.41,336.55C242.91,336.38 243.4,336.21 243.89,336.03C243.93,336.01 243.96,336 243.99,335.99C244.5,335.81 245,335.62 245.5,335.43C245.87,335.28 246.25,335.14 246.63,334.98C247.62,334.59 248.59,334.18 249.55,333.76L250.81,333.19C251.19,333.02 251.57,332.84 251.95,332.66C252.3,332.49 252.64,332.33 252.98,332.16C253.3,332.01 253.61,331.85 253.92,331.69C254.12,331.59 254.33,331.49 254.53,331.38C255.36,330.96 256.17,330.52 256.97,330.08C257.26,329.92 257.56,329.75 257.84,329.59C258.03,329.48 258.21,329.38 258.39,329.28L259.07,328.88L259.76,328.46L260.21,328.19C260.64,327.94 261.06,327.68 261.48,327.41C261.94,327.12 262.39,326.83 262.84,326.53" style="fill:rgb(251,213,192);fill-rule:nonzero;"/>
            </g>
        </g>
        <g transform="matrix(1,0,0,1,421.875,0)">
            <g transform="matrix(1.19628,0,0,-1.19695,-66.3933,602.367)">
                <path d="M234.93,301.37L234.93,257.44C234.93,246.33 225.84,237.23 214.73,237.23L210.47,237.23C199.36,237.23 190.28,246.33 190.28,257.44L190.28,301.37C190.28,312.48 199.36,321.56 210.47,321.56L214.73,321.56C225.84,321.56 234.93,312.48 234.93,301.37" style="fill:rgb(251,213,192);fill-rule:nonzero;"/>
            </g>
        </g>
        <g transform="matrix(1,0,0,1,421.875,0)">
            <g transform="matrix(1.19628,0,0,-1.19695,-66.3933,560.402)">
                <path d="M234.93,266.31L234.93,243.06C228.29,239.37 221.25,237.23 214.1,237.23C205.67,237.23 197.63,239.57 190.28,243.66L190.28,266.31C190.28,277.42 199.36,286.5 210.47,286.5L214.73,286.5C225.84,286.5 234.93,277.42 234.93,266.31" style="fill:rgb(248,162,158);fill-rule:nonzero;"/>
            </g>
        </g>
        <g transform="matrix(1,0,0,1,421.875,0)">
            <g transform="matrix(-1.07385,-0.527483,0.527184,-1.07446,442.701,577.049)">
                <path d="M273.247,196.891C273.247,196.891 265.427,204.696 264.569,218.107C263.631,232.67 271.201,237.743 273.247,238.644C278.833,241.104 282.96,235.736 283.122,233.796C283.283,231.856 284.691,201.867 273.247,196.891" style="fill:rgb(251,213,192);fill-rule:nonzero;"/>
            </g>
        </g>
        <g transform="matrix(1,0,0,1,421.875,0)">
            <g transform="matrix(1.19628,0,0,-1.19695,-66.3933,468.619)">
                <path d="M277.3,239.9C277.3,239.9 283.94,239.05 281.61,229.72C279.27,220.38 273.14,216.69 264.8,211.92C256.47,207.15 268.97,238 277.3,239.9" style="fill:rgb(248,162,158);fill-rule:nonzero;"/>
            </g>
        </g>
        <g transform="matrix(1,0,0,1,421.875,0)">
            <g transform="matrix(-1.07374,0.527713,-0.527414,-1.07434,395.966,351.271)">
                <path d="M154.668,196.889C154.668,196.889 162.487,204.696 163.342,218.107C164.286,232.675 156.714,237.746 154.668,238.646C149.082,241.105 144.956,235.737 144.795,233.797C144.633,231.857 143.223,201.863 154.668,196.889" style="fill:rgb(251,213,192);fill-rule:nonzero;"/>
            </g>
        </g>
        <g transform="matrix(1,0,0,1,421.875,0)">
            <g transform="matrix(1.19628,0,0,-1.19695,-66.3933,468.619)">
                <path d="M150.61,239.9C150.61,239.9 143.98,239.05 146.31,229.72C148.64,220.38 154.78,216.69 163.11,211.92C171.45,207.15 158.95,238 150.61,239.9" style="fill:rgb(248,162,158);fill-rule:nonzero;"/>
            </g>
        </g>
        <g transform="matrix(1,0,0,1,421.875,0)">
            <g transform="matrix(0,1.19695,-1.19628,0,435.54,-76.7844)">
                <path d="M209.6,142.28C171.27,142.28 140.19,170.57 140.19,205.48C140.19,240.38 171.27,268.69 209.6,268.69C247.93,268.69 288,240.38 288,205.48C288,172.68 247.61,142.28 209.6,142.28" style="fill:rgb(251,213,192);fill-rule:nonzero;"/>
            </g>
        </g>
        <g transform="matrix(1,0,0,1,421.875,0)">
            <g transform="matrix(1.19628,0,0,-1.19695,-66.3933,322.519)">
                <path d="M276.4,182.49L221.13,200.99L206.94,200.99L151.67,182.49L150.77,124C152.09,137.02 163.44,170.99 174.44,165.49C183.37,161.03 204.84,159.2 212.61,158.67L212.61,158.49C212.61,158.49 213.12,158.52 214.04,158.57C214.95,158.52 215.47,158.49 215.47,158.49L215.47,158.67C223.23,159.2 244.7,161.03 253.63,165.49C264.63,170.99 275.98,137.02 277.3,124L276.4,182.49" style="fill:rgb(237,69,29);fill-rule:nonzero;"/>
            </g>
        </g>
    </g>
</svg>
