<?xml version="1.0" encoding="UTF-8" standalone="no"?>
<!DOCTYPE svg PUBLIC "-//W3C//DTD SVG 1.1//EN" "http://www.w3.org/Graphics/SVG/1.1/DTD/svg11.dtd">
<svg width="100%" height="100%" viewBox="0 0 220 346" version="1.1" xmlns="http://www.w3.org/2000/svg" xmlns:xlink="http://www.w3.org/1999/xlink" xml:space="preserve" xmlns:serif="http://www.serif.com/" style="fill-rule:evenodd;clip-rule:evenodd;stroke-linejoin:round;stroke-miterlimit:2;">
    <g transform="matrix(1,0,0,1,-77.9571,-67.0054)">
        <g transform="matrix(1.19628,0,0,-1.19695,-66.7683,531.376)">
            <path d="M213.52,152.14C203.95,152.14 194.47,153.93 185.5,157.23C178.55,159.79 171.91,165.32 164.33,164.91C150.41,164.15 132.4,162.94 127.4,180.14C122.44,197.2 141.1,208.2 142.53,224.11C143.86,238.82 121.12,242.57 127.12,258.64C128.43,262.15 131.39,265.3 131.89,269.14C132.46,273.4 130.64,277.07 129.98,281.14C127.8,294.71 138.65,313.6 149.58,321.08C164.16,331.06 182.19,333.39 199.14,336.64C221.38,340.92 245.54,347.34 266.51,338.14C278.25,332.98 292.91,328 296.7,314.76C300.71,300.73 305.98,286.46 297.88,272.75C293.32,265.02 285.4,261.73 288.4,252.03C290.62,244.84 298.16,240.6 299.99,233.14C304.14,216.25 279.22,212.14 286.12,196.25C289.68,188.06 294.73,183.3 291.52,173.61C289.19,166.57 283.18,163.1 276.01,162.64C270.45,162.29 265.18,164.23 259.55,163.27C255.65,162.6 252.52,160.79 248.89,159.31C237.83,154.8 225.47,152.14 213.52,152.14" style="fill:rgb(237,69,29);fill-rule:nonzero;"/>
        </g>
        <g transform="matrix(1.19628,0,0,-1.19695,-66.7683,751.053)">
            <path d="M304.23,312.93C296.46,307.13 288.12,302.05 279.31,297.8C277.97,297.15 276.63,296.53 275.27,295.92C256.14,287.34 234.93,282.57 212.6,282.57C190.27,282.57 169.07,287.34 149.94,295.92C148.57,296.53 147.22,297.15 145.89,297.8C137.08,302.06 128.74,307.13 120.98,312.93C122.34,343.29 138.47,369.81 162.36,385.47C176.79,394.94 194.05,400.44 212.6,400.44C215.43,400.44 218.23,400.31 220.98,400.06C236.35,398.67 250.61,393.5 262.84,385.47C273.84,378.26 283.19,368.75 290.21,357.63C298.45,344.58 303.48,329.31 304.23,312.93" style="fill:white;fill-rule:nonzero;"/>
        </g>
        <g transform="matrix(1.19628,0,0,-1.19695,-66.7683,680.504)">
            <path d="M262.84,326.53C261.44,315.94 256.77,306.37 249.86,298.89C240.6,288.86 227.34,282.57 212.6,282.57C188.99,282.57 169.15,298.72 163.52,320.58C163.02,322.52 162.63,324.51 162.36,326.53C176.79,336 194.05,341.5 212.6,341.5C215.43,341.5 218.23,341.38 220.99,341.12C221.47,341.08 221.95,341.03 222.42,340.98C222.72,340.95 223.02,340.92 223.31,340.88C223.64,340.85 223.97,340.8 224.29,340.76C224.49,340.74 224.7,340.71 224.9,340.68C225.19,340.65 225.49,340.6 225.79,340.56C226.02,340.53 226.25,340.49 226.49,340.46C226.69,340.43 226.89,340.4 227.09,340.36C227.43,340.31 227.76,340.25 228.1,340.2C229.56,339.95 231.01,339.67 232.44,339.35L233.4,339.14C233.58,339.09 233.77,339.05 233.95,339C234.29,338.92 234.64,338.84 234.97,338.75C235.03,338.74 235.08,338.73 235.12,338.72C235.55,338.61 235.98,338.5 236.4,338.38C236.86,338.27 237.31,338.14 237.75,338.01C238.26,337.87 238.76,337.72 239.27,337.57C239.66,337.45 240.05,337.33 240.44,337.2C240.69,337.12 240.95,337.04 241.19,336.96C241.6,336.83 242.01,336.69 242.41,336.55C242.91,336.38 243.4,336.21 243.89,336.03C243.93,336.01 243.96,336 243.99,335.99C244.5,335.81 245,335.62 245.5,335.43C245.87,335.28 246.25,335.14 246.63,334.98C247.62,334.59 248.59,334.18 249.55,333.76L250.81,333.19C251.19,333.02 251.57,332.84 251.95,332.66C252.3,332.49 252.64,332.33 252.98,332.16C253.3,332.01 253.61,331.85 253.92,331.69C254.12,331.59 254.33,331.49 254.53,331.38C255.36,330.96 256.17,330.52 256.97,330.08C257.26,329.92 257.56,329.75 257.84,329.59C258.03,329.48 258.21,329.38 258.39,329.28L259.07,328.88L259.76,328.46L260.21,328.19C260.64,327.94 261.06,327.68 261.48,327.41C261.94,327.12 262.39,326.83 262.84,326.53" style="fill:rgb(251,213,192);fill-rule:nonzero;"/>
        </g>
        <g transform="matrix(1.19628,0,0,-1.19695,-66.7683,602.367)">
            <path d="M230.26,296.77L230.26,262.03C230.26,253.24 223.07,246.04 214.29,246.04L210.91,246.04C202.13,246.04 194.95,253.24 194.95,262.03L194.95,296.77C194.95,305.56 202.13,312.75 210.91,312.75L214.29,312.75C223.07,312.75 230.26,305.56 230.26,296.77" style="fill:rgb(251,213,192);fill-rule:nonzero;"/>
        </g>
        <g transform="matrix(1.19628,0,0,-1.19695,-66.7683,569.176)">
            <path d="M230.26,269.04L230.26,250.66C225.01,247.74 219.44,246.04 213.79,246.04C207.12,246.04 200.76,247.9 194.95,251.13L194.95,269.04C194.95,277.83 202.13,285.02 210.91,285.02L214.29,285.02C223.07,285.02 230.26,277.83 230.26,269.04" style="fill:rgb(248,162,158);fill-rule:nonzero;"/>
        </g>
        <g transform="matrix(-1.07385,-0.527483,0.527184,-1.07446,442.326,577.049)">
            <path d="M273.247,196.891C273.247,196.891 265.427,204.696 264.569,218.107C263.631,232.67 271.201,237.743 273.247,238.644C278.833,241.104 282.96,235.736 283.122,233.796C283.283,231.856 284.691,201.867 273.247,196.891" style="fill:rgb(251,213,192);fill-rule:nonzero;"/>
        </g>
        <g transform="matrix(1.19628,0,0,-1.19695,-66.7683,468.619)">
            <path d="M277.3,239.9C277.3,239.9 283.94,239.05 281.61,229.72C279.27,220.38 273.14,216.69 264.8,211.92C256.47,207.15 268.97,238 277.3,239.9" style="fill:rgb(248,162,158);fill-rule:nonzero;"/>
        </g>
        <g transform="matrix(-1.07374,0.527713,-0.527414,-1.07434,395.591,351.271)">
            <path d="M154.668,196.889C154.668,196.889 162.487,204.696 163.342,218.107C164.286,232.675 156.714,237.746 154.668,238.646C149.082,241.105 144.956,235.737 144.795,233.797C144.633,231.857 143.223,201.863 154.668,196.889" style="fill:rgb(251,213,192);fill-rule:nonzero;"/>
        </g>
        <g transform="matrix(1.19628,0,0,-1.19695,-66.7683,468.619)">
            <path d="M150.61,239.9C150.61,239.9 143.98,239.05 146.31,229.72C148.64,220.38 154.78,216.69 163.11,211.92C171.45,207.15 158.95,238 150.61,239.9" style="fill:rgb(248,162,158);fill-rule:nonzero;"/>
        </g>
        <g transform="matrix(0,1.19695,-1.19628,0,435.165,-76.7844)">
            <path d="M209.6,142.28C171.27,142.28 140.19,170.57 140.19,205.48C140.19,240.38 171.27,268.69 209.6,268.69C247.93,268.69 288,240.38 288,205.48C288,172.68 247.61,142.28 209.6,142.28" style="fill:rgb(251,213,192);fill-rule:nonzero;"/>
        </g>
        <g transform="matrix(1.19628,0,0,-1.19695,-66.7683,312.824)">
            <path d="M293.62,128.94C296.56,135.89 294.57,144.34 293.12,151.16C290.05,165.64 280.57,179.39 265,182.54C257.57,184.04 250.16,185.57 243.52,190.18C237.46,194.39 231.71,200.04 224.89,202.93C211.55,208.56 194.13,204.67 190.62,188.94C190.47,188.28 190.33,187.58 190.21,186.85L190.01,189.05C188.89,180.41 188.92,174.48 194.13,167.08C199.49,159.47 206.59,158 215.01,157.08C233.02,155.11 236.96,143.52 241.62,128.55C244.6,118.97 251.88,108.33 263.01,110.52C268.23,111.55 272.81,114.58 277.89,115.67C283.5,116.88 285.44,113.35 289.41,110.1C289.38,113.37 287.73,117.44 288.61,120.43C289.48,123.42 292.4,126.05 293.62,128.94" style="fill:rgb(237,69,29);fill-rule:nonzero;"/>
        </g>
        <g transform="matrix(1.19628,0,0,-1.19695,-66.7683,343.227)">
            <path d="M198.02,202.48C196.94,205.57 194.79,208.94 192.53,211.44C189.59,214.68 190.62,214.34 187.01,215.45C180.55,217.87 175.77,219.29 169,215.33C163.39,212.04 160.42,206.61 158.9,200.56C156.94,192.77 155.01,188.99 148.51,183.45C143.35,179.06 139.79,173.74 137.37,167.45C134.56,160.15 132.71,151.46 133.01,143.45C133.21,138.11 134.56,126.49 138.41,123C139.31,131.55 141.84,136.29 150.39,138.56C157.69,140.49 163.95,141.48 166.02,149.94C167.89,157.56 168.36,163.91 175.51,169.33C181.41,173.8 189.64,175.36 194.62,180.92C199.79,186.72 200.52,195.37 198.02,202.48" style="fill:rgb(237,69,29);fill-rule:nonzero;"/>
        </g>
    </g>
</svg>
