<?xml version="1.0" encoding="UTF-8" standalone="no"?>
<!DOCTYPE svg PUBLIC "-//W3C//DTD SVG 1.1//EN" "http://www.w3.org/Graphics/SVG/1.1/DTD/svg11.dtd">
<svg width="100%" height="100%" viewBox="0 0 355 357" version="1.1" xmlns="http://www.w3.org/2000/svg" xmlns:xlink="http://www.w3.org/1999/xlink" xml:space="preserve" xmlns:serif="http://www.serif.com/" style="fill-rule:evenodd;clip-rule:evenodd;stroke-linejoin:round;stroke-miterlimit:2;">
    <g transform="matrix(1,0,0,1,-1013.08,-118.626)">
        <g transform="matrix(2.66667,0,0,2.66667,0,0)">
            <g id="Compass">
                <g transform="matrix(1,0,0,1,446.633,111.743)">
                    <path d="M0,-5.675C-1.564,-5.8 -2.939,-4.629 -3.065,-3.065C-3.189,-1.501 -2.019,-0.125 -0.455,0C1.109,0.126 2.484,-1.045 2.61,-2.61C2.734,-4.175 1.563,-5.549 0,-5.675M-0.491,0.454C-2.306,0.308 -3.664,-1.287 -3.519,-3.102C-3.374,-4.917 -1.778,-6.274 0.037,-6.129C1.851,-5.983 3.209,-4.388 3.063,-2.573C2.918,-0.758 1.323,0.599 -0.491,0.454" style="fill:rgb(196,17,48);fill-rule:nonzero;"/>
                </g>
                <g transform="matrix(1,0,0,1,446.963,113.967)">
                    <path d="M0,-9.873C-2.723,-10.092 -5.114,-8.055 -5.333,-5.332C-5.552,-2.61 -3.514,-0.218 -0.792,0C1.931,0.219 4.321,-1.818 4.541,-4.541C4.758,-7.262 2.722,-9.655 0,-9.873M-0.829,0.454C-3.801,0.216 -6.025,-2.397 -5.788,-5.37C-5.548,-8.342 -2.937,-10.565 0.035,-10.328C3.009,-10.089 5.233,-7.475 4.995,-4.503C4.756,-1.532 2.143,0.692 -0.829,0.454" style="fill:rgb(196,17,48);fill-rule:nonzero;"/>
                </g>
                <g transform="matrix(0.0802006,-0.996779,-0.996779,-0.0802006,438.075,86.6552)">
                    <path d="M-1.305,-1.203C-2.027,-1.204 -2.613,-0.617 -2.613,0.107C-2.613,0.829 -2.027,1.415 -1.305,1.415C-0.582,1.415 0.004,0.829 0.005,0.107C0.005,-0.617 -0.582,-1.204 -1.305,-1.203" style="fill:rgb(196,17,48);fill-rule:nonzero;"/>
                </g>
                <g transform="matrix(0.0798515,-0.996807,-0.996807,-0.0798515,456.798,86.0448)">
                    <path d="M-1.305,-1.203C-2.027,-1.202 -2.613,-0.617 -2.614,0.105C-2.613,0.829 -2.027,1.415 -1.305,1.415C-0.581,1.414 0.005,0.828 0.005,0.105C0.004,-0.617 -0.582,-1.204 -1.305,-1.203" style="fill:rgb(196,17,48);fill-rule:nonzero;"/>
                </g>
                <g transform="matrix(0.0805494,-0.996751,-0.996751,-0.0805494,466.474,96.4146)">
                    <path d="M-1.306,-1.204C-2.028,-1.204 -2.614,-0.619 -2.615,0.104C-2.616,0.827 -2.029,1.415 -1.306,1.416C-0.584,1.416 0.004,0.828 0.004,0.105C0.004,-0.617 -0.582,-1.203 -1.306,-1.204" style="fill:rgb(196,17,48);fill-rule:nonzero;"/>
                </g>
                <g transform="matrix(0.0798515,-0.996807,-0.996807,-0.0798515,466.047,118.083)">
                    <path d="M-1.305,-1.204C-2.028,-1.204 -2.614,-0.62 -2.613,0.104C-2.615,0.828 -2.028,1.413 -1.305,1.413C-0.581,1.413 0.005,0.828 0.005,0.105C0.006,-0.62 -0.58,-1.204 -1.305,-1.204" style="fill:rgb(196,17,48);fill-rule:nonzero;"/>
                </g>
                <g transform="matrix(0.0797907,-0.996812,-0.996812,-0.0797907,455.984,128.924)">
                    <path d="M-1.306,-1.204C-2.028,-1.203 -2.614,-0.616 -2.614,0.106C-2.614,0.828 -2.028,1.415 -1.306,1.416C-0.582,1.415 0.004,0.828 0.004,0.106C0.004,-0.616 -0.582,-1.204 -1.306,-1.204" style="fill:rgb(196,17,48);fill-rule:nonzero;"/>
                </g>
                <g transform="matrix(0.08058,-0.996748,-0.996748,-0.08058,437.618,130.077)">
                    <path d="M-1.305,-1.203C-2.027,-1.203 -2.614,-0.618 -2.614,0.106C-2.616,0.83 -2.029,1.415 -1.305,1.415C-0.583,1.415 0.004,0.832 0.004,0.107C0.004,-0.616 -0.581,-1.203 -1.305,-1.203" style="fill:rgb(196,17,48);fill-rule:nonzero;"/>
                </g>
                <g transform="matrix(0.0797907,-0.996812,-0.996812,-0.0797907,426.755,118.811)">
                    <path d="M-1.305,-1.205C-2.03,-1.205 -2.615,-0.618 -2.614,0.107C-2.614,0.828 -2.028,1.415 -1.305,1.414C-0.582,1.415 0.004,0.827 0.004,0.104C0.004,-0.618 -0.582,-1.205 -1.305,-1.205" style="fill:rgb(196,17,48);fill-rule:nonzero;"/>
                </g>
                <g transform="matrix(0.0797907,-0.996812,-0.996812,-0.0797907,425.738,98.7434)">
                    <path d="M-1.304,-1.205C-2.028,-1.205 -2.613,-0.62 -2.613,0.105C-2.613,0.828 -2.027,1.413 -1.304,1.414C-0.581,1.414 0.004,0.827 0.004,0.103C0.005,-0.62 -0.581,-1.205 -1.304,-1.205" style="fill:rgb(196,17,48);fill-rule:nonzero;"/>
                </g>
                <g transform="matrix(0.0246561,-0.999696,-0.999696,-0.0246561,472.586,85.6748)">
                    <path d="M-18.82,25.149L27.417,25.149L-16.638,18.243L-20.516,21.596C-20.516,21.596 -18.624,23.444 -18.82,25.149" style="fill:rgb(196,17,48);fill-rule:nonzero;"/>
                </g>
                <g transform="matrix(0.999568,-0.029378,-0.029378,-0.999568,451.656,110.126)">
                    <path d="M0.095,0.678L47.511,0.678L2.391,-6.563L-1.156,-2.164C-1.156,-2.164 0.087,-0.378 0.095,0.678" style="fill:rgb(196,17,48);fill-rule:nonzero;"/>
                </g>
                <g transform="matrix(0.0266892,-0.999644,-0.999644,-0.0266892,468.842,136.036)">
                    <path d="M-27.944,21.617L21.14,21.617C21.14,21.617 20.66,24.716 22.271,26.116L17.762,29.892L-27.944,21.617Z" style="fill:rgb(196,17,48);fill-rule:nonzero;"/>
                </g>
                <g transform="matrix(0.964054,-0.265708,-0.265708,-0.964054,441.37,102.593)">
                    <path d="M-1.569,-5.817C-1.915,-6.36 -45.723,5.687 -45.723,5.687L-1.569,0.845L0.182,-3.453C0.182,-3.453 -0.439,-4.044 -1.569,-5.817" style="fill:rgb(196,17,48);fill-rule:nonzero;"/>
                </g>
                <g transform="matrix(1,0,0,1,440.543,84.451)">
                    <path d="M0,12.977L-20.003,-4.767L-0.91,17.744L0,12.977Z" style="fill:rgb(196,17,48);fill-rule:nonzero;"/>
                </g>
                <g transform="matrix(1,0,0,1,453.937,81.1347)">
                    <path d="M0,20.723L17.715,-0.774L5.364,21.497L0,20.723Z" style="fill:rgb(196,17,48);fill-rule:nonzero;"/>
                </g>
                <g transform="matrix(1,0,0,1,454.154,137.699)">
                    <path d="M0,-20.576L18.482,0L-1.005,-14.514L0,-20.576Z" style="fill:rgb(196,17,48);fill-rule:nonzero;"/>
                </g>
                <g transform="matrix(1,0,0,1,419.71,116.446)">
                    <path d="M0,23.86L19.725,1.038L14.167,0L0,23.86Z" style="fill:rgb(196,17,48);fill-rule:nonzero;"/>
                </g>
                <g transform="matrix(1,0,0,1,421.079,101.965)">
                    <path d="M0,-21.614L12.501,1.587L18.164,1.085L19.216,-4.454L0,-21.614ZM12.245,2.067L12.172,1.935L-1.631,-23.681L19.711,-4.622L18.546,1.508L12.245,2.067Z" style="fill:rgb(196,17,48);fill-rule:nonzero;"/>
                </g>
                <g transform="matrix(1,0,0,1,430.59,71.0561)">
                    <path d="M0,14.993L-3.159,5.298L1.856,11.107L0.646,2.482L4.579,9.459L4.592,0.743L7.962,8.324L8.63,0L11.822,9.318C11.822,9.318 3.331,11.15 0,14.993" style="fill:rgb(196,17,48);fill-rule:nonzero;"/>
                </g>
                <g transform="matrix(1,0,0,1,451.786,76.7319)">
                    <path d="M0,3.556C0,3.556 6.041,4.193 11.493,8.363L14.864,-0.2L9.669,5.475L12.015,-2.866L6.67,3.712L7.892,-4.033L3.655,2.631L3.945,-4.807L0,3.556Z" style="fill:rgb(196,17,48);fill-rule:nonzero;"/>
                </g>
                <g transform="matrix(1,0,0,1,467.532,97.7995)">
                    <path d="M0,-8.785C0,-8.785 4.878,-3.139 4.592,4.223L13.476,0.749L6.497,0.874L12.697,-2.835L5.667,-2.525L11.472,-6.551L4.675,-5.364L10.091,-9.269L2.911,-8.036L8.106,-13.008L0,-8.785Z" style="fill:rgb(196,17,48);fill-rule:nonzero;"/>
                </g>
                <g transform="matrix(1,0,0,1,425.459,99.7537)">
                    <path d="M0,-8.31L-9.733,-12.27L-3.766,-6.936L-12.31,-8.631L-5.039,-3.404L-13.386,-4.682L-6.535,0.056L-14.104,0.457L-5.326,3.96C-5.326,3.96 -4.783,-1.848 0,-8.31" style="fill:rgb(196,17,48);fill-rule:nonzero;"/>
                </g>
                <g transform="matrix(1,0,0,1,420.661,132.477)">
                    <path d="M0,-17.363L-8.903,-14.364L-1.475,-13.965L-8.535,-11.322L-1.583,-10.55L-7.939,-8.259L-0.511,-7.86L-6.952,-3.998L0.54,-4.812L-4.696,0L4.377,-3.704C4.377,-3.704 0.456,-8.882 0,-17.363" style="fill:rgb(196,17,48);fill-rule:nonzero;"/>
                </g>
                <g transform="matrix(1,0,0,1,441.334,143.139)">
                    <path d="M0,-5.667C0,-5.667 -6.221,-6.471 -11.037,-9.512L-15.279,-0.575L-9.526,-6.508L-12.026,0.907L-6.901,-5.079L-8.679,2.85L-3.663,-3.676L-3.866,3.845L0,-5.667Z" style="fill:rgb(196,17,48);fill-rule:nonzero;"/>
                </g>
                <g transform="matrix(1,0,0,1,452.086,141.27)">
                    <path d="M0,-4.838C0,-4.838 6.708,-5.54 10.741,-10.002L15.575,0.219L9.866,-5.494L11.788,2.579L7.161,-4.041L7.772,4.313L4.322,-2.588L4.137,5.164L0,-4.838Z" style="fill:rgb(196,17,48);fill-rule:nonzero;"/>
                </g>
                <g transform="matrix(1,0,0,1,467.931,117.994)">
                    <path d="M0,8.744C0,8.744 4.04,3.966 4.708,-3.898C4.708,-3.898 14.408,0.002 14.098,0.053C13.79,0.104 7.033,-0.134 7.033,-0.134L12.885,4.752L6.371,3.373L11.574,8.758L4.675,6.454L9.435,12.642L0,8.744Z" style="fill:rgb(196,17,48);fill-rule:nonzero;"/>
                </g>
                <g transform="matrix(1,0,0,1,453.39,130.289)">
                    <path d="M0,-7.21L17.777,5.804L5.249,-14.296L0.707,-13.871L0,-7.21ZM19.41,7.564L-0.481,-6.998L0.294,-14.29L5.486,-14.774L5.561,-14.657L19.41,7.564Z" style="fill:rgb(196,17,48);fill-rule:nonzero;"/>
                </g>
                <g transform="matrix(1,0,0,1,452.913,80.6919)">
                    <path d="M0,21.199L5.79,21.663L17.607,1.027L-0.373,15.995L0,21.199ZM6.042,22.14L-0.426,21.622L-0.843,15.795L19.257,-0.941L6.042,22.14Z" style="fill:rgb(196,17,48);fill-rule:nonzero;"/>
                </g>
                <g transform="matrix(1,0,0,1,435.654,140.959)">
                    <path d="M0,-23.778L-14.565,-1.725C-6.59,-8.175 4.369,-17.105 5.198,-17.967L4.834,-23.39L0,-23.778ZM-16.565,0.477L-0.232,-24.255L5.261,-23.814L5.656,-17.936C5.658,-17.931 5.658,-17.925 5.658,-17.92L5.658,-17.914C5.641,-17.663 4.751,-16.857 -4.889,-8.996C-10.151,-4.707 -15.423,-0.446 -15.423,-0.446L-16.565,0.477Z" style="fill:rgb(196,17,48);fill-rule:nonzero;"/>
                </g>
                <g transform="matrix(1,0,0,1,449.567,104.24)">
                    <path d="M0,-36.141C20.775,-34.474 36.807,-17.755 38.233,2.433L40.989,2.768C39.715,-18.98 22.538,-37.074 0.217,-38.865C0,-38.883 -0.217,-38.894 -0.435,-38.909L-0.072,-36.146C-0.047,-36.144 -0.025,-36.143 0,-36.141" style="fill:rgb(196,17,48);fill-rule:nonzero;"/>
                </g>
                <g transform="matrix(1,0,0,1,487.895,153.462)">
                    <path d="M0,-43.204C-0.014,-42.305 -0.053,-41.401 -0.127,-40.494C-1.812,-19.48 -18.897,-3.323 -39.395,-2.219L-39.851,0.537C-17.742,-0.349 0.784,-17.677 2.598,-40.276C2.69,-41.437 2.737,-42.594 2.741,-43.741L0,-43.204Z" style="fill:rgb(196,17,48);fill-rule:nonzero;"/>
                </g>
                <g transform="matrix(1,0,0,1,442.899,113.308)">
                    <path d="M0,37.862C-21.329,36.15 -37.657,18.572 -38.312,-2.336L-41.06,-2.848C-40.657,19.694 -23.151,38.745 -0.218,40.585C0.538,40.646 1.292,40.687 2.044,40.71L1.589,37.956C1.061,37.933 0.533,37.904 0,37.862" style="fill:rgb(196,17,48);fill-rule:nonzero;"/>
                </g>
                <g transform="matrix(1,0,0,1,404.697,67.2691)">
                    <path d="M0,39.032C1.746,17.273 19.999,0.722 41.458,0.698L41.976,-2.032C18.886,-2.279 -0.849,15.451 -2.724,38.814C-2.792,39.65 -2.832,40.483 -2.852,41.311L-0.104,40.848C-0.082,40.245 -0.049,39.639 0,39.032" style="fill:rgb(196,17,48);fill-rule:nonzero;"/>
                </g>
                <g transform="matrix(1,0,0,1,397.861,111.566)">
                    <path d="M0,-2.081L41.774,5.723L48.634,50.382L56.178,4.856L99.285,-3.244L55.874,-9.507L50.218,-52.487L41.967,-9.173L0,-2.081ZM48.616,53.272L41.373,6.112L-2.6,-2.102L41.579,-9.569L50.3,-55.353L56.279,-9.909L102.065,-3.303L56.575,5.244L48.616,53.272Z" style="fill:rgb(196,17,48);fill-rule:nonzero;"/>
                </g>
                <text x="444.037px" y="52.542px" style="font-family:'Arial-BoldMT', 'Arial', sans-serif;font-weight:700;font-size:11.256px;fill:rgb(196,17,48);">N</text>
                <text x="444.645px" y="178.138px" style="font-family:'Arial-BoldMT', 'Arial', sans-serif;font-weight:700;font-size:11.256px;fill:rgb(196,17,48);">S</text>
                <text x="379.866px" y="112.909px" style="font-family:'Arial-BoldMT', 'Arial', sans-serif;font-weight:700;font-size:11.256px;fill:rgb(196,17,48);">W</text>
                <text x="505.788px" y="112.909px" style="font-family:'Arial-BoldMT', 'Arial', sans-serif;font-weight:700;font-size:11.256px;fill:rgb(196,17,48);">E</text>
            </g>
        </g>
    </g>
</svg>
