<?xml version="1.0" encoding="UTF-8" standalone="no"?>
<!DOCTYPE svg PUBLIC "-//W3C//DTD SVG 1.1//EN" "http://www.w3.org/Graphics/SVG/1.1/DTD/svg11.dtd">
<svg width="100%" height="100%" viewBox="0 0 242 370" version="1.1" xmlns="http://www.w3.org/2000/svg" xmlns:xlink="http://www.w3.org/1999/xlink" xml:space="preserve" xmlns:serif="http://www.serif.com/" style="fill-rule:evenodd;clip-rule:evenodd;stroke-linejoin:round;stroke-miterlimit:2;">
    <g transform="matrix(1,0,0,1,-1041.67,-1706.93)">
        <g transform="matrix(2.66667,0,0,2.66667,0,0)">
            <g opacity="0.5">
                <g transform="matrix(1,0,0,1,436.987,739.35)">
                    <path d="M0,-99.25L-37.558,-58.498L-10.277,-62.829L-42.596,-26.481L-10.804,-36.331L-46.362,-1.9L-1.006,-14.4L44.346,0L14.598,-35.67L44.346,-24.608L8.674,-61.669L32.008,-58.498L0,-99.25Z" style="fill:rgb(133,118,78);fill-rule:nonzero;"/>
                </g>
            </g>
        </g>
        <g transform="matrix(2.66667,0,0,2.66667,0,0)">
            <g transform="matrix(1,0,0,1,454.121,715.708)">
                <path d="M0,3.141L-12.689,-4.795L-13.799,-27L-0.543,-18.853L-0.543,-20.521L-13.938,-29.838L-15.016,-51.406L-3.641,-47.141L-3.641,-48.29L-15.166,-54.37L-15.437,-59.898L-18.139,-58.836L-18.385,-54.545L-29.677,-45.597L-29.677,-44.178L-18.537,-51.723L-19.828,-28.791L-33.017,-20.038L-33.017,-18.461L-20.014,-25.609L-21.14,-5.297L-33.017,2.696L-33.017,4.574L-21.353,-1.474L-24.977,63.039L-9.307,63.039L-12.525,-1.396L-0.465,4.574L0,3.141Z" style="fill:rgb(71,91,101);fill-rule:nonzero;"/>
            </g>
        </g>
    </g>
</svg>
