<?xml version="1.0" encoding="UTF-8" standalone="no"?>
<!DOCTYPE svg PUBLIC "-//W3C//DTD SVG 1.1//EN" "http://www.w3.org/Graphics/SVG/1.1/DTD/svg11.dtd">
<svg width="100%" height="100%" viewBox="0 0 154 112" version="1.1" xmlns="http://www.w3.org/2000/svg" xmlns:xlink="http://www.w3.org/1999/xlink" xml:space="preserve" xmlns:serif="http://www.serif.com/" style="fill-rule:evenodd;clip-rule:evenodd;stroke-linejoin:round;stroke-miterlimit:2;">
    <g transform="matrix(2.14407,0,0,2.14407,-176.5,-132.352)">
        <g id="katman_2">
            <g id="katman_1-2">
                <path d="M105.37,83.32L103.4,83.32L95.01,75.43L102.99,68.1L104.9,68.1L104.9,64.53L95.67,64.53L95.67,68.1L97.68,68.1L90.75,74.65L90.75,68.1L93.16,68.1L93.16,64.53L84.03,64.53L84.03,68.1L86.48,68.1L86.48,83.32L84.03,83.32L84.03,86.89L93.16,86.89L93.16,83.32L90.75,83.32L90.75,76.4L98.03,83.32L95.83,83.32L95.83,86.89L105.37,86.89L105.37,83.32Z" style="fill-rule:nonzero;"/>
                <path d="M116.11,87.36C122.513,87.338 127.77,82.063 127.77,75.66C127.77,69.242 122.488,63.96 116.07,63.96C109.651,63.96 104.37,69.242 104.37,75.66C104.37,75.677 104.37,75.693 104.37,75.71C104.43,82.112 109.708,87.349 116.11,87.36M116.11,83.1C116.09,83.1 116.07,83.1 116.051,83.1C111.969,83.1 108.611,79.742 108.611,75.66C108.611,71.579 111.969,68.22 116.051,68.22C120.094,68.22 123.436,71.517 123.49,75.56C123.491,75.613 123.492,75.667 123.492,75.72C123.492,79.769 120.16,83.1 116.112,83.1C116.111,83.1 116.111,83.1 116.11,83.1" style="fill-rule:nonzero;"/>
                <path d="M151.72,79.53L147.11,79.53C145.754,81.642 143.41,82.922 140.9,82.922C136.851,82.922 133.52,79.591 133.52,75.542C133.52,75.538 133.52,75.534 133.52,75.53C133.518,75.459 133.517,75.389 133.517,75.318C133.517,71.374 136.763,68.128 140.707,68.128C140.758,68.128 140.809,68.129 140.86,68.13C143.36,68.151 145.681,69.456 147,71.58L151.09,71.58L151.09,64.43L147.57,64.43L147.57,66.69C145.731,64.862 143.222,63.864 140.63,63.93C134.323,64.001 129.174,69.212 129.18,75.52C129.102,81.17 133.152,86.1 138.71,87.12L138.71,90.92L142.71,90.92L142.71,87.15C146.845,86.417 150.271,83.496 151.65,79.53" style="fill-rule:nonzero;"/>
                <rect x="82.77" y="94.22" width="70.66" height="17.01" style="fill:rgb(193,11,37);"/>
                <path d="M101.64,106.32C101.75,107.728 102.939,108.829 104.352,108.829C105.844,108.829 107.072,107.601 107.072,106.109C107.072,106.076 107.071,106.043 107.07,106.01C107.07,105.994 107.07,105.978 107.07,105.962C107.07,104.432 105.811,103.172 104.28,103.172C104.21,103.172 104.14,103.175 104.07,103.18L103.28,103.18L103.28,100.7L104,100.7C105.41,100.7 106.64,100.11 106.64,98.51C106.643,98.468 106.644,98.427 106.644,98.385C106.644,97.288 105.741,96.385 104.644,96.385C104.596,96.385 104.548,96.387 104.5,96.39C104.477,96.389 104.453,96.389 104.43,96.389C103.333,96.389 102.43,97.292 102.43,98.389C102.43,98.389 102.43,98.39 102.43,98.39L99.45,98.39C99.559,95.819 101.703,93.764 104.276,93.764C104.357,93.764 104.439,93.766 104.52,93.77C107.09,93.77 109.52,95.48 109.52,98.22C109.533,99.66 108.767,101 107.52,101.72C109.303,102.436 110.465,104.189 110.43,106.11C110.401,107.586 109.76,108.985 108.66,109.97C107.561,111.039 106.072,111.613 104.54,111.56C101.44,111.56 98.61,109.63 98.44,106.32L101.64,106.32Z" style="fill:white;fill-rule:nonzero;"/>
                <path d="M121.58,94.22L117.58,99.87C118.031,99.596 118.553,99.461 119.08,99.48C122.136,99.614 124.554,102.212 124.47,105.27C124.47,105.293 124.47,105.317 124.47,105.34C124.47,108.753 121.663,111.56 118.25,111.56C118.227,111.56 118.203,111.56 118.18,111.56C118.179,111.56 118.179,111.56 118.178,111.56C114.738,111.56 111.908,108.73 111.908,105.29C111.908,105.237 111.909,105.183 111.91,105.13C111.958,103.611 112.483,102.145 113.41,100.94L118,94.22L121.58,94.22ZM121.44,105.39C121.44,105.38 121.44,105.37 121.44,105.36C121.44,103.619 120.011,102.185 118.27,102.18C116.54,102.186 115.12,103.61 115.12,105.34C115.12,107.074 116.547,108.5 118.28,108.5C119.995,108.5 121.413,107.104 121.44,105.39Z" style="fill:white;fill-rule:nonzero;"/>
                <path d="M138.11,105C138.263,106.667 137.678,108.32 136.51,109.52C135.32,110.777 133.67,111.499 131.94,111.52C130.333,111.501 128.791,110.872 127.63,109.76C126.317,108.544 125.647,106.781 125.82,105L125.82,100.23C125.662,98.565 126.235,96.91 127.39,95.7C128.572,94.443 130.223,93.73 131.949,93.73C133.562,93.73 135.115,94.354 136.28,95.47C137.596,96.685 138.274,98.446 138.11,100.23L138.11,105ZM129.01,105C128.923,105.848 129.117,106.702 129.56,107.43C130.118,108.188 131.019,108.62 131.96,108.58C132.968,108.615 133.923,108.117 134.47,107.27C134.828,106.57 134.983,105.784 134.92,105L134.92,100.19C135.004,99.339 134.804,98.484 134.35,97.76C133.789,97.039 132.913,96.632 132,96.67C130.99,96.647 130.04,97.156 129.5,98.01C129.128,98.701 128.971,99.489 129.05,100.27L129.01,105Z" style="fill:white;fill-rule:nonzero;"/>
                <path d="M139.25,97.72C139.25,95.526 141.056,93.72 143.25,93.72C145.444,93.72 147.25,95.526 147.25,97.72C147.25,99.914 145.444,101.72 143.25,101.72C141.056,101.72 139.25,99.914 139.25,97.72ZM143.25,99.87C143.267,99.87 143.283,99.871 143.3,99.871C144.468,99.871 145.43,98.909 145.43,97.741C145.43,96.572 144.468,95.611 143.3,95.611C142.139,95.611 141.181,96.559 141.17,97.72C141.158,98.863 142.068,99.822 143.21,99.87L143.25,99.87Z" style="fill:white;fill-rule:nonzero;"/>
            </g>
        </g>
    </g>
</svg>
