<?xml version="1.0" encoding="utf-8"?>
<!-- Generator: Adobe Illustrator 24.1.1, SVG Export Plug-In . SVG Version: 6.00 Build 0)  -->
<svg version="1.1" xmlns="http://www.w3.org/2000/svg" xmlns:xlink="http://www.w3.org/1999/xlink" x="0px" y="0px"
	 viewBox="0 0 480.2 480.2" style="enable-background:new 0 0 480.2 480.2;" xml:space="preserve">
<style type="text/css">
	.st0{fill:#877BD0;}
	.st1{fill:#64C4AB;}
	.st2{fill:#D45871;}
	.st3{fill:#C10B25;}
	.st4{fill:#C2BAA6;}
	.st5{fill:#A8A9AD;}
	.st6{fill:#7BBEEC;}
	.st7{fill:#D8D699;}
	.st8{fill:#DB8AA5;}
	.st9{fill:#A39161;}
</style>
<g id="Capa_1">
	<g>
		<g>
			<g>
				<path class="st0" d="M327.4,301.1c-1.5-4.2-6.1-6.3-10.2-4.8c-4.2,1.5-6.3,6.1-4.8,10.2c0,0.1,0.1,0.2,0.1,0.3
					c7.3,19,7.8,33.6,1.4,40c-7.7,7.7-27,5.3-51.6-6.4c-32.9-17.1-62.8-39.4-88.6-66.1c-62.7-62.7-88.5-124.2-72.5-140.2
					c5.1-4,11.7-5.6,18.1-4.2c4.4,0.3,8.2-3,8.6-7.4c0.3-4.3-2.8-8-7-8.5c-11.1-2-22.5,1.3-31,8.8c-29.3,29.3,15.5,105.7,72.5,162.8
					c27,28,58.4,51.3,93,69.2c6.3,3,12.7,5.6,19.3,7.7l-56.8,21.6C142,355.2,87.3,287.9,74.7,207.7c-0.7-4.4-4.8-7.3-9.1-6.7
					s-7.3,4.8-6.7,9.1c1.3,8,2.9,16,5,23.8c18.4,69.8,66.9,127.8,132.4,158.2l-93.6,35.4c-0.4-0.7-1-1.4-1.6-1.9
					c-23.8-19.1-38.7-47.1-41.3-77.5l-3.7-45c-0.3-4.4-4.1-7.6-8.4-7.4c-0.1,0-0.2,0-0.2,0c-4.4,0.4-7.7,4.2-7.3,8.6c0,0,0,0,0,0.1
					l3.8,44.9c2.8,32.5,18,62.6,42.3,84.3l-66.7,25.3l12-49.2c1-4.3-1.6-8.6-5.9-9.7s-8.6,1.6-9.7,5.9l-15.6,64
					c-1.1,4.3,1.6,8.6,5.9,9.7c1.6,0.4,3.2,0.3,4.7-0.3l296-112c0.5-0.2,0.9-0.5,1.3-0.8c6.4-1,12.3-3.9,17-8.5
					C333.2,350.3,340,333.9,327.4,301.1z"/>
			</g>
		</g>
	</g>
	<g>
		<g>
			<g>
				<path class="st1" d="M402.9,280.5c-43.2-16.2-90-20.7-135.5-13.2l-28.6,4.8c-4.3,0.8-7.2,5-6.3,9.4c0.8,4.2,4.8,7,9,6.4
					l28.6-4.8c42.8-7.1,86.7-2.8,127.3,12.4c0.9,0.3,1.9,0.5,2.8,0.5c4.4,0,8-3.6,8-8C408.1,284.7,406,281.7,402.9,280.5z"/>
			</g>
		</g>
	</g>
	<g>
		<g>
			<g>
				<path class="st2" d="M431.4,156.6c-1.9-4-6.7-5.7-10.7-3.8l-168,80c-4,1.9-5.7,6.7-3.8,10.7c0,0,0,0,0,0c1.9,4,6.7,5.7,10.7,3.8
					c0,0,0,0,0,0l168-80C431.6,165.3,433.3,160.6,431.4,156.6z"/>
			</g>
		</g>
	</g>
	<g>
		<g>
			<g>
				<path class="st3" d="M194.4,54.3c-0.9-4.3-5.1-7.1-9.4-6.2c-4.3,0.9-7.1,5.1-6.2,9.4c0,0.1,0,0.2,0.1,0.3
					c10.1,45.2,6,92.5-11.9,135.3L155.2,221c-1.7,4.1,0.2,8.7,4.3,10.4c1,0.4,2,0.6,3.1,0.6c3.2,0,6.1-1.9,7.4-4.9l11.6-27.9
					C200.8,153.4,205.2,102.8,194.4,54.3z"/>
			</g>
		</g>
	</g>
	<g>
		<g>
			<g>
				<path class="st4" d="M440.1,288c-13.3,0-24,10.7-24,24s10.7,24,24,24s24-10.7,24-24S453.4,288,440.1,288z M440.1,320
					c-4.4,0-8-3.6-8-8s3.6-8,8-8s8,3.6,8,8S444.5,320,440.1,320z"/>
			</g>
		</g>
	</g>
	<g>
		<g>
			<g>
				<path class="st0" d="M248.1,64c-13.3,0-24,10.7-24,24s10.7,24,24,24c13.3,0,24-10.7,24-24S261.4,64,248.1,64z M248.1,96
					c-4.4,0-8-3.6-8-8s3.6-8,8-8s8,3.6,8,8S252.5,96,248.1,96z"/>
			</g>
		</g>
	</g>
	<g>
		<g>
			<g>
				<circle class="st5" cx="176.1" cy="16" r="16"/>
			</g>
		</g>
	</g>
	<g>
		<g>
			<g>
				<path class="st6" d="M400.1,40c-4.4,0-8,3.6-8,8v8c0,4.4,3.6,8,8,8s8-3.6,8-8v-8C408.1,43.6,404.5,40,400.1,40z"/>
			</g>
		</g>
	</g>
	<g>
		<g>
			<g>
				<path class="st6" d="M400.1,0c-4.4,0-8,3.6-8,8v8c0,4.4,3.6,8,8,8s8-3.6,8-8V8C408.1,3.6,404.5,0,400.1,0z"/>
			</g>
		</g>
	</g>
	<g>
		<g>
			<g>
				<path class="st6" d="M424.1,24h-8c-4.4,0-8,3.6-8,8s3.6,8,8,8h8c4.4,0,8-3.6,8-8S428.5,24,424.1,24z"/>
			</g>
		</g>
	</g>
	<g>
		<g>
			<g>
				<path class="st6" d="M384.1,24h-8c-4.4,0-8,3.6-8,8s3.6,8,8,8h8c4.4,0,8-3.6,8-8S388.5,24,384.1,24z"/>
			</g>
		</g>
	</g>
	<g>
		<g>
			<g>
				<path class="st7" d="M344.1,87.8h-40.2c-4.4,0-8,3.6-8,8V136c0,4.4,3.6,8,8,8h40.2c4.4,0,8-3.6,8-8V95.8
					C352.1,91.4,348.5,87.8,344.1,87.8z M336.1,128h-24.2v-24.2h24.2V128z"/>
			</g>
		</g>
	</g>
	<g>
		<g>
			<g>
				<path class="st8" d="M285.8,154.6c-2.9-3.1-7.8-3.4-11.1-0.6l-80,72c-3.3,3-3.5,8-0.6,11.3c3,3.3,8,3.5,11.3,0.6l80-72
					C288.7,162.9,288.8,157.9,285.8,154.6z"/>
			</g>
		</g>
	</g>
	<g>
		<g>
			<path class="st1" d="M432.1,184c-4.4,0-8,3.6-8,8v8c0,4.4,3.6,8,8,8s8-3.6,8-8v-8C440.1,187.6,436.5,184,432.1,184z"/>
		</g>
	</g>
	<g>
		<g>
			<path class="st1" d="M466,182.6l-5.7-5.7c-3.2-3.1-8.2-3-11.3,0.2c-3,3.1-3,8,0,11.1l5.7,5.7c3.2,3.1,8.2,3,11.3-0.2
				C469,190.6,469,185.7,466,182.6z"/>
		</g>
	</g>
	<g>
		<g>
			<path class="st1" d="M472.1,152h-8c-4.4,0-8,3.6-8,8s3.6,8,8,8h8c4.4,0,8-3.6,8-8S476.5,152,472.1,152z"/>
		</g>
	</g>
	<g>
		<g>
			<g>
				<path class="st1" d="M465.9,126.1c-3.1-3-8-3-11.1,0l-5.7,5.7c-3.1,3.1-3.1,8.2,0,11.3c1.5,1.5,3.5,2.3,5.7,2.3l0,0
					c2.1,0,4.2-0.8,5.7-2.3l5.7-5.7C469.1,134.2,469,129.1,465.9,126.1z"/>
			</g>
		</g>
	</g>
	<g>
		<g>
			<g>
				<path class="st1" d="M432.1,112c-4.4,0-8,3.6-8,8v8c0,4.4,3.6,8,8,8s8-3.6,8-8v-8C440.1,115.6,436.5,112,432.1,112z"/>
			</g>
		</g>
	</g>
	<g>
		<g>
			<g>
				<path class="st1" d="M415.1,131.7l-5.7-5.7c-3.2-3.1-8.2-3-11.3,0.2c-3,3.1-3,8,0,11.1l5.7,5.7c3.2,3.1,8.2,3,11.3-0.2
					C418.1,139.7,418.1,134.8,415.1,131.7z"/>
			</g>
		</g>
	</g>
	<g>
		<g>
			<g>
				<path class="st9" d="M95.7,34.6c-0.9-2.9-3.4-5-6.5-5.4l-23.5-3.4L55.3,4.5c-2.3-4-7.4-5.3-11.4-2.9c-1.2,0.7-2.2,1.7-3,2.9
					L30.4,25.7L7,29.2c-4.4,0.6-7.4,4.7-6.8,9.1c0.3,1.7,1.1,3.3,2.3,4.6l17,16.6l-4,23.4c-0.8,4.4,2.1,8.5,6.5,9.3
					c1.8,0.3,3.6,0,5.1-0.8l21-11.1l21,11c3.9,2.1,8.7,0.6,10.8-3.4c0.8-1.6,1.1-3.3,0.8-5.1l-4-23.4l17-16.6
					C95.9,40.7,96.7,37.5,95.7,34.6z M62.5,50.8c-1.9,1.8-2.7,4.5-2.3,7.1l2,11.6L51.8,64c-2.3-1.2-5.1-1.2-7.4,0L34,69.5l2-11.6
					c0.4-2.6-0.4-5.2-2.3-7.1l-8.4-8.2L36.9,41c2.6-0.4,4.9-2,6-4.4l5.2-10.5l5.2,10.5c1.2,2.4,3.4,4,6,4.4l11.6,1.7L62.5,50.8z"/>
			</g>
		</g>
	</g>
	<g>
		<g>
			<g>
				<path class="st6" d="M453.1,401L453.1,401l-3.3-4.9c-18.5-27.6-47.5-46.4-80.3-51.9c-4.4-0.6-8.4,2.4-9,6.8
					c-0.6,4.2,2.2,8.2,6.4,9c23.6,4,45.2,16,61,34c-13.3,2.4-25,10.4-32,22c-8.6,15.4-3.1,34.9,12.3,43.5s34.9,3.1,43.5-12.3
					c3.3-6.4,5.1-13.4,5.2-20.5c8.5,12.4,9.2,28.5,1.8,41.5c-2.3,3.8-1,8.7,2.8,11c3.8,2.3,8.7,1,11-2.8c0.1-0.1,0.1-0.2,0.2-0.4
					C487.3,449.7,478.6,416.7,453.1,401z M437.8,439.3c-4.3,7.7-14,10.5-21.7,6.3s-10.5-14-6.3-21.7c0,0,0-0.1,0.1-0.1
					c4.7-7.7,12.7-12.9,21.7-14.1c1.4,0,2.8,0.3,4,0.9C442.2,414.3,442.6,430.6,437.8,439.3z"/>
			</g>
		</g>
	</g>
</g>
<g id="katman_2">
</g>
</svg>
