<?xml version="1.0" encoding="utf-8"?>
<!-- Generator: Adobe Illustrator 24.1.1, SVG Export Plug-In . SVG Version: 6.00 Build 0)  -->
<svg version="1.1" id="Capa_1" xmlns="http://www.w3.org/2000/svg" xmlns:xlink="http://www.w3.org/1999/xlink" x="0px" y="0px"
	 viewBox="0 0 455.1 455.1" style="enable-background:new 0 0 455.1 455.1;" xml:space="preserve">
<style type="text/css">
	.st0{fill:#64C4AB;}
	.st1{fill:#53AD93;}
	.st2{fill:#FFFFFF;}
</style>
<g>
	<circle class="st0" cx="227.6" cy="227.6" r="227.6"/>
	<path class="st1" d="M455.2,227.6c0,125.2-102.4,227.6-227.6,227.6c-72.6,0-136.6-32.7-177.8-85.4c38.4,31.3,88.2,49.8,142.3,49.8
		c125.2,0,227.6-102.4,227.6-227.6c0-54.1-18.5-103.9-49.8-142.3C422.5,91,455.2,155,455.2,227.6z"/>
	<path class="st2" d="M351.3,162.1l-148,162.2c-10,11.4-27,11.4-37,0l-62.6-69.7c-8.5-10-8.5-25.6,1.4-35.6
		c10-8.5,25.6-8.5,35.6,1.4l44.1,49.8l129.5-140.8c10-10,25.6-11.4,35.6-1.4C359.9,136.5,359.9,153.6,351.3,162.1z"/>
</g>
</svg>
