<?xml version="1.0" encoding="utf-8"?>
<!-- Generator: Adobe Illustrator 24.1.1, SVG Export Plug-In . SVG Version: 6.00 Build 0)  -->
<svg version="1.1" id="Capa_1" xmlns="http://www.w3.org/2000/svg" xmlns:xlink="http://www.w3.org/1999/xlink" x="0px" y="0px"
	 viewBox="0 0 455.1 455.1" style="enable-background:new 0 0 455.1 455.1;" xml:space="preserve">
<style type="text/css">
	.st0{fill:#E24C4B;}
</style>
<path class="st0" d="M331.4,331.4c-8.5,8.5-22.8,8.5-31.3,0l-72.5-72.5L155,331.4c-8.5,8.5-22.8,8.5-31.3,0s-8.5-22.8,0-31.3
	l72.5-72.5L123.7,155c-8.5-8.5-8.5-22.8,0-31.3s22.8-8.5,31.3,0l72.5,72.5l72.5-72.5c8.5-8.5,22.8-8.5,31.3,0s8.5,22.8,0,31.3
	l-72.5,72.5l72.5,72.5C339.9,308.6,339.9,322.8,331.4,331.4z"/>
</svg>
