<?xml version="1.0" encoding="utf-8"?>
<!-- Generator: Adobe Illustrator 24.1.1, SVG Export Plug-In . SVG Version: 6.00 Build 0)  -->
<svg version="1.1" id="katman_4" xmlns="http://www.w3.org/2000/svg" xmlns:xlink="http://www.w3.org/1999/xlink" x="0px" y="0px"
	 viewBox="0 0 566.9 850.4" style="enable-background:new 0 0 566.9 850.4;" xml:space="preserve">
<style type="text/css">
	.st0{fill:#C11729;}
	.st1{fill:#FFFFFF;}
	.st2{opacity:5.000000e-02;fill:url(#SVGID_1_);}
</style>
<rect x="0" y="0" transform="matrix(-1 -4.489354e-11 4.489354e-11 -1 566.9291 850.3937)" width="566.9" height="850.4"/>
<rect x="124.9" y="788.1" class="st0" width="283.5" height="5.2"/>
<g>
	<path class="st1" d="M232.2,816.4c0,1.5-0.4,2.6-1.1,3.3c-0.7,0.6-1.8,1-3.2,1c-0.8,0-1.4-0.1-1.9-0.3c-0.5-0.2-0.9-0.5-1.2-0.9
		s-0.5-0.8-0.6-1.3s-0.2-1-0.2-1.6v-0.6h2.6v0.4c0,0.8,0.1,1.3,0.3,1.7c0.2,0.4,0.5,0.5,1,0.5c0.5,0,0.9-0.2,1-0.5
		c0.2-0.4,0.3-0.9,0.3-1.7v-10.2h2.9V816.4z"/>
	<path class="st1" d="M236.8,816.1c0,0.4,0,0.7,0.1,1s0.1,0.6,0.3,0.8c0.1,0.2,0.3,0.4,0.5,0.5c0.2,0.1,0.5,0.2,0.8,0.2
		c0.3,0,0.6-0.1,0.8-0.2c0.2-0.1,0.4-0.3,0.5-0.5c0.1-0.2,0.2-0.5,0.3-0.8c0-0.3,0.1-0.6,0.1-1v-10h2.9v10c0,0.9-0.1,1.7-0.4,2.3
		c-0.3,0.6-0.6,1.1-1,1.4s-0.9,0.6-1.5,0.7s-1.1,0.2-1.7,0.2s-1.2-0.1-1.7-0.2c-0.5-0.1-1-0.3-1.5-0.6s-0.8-0.8-1-1.4
		c-0.3-0.6-0.4-1.4-0.4-2.3v-10h2.9V816.1z"/>
	<path class="st1" d="M251.6,815.9L251.6,815.9l0-9.8h2.6v14.3H251l-3.5-10h0v10h-2.6v-14.3h3.3L251.6,815.9z"/>
	<path class="st1" d="M264.3,808.5h-5.1v3.4h4.8v2.4h-4.8v3.8h5.3v2.4h-8.2v-14.3h8V808.5z"/>
	<path class="st1" d="M268.6,819.9c0,0.5,0,1-0.1,1.4c-0.1,0.4-0.2,0.8-0.4,1.2s-0.5,0.6-0.8,0.8c-0.3,0.2-0.8,0.3-1.3,0.4v-1.4
		c0.3-0.1,0.6-0.3,0.8-0.6c0.2-0.3,0.3-0.6,0.3-1v-0.3h-1v-3.1h2.6V819.9z"/>
	<path class="st1" d="M274.1,820.4c0-0.6,0.1-1.2,0.2-1.8s0.3-1.1,0.6-1.6c0.3-0.5,0.6-1,1-1.4c0.4-0.5,0.8-1,1.4-1.4l1.2-1.1
		c0.3-0.3,0.6-0.5,0.8-0.8c0.2-0.2,0.3-0.5,0.5-0.7c0.1-0.2,0.2-0.5,0.2-0.8c0-0.3,0-0.6,0-1c0-1.2-0.5-1.8-1.4-1.8
		c-0.4,0-0.6,0.1-0.8,0.2c-0.2,0.1-0.4,0.3-0.5,0.6s-0.2,0.5-0.2,0.9c0,0.3,0,0.7,0,1.1h-2.8v-0.5c0-1.3,0.4-2.3,1.1-3
		c0.7-0.7,1.8-1.1,3.3-1.1c1.4,0,2.5,0.3,3.2,1c0.7,0.7,1,1.6,1,2.9c0,0.5,0,0.9-0.1,1.3c-0.1,0.4-0.2,0.8-0.4,1.1
		c-0.2,0.4-0.4,0.7-0.7,1.1c-0.3,0.3-0.6,0.7-1,1l-1.6,1.5c-0.4,0.4-0.8,0.8-1,1.1c-0.2,0.4-0.4,0.7-0.5,1h5.3v2.2H274.1z"/>
	<path class="st1" d="M283.8,811c0.1-0.9,0.2-1.7,0.5-2.4c0.3-0.7,0.7-1.3,1.3-1.7c0.6-0.4,1.4-0.6,2.5-0.6c0.9,0,1.6,0.1,2.2,0.4
		c0.6,0.2,1,0.6,1.4,1.2c0.3,0.5,0.6,1.3,0.7,2.1c0.1,0.9,0.2,1.9,0.2,3.2c0,1,0,1.9-0.1,2.8c-0.1,0.9-0.2,1.7-0.5,2.4
		c-0.3,0.7-0.7,1.3-1.3,1.7c-0.6,0.4-1.4,0.6-2.5,0.6c-0.9,0-1.6-0.1-2.1-0.3s-1-0.6-1.4-1.2c-0.3-0.5-0.6-1.3-0.7-2.1
		c-0.1-0.9-0.2-1.9-0.2-3.2C283.7,812.8,283.8,811.9,283.8,811z M286.7,816.6c0,0.6,0.1,1,0.3,1.3c0.1,0.3,0.3,0.5,0.5,0.7
		s0.5,0.2,0.8,0.2c0.3,0,0.6-0.1,0.8-0.2s0.4-0.4,0.5-0.8c0.1-0.4,0.2-0.9,0.2-1.5s0.1-1.4,0.1-2.3v-1.5c0-0.9,0-1.6-0.1-2.2
		s-0.1-1-0.3-1.3c-0.1-0.3-0.3-0.6-0.5-0.7c-0.2-0.1-0.5-0.2-0.8-0.2c-0.3,0-0.6,0.1-0.8,0.2c-0.2,0.2-0.4,0.4-0.5,0.8
		c-0.1,0.4-0.2,0.9-0.2,1.5s-0.1,1.4-0.1,2.3v1.5C286.6,815.3,286.6,816.1,286.7,816.6z"/>
	<path class="st1" d="M293.3,820.4c0-0.6,0.1-1.2,0.2-1.8s0.3-1.1,0.6-1.6c0.3-0.5,0.6-1,1-1.4c0.4-0.5,0.8-1,1.4-1.4l1.2-1.1
		c0.3-0.3,0.6-0.5,0.8-0.8c0.2-0.2,0.3-0.5,0.5-0.7c0.1-0.2,0.2-0.5,0.2-0.8c0-0.3,0-0.6,0-1c0-1.2-0.5-1.8-1.4-1.8
		c-0.4,0-0.6,0.1-0.8,0.2c-0.2,0.1-0.4,0.3-0.5,0.6s-0.2,0.5-0.2,0.9c0,0.3,0,0.7,0,1.1h-2.8v-0.5c0-1.3,0.4-2.3,1.1-3
		c0.7-0.7,1.8-1.1,3.3-1.1c1.4,0,2.5,0.3,3.2,1c0.7,0.7,1,1.6,1,2.9c0,0.5,0,0.9-0.1,1.3c-0.1,0.4-0.2,0.8-0.4,1.1
		c-0.2,0.4-0.4,0.7-0.7,1.1c-0.3,0.3-0.6,0.7-1,1l-1.6,1.5c-0.4,0.4-0.8,0.8-1,1.1c-0.2,0.4-0.4,0.7-0.5,1h5.3v2.2H293.3z"/>
	<path class="st1" d="M306.2,810.4h-2.8v-1.9h0.3c1,0,1.7-0.2,2.3-0.5c0.6-0.4,0.9-0.9,1.1-1.7h2.1v14.2h-2.9V810.4z"/>
</g>
<g>
	
		<image style="overflow:visible;" width="331" height="3844" xlink:href="5D12581A.png"  transform="matrix(0.24 0 0 0.24 497.04 -36)">
	</image>
</g>
<g>
	
		<image style="overflow:visible;" width="331" height="3844" xlink:href="5D12581E.png"  transform="matrix(0.24 0 0 0.24 523.68 -36)">
	</image>
</g>
<linearGradient id="SVGID_1_" gradientUnits="userSpaceOnUse" x1="2.000888e-11" y1="425.1968" x2="566.9291" y2="425.1968">
	<stop  offset="0" style="stop-color:#CCCCCC"/>
	<stop  offset="0.1481" style="stop-color:#B2B2B2"/>
	<stop  offset="0.316" style="stop-color:#9B9B9B"/>
	<stop  offset="0.4997" style="stop-color:#8C8C8C"/>
	<stop  offset="0.7089" style="stop-color:#828282"/>
	<stop  offset="1" style="stop-color:#808080"/>
</linearGradient>
<rect x="0" y="0" class="st2" width="566.9" height="850.4"/>
</svg>
