<?xml version="1.0" encoding="utf-8"?>
<!-- Generator: Adobe Illustrator 24.1.1, SVG Export Plug-In . SVG Version: 6.00 Build 0)  -->
<svg version="1.1" id="katman_2" xmlns="http://www.w3.org/2000/svg" xmlns:xlink="http://www.w3.org/1999/xlink" x="0px" y="0px"
	 viewBox="0 0 566.9 850.4" style="enable-background:new 0 0 566.9 850.4;" xml:space="preserve">
<style type="text/css">
	.st0{fill:#C11729;}
	.st1{fill-rule:evenodd;clip-rule:evenodd;fill:#C11729;}
	.st2{fill:none;}
	.st3{fill:#FFFFFF;}
	.st4{fill-rule:evenodd;clip-rule:evenodd;fill:#FFFFFF;}
	.st5{opacity:5.000000e-02;fill:url(#SVGID_1_);}
</style>
<rect x="0" y="0" width="566.9" height="850.4"/>
<g>
	
		<image style="overflow:visible;" width="331" height="3844" xlink:href="A30403D3.png"  transform="matrix(0.24 0 0 0.24 -9.6 -36)">
	</image>
</g>
<g>
	
		<image style="overflow:visible;" width="330" height="3844" xlink:href="A30403D1.png"  transform="matrix(0.24 0 0 0.24 -36 -36)">
	</image>
</g>
<g>
	<rect x="259.7" y="177.5" class="st0" width="91.9" height="22.1"/>
	<path class="st1" d="M236.8,185.5c1.7,3.2,2.7,9.8,3,14.1h-26.1c-0.3-1.9-1-3.7-1.8-5.4L236.8,185.5z M229.1,173.2
		c3,3.4,5.9,7.6,7.1,10.6l-25,9.1c-0.9-1.6-2.1-3.2-3.4-4.5L229.1,173.2z M217.7,164.9c3.7,1.9,7.2,4.4,10.3,7.2l-21.2,15.5
		c-1.3-1.1-2.7-1.9-4.3-2.5L217.7,164.9z M204.2,160.3c4.1,0.8,8.1,2,12,3.8l-15,20.5c-1.5-0.5-3.1-0.8-4.7-0.8L204.2,160.3z
		 M190.8,160.1c1.2-0.2,2.5-0.3,3.9-0.4c2.7-0.2,5.4-0.1,8,0.3l-7.8,23.6c-1.4,0-2.8,0.1-4.2,0.5V160.1z M178.5,163.4
		c3.5-1.5,7.1-2.5,10.9-3.1v24.2c-1.1,0.3-2.2,0.8-3.2,1.4L178.5,163.4z M168.5,170.1c2.5-2.5,5.5-4.5,8.7-6l7.9,22.5
		c-1,0.6-1.8,1.4-2.6,2.2L168.5,170.1z M162.1,179c1.4-2.9,3.2-5.6,5.3-7.9l14.2,18.6l-0.2,0.3c-0.4,0.6-0.8,1.3-1,2.1L162.1,179z
		 M159,189.4c0.5-3.1,1.3-6,2.5-8.9l18.4,12.9c-0.2,0.8-0.4,1.7-0.5,2.5L159,189.4z M158.9,199.1c-0.2-1.6-0.3-3.2-0.3-4.7
		c0-1.2,0.1-2.3,0.2-3.5l20.4,6.3c0,0.6,0,1,0,1c0,0.4,0.1,0.9,0.1,1.3L158.9,199.1z M161.1,208.4c-1-2.5-1.7-5.1-2.1-7.7h20.5
		c0.1,0.5,0.2,1,0.4,1.4L161.1,208.4z M166.1,216.4c-1.8-2-3.2-4.2-4.4-6.6l18.6-6.3c0.3,0.8,0.7,1.4,1.2,2.1L166.1,216.4z
		 M173.4,222c-2.3-1.2-4.3-2.8-6.1-4.6l15.3-10.9c0.5,0.5,1,0.9,1.5,1.3L173.4,222z M181.8,225.4c-2.5-0.6-4.9-1.6-7.2-2.7
		l10.4-14.2c0.5,0.3,1,0.5,1.6,0.6L181.8,225.4z M189.6,226.2c-0.9,0.1-1.8,0.1-2.7,0.1c-1.3-0.1-2.5-0.3-3.8-0.6l4.7-16.4
		c0.6,0.1,1.2,0.1,1.8,0.2L189.6,226.2z M197.8,224.6c-2.1,0.8-4.3,1.2-6.6,1.4l-0.3-16.6c0.5,0,1-0.1,1.4-0.2L197.8,224.6z
		 M204.4,220.8c-1.6,1.4-3.4,2.5-5.3,3.3l-5.6-15.1c0.5-0.2,1-0.4,1.5-0.7L204.4,220.8z M209.2,214.7c-1,1.9-2.2,3.6-3.6,5.1
		l-9.3-12.3c0.5-0.5,1-1.1,1.4-1.7L209.2,214.7z M211.4,207.8c-0.3,1.9-0.9,3.7-1.6,5.4l-11.9-8.4c0.2-0.5,0.4-1.1,0.5-1.7
		L211.4,207.8z M211.7,201c0.1,0.8,0.1,1.5,0.1,2.3c0,1,0,1.9-0.1,2.9l-12.9-4.1c0.1-0.5,0.1-1,0.1-1.4L211.7,201z M210,194.8
		c0.8,1.5,1.2,3.2,1.6,4.8h-12.8c-0.1-0.3-0.1-0.6-0.2-1L210,194.8z M206.1,189.8c1.3,1.1,2.4,2.4,3.2,3.9l-11.1,3.9
		c-0.2-0.5-0.4-1.2-0.7-1.7L206.1,189.8z M201.1,186.8c1.4,0.5,2.7,1.2,3.8,2.1l-8.1,5.8c-0.3-0.4-0.5-0.8-0.9-1.1L201.1,186.8z
		 M195.7,185.7c1.4,0.1,2.7,0.3,4.1,0.6l-4.7,6.5c-0.4-0.3-0.9-0.6-1.4-0.8L195.7,185.7z M190.8,186.3c1.2-0.3,2.3-0.5,3.6-0.5
		l-1.9,5.8c-0.5-0.1-1.1-0.2-1.6-0.3V186.3z M186.9,187.8c0.8-0.4,1.7-0.8,2.6-1.1v4.6c-0.5,0-0.9,0.1-1.4,0.1L186.9,187.8z
		 M183.7,190c0.6-0.6,1.3-1.1,2.1-1.6l1.2,3.3c-0.5,0.1-1.1,0.4-1.6,0.7L183.7,190z"/>
	<rect x="158.6" y="159.6" class="st2" width="283.5" height="72.5"/>
	<g>
		<path class="st3" d="M280.1,209.7v3.5h-2.4v10.9c0,1-0.1,2.1-0.4,3.2c-0.7,2.1-2.3,3.7-4.3,4.4c-1,0.3-2.1,0.5-3.2,0.5
			c-1,0-2.1-0.1-3.1-0.4c-1-0.3-1.9-0.9-2.6-1.6c-0.8-0.8-1.4-1.7-1.8-2.8c-0.3-1.1-0.4-2.2-0.4-3.3v-10.9h-2.4v-3.5h8.6v3.5h-2
			v10.4c0,0.5,0,1.1,0.1,1.6c0.1,0.5,0.3,1,0.5,1.5c0.3,0.5,0.8,0.9,1.3,1.2c1,0.5,2.2,0.5,3.3,0.1c1-0.5,1.8-1.4,1.9-2.6
			c0.1-0.5,0.1-1.2,0.1-1.7v-10.4h-2v-3.5H280.1z"/>
		<polygon class="st3" points="302.1,231.8 298.2,231.8 287.8,217.3 287.8,228.3 290.2,228.3 290.2,231.8 281.2,231.8 281.2,228.3 
			283.6,228.3 283.6,213.2 281.2,213.2 281.2,209.7 287.4,209.7 297.9,224.5 297.9,213.2 295.5,213.2 295.5,209.7 304.5,209.7 
			304.5,213.2 302.1,213.2 		"/>
		<polygon class="st3" points="312.6,228.3 315,228.3 315,231.8 306,231.8 306,228.3 308.4,228.3 308.4,213.2 306,213.2 306,209.7 
			315,209.7 315,213.2 312.6,213.2 		"/>
		<polygon class="st3" points="329.4,231.8 324.8,231.8 318.4,213.2 316.1,213.2 316.1,209.7 325,209.7 325,213.2 322.9,213.2 
			327.2,225.9 331.9,213.2 329.7,213.2 329.7,209.7 338.5,209.7 338.5,213.2 336.1,213.2 		"/>
		<polygon class="st3" points="339.3,228.3 341.8,228.3 341.8,213.2 339.3,213.2 339.3,209.7 355.7,209.7 355.7,216.4 351.5,216.4 
			351.5,213.5 346,213.5 346,219 352.4,219 352.4,222.2 346,222.2 346,228.1 351.5,228.1 351.5,225.1 355.7,225.1 355.7,231.8 
			339.3,231.8 		"/>
		<path class="st3" d="M359.7,213.2h-2.4v-3.5h9.9c1,0,2.1,0.1,3.1,0.3c1,0.2,2,0.7,2.7,1.4c0.8,0.7,1.5,1.6,2,2.6
			c0.5,1,0.7,2.1,0.7,3.2c0,0.8-0.1,1.6-0.4,2.3c-0.3,0.8-0.6,1.4-1.1,2.1c-0.5,0.6-1,1.2-1.7,1.5c-0.7,0.4-1.4,0.6-2.3,0.7l3.4,4.4
			h2.5v3.6h-5.2l-7-9.9v6.4h1.9v3.5h-8.5v-3.5h2.4L359.7,213.2L359.7,213.2z M366.1,221.5c0.6,0,1.3-0.1,1.9-0.1
			c0.6-0.1,1.2-0.3,1.8-0.8c0.5-0.3,0.9-0.9,1.1-1.4c0.5-1.1,0.5-2.4,0-3.5c-0.2-0.5-0.6-1-1.1-1.4c-0.4-0.3-0.9-0.6-1.4-0.7
			c-0.5-0.1-1.1-0.1-1.6-0.1h-2.9v8H366.1z"/>
		<path class="st3" d="M381,225.3c0,0.4,0.1,0.9,0.2,1.3c0.1,0.4,0.3,0.8,0.7,1.1c0.3,0.3,0.6,0.5,1,0.7c0.4,0.2,0.9,0.3,1.4,0.3
			c0.8,0,1.6-0.3,2.3-0.8c0.6-0.5,1-1.4,0.9-2.2c0-0.5-0.1-1-0.3-1.4c-0.2-0.3-0.5-0.7-0.9-0.9c-0.3-0.3-0.8-0.4-1.2-0.5
			c-0.4-0.1-0.9-0.3-1.3-0.4c-0.8-0.2-1.6-0.5-2.3-0.8c-0.8-0.3-1.4-0.7-2.1-1.2c-1.6-1.1-2.5-2.9-2.4-4.8c0-0.9,0.2-1.7,0.5-2.5
			c0.3-0.8,0.8-1.5,1.4-2.1c1.3-1.2,3-1.8,4.7-1.8c0.8,0,1.5,0.1,2.2,0.4c0.7,0.3,1.3,0.7,1.7,1.3v-1.2h3.2v5.9H387
			c0-0.8-0.3-1.5-0.8-2.1c-0.5-0.5-1.3-0.8-2.1-0.8c-0.8,0-1.5,0.2-2.1,0.8c-0.9,0.9-1.2,2.3-0.5,3.4c0.2,0.3,0.5,0.6,0.8,0.9
			c0.3,0.2,0.8,0.4,1.2,0.5l1.3,0.4c0.9,0.2,1.7,0.5,2.5,0.8c0.8,0.3,1.6,0.7,2.3,1.2c0.7,0.5,1.2,1.2,1.6,2.1
			c0.3,0.8,0.5,1.7,0.5,2.6c0,1-0.2,1.9-0.5,2.7c-0.7,1.6-2,3-3.6,3.6c-0.9,0.3-1.9,0.5-2.8,0.5c-0.8,0-1.6-0.1-2.3-0.5
			c-0.8-0.3-1.4-0.8-1.9-1.4v1.4h-3.4v-6.5L381,225.3L381,225.3z"/>
		<polygon class="st3" points="399.8,228.3 402.1,228.3 402.1,231.8 393.1,231.8 393.1,228.3 395.5,228.3 395.5,213.2 393.1,213.2 
			393.1,209.7 402.1,209.7 402.1,213.2 399.8,213.2 		"/>
		<polygon class="st3" points="414.4,228.3 416.8,228.3 416.8,231.8 407.8,231.8 407.8,228.3 410.2,228.3 410.2,213.4 406.9,213.4 
			406.9,216.7 403.6,216.7 403.6,209.7 421,209.7 421,216.7 417.7,216.7 417.7,213.4 414.4,213.4 		"/>
		<polygon class="st3" points="434,228.3 436.4,228.3 436.4,231.8 427.4,231.8 427.4,228.3 429.8,228.3 429.8,224.1 424,213.2 
			421.8,213.2 421.8,209.7 430.3,209.7 430.3,213.2 428.2,213.2 432,220.5 435.7,213.2 433.5,213.2 433.5,209.7 442.1,209.7 
			442.1,213.2 439.9,213.2 434,224.1 		"/>
		<polygon class="st4" points="377.3,196.1 375.3,196.1 367,188.3 374.9,181 376.9,181 376.9,177.5 367.7,177.5 367.7,181 
			369.7,181 362.8,187.5 362.8,181 365.2,181 365.2,177.5 356.2,177.5 356.2,181 358.6,181 358.6,196.1 356.2,196.1 356.2,199.6 
			365.2,199.6 365.2,196.1 362.8,196.1 362.8,189.3 370.1,196.1 367.9,196.1 367.9,199.6 377.3,199.6 		"/>
		<path class="st4" d="M387.9,200.1c6.4,0,11.5-5.2,11.5-11.6c0-6.4-5.2-11.5-11.6-11.5s-11.5,5.2-11.5,11.6l0,0
			C376.4,195,381.5,200,387.9,200.1 M387.9,195.8c-4.1,0-7.4-3.2-7.4-7.3s3.2-7.4,7.3-7.4c4.1,0,7.4,3.2,7.4,7.2
			c0.1,4.1-3.1,7.4-7.1,7.5C388,195.8,388,195.8,387.9,195.8"/>
		<path class="st3" d="M423.2,192.3h-4.5c-2.2,3.4-6.7,4.3-10.1,2.2c-2.1-1.4-3.4-3.6-3.4-6.1c-0.1-3.9,3-7.2,6.9-7.3
			c0.1,0,0.3,0,0.3,0c2.5,0,4.8,1.3,6.1,3.4h4.1v-7.1H419v2.3c-1.8-1.8-4.3-2.8-6.9-2.7c-6.3,0.1-11.3,5.2-11.3,11.5
			c0,3.1,1.2,6,3.4,8.2c1.6,1.6,3.8,2.7,6,3.2v3.7h4v-3.7C418.4,199.1,421.8,196.3,423.2,192.3"/>
	</g>
	<path class="st3" d="M284.2,193.2c0.3,1.9,2,3.3,4,3.1c1.8-0.2,3.1-1.7,3.1-3.5c0-2.3-1.7-3.7-3.9-3.7h-0.8h-0.2v-3.2h0.9
		c1.9,0,3.4-0.8,3.4-2.9c0.1-1.4-1.1-2.7-2.5-2.7c-0.1,0-0.1,0-0.2,0c-1.4-0.1-2.6,1.1-2.7,2.5v0.1h-3.8c0-3.6,3.2-6,6.6-6
		c3.4,0,6.5,2.3,6.5,5.8c0.1,1.9-1,3.6-2.5,4.5c2.3,1,3.8,3.2,3.8,5.7c-0.1,1.9-0.9,3.7-2.3,5c-1.4,1.4-3.4,2.1-5.4,2.1
		c-4.1,0-7.7-2.5-7.9-6.8L284.2,193.2z"/>
	<path class="st3" d="M310.1,177.5l-5.2,7.4c0.6-0.3,1.2-0.5,1.9-0.5c4.1,0,7,3.6,7,7.6c0.1,4.5-3.5,8.1-8,8.2c-0.1,0-0.1,0-0.2,0
		c-2.1-0.1-4.2-0.9-5.8-2.3c-1.6-1.6-2.4-3.8-2.4-6c0-2.1,0.8-3.8,1.9-5.4l6-8.7L310.1,177.5L310.1,177.5z M309.9,192.1
		c0.1-2.3-1.7-4.2-4.1-4.2c-2.3,0-4.2,1.7-4.2,4.1c0,2.3,1.7,4.2,4.1,4.2h0.1C308,196.1,309.9,194.3,309.9,192.1L309.9,192.1z"/>
	<path class="st3" d="M331.6,191.6c0,2.4-0.3,4.1-2.1,5.9c-3,3.3-8.1,3.5-11.4,0.5c-0.1-0.1-0.1-0.1-0.2-0.1
		c-1.9-1.8-2.3-3.6-2.3-6.2v-6.2c0-2.4,0.3-4.1,2.1-5.9c3.1-3.3,8.2-3.4,11.5-0.4l0.1,0.1c1.9,1.8,2.4,3.6,2.4,6.2V191.6z
		 M319.8,191.7c-0.1,1.1,0.1,2.2,0.7,3.2c1.4,1.7,3.9,2,5.6,0.6c0.3-0.2,0.5-0.5,0.8-0.8c0.5-0.9,0.7-1.9,0.6-3v-6.3
		c0.1-1.1-0.1-2.2-0.8-3.2c-0.7-1-1.9-1.6-3.1-1.5c-1.3-0.1-2.5,0.6-3.2,1.7c-0.5,0.9-0.7,1.9-0.6,3V191.7z"/>
	<path class="st3" d="M333.1,182c0.1-2.9,2.5-5.1,5.4-5c2.7,0.1,4.9,2.3,5,4.9c0.1,2.9-2.1,5.3-4.9,5.4c-2.9,0.1-5.3-2.1-5.4-4.9
		C333.1,182.3,333.1,182.2,333.1,182z M338.2,184.9c1.5,0,2.7-1.2,2.8-2.7c0.1-1.5-1.2-2.7-2.7-2.8c-1.5,0-2.7,1.2-2.8,2.7l0,0
		C335.5,183.5,336.7,184.8,338.2,184.9L338.2,184.9z"/>
</g>
<g>
	<path class="st3" d="M178.2,368l10.1,38.1h-8l-1.8-8.1h-10.1l-1.8,8.1h-8l10.1-38.1H178.2z M177.1,391.7l-3.7-17.1h-0.1l-3.7,17.1
		H177.1z"/>
	<path class="st3" d="M190.9,368h7.7v31.8h13.6v6.3h-21.3V368z"/>
	<path class="st3" d="M228.4,368c1.6,0,3,0.2,4.3,0.5c1.3,0.3,2.5,0.9,3.4,1.6c1,0.7,1.7,1.7,2.2,3c0.5,1.2,0.8,2.8,0.8,4.6
		c0,2.1-0.5,3.8-1.4,5.3c-1,1.5-2.4,2.5-4.3,3v0.1c2.1,0.3,3.8,1.2,5.1,2.7c1.2,1.5,1.9,3.6,1.9,6.1c0,1.5-0.2,2.9-0.6,4.3
		c-0.4,1.4-1.1,2.5-2,3.5c-0.9,1-2.2,1.8-3.7,2.4c-1.5,0.6-3.4,0.9-5.6,0.9h-13V368H228.4z M225.4,383.6c2.1,0,3.7-0.4,4.7-1.1
		c1-0.8,1.5-2.1,1.5-3.9s-0.4-3.1-1.3-3.8c-0.9-0.7-2.3-1.1-4.2-1.1h-2.8v10H225.4z M226.2,400.4c1.8,0,3.3-0.4,4.5-1.2
		c1.1-0.8,1.7-2.3,1.7-4.5c0-1.1-0.2-2-0.5-2.7c-0.3-0.7-0.7-1.3-1.2-1.8c-0.5-0.4-1.1-0.8-1.8-0.9c-0.7-0.2-1.5-0.3-2.3-0.3h-3.3
		v11.5H226.2z"/>
	<path class="st3" d="M252.4,394.6c0,1,0.1,1.8,0.2,2.6c0.1,0.8,0.4,1.5,0.7,2.1c0.3,0.6,0.8,1,1.4,1.4c0.6,0.3,1.3,0.5,2.2,0.5
		c0.9,0,1.7-0.2,2.2-0.5c0.6-0.3,1-0.8,1.4-1.4c0.3-0.6,0.6-1.3,0.7-2.1c0.1-0.8,0.2-1.7,0.2-2.6V368h7.7v26.6c0,2.4-0.3,4.4-1,6
		c-0.7,1.6-1.6,2.8-2.7,3.8c-1.1,0.9-2.4,1.5-3.9,1.9c-1.5,0.3-3,0.5-4.5,0.5c-1.6,0-3.1-0.1-4.5-0.4c-1.5-0.3-2.8-0.9-3.9-1.7
		c-1.1-0.9-2-2.1-2.7-3.7c-0.7-1.6-1-3.7-1-6.2V368h7.7V394.6z"/>
	<path class="st3" d="M285.5,368l5.4,26.9h0.1l5.5-26.9h11.4v38.1h-7v-30.4h-0.1l-6.8,30.4h-6l-6.8-30.4h-0.1v30.4h-7V368H285.5z"/>
	<path class="st3" d="M339,368c1.6,0,3,0.2,4.3,0.5c1.3,0.3,2.5,0.9,3.4,1.6c1,0.7,1.7,1.7,2.2,3c0.5,1.2,0.8,2.8,0.8,4.6
		c0,2.1-0.5,3.8-1.4,5.3c-1,1.5-2.4,2.5-4.3,3v0.1c2.1,0.3,3.8,1.2,5.1,2.7c1.2,1.5,1.9,3.6,1.9,6.1c0,1.5-0.2,2.9-0.6,4.3
		c-0.4,1.4-1.1,2.5-2,3.5c-0.9,1-2.2,1.8-3.7,2.4c-1.5,0.6-3.4,0.9-5.6,0.9h-13V368H339z M336,383.6c2.1,0,3.7-0.4,4.7-1.1
		c1-0.8,1.5-2.1,1.5-3.9s-0.4-3.1-1.3-3.8c-0.9-0.7-2.3-1.1-4.2-1.1h-2.8v10H336z M336.8,400.4c1.8,0,3.3-0.4,4.5-1.2
		c1.1-0.8,1.7-2.3,1.7-4.5c0-1.1-0.2-2-0.5-2.7c-0.3-0.7-0.7-1.3-1.2-1.8c-0.5-0.4-1.1-0.8-1.8-0.9c-0.7-0.2-1.5-0.3-2.3-0.3h-3.3
		v11.5H336.8z"/>
	<path class="st3" d="M355.4,379.1c0.3-2.4,0.9-4.5,1.8-6.3c0.9-1.7,2.2-3.1,3.9-4.1c1.7-1,4-1.5,6.9-1.5s5.2,0.5,6.9,1.5
		c1.7,1,3,2.3,3.9,4.1c0.9,1.7,1.5,3.8,1.8,6.3c0.3,2.4,0.4,5.1,0.4,8c0,2.9-0.1,5.6-0.4,8c-0.3,2.4-0.9,4.5-1.8,6.2
		c-0.9,1.7-2.2,3.1-3.9,4c-1.7,0.9-4,1.4-6.9,1.4s-5.2-0.5-6.9-1.4c-1.7-0.9-3-2.3-3.9-4c-0.9-1.7-1.5-3.8-1.8-6.2s-0.4-5.1-0.4-8
		C355,384.2,355.1,381.5,355.4,379.1z M362.9,393.6c0.1,1.8,0.4,3.3,0.7,4.4c0.4,1.1,0.9,1.9,1.6,2.5c0.7,0.5,1.6,0.8,2.7,0.8
		c1.1,0,2.1-0.3,2.7-0.8c0.7-0.5,1.2-1.3,1.6-2.5c0.4-1.1,0.6-2.6,0.7-4.4c0.1-1.8,0.2-4,0.2-6.5c0-2.6-0.1-4.7-0.2-6.5
		c-0.1-1.8-0.4-3.2-0.7-4.4c-0.4-1.1-0.9-2-1.6-2.5c-0.7-0.5-1.6-0.8-2.7-0.8c-1.1,0-2.1,0.3-2.7,0.8c-0.7,0.5-1.2,1.3-1.6,2.5
		c-0.4,1.1-0.6,2.6-0.7,4.4c-0.1,1.8-0.2,3.9-0.2,6.5C362.7,389.6,362.7,391.8,362.9,393.6z"/>
	<path class="st3" d="M385,379.1c0.3-2.4,0.9-4.5,1.8-6.3c0.9-1.7,2.2-3.1,3.9-4.1c1.7-1,4-1.5,6.9-1.5s5.2,0.5,6.9,1.5
		c1.7,1,3,2.3,3.9,4.1c0.9,1.7,1.5,3.8,1.8,6.3c0.3,2.4,0.4,5.1,0.4,8c0,2.9-0.1,5.6-0.4,8c-0.3,2.4-0.9,4.5-1.8,6.2
		c-0.9,1.7-2.2,3.1-3.9,4c-1.7,0.9-4,1.4-6.9,1.4s-5.2-0.5-6.9-1.4c-1.7-0.9-3-2.3-3.9-4c-0.9-1.7-1.5-3.8-1.8-6.2
		c-0.3-2.4-0.4-5.1-0.4-8C384.6,384.2,384.8,381.5,385,379.1z M392.5,393.6c0.1,1.8,0.4,3.3,0.7,4.4c0.4,1.1,0.9,1.9,1.6,2.5
		c0.7,0.5,1.6,0.8,2.7,0.8c1.1,0,2.1-0.3,2.7-0.8c0.7-0.5,1.2-1.3,1.6-2.5c0.4-1.1,0.6-2.6,0.7-4.4c0.1-1.8,0.2-4,0.2-6.5
		c0-2.6-0.1-4.7-0.2-6.5c-0.1-1.8-0.4-3.2-0.7-4.4c-0.4-1.1-0.9-2-1.6-2.5c-0.7-0.5-1.6-0.8-2.7-0.8c-1.1,0-2.1,0.3-2.7,0.8
		c-0.7,0.5-1.2,1.3-1.6,2.5c-0.4,1.1-0.6,2.6-0.7,4.4c-0.1,1.8-0.2,3.9-0.2,6.5C392.3,389.6,392.4,391.8,392.5,393.6z"/>
	<path class="st3" d="M422.8,383.3h0.1l9.7-15.2h8.3l-10.3,16.3l11.5,21.8h-8.6l-7.8-15.6l-2.8,4.3v11.3h-7.7V368h7.7V383.3z"/>
</g>
<rect x="158.6" y="422.6" class="st0" width="283.5" height="5.2"/>
<linearGradient id="SVGID_1_" gradientUnits="userSpaceOnUse" x1="1.637090e-11" y1="425.1968" x2="566.9291" y2="425.1968">
	<stop  offset="0" style="stop-color:#CCCCCC"/>
	<stop  offset="0.1481" style="stop-color:#B2B2B2"/>
	<stop  offset="0.316" style="stop-color:#9B9B9B"/>
	<stop  offset="0.4997" style="stop-color:#8C8C8C"/>
	<stop  offset="0.7089" style="stop-color:#828282"/>
	<stop  offset="1" style="stop-color:#808080"/>
</linearGradient>
<rect x="0" y="0" class="st5" width="566.9" height="850.4"/>
</svg>
