<svg xmlns="http://www.w3.org/2000/svg" viewBox="0 0 234.34 99.86"><defs><style>.cls-1{fill:#85754e;}.cls-2{fill:#c10a27;fill-rule:evenodd;}</style></defs><g id="katman_2" data-name="katman 2"><g id="katman_1-2" data-name="katman 1"><path class="cls-1" d="M13.91,77.19c.93,5.88,5.57,10.41,11.65,10.41A11.83,11.83,0,0,0,37.41,75.85c0-7.62-5.77-12.26-13-12.26H21.64l-.62.1V53h2.89C30,53,35.35,50.4,35.35,43.5c0-5.46-3.92-9.17-9.28-9.17a8.67,8.67,0,0,0-9,8.55H4.43c.1-12.06,10.62-20,22-20,11.13,0,21.43,7.42,21.43,19.27,0,6-3.09,12.36-8.55,15.15C47,60.09,51.83,68,51.83,76.27A23.09,23.09,0,0,1,44.21,93a24.49,24.49,0,0,1-17.83,6.9C13,99.86.72,91.52,0,77.19Z"/><path class="cls-1" d="M100.15,24.85,83.05,49.27a11.7,11.7,0,0,1,6.49-1.65c13.5,0,23.29,12.16,23.29,25a26.92,26.92,0,0,1-27.21,27.2A29,29,0,0,1,66.56,92a28.61,28.61,0,0,1-8-20c0-7,2.68-12.47,6.49-18.13L84.8,24.85Zm-.62,48.32a13.76,13.76,0,1,0-13.8,13.4C93.15,86.57,99.53,80.6,99.53,73.17Z"/><path class="cls-1" d="M171.66,71.63c0,7.93-1.24,13.7-6.91,19.58a26.79,26.79,0,0,1-38.43,1c-6.39-6-7.83-12.06-7.83-20.61V51c0-7.94,1.13-13.71,6.8-19.58a27,27,0,0,1,38.43-1c6.39,6,7.94,12.06,7.94,20.61Zm-39.37.21c0,3.81.11,7.21,2.37,10.51s6.29,4.94,10.41,4.94c4.33,0,8.56-1.85,10.82-5.66,1.86-3.1,2-6.29,2-9.79V51c0-3.81-.1-7.21-2.47-10.51a12.21,12.21,0,0,0-10.31-5,12.38,12.38,0,0,0-10.82,5.77c-2,3.09-2,6.29-2,9.79Z"/><path class="cls-2" d="M231.79,22.32c1.48,2.73,2.34,8.43,2.55,12.14H211.82a17.87,17.87,0,0,0-1.53-4.69Zm-6.56-10.59a39.61,39.61,0,0,1,6.14,9.12l-21.6,7.91a16.63,16.63,0,0,0-2.93-3.86Zm-9.9-7.22a40.8,40.8,0,0,1,8.89,6.26L205.91,24.08a14.17,14.17,0,0,0-3.71-2.2ZM203.68.58A41,41,0,0,1,214,3.84L201,21.49a17.71,17.71,0,0,0-4.09-.69ZM192.14.4c1.09-.14,2.2-.25,3.38-.33a30.7,30.7,0,0,1,6.9.31l-6.65,20.39a17.56,17.56,0,0,0-3.63.39ZM181.51,3.24A38.34,38.34,0,0,1,191,.56V21.45a14.1,14.1,0,0,0-2.81,1.18ZM172.88,9a28.29,28.29,0,0,1,7.52-5.24l6.83,19.45A12.76,12.76,0,0,0,185,25.07Zm-5.51,7.75A27.8,27.8,0,0,1,172,9.93L184.2,26l-.2.27a9.25,9.25,0,0,0-.9,1.74Zm-2.71,9a32.36,32.36,0,0,1,2.15-7.7l15.91,11.15a17.1,17.1,0,0,0-.47,2.22Zm-.12,8.39a37.85,37.85,0,0,1-.21-4.08,22,22,0,0,1,.16-3l17.65,5.51c0,.5,0,.81,0,.81s0,.45.1,1.15Zm2,8a28.14,28.14,0,0,1-1.81-6.65h17.66a12.64,12.64,0,0,0,.34,1.26ZM170.85,49a23.47,23.47,0,0,1-3.8-5.68l16.09-5.47a9.42,9.42,0,0,0,1,1.75Zm6.21,4.9a24.94,24.94,0,0,1-5.29-4l13.13-9.44a7.94,7.94,0,0,0,1.32,1.1Zm7.28,2.9a30,30,0,0,1-6.25-2.35l9-12.31a8.6,8.6,0,0,0,1.38.52Zm6.79.7c-.77,0-1.56.08-2.39.08a23.85,23.85,0,0,1-3.3-.52l4.1-14.17a10.55,10.55,0,0,0,1.54.16Zm7-1.38a25.32,25.32,0,0,1-5.68,1.27L192.13,43a11.27,11.27,0,0,0,1.25-.15Zm5.75-3.3a17.52,17.52,0,0,1-4.53,2.81l-4.8-13a7.42,7.42,0,0,0,1.3-.6ZM208,47.52a17.19,17.19,0,0,1-3.16,4.38l-8.06-10.63a6.23,6.23,0,0,0,1.21-1.5Zm2-6a21.72,21.72,0,0,1-1.39,4.7L198.33,39a8.4,8.4,0,0,0,.47-1.45Zm.23-5.87a17.73,17.73,0,0,1,.1,2,16.68,16.68,0,0,1-.12,2.47L199,36.65a8.09,8.09,0,0,0,.09-1.24Zm-1.5-5.38A15.11,15.11,0,0,1,210,34.46H199c0-.22-.1-.5-.17-.82ZM205.31,26a13.49,13.49,0,0,1,2.81,3.35l-9.57,3.39a12.45,12.45,0,0,0-.61-1.47ZM201,23.45a14.4,14.4,0,0,1,3.33,1.77l-7,5.07a7.8,7.8,0,0,0-.78-1Zm-4.66-.93a14.94,14.94,0,0,1,3.51.56l-4.08,5.53a6.7,6.7,0,0,0-1.23-.71Zm-4.2.49a17,17,0,0,1,3.06-.47l-1.64,5a7.53,7.53,0,0,0-1.42-.23Zm-3.42,1.3a14.76,14.76,0,0,1,2.23-1v4a10.75,10.75,0,0,0-1.16.13ZM186,26.18a10.73,10.73,0,0,1,1.77-1.35l1,2.84a6.78,6.78,0,0,0-1.37.58Z"/></g></g></svg>