<?xml version="1.0" encoding="utf-8"?>
<!-- Generator: Adobe Illustrator 24.1.1, SVG Export Plug-In . SVG Version: 6.00 Build 0)  -->
<svg version="1.1" id="katman_1" xmlns="http://www.w3.org/2000/svg" xmlns:xlink="http://www.w3.org/1999/xlink" x="0px" y="0px"
	 viewBox="0 0 412.6 105.6" style="enable-background:new 0 0 412.6 105.6;" xml:space="preserve">
<style type="text/css">
	.st0{fill:#C10A27;}
	.st1{fill-rule:evenodd;clip-rule:evenodd;fill:#C10A27;}
	.st2{fill:none;}
	.st3{fill:#FFFFFF;}
	.st4{fill-rule:evenodd;clip-rule:evenodd;fill:#FFFFFF;}
</style>
<rect x="147.1" y="26" class="st0" width="133.7" height="32.2"/>
<path class="st1" d="M113.8,37.6c2.5,4.6,3.9,14.2,4.3,20.5h-38c-0.5-2.7-1.4-5.4-2.6-7.9L113.8,37.6z M102.7,19.8
	c4.3,5,8.6,11.1,10.4,15.4L76.7,48.5c-1.3-2.4-3-4.6-4.9-6.5L102.7,19.8z M86,7.6c5.4,2.8,10.5,6.4,15,10.5L70.1,40.6
	c-1.9-1.6-4-2.8-6.3-3.7L86,7.6z M66.4,1c6,1.1,11.8,2.9,17.4,5.5L61.9,36.3c-2.2-0.7-4.5-1.1-6.9-1.2L66.4,1z M46.9,0.7
	c1.8-0.3,3.7-0.4,5.7-0.6c3.9-0.3,7.8-0.1,11.7,0.5L53,35c-2.1,0-4.1,0.2-6.1,0.7V0.7z M29,5.5C34.1,3.3,39.4,1.8,44.9,1v35.2
	c-1.6,0.5-3.2,1.2-4.7,2L29,5.5z M14.4,15.2c3.7-3.6,8-6.6,12.7-8.8l11.5,32.8c-1.4,0.9-2.6,2-3.8,3.2L14.4,15.2z M5.1,28.2
	c2-4.2,4.6-8.1,7.7-11.5l20.6,27.1l-0.3,0.4c-0.6,0.9-1.1,1.9-1.5,3L5.1,28.2z M0.6,43.3c0.7-4.5,1.9-8.8,3.6-13L31,49.1
	c-0.3,1.2-0.6,2.5-0.8,3.7L0.6,43.3z M0.4,57.5C0.1,55.2,0,52.9,0,50.6c0-1.7,0.1-3.4,0.3-5.1L30,54.7c0,0.9,0,1.4,0,1.4
	c0,0.6,0.1,1.3,0.1,1.9L0.4,57.5z M3.7,71c-1.5-3.6-2.5-7.4-3-11.2h29.8c0.1,0.7,0.3,1.4,0.6,2.1L3.7,71z M11,82.6
	c-2.6-2.9-4.7-6.1-6.4-9.6l27.1-9.2c0.5,1.1,1,2.1,1.7,3L11,82.6z M21.5,90.8c-3.3-1.8-6.3-4.1-8.9-6.7l22.2-15.9
	c0.7,0.7,1.4,1.3,2.2,1.9L21.5,90.8z M33.8,95.7c-3.7-0.9-7.2-2.3-10.5-4L38.5,71c0.8,0.4,1.5,0.7,2.3,0.9L33.8,95.7z M45.2,96.9
	c-1.3,0.1-2.6,0.1-4,0.1c-1.9-0.2-3.7-0.4-5.6-0.9l6.9-23.9c0.9,0.1,1.7,0.2,2.6,0.3L45.2,96.9z M57,94.6c-3.1,1.1-6.3,1.8-9.6,2.1
	l-0.5-24.2c0.7,0,1.4-0.1,2.1-0.3L57,94.6z M66.7,89c-2.3,2-4.9,3.6-7.7,4.8l-8.1-22c0.8-0.3,1.5-0.6,2.2-1L66.7,89z M73.6,80.1
	c-1.4,2.7-3.2,5.2-5.3,7.4L54.7,69.6c0.8-0.7,1.5-1.6,2-2.5L73.6,80.1z M76.9,70.1c-0.5,2.7-1.3,5.4-2.3,7.9L57.3,65.8
	c0.3-0.8,0.6-1.6,0.8-2.5L76.9,70.1z M77.3,60.2c0.1,1.1,0.2,2.2,0.2,3.3c0,1.4,0,2.8-0.2,4.2l-18.8-5.9c0.1-0.7,0.1-1.4,0.2-2.1
	L77.3,60.2z M74.8,51.2c1.1,2.2,1.8,4.6,2.3,7H58.5c-0.1-0.4-0.2-0.9-0.3-1.4L74.8,51.2z M69.1,43.9c1.9,1.6,3.5,3.5,4.7,5.7
	l-16.2,5.7c-0.3-0.8-0.6-1.7-1-2.5L69.1,43.9z M61.9,39.6c2,0.8,3.9,1.8,5.6,3l-11.8,8.5c-0.4-0.6-0.8-1.1-1.3-1.6L61.9,39.6z
	 M54,38c2,0.1,4,0.4,5.9,0.9L53,48.3c-0.6-0.5-1.3-0.9-2-1.2L54,38z M46.9,38.8c1.7-0.4,3.4-0.7,5.2-0.8l-2.8,8.5
	c-0.8-0.2-1.6-0.3-2.4-0.4L46.9,38.8z M41.2,41c1.2-0.6,2.5-1.2,3.8-1.6v6.7c-0.7,0-1.3,0.1-2,0.2L41.2,41z M36.6,44.2
	c0.9-0.9,1.9-1.6,3-2.3l1.7,4.8c-0.8,0.2-1.6,0.6-2.3,1L36.6,44.2z"/>
<rect y="0" class="st2" width="412.6" height="105.6"/>
<g>
	<path class="st3" d="M176.9,72.9V78h-3.5v15.9c0,1.5-0.2,3.1-0.6,4.6c-1,3-3.3,5.4-6.3,6.4c-1.5,0.5-3,0.7-4.6,0.7
		c-1.5,0-3-0.2-4.5-0.6c-1.5-0.4-2.8-1.3-3.8-2.3c-1.2-1.1-2.1-2.5-2.6-4.1c-0.4-1.6-0.6-3.2-0.6-4.8V78h-3.5v-5.1h12.5V78h-2.9
		v15.1c0,0.8,0,1.6,0.1,2.3c0.1,0.8,0.4,1.5,0.8,2.2c0.5,0.7,1.1,1.3,1.9,1.7c1.5,0.7,3.2,0.7,4.8,0.1c1.5-0.7,2.6-2.1,2.8-3.8
		c0.1-0.8,0.2-1.7,0.2-2.5V78h-2.9v-5.1H176.9z"/>
	<polygon class="st3" points="208.9,105 203.2,105 188.1,83.9 188.1,99.9 191.6,99.9 191.6,105 178.5,105 178.5,99.9 182,99.9 
		182,78 178.5,78 178.5,72.9 187.5,72.9 202.8,94.4 202.8,78 199.3,78 199.3,72.9 212.4,72.9 212.4,78 208.9,78 	"/>
	<polygon class="st3" points="224.2,99.9 227.6,99.9 227.6,105 214.5,105 214.5,99.9 218,99.9 218,78 214.5,78 214.5,72.9 
		227.6,72.9 227.6,78 224.2,78 	"/>
	<polygon class="st3" points="248.6,105 241.9,105 232.6,78 229.2,78 229.2,72.9 242.2,72.9 242.2,78 239.1,78 245.4,96.5 252.2,78 
		249.1,78 249.1,72.9 261.8,72.9 261.8,78 258.4,78 	"/>
	<polygon class="st3" points="263.1,99.9 266.6,99.9 266.6,78 263.1,78 263.1,72.9 286.9,72.9 286.9,82.6 280.8,82.6 280.8,78.4 
		272.8,78.4 272.8,86.4 282.1,86.4 282.1,91.1 272.8,91.1 272.8,99.7 280.8,99.7 280.8,95.3 286.9,95.3 286.9,105 263.1,105 	"/>
	<path class="st3" d="M292.7,78h-3.5v-5.1h14.4c1.5,0,3,0.1,4.5,0.4c1.5,0.3,2.9,1,4,2c1.2,1,2.2,2.3,2.9,3.8c0.7,1.5,1,3.1,1,4.7
		c0,1.2-0.2,2.3-0.6,3.4c-0.4,1.1-0.9,2.1-1.6,3c-0.7,0.9-1.5,1.7-2.5,2.2c-1,0.6-2.1,0.9-3.3,1l5,6.4h3.6v5.2H309l-10.2-14.4v9.3
		h2.8v5.1h-12.3v-5.1h3.5V78z M302.1,90c0.9,0,1.9-0.1,2.8-0.2c0.9-0.1,1.8-0.5,2.6-1.1c0.7-0.5,1.3-1.3,1.6-2.1
		c0.7-1.6,0.7-3.5,0-5.1c-0.3-0.8-0.9-1.5-1.6-2c-0.6-0.5-1.3-0.9-2.1-1c-0.8-0.1-1.6-0.1-2.4-0.1h-4.2V90H302.1z"/>
	<path class="st3" d="M323.7,95.5c0,0.6,0.1,1.3,0.3,1.9c0.2,0.6,0.5,1.1,1,1.6c0.4,0.4,0.9,0.8,1.5,1c0.6,0.3,1.3,0.4,2,0.4
		c1.2,0,2.4-0.4,3.4-1.2c0.9-0.8,1.4-2,1.3-3.2c0-0.7-0.2-1.4-0.5-2c-0.3-0.5-0.8-1-1.3-1.3c-0.5-0.4-1.1-0.6-1.8-0.8
		c-0.6-0.2-1.3-0.4-1.9-0.6c-1.2-0.3-2.3-0.7-3.3-1.1c-1.1-0.4-2.1-1-3-1.7c-2.3-1.6-3.6-4.2-3.5-7c0-1.3,0.3-2.5,0.8-3.7
		c0.5-1.1,1.2-2.2,2.1-3c1.9-1.7,4.3-2.6,6.8-2.6c1.1,0,2.2,0.2,3.2,0.6c1,0.4,1.9,1,2.5,1.9v-1.8h4.7v8.6h-5.5c0-1.1-0.4-2.2-1.2-3
		c-0.8-0.8-1.9-1.2-3-1.2c-1.1,0-2.2,0.3-3.1,1.1c-1.3,1.3-1.7,3.3-0.8,4.9c0.3,0.5,0.7,0.9,1.2,1.3c0.5,0.3,1.1,0.6,1.7,0.8
		l1.9,0.6c1.3,0.3,2.5,0.7,3.6,1.1c1.2,0.4,2.3,1,3.3,1.8c1,0.8,1.8,1.8,2.4,3c0.5,1.2,0.8,2.5,0.8,3.8c0,1.4-0.3,2.7-0.8,4
		c-1,2.4-2.9,4.3-5.3,5.3c-1.3,0.5-2.7,0.8-4.1,0.8c-1.2,0-2.3-0.2-3.4-0.7c-1.1-0.5-2-1.2-2.7-2.1v2.1h-4.9v-9.5H323.7z"/>
	<polygon class="st3" points="351.1,99.9 354.5,99.9 354.5,105 341.4,105 341.4,99.9 344.9,99.9 344.9,78 341.4,78 341.4,72.9 
		354.5,72.9 354.5,78 351.1,78 	"/>
	<polygon class="st3" points="372.3,99.9 375.9,99.9 375.9,105 362.7,105 362.7,99.9 366.2,99.9 366.2,78.3 361.5,78.3 361.5,83 
		356.6,83 356.6,72.9 381.9,72.9 381.9,83 377.1,83 377.1,78.3 372.3,78.3 	"/>
	<polygon class="st3" points="400.9,99.9 404.4,99.9 404.4,105 391.3,105 391.3,99.9 394.8,99.9 394.8,93.8 386.3,78 383.1,78 
		383.1,72.9 395.5,72.9 395.5,78 392.5,78 397.9,88.6 403.3,78 400.2,78 400.2,72.9 412.6,72.9 412.6,78 409.4,78 400.9,93.8 	"/>
	<polygon class="st4" points="318.3,53.1 315.5,53.1 303.4,41.7 314.9,31.1 317.7,31.1 317.7,26 304.4,26 304.4,31.1 307.3,31.1 
		297.3,40.6 297.3,31.1 300.8,31.1 300.8,26 287.6,26 287.6,31.1 291.1,31.1 291.1,53.1 287.6,53.1 287.6,58.2 300.8,58.2 
		300.8,53.1 297.3,53.1 297.3,43.1 307.8,53.1 304.6,53.1 304.6,58.2 318.3,58.2 	"/>
	<path class="st4" d="M333.8,58.9c9.3,0,16.8-7.6,16.8-16.9s-7.6-16.8-16.9-16.8c-9.3,0-16.8,7.6-16.8,16.9c0,0,0,0,0,0
		C317,51.4,324.5,58.8,333.8,58.9 M333.8,52.7c-5.9,0-10.7-4.7-10.8-10.6s4.7-10.7,10.6-10.8c5.9,0,10.7,4.7,10.8,10.5
		c0.1,5.9-4.5,10.7-10.4,10.9C333.9,52.7,333.9,52.7,333.8,52.7"/>
	<path class="st3" d="M385.1,47.6h-6.6c-3.2,4.9-9.8,6.3-14.7,3.2c-3-2-4.9-5.3-4.9-8.9c-0.2-5.7,4.3-10.5,10-10.6
		c0.2,0,0.4,0,0.5,0c3.6,0,7,1.9,8.9,4.9h5.9V25.9h-5.1v3.3c-2.6-2.6-6.3-4.1-10-4c-9.1,0.1-16.5,7.5-16.5,16.7
		c0,4.5,1.7,8.8,4.9,12c2.4,2.4,5.5,4,8.8,4.7V64h5.8v-5.4C378.1,57.5,383.1,53.3,385.1,47.6"/>
</g>
<path class="st3" d="M182.8,48.9c0.4,2.8,2.9,4.8,5.8,4.5c2.6-0.3,4.5-2.5,4.5-5.1c0-3.3-2.5-5.4-5.7-5.4h-1.2l-0.3,0v-4.7h1.3
	c2.7,0,5-1.1,5-4.2c0.1-2.1-1.6-3.9-3.7-4c-0.1,0-0.2,0-0.3,0c-2.1-0.1-3.8,1.6-3.9,3.7c0,0,0,0.1,0,0.1h-5.6c0-5.3,4.6-8.8,9.6-8.8
	s9.4,3.3,9.4,8.4c0.1,2.7-1.4,5.3-3.7,6.6c3.4,1.4,5.6,4.7,5.5,8.3c-0.1,2.8-1.3,5.4-3.3,7.3c-2.1,2-4.9,3.1-7.8,3
	c-5.9,0-11.2-3.7-11.5-9.9L182.8,48.9z"/>
<path class="st3" d="M220.5,26l-7.5,10.7c0.9-0.5,1.8-0.8,2.8-0.7c5.9,0,10.2,5.3,10.2,11c0.1,6.5-5.1,11.8-11.6,11.9
	c-0.1,0-0.2,0-0.3,0c-3.1-0.1-6.1-1.3-8.4-3.4c-2.3-2.4-3.5-5.5-3.5-8.8c0-3.1,1.2-5.5,2.8-7.9l8.7-12.7H220.5z M220.3,47.2
	c0.1-3.3-2.5-6.1-5.9-6.1s-6.1,2.5-6.1,5.9s2.5,6.1,5.9,6.1c0,0,0.1,0,0.1,0C217.5,53,220.2,50.4,220.3,47.2L220.3,47.2z"/>
<path class="st3" d="M251.8,46.5c0,3.5-0.5,6-3,8.6c-4.4,4.8-11.8,5.1-16.6,0.7c-0.1-0.1-0.2-0.2-0.3-0.2c-2.8-2.6-3.4-5.3-3.4-9v-9
	c0-3.5,0.5-6,3-8.6c4.5-4.8,11.9-5,16.7-0.6c0,0,0.1,0.1,0.1,0.1c2.8,2.6,3.5,5.3,3.5,9L251.8,46.5z M234.6,46.6
	c-0.2,1.6,0.2,3.2,1,4.6c2,2.5,5.7,2.9,8.2,0.9c0.4-0.3,0.8-0.7,1.1-1.2c0.7-1.3,1-2.8,0.9-4.3v-9.1c0.2-1.6-0.2-3.2-1.1-4.6
	c-1-1.4-2.7-2.3-4.5-2.2c-1.9-0.1-3.7,0.9-4.7,2.5c-0.7,1.3-1,2.8-0.9,4.3L234.6,46.6z"/>
<path class="st3" d="M254,32.6c0.1-4.2,3.6-7.4,7.8-7.3c4,0.1,7.1,3.3,7.3,7.2c0.2,4.2-3.1,7.7-7.2,7.8c-4.2,0.2-7.7-3.1-7.8-7.2
	C254,33,254,32.8,254,32.6z M261.5,36.7c2.2,0,4-1.7,4.1-3.9s-1.7-4-3.9-4.1c-2.2,0-4,1.7-4.1,3.9c0,0,0,0,0,0
	C257.5,34.8,259.3,36.6,261.5,36.7L261.5,36.7z"/>
</svg>
