<svg xmlns="http://www.w3.org/2000/svg" viewBox="0 0 153.43 111.56"><defs><style>.cls-1,.cls-4{fill:#c10a27;}.cls-1,.cls-2{fill-rule:evenodd;}.cls-2,.cls-3{fill:#1d1d1b;}.cls-5{fill:#fff;}</style></defs><g id="katman_2" data-name="katman 2"><g id="katman_1-2" data-name="katman 1"><path class="cls-1" d="M113.8,37.64c2.48,4.61,3.94,14.22,4.3,20.49h-38a30.28,30.28,0,0,0-2.58-7.91ZM102.73,19.79c4.33,5,8.58,11.07,10.36,15.37L76.65,48.51A27.54,27.54,0,0,0,71.71,42ZM86,7.61a69.48,69.48,0,0,1,15,10.55L70.14,40.61a23.67,23.67,0,0,0-6.26-3.71ZM66.37,1a69.4,69.4,0,0,1,17.36,5.5L61.88,36.25A29.12,29.12,0,0,0,55,35.08ZM46.92.68C48.76.43,50.63.24,52.61.11A52.36,52.36,0,0,1,64.26.64L53.05,35a29.85,29.85,0,0,0-6.13.65ZM29,5.46A64.64,64.64,0,0,1,44.91,1V36.17a23.59,23.59,0,0,0-4.73,2ZM14.43,15.15A47.45,47.45,0,0,1,27.12,6.32L38.64,39.1a21.21,21.21,0,0,0-3.78,3.19ZM5.14,28.22a46.72,46.72,0,0,1,7.74-11.47L33.53,43.84l-.34.44a14.7,14.7,0,0,0-1.52,2.95ZM.56,43.31a54.43,54.43,0,0,1,3.63-13L31,49.13a27.71,27.71,0,0,0-.79,3.74ZM.37,57.46A62.61,62.61,0,0,1,0,50.58a37.83,37.83,0,0,1,.27-5.14L30,54.72C30,55.58,30,56.1,30,56.1A17.67,17.67,0,0,0,30.14,58ZM3.72,71A47.09,47.09,0,0,1,.67,59.79H30.45c.15.66.33,1.38.58,2.13ZM11,82.57A39.37,39.37,0,0,1,4.61,73l27.13-9.24a16.46,16.46,0,0,0,1.69,3Zm10.48,8.27a42.56,42.56,0,0,1-8.93-6.66L34.71,68.26a13.18,13.18,0,0,0,2.22,1.86Zm12.28,4.89a51.4,51.4,0,0,1-10.55-4L38.48,71a14.85,14.85,0,0,0,2.33.89Zm11.44,1.18c-1.29.09-2.63.13-4,.13a40.67,40.67,0,0,1-5.57-.86l6.92-23.91a19.07,19.07,0,0,0,2.6.26ZM57,94.58a42.18,42.18,0,0,1-9.58,2.14l-.47-24.2A16.5,16.5,0,0,0,49,72.27ZM66.65,89A29.82,29.82,0,0,1,59,93.77l-8.09-22a11.54,11.54,0,0,0,2.18-1Zm6.93-8.87a29.32,29.32,0,0,1-5.32,7.38L54.66,69.61a10.5,10.5,0,0,0,2-2.54Zm3.32-10a37.18,37.18,0,0,1-2.34,7.94L57.35,65.79a14.61,14.61,0,0,0,.81-2.45Zm.4-9.9a32.14,32.14,0,0,1,.16,3.3,28.55,28.55,0,0,1-.21,4.18L58.44,61.81a15.75,15.75,0,0,0,.15-2.09Zm-2.54-9.06a25.63,25.63,0,0,1,2.25,7H58.45c-.07-.39-.16-.86-.29-1.39Zm-5.63-7.31a23.17,23.17,0,0,1,4.74,5.66L57.72,55.21a18.25,18.25,0,0,0-1-2.47Zm-7.27-4.29a24.69,24.69,0,0,1,5.62,3L55.72,51.09a12.48,12.48,0,0,0-1.32-1.62ZM54,38a25.55,25.55,0,0,1,5.92.94L53,48.26A10.12,10.12,0,0,0,51,47.06Zm-7.09.84A27.49,27.49,0,0,1,52.08,38l-2.77,8.47a13.13,13.13,0,0,0-2.39-.38ZM41.15,41a23.94,23.94,0,0,1,3.76-1.62v6.7a15.57,15.57,0,0,0-1.95.21Zm-4.52,3.16a17.3,17.3,0,0,1,3-2.28l1.68,4.79a10.83,10.83,0,0,0-2.32,1Z"/><polygon class="cls-2" points="105.37 83.32 103.4 83.32 95.01 75.43 102.99 68.1 104.9 68.1 104.9 64.53 95.67 64.53 95.67 68.1 97.68 68.1 90.75 74.65 90.75 68.1 93.16 68.1 93.16 64.53 84.03 64.53 84.03 68.1 86.48 68.1 86.48 83.32 84.03 83.32 84.03 86.89 93.16 86.89 93.16 83.32 90.75 83.32 90.75 76.4 98.03 83.32 95.83 83.32 95.83 86.89 105.37 86.89 105.37 83.32"/><path class="cls-2" d="M116.11,87.36a11.7,11.7,0,1,0-11.74-11.65,11.76,11.76,0,0,0,11.74,11.65m0-4.26a7.44,7.44,0,1,1,7.38-7.54,7.38,7.38,0,0,1-7.38,7.54"/><path class="cls-3" d="M151.72,79.53h-4.61a7.38,7.38,0,0,1-13.59-4,7.19,7.19,0,0,1,7.34-7.4A7.3,7.3,0,0,1,147,71.58h4.09V64.43h-3.52v2.26a9.5,9.5,0,0,0-6.94-2.76,11.58,11.58,0,0,0-11.45,11.59,11.63,11.63,0,0,0,9.53,11.6v3.8h4V87.15a11.61,11.61,0,0,0,8.94-7.62"/><rect class="cls-4" x="82.77" y="94.22" width="70.66" height="17.01"/><path class="cls-5" d="M101.64,106.32a2.72,2.72,0,0,0,5.43-.31,2.79,2.79,0,0,0-3-2.83h-.64l-.15,0v-2.48H104c1.41,0,2.64-.59,2.64-2.19a2,2,0,0,0-2.14-2.12,2,2,0,0,0-2.07,2H99.45a4.83,4.83,0,0,1,5.07-4.62c2.57,0,5,1.71,5,4.45a4,4,0,0,1-2,3.5,4.64,4.64,0,0,1,2.91,4.39,5.32,5.32,0,0,1-1.77,3.86,5.63,5.63,0,0,1-4.12,1.59c-3.1,0-5.93-1.93-6.1-5.24Z"/><path class="cls-5" d="M121.58,94.22l-4,5.65a2.7,2.7,0,0,1,1.5-.39,5.64,5.64,0,0,1,5.39,5.79,6.22,6.22,0,0,1-6.29,6.29,6.27,6.27,0,0,1-6.27-6.43,7.25,7.25,0,0,1,1.5-4.19L118,94.22Zm-.14,11.17a3.18,3.18,0,0,0-3.17-3.21,3.16,3.16,0,1,0,3.17,3.21Z"/><path class="cls-5" d="M138.11,105a5.73,5.73,0,0,1-1.6,4.52,6.4,6.4,0,0,1-4.57,2,6.34,6.34,0,0,1-4.31-1.76,5.73,5.73,0,0,1-1.81-4.76v-4.77a5.77,5.77,0,0,1,1.57-4.53,6.26,6.26,0,0,1,8.89-.23,5.76,5.76,0,0,1,1.83,4.76Zm-9.1,0a3.91,3.91,0,0,0,.55,2.43,2.83,2.83,0,0,0,2.4,1.15,2.87,2.87,0,0,0,2.51-1.31,4.24,4.24,0,0,0,.45-2.27v-4.81a3.86,3.86,0,0,0-.57-2.43A2.83,2.83,0,0,0,132,96.67a2.88,2.88,0,0,0-2.5,1.34,3.93,3.93,0,0,0-.45,2.26Z"/><path class="cls-5" d="M139.25,97.72a4,4,0,0,1,8,0,4,4,0,1,1-8,0Zm4,2.15a2.13,2.13,0,1,0-2.08-2.15A2.13,2.13,0,0,0,143.21,99.87Z"/></g></g></svg>