<?xml version="1.0" encoding="utf-8"?>
<!-- Generator: Adobe Illustrator 24.1.1, SVG Export Plug-In . SVG Version: 6.00 Build 0)  -->
<svg version="1.1" id="Layer_1" xmlns="http://www.w3.org/2000/svg" xmlns:xlink="http://www.w3.org/1999/xlink" x="0px" y="0px"
	 viewBox="0 0 288 288" style="enable-background:new 0 0 288 288;" xml:space="preserve">
<style type="text/css">
	.st0{fill:#A39161;}
	.st1{opacity:0.5;fill:#C2BAA6;enable-background:new    ;}
</style>
<rect y="0" class="st0" width="288" height="288"/>
<path class="st1" d="M155.5,288L144,144l-11.5,144H155.5z M0,288h21.4L144,144L0,266.6V288z M0,217.6L144,144L0,190.6V217.6z
	 M288,190.6L144,144l144,73.6V190.6z M0,155.5L144,144L0,132.5V155.5z M217.6,288L144,144l46.6,144H217.6z M288,288v-21.4L144,144
	l122.6,144H288z M97.4,288L144,144L70.4,288H97.4z M288,70.4L144,144l144-46.6V70.4z M288,0h-21.4L144,144L288,21.4V0z M288,132.5
	L144,144l144,11.5V132.5z M190.6,0L144,144L217.6,0H190.6z M0,97.4L144,144L0,70.4V97.4z M0,0v21.4L144,144L21.4,0H0z M132.5,0
	L144,144L155.5,0H132.5z M70.4,0L144,144L97.4,0H70.4z"/>
</svg>
