<?xml version="1.0" encoding="utf-8"?>
<!-- Generator: Adobe Illustrator 24.1.1, SVG Export Plug-In . SVG Version: 6.00 Build 0)  -->
<svg version="1.1" id="Layer_1" xmlns="http://www.w3.org/2000/svg" xmlns:xlink="http://www.w3.org/1999/xlink" x="0px" y="0px"
	 viewBox="0 0 288 288" style="enable-background:new 0 0 288 288;" xml:space="preserve">
<style type="text/css">
	.st0{fill:#A39161;}
	.st1{opacity:0.5;fill:#C2BAA6;}
	.st2{opacity:0.5;}
	.st3{fill:#C2BAA6;}
</style>
<rect x="0" y="0" class="st0" width="288" height="288"/>
<path class="st1" d="M155.5,288L144,144l-11.5,144H155.5z M0,288h21.4L144,144L0,266.6V288z M0,217.6L144,144L0,190.6V217.6z
	 M288,190.6L144,144l144,73.6V190.6z M0,155.5L144,144L0,132.5V155.5z M217.6,288L144,144l46.6,144H217.6z M288,288v-21.4L144,144
	l122.6,144H288z M97.4,288L144,144L70.4,288H97.4z M288,70.4L144,144l144-46.6V70.4z M288,0h-21.4L144,144L288,21.4V0z M288,132.5
	L144,144l144,11.5V132.5z M190.6,0L144,144L217.6,0H190.6z M0,97.4L144,144L0,70.4V97.4z M0,0v21.4L144,144L21.4,0H0z M132.5,0
	L144,144L155.5,0H132.5z M70.4,0L144,144L97.4,0H70.4z"/>
<g class="st2">
	<g>
		<path class="st3" d="M186.1,221.5C186.1,221.5,186.1,221.5,186.1,221.5C186.1,221.5,186.1,221.5,186.1,221.5
			C186.1,221.5,186.1,221.5,186.1,221.5C186.1,221.5,186.1,221.5,186.1,221.5z"/>
		<path class="st3" d="M177.2,221.5C177.2,221.5,177.2,221.5,177.2,221.5C177.2,221.5,177.2,221.5,177.2,221.5
			C177.2,221.5,177.2,221.5,177.2,221.5C177.2,221.5,177.2,221.5,177.2,221.5z"/>
		<path class="st3" d="M168.4,221.4C168.3,221.4,168.3,221.5,168.4,221.4C168.3,221.5,168.3,221.5,168.4,221.4
			C168.4,221.5,168.4,221.5,168.4,221.4C168.4,221.5,168.4,221.4,168.4,221.4z"/>
		<path class="st3" d="M159.5,221.4C159.5,221.4,159.5,221.5,159.5,221.4C159.5,221.5,159.5,221.5,159.5,221.4
			C159.5,221.5,159.6,221.5,159.5,221.4C159.6,221.5,159.5,221.4,159.5,221.4z"/>
		<path class="st3" d="M150.6,221.4C150.6,221.4,150.6,221.4,150.6,221.4c-0.1,0.1,0,0.1,0,0.1C150.7,221.6,150.7,221.5,150.6,221.4
			C150.7,221.4,150.7,221.4,150.6,221.4z"/>
		<path class="st3" d="M141.8,221.4C141.7,221.4,141.7,221.4,141.8,221.4c-0.1,0.1,0,0.1,0,0.1C141.8,221.6,141.9,221.5,141.8,221.4
			C141.9,221.4,141.8,221.4,141.8,221.4z"/>
		<path class="st3" d="M132.9,221.4C132.9,221.4,132.9,221.4,132.9,221.4c-0.1,0.1,0,0.1,0,0.1C133,221.6,133,221.5,132.9,221.4
			C133,221.4,133,221.4,132.9,221.4z"/>
		<path class="st3" d="M124.1,221.4C124,221.4,124,221.5,124.1,221.4C124,221.5,124,221.5,124.1,221.4
			C124.1,221.5,124.1,221.5,124.1,221.4C124.1,221.5,124.1,221.4,124.1,221.4z"/>
		<path class="st3" d="M115.2,221.4C115.2,221.4,115.2,221.5,115.2,221.4C115.2,221.5,115.2,221.5,115.2,221.4
			C115.2,221.5,115.3,221.5,115.2,221.4C115.3,221.5,115.2,221.4,115.2,221.4z"/>
		<path class="st3" d="M106.4,221.5C106.3,221.5,106.3,221.5,106.4,221.5C106.3,221.5,106.3,221.5,106.4,221.5
			C106.4,221.5,106.4,221.5,106.4,221.5C106.4,221.5,106.4,221.5,106.4,221.5z"/>
		<path class="st3" d="M97.5,221.5C97.5,221.5,97.5,221.5,97.5,221.5C97.5,221.5,97.5,221.5,97.5,221.5
			C97.5,221.5,97.5,221.5,97.5,221.5C97.5,221.5,97.5,221.5,97.5,221.5z"/>
		<path class="st3" d="M217.1,212.6C217.1,212.6,217.1,212.6,217.1,212.6C217.1,212.6,217.1,212.7,217.1,212.6
			C217.1,212.7,217.1,212.6,217.1,212.6C217.1,212.6,217.1,212.6,217.1,212.6z"/>
		<path class="st3" d="M208.2,212.6C208.2,212.6,208.2,212.6,208.2,212.6C208.2,212.7,208.2,212.7,208.2,212.6
			C208.3,212.7,208.3,212.7,208.2,212.6C208.3,212.6,208.3,212.6,208.2,212.6z"/>
		<path class="st3" d="M199.4,212.5C199.3,212.5,199.3,212.6,199.4,212.5c-0.1,0.2-0.1,0.2,0,0.2
			C199.4,212.7,199.5,212.7,199.4,212.5C199.5,212.6,199.4,212.5,199.4,212.5z"/>
		<path class="st3" d="M190.5,212.5c-0.1,0-0.1,0.1-0.1,0.1c0,0.1,0.1,0.1,0.1,0.1c0.1,0,0.1-0.1,0.1-0.1
			C190.6,212.6,190.6,212.5,190.5,212.5z"/>
		<path class="st3" d="M181.6,212.5c-0.1,0-0.2,0.1-0.2,0.2c0,0.1,0.1,0.2,0.2,0.2c0.1,0,0.2-0.1,0.2-0.2
			C181.8,212.5,181.7,212.5,181.6,212.5z"/>
		<path class="st3" d="M172.8,212.4c-0.1,0-0.2,0.1-0.2,0.2c0,0.1,0.1,0.2,0.2,0.2c0.1,0,0.2-0.1,0.2-0.2
			C173,212.5,172.9,212.4,172.8,212.4z"/>
		<path class="st3" d="M163.9,212.4c-0.1,0-0.2,0.1-0.2,0.2c0,0.1,0.1,0.2,0.2,0.2c0.1,0,0.2-0.1,0.2-0.2
			C164.2,212.5,164.1,212.4,163.9,212.4z"/>
		<path class="st3" d="M155.1,212.4c-0.1,0-0.2,0.1-0.2,0.2c0,0.1,0.1,0.2,0.2,0.2c0.1,0,0.2-0.1,0.2-0.2
			C155.3,212.5,155.2,212.4,155.1,212.4z"/>
		<path class="st3" d="M146.2,212.4c-0.1,0-0.2,0.1-0.2,0.2s0.1,0.2,0.2,0.2s0.2-0.1,0.2-0.2C146.5,212.5,146.4,212.4,146.2,212.4z"
			/>
		<path class="st3" d="M137.4,212.4c-0.1,0-0.2,0.1-0.2,0.2c0,0.1,0.1,0.2,0.2,0.2c0.1,0,0.2-0.1,0.2-0.2
			C137.6,212.5,137.5,212.4,137.4,212.4z"/>
		<path class="st3" d="M128.5,212.4c-0.1,0-0.2,0.1-0.2,0.2c0,0.1,0.1,0.2,0.2,0.2c0.1,0,0.2-0.1,0.2-0.2
			C128.7,212.5,128.6,212.4,128.5,212.4z"/>
		<path class="st3" d="M119.6,212.4c-0.1,0-0.2,0.1-0.2,0.2c0,0.1,0.1,0.2,0.2,0.2c0.1,0,0.2-0.1,0.2-0.2
			C119.8,212.5,119.7,212.4,119.6,212.4z"/>
		<path class="st3" d="M110.8,212.5c-0.1,0-0.2,0.1-0.2,0.2c0,0.1,0.1,0.2,0.2,0.2c0.1,0,0.2-0.1,0.2-0.2
			C111,212.5,110.9,212.5,110.8,212.5z"/>
		<path class="st3" d="M101.9,212.5c-0.1,0-0.1,0.1-0.1,0.1c0,0.1,0.1,0.1,0.1,0.1c0.1,0,0.1-0.1,0.1-0.1
			C102,212.6,102,212.5,101.9,212.5z"/>
		<path class="st3" d="M93.1,212.6C93,212.6,93,212.6,93.1,212.6c-0.1,0.1,0,0.1,0,0.1C93.1,212.7,93.1,212.7,93.1,212.6
			C93.1,212.6,93.1,212.6,93.1,212.6z"/>
		<path class="st3" d="M84.2,212.6C84.2,212.6,84.2,212.6,84.2,212.6C84.2,212.7,84.2,212.7,84.2,212.6
			C84.2,212.7,84.3,212.7,84.2,212.6C84.3,212.6,84.2,212.6,84.2,212.6z"/>
		<path class="st3" d="M75.3,212.6C75.3,212.6,75.3,212.6,75.3,212.6C75.3,212.6,75.3,212.7,75.3,212.6
			C75.4,212.7,75.4,212.6,75.3,212.6C75.4,212.6,75.4,212.6,75.3,212.6z"/>
		<path class="st3" d="M230.4,203.7C230.4,203.7,230.3,203.8,230.4,203.7C230.3,203.8,230.4,203.8,230.4,203.7
			C230.4,203.8,230.4,203.8,230.4,203.7C230.4,203.8,230.4,203.7,230.4,203.7z"/>
		<path class="st3" d="M221.5,203.7C221.5,203.7,221.5,203.7,221.5,203.7C221.5,203.8,221.5,203.8,221.5,203.7
			C221.5,203.8,221.6,203.8,221.5,203.7C221.6,203.7,221.5,203.7,221.5,203.7z"/>
		<path class="st3" d="M212.7,203.7C212.6,203.7,212.6,203.7,212.7,203.7c-0.1,0.2-0.1,0.2,0,0.2
			C212.7,203.9,212.8,203.8,212.7,203.7C212.8,203.7,212.7,203.7,212.7,203.7z"/>
		<path class="st3" d="M203.8,203.6c-0.1,0-0.2,0.1-0.2,0.2c0,0.1,0.1,0.2,0.2,0.2s0.2-0.1,0.2-0.2
			C204,203.7,203.9,203.6,203.8,203.6z"/>
		<path class="st3" d="M194.9,203.5c-0.1,0-0.2,0.1-0.2,0.2c0,0.1,0.1,0.2,0.2,0.2c0.1,0,0.2-0.1,0.2-0.2
			C195.2,203.6,195.1,203.5,194.9,203.5z"/>
		<path class="st3" d="M186.1,203.5c-0.2,0-0.3,0.1-0.3,0.3c0,0.2,0.1,0.3,0.3,0.3c0.2,0,0.3-0.1,0.3-0.3
			C186.4,203.6,186.3,203.5,186.1,203.5z"/>
		<path class="st3" d="M177.2,203.4c-0.2,0-0.4,0.2-0.4,0.4c0,0.2,0.2,0.4,0.4,0.4c0.2,0,0.4-0.2,0.4-0.4
			C177.6,203.6,177.4,203.4,177.2,203.4z"/>
		<path class="st3" d="M168.4,203.4c-0.2,0-0.4,0.2-0.4,0.4c0,0.2,0.2,0.4,0.4,0.4c0.2,0,0.4-0.2,0.4-0.4
			C168.8,203.5,168.6,203.4,168.4,203.4z"/>
		<path class="st3" d="M159.5,203.3c-0.3,0-0.5,0.2-0.5,0.5c0,0.3,0.2,0.5,0.5,0.5c0.3,0,0.5-0.2,0.5-0.5
			C160,203.5,159.8,203.3,159.5,203.3z"/>
		<path class="st3" d="M150.6,203.3c-0.3,0-0.5,0.2-0.5,0.5c0,0.3,0.2,0.5,0.5,0.5c0.3,0,0.5-0.2,0.5-0.5
			C151.1,203.5,150.9,203.3,150.6,203.3z"/>
		<path class="st3" d="M141.8,203.3c-0.3,0-0.5,0.2-0.5,0.5c0,0.3,0.2,0.5,0.5,0.5c0.3,0,0.5-0.2,0.5-0.5
			C142.3,203.5,142.1,203.3,141.8,203.3z"/>
		<path class="st3" d="M132.9,203.3c-0.3,0-0.5,0.2-0.5,0.5c0,0.3,0.2,0.5,0.5,0.5c0.3,0,0.5-0.2,0.5-0.5
			C133.4,203.5,133.2,203.3,132.9,203.3z"/>
		<path class="st3" d="M124.1,203.3c-0.3,0-0.5,0.2-0.5,0.5c0,0.3,0.2,0.5,0.5,0.5c0.3,0,0.5-0.2,0.5-0.5
			C124.5,203.5,124.3,203.3,124.1,203.3z"/>
		<path class="st3" d="M115.2,203.4c-0.2,0-0.4,0.2-0.4,0.4c0,0.2,0.2,0.4,0.4,0.4c0.2,0,0.4-0.2,0.4-0.4
			C115.6,203.5,115.4,203.4,115.2,203.4z"/>
		<path class="st3" d="M106.4,203.4c-0.2,0-0.4,0.2-0.4,0.4c0,0.2,0.2,0.4,0.4,0.4c0.2,0,0.4-0.2,0.4-0.4
			C106.7,203.6,106.6,203.4,106.4,203.4z"/>
		<path class="st3" d="M97.5,203.5c-0.2,0-0.3,0.1-0.3,0.3c0,0.2,0.1,0.3,0.3,0.3c0.2,0,0.3-0.1,0.3-0.3
			C97.8,203.6,97.7,203.5,97.5,203.5z"/>
		<path class="st3" d="M88.6,203.5c-0.1,0-0.2,0.1-0.2,0.2c0,0.1,0.1,0.2,0.2,0.2c0.1,0,0.2-0.1,0.2-0.2
			C88.9,203.6,88.8,203.5,88.6,203.5z"/>
		<path class="st3" d="M79.8,203.6c-0.1,0-0.2,0.1-0.2,0.2c0,0.1,0.1,0.2,0.2,0.2c0.1,0,0.2-0.1,0.2-0.2
			C79.9,203.7,79.9,203.6,79.8,203.6z"/>
		<path class="st3" d="M70.9,203.7C70.9,203.7,70.8,203.7,70.9,203.7c-0.1,0.2-0.1,0.2,0,0.2C71,203.9,71,203.8,70.9,203.7
			C71,203.7,71,203.7,70.9,203.7z"/>
		<path class="st3" d="M62.1,203.7C62,203.7,62,203.7,62.1,203.7C62,203.8,62,203.8,62.1,203.7C62.1,203.8,62.1,203.8,62.1,203.7
			C62.1,203.7,62.1,203.7,62.1,203.7z"/>
		<path class="st3" d="M243.7,194.9C243.6,194.9,243.6,194.9,243.7,194.9C243.6,194.9,243.6,195,243.7,194.9
			C243.7,195,243.7,194.9,243.7,194.9C243.7,194.9,243.7,194.9,243.7,194.9z"/>
		<path class="st3" d="M234.8,194.8C234.7,194.8,234.7,194.9,234.8,194.8c-0.1,0.2-0.1,0.2,0,0.2C234.9,195,234.9,195,234.8,194.8
			C234.9,194.9,234.9,194.8,234.8,194.8z"/>
		<path class="st3" d="M225.9,194.7c-0.1,0-0.2,0.1-0.2,0.2c0,0.1,0.1,0.2,0.2,0.2c0.1,0,0.2-0.1,0.2-0.2
			C226.1,194.8,226,194.7,225.9,194.7z"/>
		<path class="st3" d="M217.1,194.6c-0.1,0-0.3,0.1-0.3,0.3c0,0.1,0.1,0.3,0.3,0.3c0.1,0,0.3-0.1,0.3-0.3
			C217.4,194.8,217.2,194.6,217.1,194.6z"/>
		<path class="st3" d="M208.2,194.5c-0.2,0-0.4,0.2-0.4,0.4c0,0.2,0.2,0.4,0.4,0.4c0.2,0,0.4-0.2,0.4-0.4
			C208.6,194.7,208.4,194.5,208.2,194.5z"/>
		<path class="st3" d="M199.4,194.4c-0.3,0-0.5,0.2-0.5,0.5c0,0.3,0.2,0.5,0.5,0.5c0.3,0,0.5-0.2,0.5-0.5
			C199.8,194.7,199.6,194.4,199.4,194.4z"/>
		<path class="st3" d="M190.5,194.3c-0.3,0-0.6,0.3-0.6,0.6c0,0.3,0.3,0.6,0.6,0.6c0.3,0,0.6-0.3,0.6-0.6
			C191.1,194.6,190.8,194.3,190.5,194.3z"/>
		<path class="st3" d="M181.6,194.3c-0.4,0-0.6,0.3-0.6,0.6c0,0.4,0.3,0.6,0.6,0.6c0.4,0,0.6-0.3,0.6-0.6
			C182.3,194.6,182,194.3,181.6,194.3z"/>
		<path class="st3" d="M172.8,194.2c-0.4,0-0.7,0.3-0.7,0.7c0,0.4,0.3,0.7,0.7,0.7c0.4,0,0.7-0.3,0.7-0.7
			C173.5,194.5,173.2,194.2,172.8,194.2z"/>
		<path class="st3" d="M163.9,194.2c-0.4,0-0.8,0.3-0.8,0.8c0,0.4,0.3,0.8,0.8,0.8c0.4,0,0.8-0.3,0.8-0.8
			C164.7,194.5,164.4,194.2,163.9,194.2z"/>
		<path class="st3" d="M155.1,194.1c-0.4,0-0.8,0.4-0.8,0.8c0,0.4,0.4,0.8,0.8,0.8c0.4,0,0.8-0.4,0.8-0.8
			C155.9,194.5,155.5,194.1,155.1,194.1z"/>
		<path class="st3" d="M146.2,194.1c-0.4,0-0.8,0.4-0.8,0.8c0,0.4,0.4,0.8,0.8,0.8c0.4,0,0.8-0.4,0.8-0.8
			C147,194.5,146.7,194.1,146.2,194.1z"/>
		<path class="st3" d="M137.4,194.1c-0.4,0-0.8,0.4-0.8,0.8s0.4,0.8,0.8,0.8c0.4,0,0.8-0.4,0.8-0.8
			C138.1,194.5,137.8,194.1,137.4,194.1z"/>
		<path class="st3" d="M128.5,194.2c-0.4,0-0.8,0.3-0.8,0.8s0.3,0.8,0.8,0.8c0.4,0,0.8-0.3,0.8-0.8
			C129.3,194.5,128.9,194.2,128.5,194.2z"/>
		<path class="st3" d="M119.6,194.2c-0.4,0-0.7,0.3-0.7,0.7c0,0.4,0.3,0.7,0.7,0.7c0.4,0,0.7-0.3,0.7-0.7
			C120.4,194.5,120,194.2,119.6,194.2z"/>
		<path class="st3" d="M110.8,194.3c-0.4,0-0.6,0.3-0.6,0.6c0,0.4,0.3,0.6,0.6,0.6c0.4,0,0.6-0.3,0.6-0.6
			C111.4,194.6,111.1,194.3,110.8,194.3z"/>
		<path class="st3" d="M101.9,194.4c-0.3,0-0.5,0.2-0.5,0.5c0,0.3,0.2,0.5,0.5,0.5c0.3,0,0.5-0.2,0.5-0.5
			C102.5,194.6,102.2,194.4,101.9,194.4z"/>
		<path class="st3" d="M93.1,194.4c-0.3,0-0.5,0.2-0.5,0.5c0,0.3,0.2,0.5,0.5,0.5c0.3,0,0.5-0.2,0.5-0.5
			C93.5,194.7,93.3,194.4,93.1,194.4z"/>
		<path class="st3" d="M84.2,194.5c-0.2,0-0.4,0.2-0.4,0.4c0,0.2,0.2,0.4,0.4,0.4c0.2,0,0.4-0.2,0.4-0.4
			C84.6,194.7,84.4,194.5,84.2,194.5z"/>
		<path class="st3" d="M75.3,194.6c-0.1,0-0.3,0.1-0.3,0.3c0,0.1,0.1,0.3,0.3,0.3c0.1,0,0.3-0.1,0.3-0.3
			C75.6,194.8,75.5,194.6,75.3,194.6z"/>
		<path class="st3" d="M66.5,194.7c-0.1,0-0.2,0.1-0.2,0.2c0,0.1,0.1,0.2,0.2,0.2s0.2-0.1,0.2-0.2C66.7,194.8,66.6,194.7,66.5,194.7
			z"/>
		<path class="st3" d="M57.6,194.8C57.6,194.8,57.5,194.9,57.6,194.8c-0.1,0.2-0.1,0.2,0,0.2C57.7,195,57.7,195,57.6,194.8
			C57.7,194.9,57.7,194.8,57.6,194.8z"/>
		<path class="st3" d="M48.8,194.9C48.8,194.9,48.7,194.9,48.8,194.9C48.7,194.9,48.8,194.9,48.8,194.9
			C48.8,194.9,48.8,194.9,48.8,194.9C48.8,194.9,48.8,194.9,48.8,194.9z"/>
		<path class="st3" d="M248.1,186C248.1,186,248,186,248.1,186C248,186.1,248.1,186.1,248.1,186C248.1,186.1,248.1,186.1,248.1,186
			C248.1,186,248.1,186,248.1,186z"/>
		<path class="st3" d="M239.2,185.9c-0.1,0-0.1,0.1-0.1,0.1c0,0.1,0.1,0.1,0.1,0.1c0.1,0,0.1-0.1,0.1-0.1
			C239.4,186,239.3,185.9,239.2,185.9z"/>
		<path class="st3" d="M230.4,185.8c-0.1,0-0.2,0.1-0.2,0.2c0,0.1,0.1,0.2,0.2,0.2c0.1,0,0.2-0.1,0.2-0.2
			C230.6,185.9,230.5,185.8,230.4,185.8z"/>
		<path class="st3" d="M221.5,185.7c-0.2,0-0.3,0.2-0.3,0.3c0,0.2,0.2,0.3,0.3,0.3c0.2,0,0.3-0.2,0.3-0.3
			C221.9,185.9,221.7,185.7,221.5,185.7z"/>
		<path class="st3" d="M212.7,185.6c-0.3,0-0.5,0.2-0.5,0.5c0,0.3,0.2,0.5,0.5,0.5c0.3,0,0.5-0.2,0.5-0.5
			C213.1,185.8,212.9,185.6,212.7,185.6z"/>
		<path class="st3" d="M203.8,185.4c-0.3,0-0.6,0.3-0.6,0.6c0,0.3,0.3,0.6,0.6,0.6c0.3,0,0.6-0.3,0.6-0.6
			C204.4,185.7,204.1,185.4,203.8,185.4z"/>
		<path class="st3" d="M194.9,185.3c-0.4,0-0.7,0.3-0.7,0.7c0,0.4,0.3,0.7,0.7,0.7c0.4,0,0.7-0.3,0.7-0.7
			C195.7,185.6,195.3,185.3,194.9,185.3z"/>
		<path class="st3" d="M186.1,185.2c-0.5,0-0.9,0.4-0.9,0.9c0,0.5,0.4,0.9,0.9,0.9c0.5,0,0.9-0.4,0.9-0.9
			C186.9,185.6,186.6,185.2,186.1,185.2z"/>
		<path class="st3" d="M177.2,185.1c-0.5,0-1,0.4-1,1c0,0.5,0.4,1,1,1c0.5,0,1-0.4,1-1C178.2,185.5,177.8,185.1,177.2,185.1z"/>
		<path class="st3" d="M168.4,185c-0.6,0-1.1,0.5-1.1,1.1c0,0.6,0.5,1.1,1.1,1.1c0.6,0,1.1-0.5,1.1-1.1S168.9,185,168.4,185z"/>
		<path class="st3" d="M159.5,184.9c-0.6,0-1.1,0.5-1.1,1.1c0,0.6,0.5,1.1,1.1,1.1c0.6,0,1.1-0.5,1.1-1.1
			C160.6,185.4,160.1,184.9,159.5,184.9z"/>
		<path class="st3" d="M150.6,184.9c-0.7,0-1.2,0.5-1.2,1.2c0,0.7,0.5,1.2,1.2,1.2c0.7,0,1.2-0.5,1.2-1.2
			C151.8,185.4,151.3,184.9,150.6,184.9z"/>
		<path class="st3" d="M141.8,184.9c-0.7,0-1.2,0.5-1.2,1.2c0,0.7,0.5,1.2,1.2,1.2c0.7,0,1.2-0.5,1.2-1.2
			C143,185.4,142.4,184.9,141.8,184.9z"/>
		<path class="st3" d="M132.9,184.9c-0.6,0-1.2,0.5-1.2,1.2c0,0.6,0.5,1.2,1.2,1.2c0.6,0,1.2-0.5,1.2-1.2
			C134.1,185.4,133.6,184.9,132.9,184.9z"/>
		<path class="st3" d="M124.1,184.9c-0.6,0-1.1,0.5-1.1,1.1c0,0.6,0.5,1.1,1.1,1.1c0.6,0,1.1-0.5,1.1-1.1
			C125.2,185.4,124.7,184.9,124.1,184.9z"/>
		<path class="st3" d="M115.2,185c-0.6,0-1.1,0.5-1.1,1.1c0,0.6,0.5,1.1,1.1,1.1c0.6,0,1.1-0.5,1.1-1.1
			C116.3,185.5,115.8,185,115.2,185z"/>
		<path class="st3" d="M106.4,185.1c-0.5,0-1,0.4-1,1c0,0.5,0.4,1,1,1c0.5,0,1-0.4,1-1C107.3,185.5,106.9,185.1,106.4,185.1z"/>
		<path class="st3" d="M97.5,185.2c-0.5,0-0.8,0.4-0.8,0.8c0,0.5,0.4,0.8,0.8,0.8c0.5,0,0.8-0.4,0.8-0.8
			C98.3,185.6,98,185.2,97.5,185.2z"/>
		<path class="st3" d="M88.6,185.3c-0.4,0-0.7,0.3-0.7,0.7c0,0.4,0.3,0.7,0.7,0.7c0.4,0,0.7-0.3,0.7-0.7
			C89.3,185.7,89,185.3,88.6,185.3z"/>
		<path class="st3" d="M79.8,185.5c-0.3,0-0.6,0.3-0.6,0.6c0,0.3,0.3,0.6,0.6,0.6c0.3,0,0.6-0.3,0.6-0.6
			C80.4,185.7,80.1,185.5,79.8,185.5z"/>
		<path class="st3" d="M70.9,185.6c-0.3,0-0.5,0.2-0.5,0.5c0,0.3,0.2,0.5,0.5,0.5c0.3,0,0.5-0.2,0.5-0.5
			C71.4,185.8,71.2,185.6,70.9,185.6z"/>
		<path class="st3" d="M62.1,185.7c-0.2,0-0.3,0.2-0.3,0.3c0,0.2,0.2,0.3,0.3,0.3c0.2,0,0.3-0.2,0.3-0.3
			C62.4,185.9,62.2,185.7,62.1,185.7z"/>
		<path class="st3" d="M53.2,185.8c-0.1,0-0.2,0.1-0.2,0.2c0,0.1,0.1,0.2,0.2,0.2s0.2-0.1,0.2-0.2C53.4,185.9,53.3,185.8,53.2,185.8
			z"/>
		<path class="st3" d="M44.3,185.9c-0.1,0-0.1,0.1-0.1,0.1c0,0.1,0.1,0.1,0.1,0.1c0.1,0,0.1-0.1,0.1-0.1
			C44.5,186,44.4,185.9,44.3,185.9z"/>
		<path class="st3" d="M35.5,186C35.5,186,35.4,186,35.5,186C35.4,186.1,35.5,186.1,35.5,186C35.5,186.1,35.5,186.1,35.5,186
			C35.5,186,35.5,186,35.5,186z"/>
		<path class="st3" d="M261.4,177.1C261.3,177.1,261.3,177.2,261.4,177.1C261.3,177.2,261.3,177.2,261.4,177.1
			C261.4,177.2,261.4,177.2,261.4,177.1C261.4,177.2,261.4,177.1,261.4,177.1z"/>
		<path class="st3" d="M252.5,177c-0.1,0-0.1,0.1-0.1,0.1c0,0.1,0.1,0.1,0.1,0.1c0.1,0,0.1-0.1,0.1-0.1
			C252.7,177.1,252.6,177,252.5,177z"/>
		<path class="st3" d="M243.7,176.9c-0.1,0-0.2,0.1-0.2,0.2c0,0.1,0.1,0.2,0.2,0.2s0.2-0.1,0.2-0.2
			C243.9,177.1,243.8,176.9,243.7,176.9z"/>
		<path class="st3" d="M234.8,176.8c-0.2,0-0.4,0.2-0.4,0.4c0,0.2,0.2,0.4,0.4,0.4c0.2,0,0.4-0.2,0.4-0.4
			C235.2,177,235,176.8,234.8,176.8z"/>
		<path class="st3" d="M225.9,176.7c-0.3,0-0.5,0.2-0.5,0.5c0,0.3,0.2,0.5,0.5,0.5c0.3,0,0.5-0.2,0.5-0.5
			C226.5,176.9,226.2,176.7,225.9,176.7z"/>
		<path class="st3" d="M217.1,176.5c-0.4,0-0.7,0.3-0.7,0.7c0,0.4,0.3,0.7,0.7,0.7c0.4,0,0.7-0.3,0.7-0.7
			C217.8,176.8,217.5,176.5,217.1,176.5z"/>
		<path class="st3" d="M208.2,176.3c-0.5,0-0.9,0.4-0.9,0.9c0,0.5,0.4,0.9,0.9,0.9c0.5,0,0.9-0.4,0.9-0.9
			C209.1,176.7,208.7,176.3,208.2,176.3z"/>
		<path class="st3" d="M199.4,176.2c-0.6,0-1,0.5-1,1c0,0.6,0.5,1,1,1s1-0.5,1-1C200.4,176.6,199.9,176.2,199.4,176.2z"/>
		<path class="st3" d="M190.5,176c-0.7,0-1.2,0.5-1.2,1.2c0,0.7,0.5,1.2,1.2,1.2c0.7,0,1.2-0.5,1.2-1.2
			C191.7,176.5,191.2,176,190.5,176z"/>
		<path class="st3" d="M181.6,175.9c-0.7,0-1.3,0.6-1.3,1.3c0,0.7,0.6,1.3,1.3,1.3c0.7,0,1.3-0.6,1.3-1.3
			C183,176.5,182.4,175.9,181.6,175.9z"/>
		<path class="st3" d="M172.8,175.7c-0.8,0-1.5,0.7-1.5,1.5c0,0.8,0.7,1.5,1.5,1.5c0.8,0,1.5-0.7,1.5-1.5
			C174.3,176.4,173.6,175.7,172.8,175.7z"/>
		<circle class="st3" cx="163.9" cy="177.2" r="1.5"/>
		<path class="st3" d="M155.1,175.6c-0.9,0-1.6,0.7-1.6,1.6c0,0.9,0.7,1.6,1.6,1.6c0.9,0,1.6-0.7,1.6-1.6
			C156.7,176.3,156,175.6,155.1,175.6z"/>
		<path class="st3" d="M146.2,175.6c-0.9,0-1.6,0.7-1.6,1.6c0,0.9,0.7,1.6,1.6,1.6c0.9,0,1.6-0.7,1.6-1.6
			C147.8,176.3,147.1,175.6,146.2,175.6z"/>
		<path class="st3" d="M137.4,175.6c-0.9,0-1.6,0.7-1.6,1.6c0,0.9,0.7,1.6,1.6,1.6c0.9,0,1.6-0.7,1.6-1.6
			C139,176.3,138.2,175.6,137.4,175.6z"/>
		<path class="st3" d="M128.5,175.7c-0.8,0-1.5,0.7-1.5,1.5c0,0.8,0.7,1.5,1.5,1.5c0.8,0,1.5-0.7,1.5-1.5
			C130,176.4,129.3,175.7,128.5,175.7z"/>
		<path class="st3" d="M119.6,175.7c-0.8,0-1.4,0.6-1.4,1.4c0,0.8,0.6,1.4,1.4,1.4s1.4-0.6,1.4-1.4
			C121.1,176.4,120.4,175.7,119.6,175.7z"/>
		<path class="st3" d="M110.8,175.9c-0.7,0-1.3,0.6-1.3,1.3c0,0.7,0.6,1.3,1.3,1.3s1.3-0.6,1.3-1.3
			C112.1,176.5,111.5,175.9,110.8,175.9z"/>
		<path class="st3" d="M101.9,176c-0.7,0-1.2,0.5-1.2,1.2c0,0.7,0.5,1.2,1.2,1.2c0.7,0,1.2-0.5,1.2-1.2
			C103.1,176.5,102.6,176,101.9,176z"/>
		<path class="st3" d="M93.1,176.2c-0.6,0-1,0.5-1,1c0,0.6,0.5,1,1,1s1-0.5,1-1C94.1,176.6,93.6,176.2,93.1,176.2z"/>
		<path class="st3" d="M84.2,176.3c-0.5,0-0.9,0.4-0.9,0.9s0.4,0.9,0.9,0.9c0.5,0,0.9-0.4,0.9-0.9C85.1,176.7,84.7,176.3,84.2,176.3
			z"/>
		<path class="st3" d="M75.3,176.5c-0.4,0-0.7,0.3-0.7,0.7c0,0.4,0.3,0.7,0.7,0.7c0.4,0,0.7-0.3,0.7-0.7
			C76,176.8,75.7,176.5,75.3,176.5z"/>
		<path class="st3" d="M66.5,176.7c-0.3,0-0.5,0.2-0.5,0.5c0,0.3,0.2,0.5,0.5,0.5c0.3,0,0.5-0.2,0.5-0.5
			C67,176.9,66.8,176.7,66.5,176.7z"/>
		<path class="st3" d="M57.6,176.8c-0.2,0-0.4,0.2-0.4,0.4c0,0.2,0.2,0.4,0.4,0.4c0.2,0,0.4-0.2,0.4-0.4
			C58,177,57.8,176.8,57.6,176.8z"/>
		<path class="st3" d="M48.8,176.9c-0.1,0-0.2,0.1-0.2,0.2c0,0.1,0.1,0.2,0.2,0.2c0.1,0,0.2-0.1,0.2-0.2
			C49,177.1,48.9,176.9,48.8,176.9z"/>
		<path class="st3" d="M39.9,177.1c-0.1,0-0.1,0.1-0.1,0.1c0,0.1,0.1,0.1,0.1,0.1c0.1,0,0.1-0.1,0.1-0.1
			C40,177.1,40,177.1,39.9,177.1z"/>
		<path class="st3" d="M31.1,177.1C31,177.1,31,177.2,31.1,177.1C31,177.2,31,177.2,31.1,177.1C31.1,177.2,31.1,177.2,31.1,177.1
			C31.1,177.2,31.1,177.1,31.1,177.1z"/>
		<path class="st3" d="M265.8,168.3C265.8,168.3,265.8,168.3,265.8,168.3C265.8,168.4,265.8,168.4,265.8,168.3
			C265.8,168.4,265.9,168.4,265.8,168.3C265.9,168.3,265.8,168.3,265.8,168.3z"/>
		<path class="st3" d="M256.9,168.2c-0.1,0-0.1,0.1-0.1,0.1c0,0.1,0.1,0.1,0.1,0.1c0.1,0,0.1-0.1,0.1-0.1
			C257.1,168.3,257,168.2,256.9,168.2z"/>
		<path class="st3" d="M248.1,168.1c-0.1,0-0.2,0.1-0.2,0.2c0,0.1,0.1,0.2,0.2,0.2s0.2-0.1,0.2-0.2
			C248.3,168.2,248.2,168.1,248.1,168.1z"/>
		<path class="st3" d="M239.2,167.9c-0.2,0-0.4,0.2-0.4,0.4c0,0.2,0.2,0.4,0.4,0.4c0.2,0,0.4-0.2,0.4-0.4
			C239.6,168.1,239.4,167.9,239.2,167.9z"/>
		<path class="st3" d="M230.4,167.8c-0.3,0-0.6,0.3-0.6,0.6c0,0.3,0.3,0.6,0.6,0.6c0.3,0,0.6-0.3,0.6-0.6
			C230.9,168,230.7,167.8,230.4,167.8z"/>
		<path class="st3" d="M221.5,167.6c-0.4,0-0.8,0.3-0.8,0.8c0,0.4,0.3,0.8,0.8,0.8c0.4,0,0.8-0.3,0.8-0.8
			C222.3,167.9,221.9,167.6,221.5,167.6z"/>
		<path class="st3" d="M212.7,167.4c-0.5,0-1,0.4-1,1c0,0.5,0.4,1,1,1c0.5,0,1-0.4,1-1C213.6,167.8,213.2,167.4,212.7,167.4z"/>
		<path class="st3" d="M203.8,167.2c-0.7,0-1.2,0.5-1.2,1.2c0,0.7,0.5,1.2,1.2,1.2c0.7,0,1.2-0.5,1.2-1.2S204.4,167.2,203.8,167.2z"
			/>
		<path class="st3" d="M194.9,167c-0.8,0-1.4,0.6-1.4,1.4c0,0.8,0.6,1.4,1.4,1.4c0.8,0,1.4-0.6,1.4-1.4
			C196.3,167.6,195.7,167,194.9,167z"/>
		<path class="st3" d="M186.1,166.8c-0.9,0-1.6,0.7-1.6,1.6c0,0.9,0.7,1.6,1.6,1.6c0.9,0,1.6-0.7,1.6-1.6
			C187.7,167.5,186.9,166.8,186.1,166.8z"/>
		<path class="st3" d="M177.2,166.6c-1,0-1.7,0.8-1.7,1.7c0,1,0.8,1.7,1.7,1.7c1,0,1.7-0.8,1.7-1.7
			C179,167.4,178.2,166.6,177.2,166.6z"/>
		<path class="st3" d="M168.4,166.4c-1,0-1.9,0.8-1.9,1.9c0,1,0.8,1.9,1.9,1.9s1.9-0.8,1.9-1.9C170.3,167.3,169.4,166.4,168.4,166.4
			z"/>
		<path class="st3" d="M159.5,166.3c-1.1,0-2,0.9-2,2c0,1.1,0.9,2,2,2c1.1,0,2-0.9,2-2S160.6,166.3,159.5,166.3z"/>
		<path class="st3" d="M150.6,166.2c-1.2,0-2.1,0.9-2.1,2.1c0,1.2,0.9,2.1,2.1,2.1c1.2,0,2.1-0.9,2.1-2.1
			C152.7,167.2,151.8,166.2,150.6,166.2z"/>
		<path class="st3" d="M141.8,166.2c-1.2,0-2.1,0.9-2.1,2.1c0,1.2,0.9,2.1,2.1,2.1c1.2,0,2.1-0.9,2.1-2.1
			C143.9,167.2,143,166.2,141.8,166.2z"/>
		<path class="st3" d="M132.9,166.2c-1.2,0-2.1,0.9-2.1,2.1c0,1.2,0.9,2.1,2.1,2.1c1.2,0,2.1-0.9,2.1-2.1
			C135,167.2,134.1,166.2,132.9,166.2z"/>
		<path class="st3" d="M124.1,166.3c-1.1,0-2,0.9-2,2c0,1.1,0.9,2,2,2c1.1,0,2-0.9,2-2C126.1,167.2,125.2,166.3,124.1,166.3z"/>
		<path class="st3" d="M115.2,166.5c-1,0-1.9,0.8-1.9,1.9c0,1,0.8,1.9,1.9,1.9c1,0,1.9-0.8,1.9-1.9
			C117.1,167.3,116.2,166.5,115.2,166.5z"/>
		<path class="st3" d="M106.4,166.6c-0.9,0-1.7,0.8-1.7,1.7c0,0.9,0.8,1.7,1.7,1.7s1.7-0.8,1.7-1.7
			C108.1,167.4,107.3,166.6,106.4,166.6z"/>
		<path class="st3" d="M97.5,166.8c-0.9,0-1.5,0.7-1.5,1.5c0,0.9,0.7,1.5,1.5,1.5c0.9,0,1.5-0.7,1.5-1.5S98.3,166.8,97.5,166.8z"/>
		<path class="st3" d="M88.6,167c-0.7,0-1.4,0.6-1.4,1.4c0,0.7,0.6,1.4,1.4,1.4c0.7,0,1.4-0.6,1.4-1.4C90,167.6,89.4,167,88.6,167z"
			/>
		<path class="st3" d="M79.8,167.2c-0.6,0-1.2,0.5-1.2,1.2c0,0.6,0.5,1.2,1.2,1.2c0.6,0,1.2-0.5,1.2-1.2
			C80.9,167.7,80.4,167.2,79.8,167.2z"/>
		<path class="st3" d="M70.9,167.4c-0.5,0-0.9,0.4-0.9,0.9s0.4,0.9,0.9,0.9c0.5,0,0.9-0.4,0.9-0.9C71.9,167.8,71.4,167.4,70.9,167.4
			z"/>
		<path class="st3" d="M62.1,167.6c-0.4,0-0.7,0.3-0.7,0.7c0,0.4,0.3,0.7,0.7,0.7c0.4,0,0.7-0.3,0.7-0.7
			C62.8,167.9,62.5,167.6,62.1,167.6z"/>
		<path class="st3" d="M53.2,167.8c-0.3,0-0.6,0.3-0.6,0.6c0,0.3,0.3,0.6,0.6,0.6c0.3,0,0.6-0.3,0.6-0.6S53.5,167.8,53.2,167.8z"/>
		<path class="st3" d="M44.3,167.9c-0.2,0-0.4,0.2-0.4,0.4c0,0.2,0.2,0.4,0.4,0.4c0.2,0,0.4-0.2,0.4-0.4
			C44.7,168.1,44.6,167.9,44.3,167.9z"/>
		<path class="st3" d="M35.5,168.1c-0.1,0-0.2,0.1-0.2,0.2c0,0.1,0.1,0.2,0.2,0.2c0.1,0,0.2-0.1,0.2-0.2
			C35.7,168.2,35.6,168.1,35.5,168.1z"/>
		<path class="st3" d="M26.6,168.2c-0.1,0-0.1,0.1-0.1,0.1c0,0.1,0.1,0.1,0.1,0.1c0.1,0,0.1-0.1,0.1-0.1
			C26.7,168.3,26.7,168.2,26.6,168.2z"/>
		<path class="st3" d="M17.8,168.3C17.8,168.3,17.7,168.3,17.8,168.3C17.7,168.4,17.8,168.4,17.8,168.3
			C17.8,168.4,17.8,168.4,17.8,168.3C17.8,168.3,17.8,168.3,17.8,168.3z"/>
		<path class="st3" d="M279.1,159.5C279.1,159.5,279.1,159.5,279.1,159.5C279.1,159.5,279.1,159.5,279.1,159.5
			C279.1,159.5,279.1,159.5,279.1,159.5C279.1,159.5,279.1,159.5,279.1,159.5z"/>
		<path class="st3" d="M270.2,159.4C270.2,159.4,270.1,159.4,270.2,159.4c-0.1,0.2-0.1,0.2,0,0.2
			C270.3,159.6,270.3,159.5,270.2,159.4C270.3,159.4,270.3,159.4,270.2,159.4z"/>
		<path class="st3" d="M261.4,159.3c-0.1,0-0.2,0.1-0.2,0.2c0,0.1,0.1,0.2,0.2,0.2c0.1,0,0.2-0.1,0.2-0.2
			C261.6,159.4,261.5,159.3,261.4,159.3z"/>
		<path class="st3" d="M252.5,159.1c-0.2,0-0.4,0.2-0.4,0.4c0,0.2,0.2,0.4,0.4,0.4c0.2,0,0.4-0.2,0.4-0.4
			C252.9,159.3,252.7,159.1,252.5,159.1z"/>
		<path class="st3" d="M243.7,158.9c-0.3,0-0.6,0.3-0.6,0.6c0,0.3,0.3,0.6,0.6,0.6c0.3,0,0.6-0.3,0.6-0.6
			C244.2,159.2,244,158.9,243.7,158.9z"/>
		<path class="st3" d="M234.8,158.7c-0.4,0-0.8,0.3-0.8,0.8c0,0.4,0.3,0.8,0.8,0.8c0.4,0,0.8-0.3,0.8-0.8
			C235.6,159.1,235.2,158.7,234.8,158.7z"/>
		<path class="st3" d="M225.9,158.5c-0.6,0-1,0.5-1,1s0.5,1,1,1s1-0.5,1-1S226.5,158.5,225.9,158.5z"/>
		<path class="st3" d="M217.1,158.2c-0.7,0-1.3,0.6-1.3,1.3c0,0.7,0.6,1.3,1.3,1.3c0.7,0,1.3-0.6,1.3-1.3S217.8,158.2,217.1,158.2z"
			/>
		<path class="st3" d="M208.2,158c-0.8,0-1.5,0.7-1.5,1.5c0,0.8,0.7,1.5,1.5,1.5c0.8,0,1.5-0.7,1.5-1.5S209.1,158,208.2,158z"/>
		<path class="st3" d="M199.4,157.8c-0.9,0-1.7,0.8-1.7,1.7c0,0.9,0.8,1.7,1.7,1.7c0.9,0,1.7-0.8,1.7-1.7
			C201.1,158.5,200.3,157.8,199.4,157.8z"/>
		<path class="st3" d="M190.5,157.5c-1.1,0-2,0.9-2,2c0,1.1,0.9,2,2,2c1.1,0,2-0.9,2-2C192.5,158.4,191.6,157.5,190.5,157.5z"/>
		<path class="st3" d="M181.6,157.3c-1.2,0-2.2,1-2.2,2.2c0,1.2,1,2.2,2.2,2.2c1.2,0,2.2-1,2.2-2.2
			C183.8,158.3,182.9,157.3,181.6,157.3z"/>
		<path class="st3" d="M172.8,157.1c-1.3,0-2.4,1.1-2.4,2.4c0,1.3,1.1,2.4,2.4,2.4c1.3,0,2.4-1.1,2.4-2.4
			C175.2,158.2,174.1,157.1,172.8,157.1z"/>
		<path class="st3" d="M163.9,156.9c-1.4,0-2.5,1.1-2.5,2.5c0,1.4,1.1,2.5,2.5,2.5c1.4,0,2.5-1.1,2.5-2.5
			C166.5,158.1,165.3,156.9,163.9,156.9z"/>
		<path class="st3" d="M155.1,156.9c-1.4,0-2.6,1.2-2.6,2.6c0,1.4,1.2,2.6,2.6,2.6c1.4,0,2.6-1.2,2.6-2.6
			C157.7,158,156.5,156.9,155.1,156.9z"/>
		<circle class="st3" cx="146.2" cy="159.5" r="2.7"/>
		<path class="st3" d="M137.4,156.9c-1.4,0-2.6,1.2-2.6,2.6c0,1.4,1.2,2.6,2.6,2.6c1.4,0,2.6-1.2,2.6-2.6
			C140,158,138.8,156.9,137.4,156.9z"/>
		<path class="st3" d="M128.5,157c-1.4,0-2.5,1.1-2.5,2.5c0,1.4,1.1,2.5,2.5,2.5c1.4,0,2.5-1.1,2.5-2.5
			C131,158.1,129.9,157,128.5,157z"/>
		<path class="st3" d="M119.6,157.1c-1.3,0-2.4,1.1-2.4,2.4c0,1.3,1.1,2.4,2.4,2.4c1.3,0,2.4-1.1,2.4-2.4
			C122,158.2,120.9,157.1,119.6,157.1z"/>
		<path class="st3" d="M110.8,157.3c-1.2,0-2.2,1-2.2,2.2c0,1.2,1,2.2,2.2,2.2c1.2,0,2.2-1,2.2-2.2
			C112.9,158.3,112,157.3,110.8,157.3z"/>
		<path class="st3" d="M101.9,157.5c-1.1,0-2,0.9-2,2c0,1.1,0.9,2,2,2c1.1,0,2-0.9,2-2C103.9,158.4,103,157.5,101.9,157.5z"/>
		<path class="st3" d="M93.1,157.8c-0.9,0-1.7,0.8-1.7,1.7c0,0.9,0.8,1.7,1.7,1.7c0.9,0,1.7-0.8,1.7-1.7
			C94.8,158.5,94,157.8,93.1,157.8z"/>
		<path class="st3" d="M84.2,158c-0.8,0-1.4,0.6-1.4,1.4c0,0.8,0.6,1.4,1.4,1.4c0.8,0,1.4-0.6,1.4-1.4C85.7,158.7,85,158,84.2,158z"
			/>
		<path class="st3" d="M75.3,158.3c-0.7,0-1.2,0.5-1.2,1.2s0.5,1.2,1.2,1.2c0.7,0,1.2-0.5,1.2-1.2C76.6,158.8,76,158.3,75.3,158.3z"
			/>
		<path class="st3" d="M66.5,158.5c-0.5,0-1,0.4-1,1c0,0.5,0.4,1,1,1c0.5,0,1-0.4,1-1C67.4,158.9,67,158.5,66.5,158.5z"/>
		<path class="st3" d="M57.6,158.7c-0.4,0-0.7,0.3-0.7,0.7c0,0.4,0.3,0.7,0.7,0.7c0.4,0,0.7-0.3,0.7-0.7
			C58.4,159.1,58,158.7,57.6,158.7z"/>
		<path class="st3" d="M48.8,159c-0.3,0-0.5,0.2-0.5,0.5c0,0.3,0.2,0.5,0.5,0.5c0.3,0,0.5-0.2,0.5-0.5C49.3,159.2,49.1,159,48.8,159
			z"/>
		<path class="st3" d="M39.9,159.1c-0.2,0-0.3,0.2-0.3,0.3c0,0.2,0.2,0.3,0.3,0.3c0.2,0,0.3-0.2,0.3-0.3
			C40.3,159.3,40.1,159.1,39.9,159.1z"/>
		<path class="st3" d="M31.1,159.3c-0.1,0-0.2,0.1-0.2,0.2c0,0.1,0.1,0.2,0.2,0.2c0.1,0,0.2-0.1,0.2-0.2
			C31.3,159.4,31.2,159.3,31.1,159.3z"/>
		<path class="st3" d="M22.2,159.4C22.2,159.4,22.1,159.4,22.2,159.4c-0.1,0.1,0,0.1,0,0.1C22.2,159.6,22.3,159.5,22.2,159.4
			C22.3,159.4,22.2,159.4,22.2,159.4z"/>
		<path class="st3" d="M13.3,159.5C13.3,159.5,13.3,159.5,13.3,159.5C13.3,159.5,13.3,159.5,13.3,159.5
			C13.4,159.5,13.4,159.5,13.3,159.5C13.4,159.5,13.4,159.5,13.3,159.5z"/>
		<path class="st3" d="M274.7,150.6C274.6,150.6,274.6,150.6,274.7,150.6C274.6,150.6,274.6,150.7,274.7,150.6
			C274.7,150.7,274.7,150.6,274.7,150.6C274.7,150.6,274.7,150.6,274.7,150.6z"/>
		<path class="st3" d="M265.8,150.4c-0.1,0-0.2,0.1-0.2,0.2s0.1,0.2,0.2,0.2c0.1,0,0.2-0.1,0.2-0.2
			C266,150.5,265.9,150.4,265.8,150.4z"/>
		<path class="st3" d="M256.9,150.3c-0.2,0-0.3,0.1-0.3,0.3c0,0.2,0.1,0.3,0.3,0.3c0.2,0,0.3-0.1,0.3-0.3
			C257.3,150.4,257.1,150.3,256.9,150.3z"/>
		<path class="st3" d="M248.1,150.1c-0.3,0-0.5,0.2-0.5,0.5c0,0.3,0.2,0.5,0.5,0.5c0.3,0,0.5-0.2,0.5-0.5
			C248.6,150.3,248.4,150.1,248.1,150.1z"/>
		<path class="st3" d="M239.2,149.9c-0.4,0-0.7,0.3-0.7,0.7c0,0.4,0.3,0.7,0.7,0.7c0.4,0,0.7-0.3,0.7-0.7
			C239.9,150.2,239.6,149.9,239.2,149.9z"/>
		<path class="st3" d="M230.4,149.7c-0.5,0-1,0.4-1,1c0,0.5,0.4,1,1,1c0.5,0,1-0.4,1-1C231.3,150.1,230.9,149.7,230.4,149.7z"/>
		<path class="st3" d="M221.5,149.4c-0.7,0-1.2,0.5-1.2,1.2c0,0.7,0.5,1.2,1.2,1.2c0.7,0,1.2-0.5,1.2-1.2
			C222.7,149.9,222.2,149.4,221.5,149.4z"/>
		<path class="st3" d="M212.7,149.1c-0.8,0-1.5,0.7-1.5,1.5c0,0.8,0.7,1.5,1.5,1.5c0.8,0,1.5-0.7,1.5-1.5
			C214.2,149.8,213.5,149.1,212.7,149.1z"/>
		<path class="st3" d="M203.8,148.9c-1,0-1.8,0.8-1.8,1.8c0,1,0.8,1.8,1.8,1.8c1,0,1.8-0.8,1.8-1.8
			C205.6,149.6,204.8,148.9,203.8,148.9z"/>
		<path class="st3" d="M194.9,148.5c-1.2,0-2.1,0.9-2.1,2.1c0,1.2,0.9,2.1,2.1,2.1c1.2,0,2.1-0.9,2.1-2.1
			C197,149.5,196.1,148.5,194.9,148.5z"/>
		<path class="st3" d="M186.1,148.2c-1.3,0-2.4,1.1-2.4,2.4c0,1.3,1.1,2.4,2.4,2.4c1.3,0,2.4-1.1,2.4-2.4
			C188.5,149.3,187.4,148.2,186.1,148.2z"/>
		<path class="st3" d="M177.2,148c-1.5,0-2.7,1.2-2.7,2.7c0,1.5,1.2,2.7,2.7,2.7c1.5,0,2.7-1.2,2.7-2.7
			C179.9,149.2,178.7,148,177.2,148z"/>
		<path class="st3" d="M168.4,147.7c-1.6,0-2.9,1.3-2.9,2.9c0,1.6,1.3,2.9,2.9,2.9c1.6,0,2.9-1.3,2.9-2.9
			C171.2,149,169.9,147.7,168.4,147.7z"/>
		<path class="st3" d="M159.5,147.5c-1.7,0-3.1,1.4-3.1,3.1c0,1.7,1.4,3.1,3.1,3.1c1.7,0,3.1-1.4,3.1-3.1
			C162.6,148.9,161.2,147.5,159.5,147.5z"/>
		<path class="st3" d="M150.6,147.4c-1.8,0-3.2,1.4-3.2,3.2c0,1.8,1.4,3.2,3.2,3.2c1.8,0,3.2-1.4,3.2-3.2
			C153.8,148.9,152.4,147.4,150.6,147.4z"/>
		<path class="st3" d="M141.8,147.4c-1.8,0-3.2,1.4-3.2,3.2c0,1.8,1.4,3.2,3.2,3.2c1.8,0,3.2-1.4,3.2-3.2
			C145,148.8,143.6,147.4,141.8,147.4z"/>
		<path class="st3" d="M132.9,147.4c-1.8,0-3.2,1.4-3.2,3.2c0,1.8,1.4,3.2,3.2,3.2c1.8,0,3.2-1.4,3.2-3.2
			C136.1,148.9,134.7,147.4,132.9,147.4z"/>
		<path class="st3" d="M124.1,147.5c-1.7,0-3.1,1.4-3.1,3.1c0,1.7,1.4,3.1,3.1,3.1c1.7,0,3.1-1.4,3.1-3.1
			C127.1,148.9,125.8,147.5,124.1,147.5z"/>
		<path class="st3" d="M115.2,147.8c-1.6,0-2.8,1.3-2.8,2.8c0,1.6,1.3,2.8,2.8,2.8c1.6,0,2.8-1.3,2.8-2.8
			C118.1,149,116.8,147.8,115.2,147.8z"/>
		<path class="st3" d="M106.4,148c-1.4,0-2.6,1.2-2.6,2.6c0,1.4,1.2,2.6,2.6,2.6c1.4,0,2.6-1.2,2.6-2.6
			C109,149.2,107.8,148,106.4,148z"/>
		<path class="st3" d="M97.5,148.3c-1.3,0-2.3,1-2.3,2.3c0,1.3,1,2.3,2.3,2.3c1.3,0,2.3-1,2.3-2.3C99.8,149.3,98.8,148.3,97.5,148.3
			z"/>
		<path class="st3" d="M88.6,148.6c-1.1,0-2.1,0.9-2.1,2.1c0,1.1,0.9,2.1,2.1,2.1c1.1,0,2.1-0.9,2.1-2.1
			C90.7,149.5,89.8,148.6,88.6,148.6z"/>
		<path class="st3" d="M79.8,148.9c-1,0-1.7,0.8-1.7,1.7c0,1,0.8,1.7,1.7,1.7c1,0,1.7-0.8,1.7-1.7C81.5,149.7,80.7,148.9,79.8,148.9
			z"/>
		<path class="st3" d="M70.9,149.1c-0.8,0-1.5,0.7-1.5,1.5c0,0.8,0.7,1.5,1.5,1.5c0.8,0,1.5-0.7,1.5-1.5
			C72.4,149.8,71.7,149.1,70.9,149.1z"/>
		<path class="st3" d="M62.1,149.4c-0.7,0-1.2,0.5-1.2,1.2c0,0.7,0.5,1.2,1.2,1.2c0.7,0,1.2-0.5,1.2-1.2
			C63.2,150,62.7,149.4,62.1,149.4z"/>
		<path class="st3" d="M53.2,149.7c-0.5,0-0.9,0.4-0.9,0.9c0,0.5,0.4,0.9,0.9,0.9c0.5,0,0.9-0.4,0.9-0.9
			C54.1,150.1,53.7,149.7,53.2,149.7z"/>
		<path class="st3" d="M44.3,149.9c-0.4,0-0.7,0.3-0.7,0.7c0,0.4,0.3,0.7,0.7,0.7c0.4,0,0.7-0.3,0.7-0.7
			C45,150.2,44.7,149.9,44.3,149.9z"/>
		<path class="st3" d="M35.5,150.2c-0.3,0-0.5,0.2-0.5,0.5c0,0.3,0.2,0.5,0.5,0.5c0.3,0,0.5-0.2,0.5-0.5
			C35.9,150.4,35.7,150.2,35.5,150.2z"/>
		<path class="st3" d="M26.6,150.3c-0.2,0-0.3,0.1-0.3,0.3c0,0.2,0.1,0.3,0.3,0.3c0.2,0,0.3-0.1,0.3-0.3
			C26.9,150.5,26.8,150.3,26.6,150.3z"/>
		<path class="st3" d="M17.8,150.5c-0.1,0-0.1,0.1-0.1,0.1c0,0.1,0.1,0.1,0.1,0.1c0.1,0,0.1-0.1,0.1-0.1
			C17.9,150.5,17.8,150.5,17.8,150.5z"/>
		<path class="st3" d="M8.9,150.6C8.9,150.6,8.9,150.6,8.9,150.6C8.9,150.6,8.9,150.7,8.9,150.6C8.9,150.7,9,150.6,8.9,150.6
			C9,150.6,8.9,150.6,8.9,150.6z"/>
		<path class="st3" d="M288,141.7C287.9,141.7,287.9,141.7,288,141.7C287.9,141.8,287.9,141.8,288,141.7
			C288,141.8,288,141.8,288,141.7C288,141.7,288,141.7,288,141.7z"/>
		<path class="st3" d="M279.1,141.7C279,141.7,279,141.7,279.1,141.7c-0.1,0.2-0.1,0.2,0,0.2C279.1,141.9,279.2,141.8,279.1,141.7
			C279.2,141.7,279.1,141.7,279.1,141.7z"/>
		<path class="st3" d="M270.2,141.5c-0.1,0-0.2,0.1-0.2,0.2c0,0.1,0.1,0.2,0.2,0.2s0.2-0.1,0.2-0.2
			C270.5,141.6,270.4,141.5,270.2,141.5z"/>
		<path class="st3" d="M261.4,141.4c-0.2,0-0.4,0.2-0.4,0.4c0,0.2,0.2,0.4,0.4,0.4c0.2,0,0.4-0.2,0.4-0.4
			C261.8,141.5,261.6,141.4,261.4,141.4z"/>
		<path class="st3" d="M252.5,141.1c-0.3,0-0.6,0.3-0.6,0.6c0,0.3,0.3,0.6,0.6,0.6s0.6-0.3,0.6-0.6
			C253.1,141.4,252.9,141.1,252.5,141.1z"/>
		<path class="st3" d="M243.7,140.9c-0.5,0-0.8,0.4-0.8,0.8c0,0.5,0.4,0.8,0.8,0.8c0.5,0,0.8-0.4,0.8-0.8
			C244.5,141.3,244.1,140.9,243.7,140.9z"/>
		<path class="st3" d="M234.8,140.7c-0.6,0-1.1,0.5-1.1,1.1c0,0.6,0.5,1.1,1.1,1.1c0.6,0,1.1-0.5,1.1-1.1
			C235.9,141.2,235.4,140.7,234.8,140.7z"/>
		<path class="st3" d="M225.9,140.3c-0.8,0-1.4,0.6-1.4,1.4c0,0.8,0.6,1.4,1.4,1.4c0.8,0,1.4-0.6,1.4-1.4
			C227.4,141,226.7,140.3,225.9,140.3z"/>
		<path class="st3" d="M217.1,140c-0.9,0-1.7,0.8-1.7,1.7s0.8,1.7,1.7,1.7s1.7-0.8,1.7-1.7C218.8,140.8,218,140,217.1,140z"/>
		<path class="st3" d="M208.2,139.7c-1.1,0-2.1,0.9-2.1,2.1c0,1.1,0.9,2.1,2.1,2.1c1.1,0,2.1-0.9,2.1-2.1
			C210.3,140.6,209.4,139.7,208.2,139.7z"/>
		<path class="st3" d="M199.4,139.4c-1.3,0-2.4,1.1-2.4,2.4c0,1.3,1.1,2.4,2.4,2.4c1.3,0,2.4-1.1,2.4-2.4
			C201.8,140.4,200.7,139.4,199.4,139.4z"/>
		<path class="st3" d="M190.5,139c-1.5,0-2.8,1.2-2.8,2.8c0,1.5,1.2,2.8,2.8,2.8s2.8-1.2,2.8-2.8C193.3,140.2,192,139,190.5,139z"/>
		<path class="st3" d="M181.6,138.7c-1.7,0-3.1,1.4-3.1,3.1c0,1.7,1.4,3.1,3.1,3.1c1.7,0,3.1-1.4,3.1-3.1
			C184.7,140.1,183.4,138.7,181.6,138.7z"/>
		<path class="st3" d="M172.8,138.4c-1.9,0-3.4,1.5-3.4,3.4c0,1.9,1.5,3.4,3.4,3.4c1.9,0,3.4-1.5,3.4-3.4
			C176.2,139.9,174.7,138.4,172.8,138.4z"/>
		<path class="st3" d="M163.9,138.1c-2,0-3.7,1.6-3.7,3.7c0,2,1.6,3.7,3.7,3.7c2,0,3.7-1.6,3.7-3.7
			C167.6,139.7,166,138.1,163.9,138.1z"/>
		<path class="st3" d="M155.1,137.9c-2.1,0-3.8,1.7-3.8,3.8s1.7,3.8,3.8,3.8c2.1,0,3.8-1.7,3.8-3.8
			C158.9,139.6,157.2,137.9,155.1,137.9z"/>
		<path class="st3" d="M146.2,137.9c-2.1,0-3.9,1.7-3.9,3.9c0,2.1,1.7,3.9,3.9,3.9c2.1,0,3.9-1.7,3.9-3.9
			C150.1,139.6,148.4,137.9,146.2,137.9z"/>
		<circle class="st3" cx="137.4" cy="141.8" r="3.8"/>
		<circle class="st3" cx="128.5" cy="141.8" r="3.6"/>
		<path class="st3" d="M119.6,138.4c-1.9,0-3.4,1.5-3.4,3.4c0,1.9,1.5,3.4,3.4,3.4c1.9,0,3.4-1.5,3.4-3.4
			C123,139.9,121.5,138.4,119.6,138.4z"/>
		<path class="st3" d="M110.8,138.7c-1.7,0-3.1,1.4-3.1,3.1c0,1.7,1.4,3.1,3.1,3.1s3.1-1.4,3.1-3.1
			C113.9,140.1,112.5,138.7,110.8,138.7z"/>
		<path class="st3" d="M101.9,139c-1.5,0-2.7,1.2-2.7,2.7s1.2,2.7,2.7,2.7c1.5,0,2.7-1.2,2.7-2.7S103.4,139,101.9,139z"/>
		<circle class="st3" cx="93.1" cy="141.8" r="2.4"/>
		<path class="st3" d="M84.2,139.7c-1.1,0-2,0.9-2,2c0,1.1,0.9,2,2,2c1.1,0,2-0.9,2-2C86.2,140.6,85.3,139.7,84.2,139.7z"/>
		<circle class="st3" cx="75.3" cy="141.8" r="1.7"/>
		<path class="st3" d="M66.5,140.4c-0.8,0-1.4,0.6-1.4,1.4s0.6,1.4,1.4,1.4c0.8,0,1.4-0.6,1.4-1.4C67.9,141,67.2,140.4,66.5,140.4z"
			/>
		<path class="st3" d="M57.6,140.7c-0.6,0-1.1,0.5-1.1,1.1c0,0.6,0.5,1.1,1.1,1.1c0.6,0,1.1-0.5,1.1-1.1
			C58.7,141.2,58.2,140.7,57.6,140.7z"/>
		<path class="st3" d="M48.8,141c-0.4,0-0.8,0.4-0.8,0.8c0,0.4,0.4,0.8,0.8,0.8c0.4,0,0.8-0.4,0.8-0.8C49.6,141.3,49.2,141,48.8,141
			z"/>
		<path class="st3" d="M39.9,141.2c-0.3,0-0.6,0.3-0.6,0.6c0,0.3,0.3,0.6,0.6,0.6c0.3,0,0.6-0.3,0.6-0.6
			C40.5,141.4,40.2,141.2,39.9,141.2z"/>
		<path class="st3" d="M31.1,141.4c-0.2,0-0.4,0.2-0.4,0.4c0,0.2,0.2,0.4,0.4,0.4c0.2,0,0.4-0.2,0.4-0.4
			C31.4,141.6,31.3,141.4,31.1,141.4z"/>
		<path class="st3" d="M22.2,141.6c-0.1,0-0.2,0.1-0.2,0.2c0,0.1,0.1,0.2,0.2,0.2c0.1,0,0.2-0.1,0.2-0.2
			C22.4,141.7,22.3,141.6,22.2,141.6z"/>
		<path class="st3" d="M13.3,141.7C13.3,141.7,13.3,141.7,13.3,141.7c-0.1,0.1,0,0.1,0,0.1C13.4,141.8,13.4,141.8,13.3,141.7
			C13.4,141.7,13.4,141.7,13.3,141.7z"/>
		<path class="st3" d="M283.5,132.9C283.5,132.9,283.5,132.9,283.5,132.9C283.5,132.9,283.5,132.9,283.5,132.9
			C283.5,132.9,283.5,132.9,283.5,132.9C283.5,132.9,283.5,132.9,283.5,132.9z"/>
		<path class="st3" d="M274.7,132.8c-0.1,0-0.1,0.1-0.1,0.1c0,0.1,0.1,0.1,0.1,0.1c0.1,0,0.1-0.1,0.1-0.1
			C274.8,132.8,274.7,132.8,274.7,132.8z"/>
		<path class="st3" d="M265.8,132.6c-0.1,0-0.3,0.1-0.3,0.3c0,0.1,0.1,0.3,0.3,0.3c0.1,0,0.3-0.1,0.3-0.3
			C266.1,132.8,266,132.6,265.8,132.6z"/>
		<path class="st3" d="M256.9,132.4c-0.3,0-0.5,0.2-0.5,0.5c0,0.3,0.2,0.5,0.5,0.5c0.3,0,0.5-0.2,0.5-0.5
			C257.4,132.6,257.2,132.4,256.9,132.4z"/>
		<path class="st3" d="M248.1,132.2c-0.4,0-0.7,0.3-0.7,0.7c0,0.4,0.3,0.7,0.7,0.7s0.7-0.3,0.7-0.7
			C248.8,132.5,248.5,132.2,248.1,132.2z"/>
		<path class="st3" d="M239.2,131.9c-0.5,0-1,0.4-1,1c0,0.5,0.4,1,1,1c0.5,0,1-0.4,1-1C240.2,132.4,239.8,131.9,239.2,131.9z"/>
		<path class="st3" d="M230.4,131.6c-0.7,0-1.3,0.6-1.3,1.3c0,0.7,0.6,1.3,1.3,1.3c0.7,0,1.3-0.6,1.3-1.3
			C231.6,132.2,231.1,131.6,230.4,131.6z"/>
		<path class="st3" d="M221.5,131.3c-0.9,0-1.6,0.7-1.6,1.6c0,0.9,0.7,1.6,1.6,1.6c0.9,0,1.6-0.7,1.6-1.6
			C223.1,132,222.4,131.3,221.5,131.3z"/>
		<circle class="st3" cx="212.7" cy="132.9" r="1.9"/>
		<path class="st3" d="M203.8,130.6c-1.3,0-2.3,1-2.3,2.3c0,1.3,1,2.3,2.3,2.3c1.3,0,2.3-1,2.3-2.3
			C206.1,131.6,205.1,130.6,203.8,130.6z"/>
		<path class="st3" d="M194.9,130.2c-1.5,0-2.7,1.2-2.7,2.7c0,1.5,1.2,2.7,2.7,2.7c1.5,0,2.7-1.2,2.7-2.7
			C197.6,131.4,196.4,130.2,194.9,130.2z"/>
		<path class="st3" d="M186.1,129.8c-1.7,0-3.1,1.4-3.1,3.1c0,1.7,1.4,3.1,3.1,3.1c1.7,0,3.1-1.4,3.1-3.1
			C189.2,131.2,187.8,129.8,186.1,129.8z"/>
		<path class="st3" d="M177.2,129.4c-1.9,0-3.5,1.6-3.5,3.5s1.6,3.5,3.5,3.5c1.9,0,3.5-1.6,3.5-3.5
			C180.7,131,179.2,129.4,177.2,129.4z"/>
		<path class="st3" d="M168.4,129c-2.1,0-3.9,1.7-3.9,3.9c0,2.1,1.7,3.9,3.9,3.9c2.1,0,3.9-1.7,3.9-3.9
			C172.2,130.8,170.5,129,168.4,129z"/>
		<path class="st3" d="M159.5,128.7c-2.3,0-4.2,1.9-4.2,4.2c0,2.3,1.9,4.2,4.2,4.2c2.3,0,4.2-1.9,4.2-4.2
			C163.8,130.6,161.8,128.7,159.5,128.7z"/>
		<path class="st3" d="M150.6,128.4c-2.5,0-4.5,2-4.5,4.5c0,2.5,2,4.5,4.5,4.5c2.5,0,4.5-2,4.5-4.5
			C155.1,130.4,153.1,128.4,150.6,128.4z"/>
		<path class="st3" d="M141.8,128.3c-2.5,0-4.6,2-4.6,4.6c0,2.5,2,4.6,4.6,4.6c2.5,0,4.6-2,4.6-4.6
			C146.4,130.4,144.3,128.3,141.8,128.3z"/>
		
			<ellipse transform="matrix(0.7071 -0.7071 0.7071 0.7071 -55.0428 132.9197)" class="st3" cx="132.9" cy="132.9" rx="4.4" ry="4.4"/>
		<path class="st3" d="M124.1,128.7c-2.3,0-4.2,1.9-4.2,4.2c0,2.3,1.9,4.2,4.2,4.2c2.3,0,4.2-1.9,4.2-4.2
			C128.3,130.6,126.4,128.7,124.1,128.7z"/>
		<path class="st3" d="M115.2,129c-2.1,0-3.9,1.7-3.9,3.9c0,2.1,1.7,3.9,3.9,3.9c2.1,0,3.9-1.7,3.9-3.9
			C119.1,130.8,117.3,129,115.2,129z"/>
		<path class="st3" d="M106.4,129.4c-1.9,0-3.5,1.6-3.5,3.5c0,1.9,1.6,3.5,3.5,3.5c1.9,0,3.5-1.6,3.5-3.5
			C109.8,131,108.3,129.4,106.4,129.4z"/>
		<path class="st3" d="M97.5,129.9c-1.7,0-3,1.4-3,3c0,1.7,1.4,3,3,3c1.7,0,3-1.4,3-3C100.5,131.2,99.2,129.9,97.5,129.9z"/>
		<path class="st3" d="M88.6,130.2c-1.5,0-2.7,1.2-2.7,2.7c0,1.5,1.2,2.7,2.7,2.7c1.5,0,2.7-1.2,2.7-2.7
			C91.3,131.4,90.1,130.2,88.6,130.2z"/>
		<path class="st3" d="M79.8,130.7c-1.2,0-2.2,1-2.2,2.2c0,1.2,1,2.2,2.2,2.2c1.2,0,2.2-1,2.2-2.2C82,131.7,81,130.7,79.8,130.7z"/>
		<path class="st3" d="M70.9,131c-1,0-1.9,0.8-1.9,1.9c0,1,0.8,1.9,1.9,1.9c1,0,1.9-0.8,1.9-1.9C72.8,131.9,71.9,131,70.9,131z"/>
		<path class="st3" d="M62.1,131.4c-0.8,0-1.5,0.7-1.5,1.5c0,0.8,0.7,1.5,1.5,1.5c0.8,0,1.5-0.7,1.5-1.5S62.9,131.4,62.1,131.4z"/>
		<path class="st3" d="M53.2,131.7c-0.7,0-1.2,0.6-1.2,1.2c0,0.7,0.5,1.2,1.2,1.2c0.7,0,1.2-0.5,1.2-1.2
			C54.4,132.2,53.9,131.7,53.2,131.7z"/>
		<path class="st3" d="M44.3,132c-0.5,0-0.9,0.4-0.9,0.9c0,0.5,0.4,0.9,0.9,0.9c0.5,0,0.9-0.4,0.9-0.9C45.3,132.4,44.8,132,44.3,132
			z"/>
		<path class="st3" d="M35.5,132.2c-0.4,0-0.7,0.3-0.7,0.7c0,0.4,0.3,0.7,0.7,0.7c0.4,0,0.7-0.3,0.7-0.7
			C36.1,132.5,35.8,132.2,35.5,132.2z"/>
		<path class="st3" d="M26.6,132.5c-0.2,0-0.4,0.2-0.4,0.4s0.2,0.4,0.4,0.4s0.4-0.2,0.4-0.4S26.9,132.5,26.6,132.5z"/>
		<path class="st3" d="M17.8,132.7c-0.1,0-0.2,0.1-0.2,0.2c0,0.1,0.1,0.2,0.2,0.2c0.1,0,0.2-0.1,0.2-0.2
			C18,132.8,17.9,132.7,17.8,132.7z"/>
		<path class="st3" d="M8.9,132.8C8.9,132.8,8.8,132.8,8.9,132.8c-0.1,0.2-0.1,0.2,0,0.2C9,133,9,133,8.9,132.8
			C9,132.8,9,132.8,8.9,132.8z"/>
		<path class="st3" d="M0,132.9C0,132.9,0,132.9,0,132.9C0,132.9,0,132.9,0,132.9C0.1,132.9,0.1,132.9,0,132.9
			C0.1,132.9,0.1,132.9,0,132.9z"/>
		<path class="st3" d="M288,124C287.9,124,287.9,124,288,124C287.9,124.1,287.9,124.1,288,124C288,124.1,288,124.1,288,124
			C288,124,288,124,288,124z"/>
		<path class="st3" d="M279.1,123.9c-0.1,0-0.1,0.1-0.1,0.1c0,0.1,0.1,0.1,0.1,0.1c0.1,0,0.1-0.1,0.1-0.1
			C279.2,124,279.2,123.9,279.1,123.9z"/>
		<path class="st3" d="M270.2,123.7c-0.2,0-0.3,0.1-0.3,0.3c0,0.2,0.1,0.3,0.3,0.3c0.2,0,0.3-0.1,0.3-0.3
			C270.6,123.9,270.4,123.7,270.2,123.7z"/>
		<path class="st3" d="M261.4,123.5c-0.3,0-0.5,0.2-0.5,0.5c0,0.3,0.2,0.5,0.5,0.5c0.3,0,0.5-0.2,0.5-0.5
			C261.9,123.8,261.7,123.5,261.4,123.5z"/>
		<path class="st3" d="M252.5,123.3c-0.4,0-0.8,0.3-0.8,0.8c0,0.4,0.3,0.8,0.8,0.8c0.4,0,0.8-0.3,0.8-0.8
			C253.3,123.6,252.9,123.3,252.5,123.3z"/>
		<path class="st3" d="M243.7,123c-0.6,0-1,0.5-1,1c0,0.6,0.5,1,1,1c0.6,0,1-0.5,1-1C244.7,123.5,244.2,123,243.7,123z"/>
		<path class="st3" d="M234.8,122.7c-0.7,0-1.3,0.6-1.3,1.3c0,0.7,0.6,1.3,1.3,1.3s1.3-0.6,1.3-1.3
			C236.1,123.3,235.5,122.7,234.8,122.7z"/>
		<path class="st3" d="M225.9,122.4c-0.9,0-1.7,0.7-1.7,1.7c0,0.9,0.7,1.7,1.7,1.7c0.9,0,1.7-0.7,1.7-1.7S226.9,122.4,225.9,122.4z"
			/>
		<path class="st3" d="M217.1,122c-1.1,0-2.1,0.9-2.1,2.1c0,1.1,0.9,2.1,2.1,2.1c1.1,0,2.1-0.9,2.1-2.1
			C219.1,122.9,218.2,122,217.1,122z"/>
		<path class="st3" d="M208.2,121.6c-1.4,0-2.5,1.1-2.5,2.5c0,1.4,1.1,2.5,2.5,2.5c1.4,0,2.5-1.1,2.5-2.5
			C210.7,122.7,209.6,121.6,208.2,121.6z"/>
		<path class="st3" d="M199.4,121.2c-1.6,0-2.9,1.3-2.9,2.9c0,1.6,1.3,2.9,2.9,2.9c1.6,0,2.9-1.3,2.9-2.9
			C202.2,122.5,201,121.2,199.4,121.2z"/>
		<path class="st3" d="M190.5,120.7c-1.9,0-3.4,1.5-3.4,3.4c0,1.9,1.5,3.4,3.4,3.4c1.9,0,3.4-1.5,3.4-3.4
			C193.9,122.2,192.4,120.7,190.5,120.7z"/>
		<path class="st3" d="M181.6,120.2c-2.1,0-3.8,1.7-3.8,3.8c0,2.1,1.7,3.8,3.8,3.8c2.1,0,3.8-1.7,3.8-3.8
			C185.5,121.9,183.8,120.2,181.6,120.2z"/>
		<path class="st3" d="M172.8,119.7c-2.4,0-4.3,1.9-4.3,4.3c0,2.4,1.9,4.3,4.3,4.3c2.4,0,4.3-1.9,4.3-4.3
			C177.1,121.7,175.2,119.7,172.8,119.7z"/>
		<path class="st3" d="M163.9,119.3c-2.6,0-4.8,2.1-4.8,4.8c0,2.6,2.1,4.8,4.8,4.8s4.8-2.1,4.8-4.8
			C168.7,121.4,166.6,119.3,163.9,119.3z"/>
		<path class="st3" d="M155.1,118.9c-2.8,0-5.1,2.3-5.1,5.1c0,2.8,2.3,5.1,5.1,5.1c2.8,0,5.1-2.3,5.1-5.1
			C160.2,121.2,157.9,118.9,155.1,118.9z"/>
		<path class="st3" d="M146.2,118.8c-2.9,0-5.3,2.4-5.3,5.3c0,2.9,2.4,5.3,5.3,5.3c2.9,0,5.3-2.4,5.3-5.3
			C151.5,121.1,149.1,118.8,146.2,118.8z"/>
		<path class="st3" d="M137.4,119c-2.8,0-5.1,2.3-5.1,5.1c0,2.8,2.3,5.1,5.1,5.1c2.8,0,5.1-2.3,5.1-5.1
			C142.4,121.2,140.2,119,137.4,119z"/>
		<circle class="st3" cx="128.5" cy="124" r="4.7"/>
		<path class="st3" d="M119.6,119.8c-2.3,0-4.2,1.9-4.2,4.2c0,2.3,1.9,4.2,4.2,4.2c2.3,0,4.2-1.9,4.2-4.2
			C123.9,121.7,122,119.8,119.6,119.8z"/>
		<path class="st3" d="M110.8,120.3c-2.1,0-3.8,1.7-3.8,3.8s1.7,3.8,3.8,3.8c2.1,0,3.8-1.7,3.8-3.8
			C114.5,122,112.9,120.3,110.8,120.3z"/>
		<path class="st3" d="M101.9,120.8c-1.8,0-3.3,1.5-3.3,3.3c0,1.8,1.5,3.3,3.3,3.3c1.8,0,3.3-1.5,3.3-3.3
			C105.2,122.2,103.7,120.8,101.9,120.8z"/>
		<path class="st3" d="M93.1,121.2c-1.6,0-2.8,1.3-2.8,2.8c0,1.6,1.3,2.8,2.8,2.8c1.6,0,2.8-1.3,2.8-2.8
			C95.9,122.5,94.6,121.2,93.1,121.2z"/>
		<path class="st3" d="M84.2,121.6c-1.3,0-2.4,1.1-2.4,2.4c0,1.3,1.1,2.4,2.4,2.4c1.3,0,2.4-1.1,2.4-2.4
			C86.6,122.7,85.5,121.6,84.2,121.6z"/>
		<path class="st3" d="M75.3,122c-1.1,0-2,0.9-2,2c0,1.1,0.9,2,2,2c1.1,0,2-0.9,2-2C77.4,122.9,76.5,122,75.3,122z"/>
		<path class="st3" d="M66.5,122.4c-0.9,0-1.6,0.7-1.6,1.6c0,0.9,0.7,1.6,1.6,1.6c0.9,0,1.6-0.7,1.6-1.6
			C68.1,123.1,67.4,122.4,66.5,122.4z"/>
		<path class="st3" d="M57.6,122.7c-0.7,0-1.3,0.6-1.3,1.3c0,0.7,0.6,1.3,1.3,1.3c0.7,0,1.3-0.6,1.3-1.3
			C58.9,123.3,58.3,122.7,57.6,122.7z"/>
		<path class="st3" d="M48.8,123c-0.6,0-1,0.5-1,1c0,0.6,0.5,1,1,1c0.6,0,1-0.5,1-1C49.8,123.5,49.3,123,48.8,123z"/>
		<path class="st3" d="M39.9,123.3c-0.4,0-0.7,0.3-0.7,0.7c0,0.4,0.3,0.7,0.7,0.7c0.4,0,0.7-0.3,0.7-0.7
			C40.6,123.7,40.3,123.3,39.9,123.3z"/>
		<path class="st3" d="M31.1,123.6c-0.3,0-0.5,0.2-0.5,0.5c0,0.3,0.2,0.5,0.5,0.5s0.5-0.2,0.5-0.5C31.5,123.8,31.3,123.6,31.1,123.6
			z"/>
		<path class="st3" d="M22.2,123.7c-0.2,0-0.3,0.1-0.3,0.3c0,0.2,0.1,0.3,0.3,0.3c0.2,0,0.3-0.1,0.3-0.3
			C22.5,123.9,22.4,123.7,22.2,123.7z"/>
		<path class="st3" d="M13.3,123.9c-0.1,0-0.1,0.1-0.1,0.1c0,0.1,0.1,0.1,0.1,0.1c0.1,0,0.1-0.1,0.1-0.1
			C13.5,124,13.4,123.9,13.3,123.9z"/>
		<path class="st3" d="M4.5,124C4.5,124,4.5,124,4.5,124C4.5,124.1,4.5,124.1,4.5,124C4.5,124.1,4.5,124.1,4.5,124
			C4.5,124,4.5,124,4.5,124z"/>
		<path class="st3" d="M283.5,115.1C283.5,115.1,283.5,115.2,283.5,115.1C283.5,115.2,283.5,115.2,283.5,115.1
			C283.5,115.2,283.6,115.2,283.5,115.1C283.6,115.2,283.5,115.1,283.5,115.1z"/>
		<path class="st3" d="M274.7,115c-0.1,0-0.2,0.1-0.2,0.2c0,0.1,0.1,0.2,0.2,0.2c0.1,0,0.2-0.1,0.2-0.2
			C274.8,115.1,274.8,115,274.7,115z"/>
		<path class="st3" d="M265.8,114.9c-0.2,0-0.3,0.1-0.3,0.3c0,0.2,0.1,0.3,0.3,0.3c0.2,0,0.3-0.1,0.3-0.3
			C266.1,115,266,114.9,265.8,114.9z"/>
		<path class="st3" d="M256.9,114.7c-0.3,0-0.5,0.2-0.5,0.5c0,0.3,0.2,0.5,0.5,0.5c0.3,0,0.5-0.2,0.5-0.5
			C257.5,114.9,257.2,114.7,256.9,114.7z"/>
		<path class="st3" d="M248.1,114.4c-0.4,0-0.8,0.3-0.8,0.8c0,0.4,0.3,0.8,0.8,0.8c0.4,0,0.8-0.3,0.8-0.8
			C248.8,114.8,248.5,114.4,248.1,114.4z"/>
		<path class="st3" d="M239.2,114.1c-0.6,0-1.1,0.5-1.1,1.1c0,0.6,0.5,1.1,1.1,1.1c0.6,0,1.1-0.5,1.1-1.1
			C240.3,114.6,239.8,114.1,239.2,114.1z"/>
		<path class="st3" d="M230.4,113.8c-0.8,0-1.4,0.6-1.4,1.4c0,0.8,0.6,1.4,1.4,1.4c0.8,0,1.4-0.6,1.4-1.4
			C231.7,114.4,231.1,113.8,230.4,113.8z"/>
		<path class="st3" d="M221.5,113.5c-0.9,0-1.7,0.8-1.7,1.7c0,0.9,0.8,1.7,1.7,1.7c0.9,0,1.7-0.8,1.7-1.7S222.5,113.5,221.5,113.5z"
			/>
		<path class="st3" d="M212.7,113.1c-1.2,0-2.1,0.9-2.1,2.1c0,1.2,0.9,2.1,2.1,2.1s2.1-0.9,2.1-2.1
			C214.8,114,213.8,113.1,212.7,113.1z"/>
		<path class="st3" d="M203.8,112.7c-1.4,0-2.5,1.1-2.5,2.5s1.1,2.5,2.5,2.5c1.4,0,2.5-1.1,2.5-2.5
			C206.3,113.8,205.2,112.7,203.8,112.7z"/>
		<path class="st3" d="M194.9,112.2c-1.6,0-3,1.3-3,3c0,1.6,1.3,3,3,3c1.6,0,3-1.3,3-3C197.9,113.5,196.6,112.2,194.9,112.2z"/>
		<path class="st3" d="M186.1,111.7c-1.9,0-3.5,1.6-3.5,3.5c0,1.9,1.6,3.5,3.5,3.5c1.9,0,3.5-1.6,3.5-3.5
			C189.6,113.3,188,111.7,186.1,111.7z"/>
		<path class="st3" d="M177.2,111.2c-2.2,0-4,1.8-4,4c0,2.2,1.8,4,4,4c2.2,0,4-1.8,4-4C181.2,113,179.4,111.2,177.2,111.2z"/>
		<path class="st3" d="M168.4,110.7c-2.5,0-4.5,2-4.5,4.5c0,2.5,2,4.5,4.5,4.5c2.5,0,4.5-2,4.5-4.5
			C172.9,112.7,170.9,110.7,168.4,110.7z"/>
		<path class="st3" d="M159.5,110.1c-2.8,0-5.1,2.3-5.1,5.1c0,2.8,2.3,5.1,5.1,5.1c2.8,0,5.1-2.3,5.1-5.1
			C164.6,112.4,162.3,110.1,159.5,110.1z"/>
		<path class="st3" d="M150.6,109.5c-3.1,0-5.6,2.5-5.6,5.6c0,3.1,2.5,5.6,5.6,5.6c3.1,0,5.6-2.5,5.6-5.6
			C156.3,112.1,153.8,109.5,150.6,109.5z"/>
		<path class="st3" d="M141.8,109.1c-3.4,0-6.1,2.7-6.1,6.1c0,3.4,2.7,6.1,6.1,6.1s6.1-2.7,6.1-6.1
			C147.9,111.8,145.1,109.1,141.8,109.1z"/>
		<path class="st3" d="M132.9,109.6c-3.1,0-5.6,2.5-5.6,5.6c0,3.1,2.5,5.6,5.6,5.6c3.1,0,5.6-2.5,5.6-5.6
			C138.5,112.1,136,109.6,132.9,109.6z"/>
		<path class="st3" d="M124.1,110.2c-2.8,0-5,2.2-5,5c0,2.8,2.2,5,5,5c2.8,0,5-2.2,5-5C129.1,112.4,126.8,110.2,124.1,110.2z"/>
		<path class="st3" d="M115.2,110.7c-2.5,0-4.4,2-4.4,4.4c0,2.5,2,4.4,4.4,4.4c2.5,0,4.4-2,4.4-4.4
			C119.7,112.7,117.7,110.7,115.2,110.7z"/>
		<path class="st3" d="M106.4,111.3c-2.2,0-3.9,1.8-3.9,3.9c0,2.2,1.8,3.9,3.9,3.9c2.2,0,3.9-1.8,3.9-3.9S108.5,111.3,106.4,111.3z"
			/>
		<path class="st3" d="M97.5,111.8c-1.9,0-3.4,1.5-3.4,3.4c0,1.9,1.5,3.4,3.4,3.4c1.9,0,3.4-1.5,3.4-3.4
			C100.9,113.3,99.4,111.8,97.5,111.8z"/>
		<path class="st3" d="M88.6,112.2c-1.6,0-2.9,1.3-2.9,2.9c0,1.6,1.3,2.9,2.9,2.9c1.6,0,2.9-1.3,2.9-2.9
			C91.6,113.6,90.3,112.2,88.6,112.2z"/>
		<ellipse transform="matrix(0.7071 -0.7071 0.7071 0.7071 -58.0825 90.147)" class="st3" cx="79.8" cy="115.2" rx="2.5" ry="2.5"/>
		<path class="st3" d="M70.9,113.1c-1.2,0-2.1,0.9-2.1,2.1c0,1.2,0.9,2.1,2.1,2.1c1.2,0,2.1-0.9,2.1-2.1S72.1,113.1,70.9,113.1z"/>
		<path class="st3" d="M62.1,113.5c-0.9,0-1.7,0.8-1.7,1.7c0,0.9,0.8,1.7,1.7,1.7c0.9,0,1.7-0.8,1.7-1.7
			C63.8,114.2,63,113.5,62.1,113.5z"/>
		<path class="st3" d="M53.2,113.9c-0.7,0-1.3,0.6-1.3,1.3c0,0.7,0.6,1.3,1.3,1.3c0.7,0,1.3-0.6,1.3-1.3
			C54.5,114.5,53.9,113.9,53.2,113.9z"/>
		<path class="st3" d="M44.3,114.2c-0.6,0-1,0.5-1,1c0,0.6,0.5,1,1,1c0.6,0,1-0.5,1-1C45.3,114.6,44.9,114.2,44.3,114.2z"/>
		<path class="st3" d="M35.5,114.4c-0.4,0-0.7,0.3-0.7,0.7c0,0.4,0.3,0.7,0.7,0.7c0.4,0,0.7-0.3,0.7-0.7
			C36.2,114.8,35.9,114.4,35.5,114.4z"/>
		<path class="st3" d="M26.6,114.7c-0.3,0-0.5,0.2-0.5,0.5c0,0.3,0.2,0.5,0.5,0.5c0.3,0,0.5-0.2,0.5-0.5
			C27.1,114.9,26.9,114.7,26.6,114.7z"/>
		<path class="st3" d="M17.8,114.9c-0.2,0-0.3,0.1-0.3,0.3c0,0.2,0.1,0.3,0.3,0.3c0.2,0,0.3-0.1,0.3-0.3
			C18.1,115,17.9,114.9,17.8,114.9z"/>
		<path class="st3" d="M8.9,115c-0.1,0-0.1,0.1-0.1,0.1c0,0.1,0.1,0.1,0.1,0.1c0.1,0,0.1-0.1,0.1-0.1C9.1,115.1,9,115,8.9,115z"/>
		<path class="st3" d="M0,115.1C0,115.1,0,115.2,0,115.1C0,115.2,0,115.2,0,115.1C0.1,115.2,0.1,115.2,0,115.1
			C0.1,115.2,0.1,115.1,0,115.1z"/>
		<path class="st3" d="M288,106.3C287.9,106.3,287.9,106.3,288,106.3C287.9,106.4,287.9,106.4,288,106.3
			C288,106.4,288,106.4,288,106.3C288,106.3,288,106.3,288,106.3z"/>
		<path class="st3" d="M279.1,106.2c-0.1,0-0.2,0.1-0.2,0.2c0,0.1,0.1,0.2,0.2,0.2c0.1,0,0.2-0.1,0.2-0.2
			C279.3,106.2,279.2,106.2,279.1,106.2z"/>
		<path class="st3" d="M270.2,106c-0.2,0-0.3,0.1-0.3,0.3c0,0.2,0.1,0.3,0.3,0.3c0.2,0,0.3-0.1,0.3-0.3
			C270.6,106.2,270.4,106,270.2,106z"/>
		<path class="st3" d="M261.4,105.8c-0.3,0-0.5,0.2-0.5,0.5c0,0.3,0.2,0.5,0.5,0.5c0.3,0,0.5-0.2,0.5-0.5
			C261.9,106,261.7,105.8,261.4,105.8z"/>
		<path class="st3" d="M252.5,105.6c-0.4,0-0.8,0.3-0.8,0.8c0,0.4,0.3,0.8,0.8,0.8c0.4,0,0.8-0.3,0.8-0.8
			C253.3,105.9,252.9,105.6,252.5,105.6z"/>
		<path class="st3" d="M243.7,105.3c-0.6,0-1.1,0.5-1.1,1.1c0,0.6,0.5,1.1,1.1,1.1c0.6,0,1.1-0.5,1.1-1.1
			C244.7,105.7,244.2,105.3,243.7,105.3z"/>
		<path class="st3" d="M234.8,105c-0.8,0-1.4,0.6-1.4,1.4c0,0.8,0.6,1.4,1.4,1.4c0.8,0,1.4-0.6,1.4-1.4
			C236.2,105.6,235.6,105,234.8,105z"/>
		<path class="st3" d="M225.9,104.6c-0.9,0-1.7,0.8-1.7,1.7s0.8,1.7,1.7,1.7c0.9,0,1.7-0.8,1.7-1.7S226.9,104.6,225.9,104.6z"/>
		<path class="st3" d="M217.1,104.2c-1.2,0-2.1,0.9-2.1,2.1c0,1.2,0.9,2.1,2.1,2.1c1.2,0,2.1-0.9,2.1-2.1
			C219.2,105.2,218.2,104.2,217.1,104.2z"/>
		<path class="st3" d="M208.2,103.8c-1.4,0-2.5,1.1-2.5,2.5c0,1.4,1.1,2.5,2.5,2.5c1.4,0,2.5-1.1,2.5-2.5
			C210.8,104.9,209.6,103.8,208.2,103.8z"/>
		<path class="st3" d="M199.4,103.4c-1.6,0-2.9,1.3-2.9,2.9s1.3,2.9,2.9,2.9c1.6,0,2.9-1.3,2.9-2.9
			C202.3,104.7,201,103.4,199.4,103.4z"/>
		<path class="st3" d="M190.5,102.9c-1.9,0-3.4,1.5-3.4,3.4c0,1.9,1.5,3.4,3.4,3.4c1.9,0,3.4-1.5,3.4-3.4
			C193.9,104.4,192.4,102.9,190.5,102.9z"/>
		<path class="st3" d="M181.6,102.4c-2.2,0-3.9,1.8-3.9,3.9c0,2.2,1.8,3.9,3.9,3.9s3.9-1.8,3.9-3.9
			C185.6,104.2,183.8,102.4,181.6,102.4z"/>
		<path class="st3" d="M172.8,101.9c-2.4,0-4.4,2-4.4,4.4c0,2.4,2,4.4,4.4,4.4c2.4,0,4.4-2,4.4-4.4
			C177.2,103.9,175.2,101.9,172.8,101.9z"/>
		<path class="st3" d="M163.9,101.4c-2.7,0-4.9,2.2-4.9,4.9c0,2.7,2.2,4.9,4.9,4.9s4.9-2.2,4.9-4.9
			C168.9,103.6,166.7,101.4,163.9,101.4z"/>
		<path class="st3" d="M155.1,100.9c-3,0-5.5,2.4-5.5,5.5c0,3,2.4,5.5,5.5,5.5s5.5-2.4,5.5-5.5C160.5,103.3,158.1,100.9,155.1,100.9
			z"/>
		<path class="st3" d="M146.2,100.7c-3.1,0-5.6,2.5-5.6,5.6c0,3.1,2.5,5.6,5.6,5.6c3.1,0,5.6-2.5,5.6-5.6
			C151.9,103.2,149.3,100.7,146.2,100.7z"/>
		<path class="st3" d="M137.4,100.9c-3,0-5.4,2.4-5.4,5.4c0,3,2.4,5.4,5.4,5.4s5.4-2.4,5.4-5.4C142.7,103.4,140.3,100.9,137.4,100.9
			z"/>
		<path class="st3" d="M128.5,101.4c-2.7,0-4.9,2.2-4.9,4.9c0,2.7,2.2,4.9,4.9,4.9c2.7,0,4.9-2.2,4.9-4.9
			C133.4,103.6,131.2,101.4,128.5,101.4z"/>
		<path class="st3" d="M119.6,101.9c-2.4,0-4.4,2-4.4,4.4c0,2.4,2,4.4,4.4,4.4s4.4-2,4.4-4.4C124,103.9,122.1,101.9,119.6,101.9z"/>
		<path class="st3" d="M110.8,102.5c-2.1,0-3.9,1.7-3.9,3.9c0,2.1,1.7,3.9,3.9,3.9c2.1,0,3.9-1.7,3.9-3.9
			C114.6,104.2,112.9,102.5,110.8,102.5z"/>
		<path class="st3" d="M101.9,103c-1.9,0-3.4,1.5-3.4,3.4c0,1.9,1.5,3.4,3.4,3.4c1.9,0,3.4-1.5,3.4-3.4
			C105.3,104.5,103.8,103,101.9,103z"/>
		<path class="st3" d="M93.1,103.4c-1.6,0-2.9,1.3-2.9,2.9c0,1.6,1.3,2.9,2.9,2.9c1.6,0,2.9-1.3,2.9-2.9
			C96,104.7,94.7,103.4,93.1,103.4z"/>
		<path class="st3" d="M84.2,103.8c-1.4,0-2.5,1.1-2.5,2.5c0,1.4,1.1,2.5,2.5,2.5s2.5-1.1,2.5-2.5C86.7,105,85.6,103.8,84.2,103.8z"
			/>
		<path class="st3" d="M75.3,104.3c-1.1,0-2.1,0.9-2.1,2.1c0,1.1,0.9,2.1,2.1,2.1c1.1,0,2.1-0.9,2.1-2.1
			C77.4,105.2,76.5,104.3,75.3,104.3z"/>
		<path class="st3" d="M66.5,104.7c-0.9,0-1.7,0.7-1.7,1.7c0,0.9,0.7,1.7,1.7,1.7c0.9,0,1.7-0.7,1.7-1.7
			C68.2,105.4,67.4,104.7,66.5,104.7z"/>
		<path class="st3" d="M57.6,105c-0.7,0-1.3,0.6-1.3,1.3c0,0.7,0.6,1.3,1.3,1.3c0.7,0,1.3-0.6,1.3-1.3C59,105.6,58.4,105,57.6,105z"
			/>
		<path class="st3" d="M48.8,105.3c-0.6,0-1,0.5-1,1c0,0.6,0.5,1,1,1c0.6,0,1-0.5,1-1C49.8,105.8,49.3,105.3,48.8,105.3z"/>
		<path class="st3" d="M39.9,105.6c-0.4,0-0.7,0.3-0.7,0.7c0,0.4,0.3,0.7,0.7,0.7c0.4,0,0.7-0.3,0.7-0.7
			C40.6,105.9,40.3,105.6,39.9,105.6z"/>
		<path class="st3" d="M31.1,105.8c-0.3,0-0.5,0.2-0.5,0.5c0,0.3,0.2,0.5,0.5,0.5c0.3,0,0.5-0.2,0.5-0.5
			C31.5,106.1,31.3,105.8,31.1,105.8z"/>
		<path class="st3" d="M22.2,106c-0.2,0-0.3,0.1-0.3,0.3c0,0.2,0.1,0.3,0.3,0.3c0.2,0,0.3-0.1,0.3-0.3C22.5,106.2,22.4,106,22.2,106
			z"/>
		<path class="st3" d="M13.3,106.2c-0.1,0-0.1,0.1-0.1,0.1c0,0.1,0.1,0.1,0.1,0.1c0.1,0,0.1-0.1,0.1-0.1
			C13.5,106.2,13.4,106.2,13.3,106.2z"/>
		<path class="st3" d="M4.5,106.3C4.5,106.3,4.4,106.3,4.5,106.3C4.4,106.4,4.5,106.4,4.5,106.3C4.5,106.4,4.5,106.4,4.5,106.3
			C4.5,106.3,4.5,106.3,4.5,106.3z"/>
		<path class="st3" d="M283.5,97.4C283.5,97.4,283.5,97.4,283.5,97.4C283.5,97.5,283.5,97.5,283.5,97.4
			C283.5,97.5,283.6,97.5,283.5,97.4C283.6,97.4,283.5,97.4,283.5,97.4z"/>
		<path class="st3" d="M274.7,97.3c-0.1,0-0.1,0.1-0.1,0.1c0,0.1,0.1,0.1,0.1,0.1s0.1-0.1,0.1-0.1C274.8,97.4,274.7,97.3,274.7,97.3
			z"/>
		<path class="st3" d="M265.8,97.2c-0.2,0-0.3,0.1-0.3,0.3c0,0.2,0.1,0.3,0.3,0.3c0.2,0,0.3-0.1,0.3-0.3
			C266.1,97.3,266,97.2,265.8,97.2z"/>
		<path class="st3" d="M256.9,97c-0.3,0-0.5,0.2-0.5,0.5c0,0.3,0.2,0.5,0.5,0.5c0.3,0,0.5-0.2,0.5-0.5C257.4,97.2,257.2,97,256.9,97
			z"/>
		<path class="st3" d="M248.1,96.8c-0.4,0-0.7,0.3-0.7,0.7c0,0.4,0.3,0.7,0.7,0.7c0.4,0,0.7-0.3,0.7-0.7
			C248.8,97.1,248.5,96.8,248.1,96.8z"/>
		<path class="st3" d="M239.2,96.5c-0.6,0-1,0.5-1,1c0,0.6,0.5,1,1,1c0.6,0,1-0.5,1-1C240.2,96.9,239.8,96.5,239.2,96.5z"/>
		<path class="st3" d="M230.4,96.2c-0.7,0-1.3,0.6-1.3,1.3c0,0.7,0.6,1.3,1.3,1.3c0.7,0,1.3-0.6,1.3-1.3
			C231.7,96.7,231.1,96.2,230.4,96.2z"/>
		<path class="st3" d="M221.5,95.8c-0.9,0-1.6,0.7-1.6,1.6c0,0.9,0.7,1.6,1.6,1.6c0.9,0,1.6-0.7,1.6-1.6
			C223.1,96.6,222.4,95.8,221.5,95.8z"/>
		<path class="st3" d="M212.7,95.5c-1.1,0-2,0.9-2,2c0,1.1,0.9,2,2,2c1.1,0,2-0.9,2-2C214.7,96.4,213.8,95.5,212.7,95.5z"/>
		<path class="st3" d="M203.8,95.1c-1.3,0-2.4,1.1-2.4,2.4c0,1.3,1.1,2.4,2.4,2.4c1.3,0,2.4-1.1,2.4-2.4
			C206.2,96.2,205.1,95.1,203.8,95.1z"/>
		<path class="st3" d="M194.9,94.7c-1.5,0-2.8,1.3-2.8,2.8c0,1.5,1.3,2.8,2.8,2.8c1.5,0,2.8-1.3,2.8-2.8
			C197.7,95.9,196.5,94.7,194.9,94.7z"/>
		<path class="st3" d="M186.1,94.3c-1.8,0-3.2,1.4-3.2,3.2s1.4,3.2,3.2,3.2c1.8,0,3.2-1.4,3.2-3.2C189.3,95.7,187.9,94.3,186.1,94.3
			z"/>
		<path class="st3" d="M177.2,93.8c-2,0-3.7,1.6-3.7,3.7c0,2,1.6,3.7,3.7,3.7c2,0,3.7-1.6,3.7-3.7C180.9,95.4,179.3,93.8,177.2,93.8
			z"/>
		<path class="st3" d="M168.4,93.4c-2.3,0-4.1,1.8-4.1,4.1c0,2.3,1.8,4.1,4.1,4.1s4.1-1.8,4.1-4.1S170.6,93.4,168.4,93.4z"/>
		<path class="st3" d="M159.5,93c-2.5,0-4.5,2-4.5,4.5c0,2.5,2,4.5,4.5,4.5c2.5,0,4.5-2,4.5-4.5C164,95,162,93,159.5,93z"/>
		<path class="st3" d="M150.6,92.7c-2.6,0-4.8,2.1-4.8,4.8c0,2.6,2.1,4.8,4.8,4.8c2.6,0,4.8-2.1,4.8-4.8
			C155.4,94.8,153.3,92.7,150.6,92.7z"/>
		<path class="st3" d="M141.8,92.6c-2.7,0-4.9,2.2-4.9,4.9c0,2.7,2.2,4.9,4.9,4.9c2.7,0,4.9-2.2,4.9-4.9
			C146.7,94.8,144.5,92.6,141.8,92.6z"/>
		<path class="st3" d="M132.9,92.7c-2.6,0-4.8,2.1-4.8,4.8c0,2.6,2.1,4.8,4.8,4.8c2.6,0,4.8-2.1,4.8-4.8
			C137.7,94.8,135.6,92.7,132.9,92.7z"/>
		
			<ellipse transform="matrix(0.7071 -0.7071 0.7071 0.7071 -32.5817 116.2774)" class="st3" cx="124.1" cy="97.5" rx="4.4" ry="4.4"/>
		<path class="st3" d="M115.2,93.4c-2.2,0-4.1,1.8-4.1,4.1c0,2.2,1.8,4.1,4.1,4.1c2.2,0,4.1-1.8,4.1-4.1
			C119.3,95.2,117.4,93.4,115.2,93.4z"/>
		<path class="st3" d="M106.4,93.9c-2,0-3.6,1.6-3.6,3.6c0,2,1.6,3.6,3.6,3.6c2,0,3.6-1.6,3.6-3.6C110,95.5,108.3,93.9,106.4,93.9z"
			/>
		<path class="st3" d="M97.5,94.3c-1.8,0-3.2,1.4-3.2,3.2c0,1.8,1.4,3.2,3.2,3.2c1.8,0,3.2-1.4,3.2-3.2
			C100.7,95.7,99.3,94.3,97.5,94.3z"/>
		<path class="st3" d="M88.6,94.7c-1.5,0-2.8,1.2-2.8,2.8c0,1.5,1.2,2.8,2.8,2.8c1.5,0,2.8-1.2,2.8-2.8
			C91.4,95.9,90.2,94.7,88.6,94.7z"/>
		<path class="st3" d="M79.8,95.1c-1.3,0-2.3,1-2.3,2.3c0,1.3,1,2.3,2.3,2.3c1.3,0,2.3-1,2.3-2.3C82.1,96.2,81.1,95.1,79.8,95.1z"/>
		<path class="st3" d="M70.9,95.5c-1.1,0-2,0.9-2,2c0,1.1,0.9,2,2,2c1.1,0,2-0.9,2-2C72.9,96.4,72,95.5,70.9,95.5z"/>
		<path class="st3" d="M62.1,95.9c-0.9,0-1.6,0.7-1.6,1.6c0,0.9,0.7,1.6,1.6,1.6c0.9,0,1.6-0.7,1.6-1.6
			C63.6,96.6,62.9,95.9,62.1,95.9z"/>
		<path class="st3" d="M53.2,96.2c-0.7,0-1.3,0.6-1.3,1.3c0,0.7,0.6,1.3,1.3,1.3c0.7,0,1.3-0.6,1.3-1.3
			C54.5,96.8,53.9,96.2,53.2,96.2z"/>
		<path class="st3" d="M44.3,96.5c-0.5,0-1,0.4-1,1c0,0.5,0.4,1,1,1c0.5,0,1-0.4,1-1C45.3,96.9,44.9,96.5,44.3,96.5z"/>
		<path class="st3" d="M35.5,96.8c-0.4,0-0.7,0.3-0.7,0.7c0,0.4,0.3,0.7,0.7,0.7c0.4,0,0.7-0.3,0.7-0.7S35.9,96.8,35.5,96.8z"/>
		<path class="st3" d="M26.6,97c-0.3,0-0.5,0.2-0.5,0.5c0,0.3,0.2,0.5,0.5,0.5c0.3,0,0.5-0.2,0.5-0.5C27.1,97.2,26.9,97,26.6,97z"/>
		<path class="st3" d="M17.8,97.2c-0.1,0-0.3,0.1-0.3,0.3c0,0.1,0.1,0.3,0.3,0.3c0.1,0,0.3-0.1,0.3-0.3C18,97.3,17.9,97.2,17.8,97.2
			z"/>
		<path class="st3" d="M8.9,97.3c-0.1,0-0.1,0.1-0.1,0.1c0,0.1,0.1,0.1,0.1,0.1C9,97.6,9,97.5,9,97.5C9,97.4,9,97.3,8.9,97.3z"/>
		<path class="st3" d="M0,97.4C0,97.4,0,97.5,0,97.4C0,97.5,0,97.5,0,97.4C0.1,97.5,0.1,97.5,0,97.4C0.1,97.5,0.1,97.4,0,97.4z"/>
		<path class="st3" d="M288,88.6C287.9,88.6,287.9,88.6,288,88.6C287.9,88.6,287.9,88.6,288,88.6C288,88.6,288,88.6,288,88.6
			C288,88.6,288,88.6,288,88.6z"/>
		<path class="st3" d="M279.1,88.5C279,88.5,279,88.6,279.1,88.5c-0.1,0.2-0.1,0.2,0,0.2C279.1,88.7,279.2,88.7,279.1,88.5
			C279.2,88.6,279.1,88.5,279.1,88.5z"/>
		<path class="st3" d="M270.2,88.4c-0.1,0-0.2,0.1-0.2,0.2s0.1,0.2,0.2,0.2c0.1,0,0.2-0.1,0.2-0.2C270.5,88.5,270.4,88.4,270.2,88.4
			z"/>
		<path class="st3" d="M261.4,88.2c-0.2,0-0.4,0.2-0.4,0.4c0,0.2,0.2,0.4,0.4,0.4c0.2,0,0.4-0.2,0.4-0.4
			C261.8,88.4,261.6,88.2,261.4,88.2z"/>
		<path class="st3" d="M252.5,87.9c-0.4,0-0.7,0.3-0.7,0.7c0,0.4,0.3,0.7,0.7,0.7c0.4,0,0.7-0.3,0.7-0.7
			C253.2,88.2,252.9,87.9,252.5,87.9z"/>
		<path class="st3" d="M243.7,87.7c-0.5,0-0.9,0.4-0.9,0.9c0,0.5,0.4,0.9,0.9,0.9c0.5,0,0.9-0.4,0.9-0.9
			C244.6,88.1,244.2,87.7,243.7,87.7z"/>
		<path class="st3" d="M234.8,87.4c-0.7,0-1.2,0.5-1.2,1.2c0,0.7,0.5,1.2,1.2,1.2c0.7,0,1.2-0.5,1.2-1.2
			C236,88,235.5,87.4,234.8,87.4z"/>
		<path class="st3" d="M225.9,87.1c-0.8,0-1.5,0.7-1.5,1.5s0.7,1.5,1.5,1.5c0.8,0,1.5-0.7,1.5-1.5S226.8,87.1,225.9,87.1z"/>
		<path class="st3" d="M217.1,86.8c-1,0-1.8,0.8-1.8,1.8c0,1,0.8,1.8,1.8,1.8c1,0,1.8-0.8,1.8-1.8C218.9,87.6,218.1,86.8,217.1,86.8
			z"/>
		<path class="st3" d="M208.2,86.4c-1.2,0-2.2,1-2.2,2.2c0,1.2,1,2.2,2.2,2.2c1.2,0,2.2-1,2.2-2.2C210.4,87.4,209.4,86.4,208.2,86.4
			z"/>
		<path class="st3" d="M199.4,86.1c-1.4,0-2.6,1.1-2.6,2.6c0,1.4,1.1,2.6,2.6,2.6c1.4,0,2.6-1.1,2.6-2.6
			C201.9,87.2,200.8,86.1,199.4,86.1z"/>
		<path class="st3" d="M190.5,85.7c-1.6,0-2.9,1.3-2.9,2.9c0,1.6,1.3,2.9,2.9,2.9c1.6,0,2.9-1.3,2.9-2.9S192.1,85.7,190.5,85.7z"/>
		<ellipse transform="matrix(0.178 -0.984 0.984 0.178 62.116 251.5818)" class="st3" cx="181.6" cy="88.6" rx="3.3" ry="3.3"/>
		<path class="st3" d="M172.8,84.9c-2,0-3.7,1.6-3.7,3.7c0,2,1.6,3.7,3.7,3.7c2,0,3.7-1.6,3.7-3.7C176.5,86.6,174.8,84.9,172.8,84.9
			z"/>
		<path class="st3" d="M163.9,84.7c-2.2,0-3.9,1.8-3.9,3.9c0,2.2,1.8,3.9,3.9,3.9c2.2,0,3.9-1.8,3.9-3.9
			C167.9,86.4,166.1,84.7,163.9,84.7z"/>
		<path class="st3" d="M155.1,84.5c-2.3,0-4.1,1.8-4.1,4.1c0,2.3,1.8,4.1,4.1,4.1s4.1-1.8,4.1-4.1C159.2,86.3,157.4,84.5,155.1,84.5
			z"/>
		<path class="st3" d="M146.2,84.4c-2.3,0-4.2,1.9-4.2,4.2c0,2.3,1.9,4.2,4.2,4.2c2.3,0,4.2-1.9,4.2-4.2
			C150.4,86.3,148.5,84.4,146.2,84.4z"/>
		<path class="st3" d="M137.4,84.5c-2.3,0-4.1,1.8-4.1,4.1c0,2.3,1.8,4.1,4.1,4.1c2.3,0,4.1-1.8,4.1-4.1
			C141.5,86.3,139.6,84.5,137.4,84.5z"/>
		<path class="st3" d="M128.5,84.7c-2.1,0-3.9,1.7-3.9,3.9c0,2.1,1.7,3.9,3.9,3.9c2.1,0,3.9-1.7,3.9-3.9
			C132.4,86.5,130.6,84.7,128.5,84.7z"/>
		<circle class="st3" cx="119.6" cy="88.6" r="3.6"/>
		<path class="st3" d="M110.8,85.3c-1.8,0-3.3,1.5-3.3,3.3c0,1.8,1.5,3.3,3.3,3.3s3.3-1.5,3.3-3.3C114,86.8,112.6,85.3,110.8,85.3z"
			/>
		<path class="st3" d="M101.9,85.7c-1.6,0-2.9,1.3-2.9,2.9c0,1.6,1.3,2.9,2.9,2.9c1.6,0,2.9-1.3,2.9-2.9
			C104.8,87,103.5,85.7,101.9,85.7z"/>
		<ellipse transform="matrix(0.7071 -0.7071 0.7071 0.7071 -35.3989 91.7591)" class="st3" cx="93.1" cy="88.6" rx="2.5" ry="2.5"/>
		<path class="st3" d="M84.2,86.5c-1.2,0-2.1,1-2.1,2.1c0,1.2,1,2.1,2.1,2.1c1.2,0,2.1-1,2.1-2.1C86.3,87.4,85.4,86.5,84.2,86.5z"/>
		<path class="st3" d="M75.3,86.8c-1,0-1.8,0.8-1.8,1.8c0,1,0.8,1.8,1.8,1.8c1,0,1.8-0.8,1.8-1.8C77.1,87.6,76.3,86.8,75.3,86.8z"/>
		<path class="st3" d="M66.5,87.1c-0.8,0-1.5,0.7-1.5,1.5c0,0.8,0.7,1.5,1.5,1.5c0.8,0,1.5-0.7,1.5-1.5C68,87.8,67.3,87.1,66.5,87.1
			z"/>
		<path class="st3" d="M57.6,87.5c-0.6,0-1.1,0.5-1.1,1.1c0,0.6,0.5,1.1,1.1,1.1c0.6,0,1.1-0.5,1.1-1.1C58.8,88,58.3,87.5,57.6,87.5
			z"/>
		<path class="st3" d="M48.8,87.8c-0.5,0-0.9,0.4-0.9,0.9c0,0.5,0.4,0.9,0.9,0.9c0.5,0,0.9-0.4,0.9-0.9
			C49.6,88.1,49.2,87.8,48.8,87.8z"/>
		<path class="st3" d="M39.9,88c-0.3,0-0.6,0.3-0.6,0.6c0,0.3,0.3,0.6,0.6,0.6s0.6-0.3,0.6-0.6C40.5,88.3,40.3,88,39.9,88z"/>
		<path class="st3" d="M31.1,88.2c-0.2,0-0.4,0.2-0.4,0.4c0,0.2,0.2,0.4,0.4,0.4s0.4-0.2,0.4-0.4C31.4,88.4,31.3,88.2,31.1,88.2z"/>
		<path class="st3" d="M22.2,88.4c-0.1,0-0.2,0.1-0.2,0.2c0,0.1,0.1,0.2,0.2,0.2c0.1,0,0.2-0.1,0.2-0.2
			C22.4,88.5,22.3,88.4,22.2,88.4z"/>
		<path class="st3" d="M13.3,88.5C13.3,88.5,13.2,88.6,13.3,88.5c-0.1,0.2-0.1,0.2,0,0.2C13.4,88.7,13.4,88.7,13.3,88.5
			C13.4,88.6,13.4,88.5,13.3,88.5z"/>
		<path class="st3" d="M4.5,88.6C4.5,88.6,4.5,88.6,4.5,88.6C4.5,88.6,4.5,88.6,4.5,88.6C4.5,88.6,4.5,88.6,4.5,88.6
			C4.5,88.6,4.5,88.6,4.5,88.6z"/>
		<path class="st3" d="M274.7,79.7C274.6,79.7,274.6,79.7,274.7,79.7c-0.1,0.1,0,0.1,0,0.1C274.7,79.8,274.7,79.8,274.7,79.7
			C274.7,79.7,274.7,79.7,274.7,79.7z"/>
		<path class="st3" d="M265.8,79.6c-0.1,0-0.2,0.1-0.2,0.2c0,0.1,0.1,0.2,0.2,0.2c0.1,0,0.2-0.1,0.2-0.2
			C266,79.6,265.9,79.6,265.8,79.6z"/>
		<path class="st3" d="M256.9,79.4c-0.2,0-0.3,0.2-0.3,0.3c0,0.2,0.2,0.3,0.3,0.3c0.2,0,0.3-0.2,0.3-0.3
			C257.3,79.6,257.1,79.4,256.9,79.4z"/>
		<path class="st3" d="M248.1,79.2c-0.3,0-0.5,0.2-0.5,0.5c0,0.3,0.2,0.5,0.5,0.5c0.3,0,0.5-0.2,0.5-0.5
			C248.6,79.5,248.4,79.2,248.1,79.2z"/>
		<path class="st3" d="M239.2,79c-0.4,0-0.8,0.3-0.8,0.8s0.3,0.8,0.8,0.8c0.4,0,0.8-0.3,0.8-0.8C240,79.3,239.6,79,239.2,79z"/>
		<path class="st3" d="M230.4,78.7c-0.6,0-1,0.5-1,1c0,0.6,0.5,1,1,1c0.6,0,1-0.5,1-1C231.4,79.2,230.9,78.7,230.4,78.7z"/>
		<path class="st3" d="M221.5,78.4c-0.7,0-1.3,0.6-1.3,1.3c0,0.7,0.6,1.3,1.3,1.3c0.7,0,1.3-0.6,1.3-1.3
			C222.8,79,222.2,78.4,221.5,78.4z"/>
		<path class="st3" d="M212.7,78.2c-0.9,0-1.6,0.7-1.6,1.6c0,0.9,0.7,1.6,1.6,1.6c0.9,0,1.6-0.7,1.6-1.6
			C214.3,78.9,213.5,78.2,212.7,78.2z"/>
		<path class="st3" d="M203.8,77.8c-1.1,0-1.9,0.9-1.9,1.9c0,1.1,0.9,1.9,1.9,1.9c1.1,0,1.9-0.9,1.9-1.9
			C205.7,78.7,204.9,77.8,203.8,77.8z"/>
		<path class="st3" d="M194.9,77.5c-1.2,0-2.2,1-2.2,2.2c0,1.2,1,2.2,2.2,2.2c1.2,0,2.2-1,2.2-2.2C197.2,78.5,196.2,77.5,194.9,77.5
			z"/>
		<path class="st3" d="M186.1,77.2c-1.4,0-2.6,1.1-2.6,2.6c0,1.4,1.1,2.6,2.6,2.6c1.4,0,2.6-1.1,2.6-2.6
			C188.6,78.3,187.5,77.2,186.1,77.2z"/>
		<path class="st3" d="M177.2,76.9c-1.6,0-2.8,1.3-2.8,2.8c0,1.6,1.3,2.8,2.8,2.8c1.6,0,2.8-1.3,2.8-2.8
			C180.1,78.2,178.8,76.9,177.2,76.9z"/>
		<path class="st3" d="M168.4,76.6c-1.7,0-3.1,1.4-3.1,3.1c0,1.7,1.4,3.1,3.1,3.1c1.7,0,3.1-1.4,3.1-3.1
			C171.5,78,170.1,76.6,168.4,76.6z"/>
		<path class="st3" d="M159.5,76.4c-1.9,0-3.4,1.5-3.4,3.4c0,1.9,1.5,3.4,3.4,3.4c1.9,0,3.4-1.5,3.4-3.4
			C162.9,77.9,161.4,76.4,159.5,76.4z"/>
		<path class="st3" d="M150.6,76.3c-1.9,0-3.5,1.6-3.5,3.5c0,1.9,1.6,3.5,3.5,3.5c1.9,0,3.5-1.6,3.5-3.5
			C154.1,77.8,152.6,76.3,150.6,76.3z"/>
		<path class="st3" d="M141.8,76.2c-2,0-3.6,1.6-3.6,3.6c0,2,1.6,3.6,3.6,3.6c2,0,3.6-1.6,3.6-3.6C145.3,77.8,143.8,76.2,141.8,76.2
			z"/>
		<path class="st3" d="M132.9,76.3c-1.9,0-3.5,1.6-3.5,3.5c0,1.9,1.6,3.5,3.5,3.5c1.9,0,3.5-1.6,3.5-3.5
			C136.4,77.8,134.9,76.3,132.9,76.3z"/>
		<path class="st3" d="M124.1,76.4c-1.8,0-3.3,1.5-3.3,3.3c0,1.8,1.5,3.3,3.3,3.3c1.8,0,3.3-1.5,3.3-3.3
			C127.4,77.9,125.9,76.4,124.1,76.4z"/>
		<path class="st3" d="M115.2,76.7c-1.7,0-3.1,1.4-3.1,3.1c0,1.7,1.4,3.1,3.1,3.1c1.7,0,3.1-1.4,3.1-3.1
			C118.3,78,116.9,76.7,115.2,76.7z"/>
		<path class="st3" d="M106.4,76.9c-1.6,0-2.8,1.3-2.8,2.8c0,1.6,1.3,2.8,2.8,2.8c1.6,0,2.8-1.3,2.8-2.8
			C109.2,78.2,107.9,76.9,106.4,76.9z"/>
		<path class="st3" d="M97.5,77.2c-1.4,0-2.5,1.1-2.5,2.5c0,1.4,1.1,2.5,2.5,2.5c1.4,0,2.5-1.1,2.5-2.5
			C100,78.4,98.9,77.2,97.5,77.2z"/>
		<path class="st3" d="M88.6,77.5c-1.2,0-2.2,1-2.2,2.2c0,1.2,1,2.2,2.2,2.2c1.2,0,2.2-1,2.2-2.2C90.8,78.5,89.9,77.5,88.6,77.5z"/>
		<path class="st3" d="M79.8,77.9c-1,0-1.9,0.8-1.9,1.9c0,1,0.8,1.9,1.9,1.9c1,0,1.9-0.8,1.9-1.9C81.6,78.7,80.8,77.9,79.8,77.9z"/>
		<path class="st3" d="M70.9,78.2c-0.9,0-1.6,0.7-1.6,1.6c0,0.9,0.7,1.6,1.6,1.6c0.9,0,1.6-0.7,1.6-1.6
			C72.5,78.9,71.8,78.2,70.9,78.2z"/>
		<path class="st3" d="M62.1,78.5c-0.7,0-1.3,0.6-1.3,1.3c0,0.7,0.6,1.3,1.3,1.3c0.7,0,1.3-0.6,1.3-1.3C63.3,79,62.8,78.5,62.1,78.5
			z"/>
		<path class="st3" d="M53.2,78.7c-0.6,0-1,0.5-1,1c0,0.6,0.5,1,1,1c0.6,0,1-0.5,1-1S53.8,78.7,53.2,78.7z"/>
		<path class="st3" d="M44.3,79c-0.4,0-0.7,0.3-0.7,0.7c0,0.4,0.3,0.7,0.7,0.7c0.4,0,0.7-0.3,0.7-0.7C45.1,79.3,44.7,79,44.3,79z"/>
		<path class="st3" d="M35.5,79.2c-0.3,0-0.5,0.2-0.5,0.5c0,0.3,0.2,0.5,0.5,0.5c0.3,0,0.5-0.2,0.5-0.5C36,79.5,35.8,79.2,35.5,79.2
			z"/>
		<path class="st3" d="M26.6,79.4c-0.2,0-0.3,0.1-0.3,0.3c0,0.2,0.1,0.3,0.3,0.3c0.2,0,0.3-0.1,0.3-0.3
			C26.9,79.6,26.8,79.4,26.6,79.4z"/>
		<path class="st3" d="M17.8,79.6c-0.1,0-0.2,0.1-0.2,0.2c0,0.1,0.1,0.2,0.2,0.2c0.1,0,0.2-0.1,0.2-0.2
			C17.9,79.7,17.9,79.6,17.8,79.6z"/>
		<path class="st3" d="M8.9,79.7C8.9,79.7,8.9,79.7,8.9,79.7C8.9,79.8,8.9,79.8,8.9,79.7C8.9,79.8,9,79.8,8.9,79.7
			C9,79.7,8.9,79.7,8.9,79.7z"/>
		<path class="st3" d="M279.1,70.9C279.1,70.9,279.1,70.9,279.1,70.9C279.1,70.9,279.1,70.9,279.1,70.9
			C279.1,70.9,279.1,70.9,279.1,70.9C279.1,70.9,279.1,70.9,279.1,70.9z"/>
		<path class="st3" d="M270.2,70.8c-0.1,0-0.1,0.1-0.1,0.1s0.1,0.1,0.1,0.1c0.1,0,0.1-0.1,0.1-0.1C270.4,70.8,270.3,70.8,270.2,70.8
			z"/>
		<path class="st3" d="M261.4,70.6c-0.1,0-0.3,0.1-0.3,0.3c0,0.1,0.1,0.3,0.3,0.3c0.1,0,0.3-0.1,0.3-0.3
			C261.6,70.7,261.5,70.6,261.4,70.6z"/>
		<path class="st3" d="M252.5,70.5c-0.2,0-0.4,0.2-0.4,0.4c0,0.2,0.2,0.4,0.4,0.4c0.2,0,0.4-0.2,0.4-0.4
			C252.9,70.7,252.7,70.5,252.5,70.5z"/>
		<path class="st3" d="M243.7,70.3c-0.4,0-0.6,0.3-0.6,0.6c0,0.4,0.3,0.6,0.6,0.6c0.4,0,0.6-0.3,0.6-0.6
			C244.3,70.5,244,70.3,243.7,70.3z"/>
		<path class="st3" d="M234.8,70c-0.5,0-0.9,0.4-0.9,0.9c0,0.5,0.4,0.9,0.9,0.9c0.5,0,0.9-0.4,0.9-0.9C235.7,70.4,235.3,70,234.8,70
			z"/>
		<path class="st3" d="M225.9,69.8c-0.6,0-1.1,0.5-1.1,1.1c0,0.6,0.5,1.1,1.1,1.1c0.6,0,1.1-0.5,1.1-1.1
			C227,70.3,226.6,69.8,225.9,69.8z"/>
		<path class="st3" d="M217.1,69.5c-0.7,0-1.4,0.6-1.4,1.4c0,0.7,0.6,1.4,1.4,1.4c0.7,0,1.4-0.6,1.4-1.4
			C218.4,70.1,217.8,69.5,217.1,69.5z"/>
		<path class="st3" d="M208.2,69.3c-0.9,0-1.6,0.7-1.6,1.6c0,0.9,0.7,1.6,1.6,1.6s1.6-0.7,1.6-1.6C209.8,70,209.1,69.3,208.2,69.3z"
			/>
		<path class="st3" d="M199.4,69c-1,0-1.9,0.8-1.9,1.9s0.8,1.9,1.9,1.9c1,0,1.9-0.8,1.9-1.9C201.3,69.8,200.4,69,199.4,69z"/>
		<path class="st3" d="M190.5,68.7c-1.2,0-2.2,1-2.2,2.2c0,1.2,1,2.2,2.2,2.2c1.2,0,2.2-1,2.2-2.2C192.7,69.7,191.7,68.7,190.5,68.7
			z"/>
		<path class="st3" d="M181.6,68.5c-1.3,0-2.4,1.1-2.4,2.4c0,1.3,1.1,2.4,2.4,2.4c1.3,0,2.4-1.1,2.4-2.4
			C184.1,69.6,183,68.5,181.6,68.5z"/>
		<path class="st3" d="M172.8,68.3c-1.4,0-2.6,1.2-2.6,2.6c0,1.4,1.2,2.6,2.6,2.6c1.4,0,2.6-1.2,2.6-2.6
			C175.4,69.5,174.2,68.3,172.8,68.3z"/>
		<path class="st3" d="M163.9,68.1c-1.5,0-2.8,1.3-2.8,2.8c0,1.5,1.3,2.8,2.8,2.8c1.5,0,2.8-1.3,2.8-2.8
			C166.7,69.3,165.5,68.1,163.9,68.1z"/>
		<path class="st3" d="M155.1,68c-1.6,0-2.9,1.3-2.9,2.9c0,1.6,1.3,2.9,2.9,2.9c1.6,0,2.9-1.3,2.9-2.9C157.9,69.3,156.7,68,155.1,68
			z"/>
		<path class="st3" d="M146.2,68c-1.6,0-2.9,1.3-2.9,2.9c0,1.6,1.3,2.9,2.9,2.9c1.6,0,2.9-1.3,2.9-2.9C149.1,69.3,147.8,68,146.2,68
			z"/>
		<path class="st3" d="M137.4,68c-1.6,0-2.9,1.3-2.9,2.9c0,1.6,1.3,2.9,2.9,2.9c1.6,0,2.9-1.3,2.9-2.9C140.2,69.3,138.9,68,137.4,68
			z"/>
		<path class="st3" d="M128.5,68.1c-1.5,0-2.8,1.2-2.8,2.8s1.2,2.8,2.8,2.8c1.5,0,2.8-1.2,2.8-2.8C131.3,69.4,130,68.1,128.5,68.1z"
			/>
		<path class="st3" d="M119.6,68.3c-1.4,0-2.6,1.2-2.6,2.6c0,1.4,1.2,2.6,2.6,2.6c1.4,0,2.6-1.2,2.6-2.6
			C122.2,69.5,121.1,68.3,119.6,68.3z"/>
		<path class="st3" d="M110.8,68.5c-1.3,0-2.4,1.1-2.4,2.4c0,1.3,1.1,2.4,2.4,2.4c1.3,0,2.4-1.1,2.4-2.4
			C113.2,69.6,112.1,68.5,110.8,68.5z"/>
		<path class="st3" d="M101.9,68.8c-1.2,0-2.1,1-2.1,2.1c0,1.2,1,2.1,2.1,2.1c1.2,0,2.1-1,2.1-2.1C104.1,69.7,103.1,68.8,101.9,68.8
			z"/>
		<path class="st3" d="M93.1,69c-1,0-1.9,0.8-1.9,1.9c0,1,0.8,1.9,1.9,1.9c1,0,1.9-0.8,1.9-1.9C94.9,69.9,94.1,69,93.1,69z"/>
		<path class="st3" d="M84.2,69.3c-0.9,0-1.6,0.7-1.6,1.6c0,0.9,0.7,1.6,1.6,1.6c0.9,0,1.6-0.7,1.6-1.6C85.8,70,85.1,69.3,84.2,69.3
			z"/>
		<path class="st3" d="M75.3,69.6c-0.7,0-1.3,0.6-1.3,1.3c0,0.7,0.6,1.3,1.3,1.3c0.7,0,1.3-0.6,1.3-1.3
			C76.7,70.2,76.1,69.6,75.3,69.6z"/>
		<path class="st3" d="M66.5,69.8c-0.6,0-1.1,0.5-1.1,1.1s0.5,1.1,1.1,1.1c0.6,0,1.1-0.5,1.1-1.1C67.6,70.3,67.1,69.8,66.5,69.8z"/>
		<path class="st3" d="M57.6,70.1c-0.5,0-0.8,0.4-0.8,0.8c0,0.5,0.4,0.8,0.8,0.8s0.8-0.4,0.8-0.8C58.5,70.4,58.1,70.1,57.6,70.1z"/>
		<path class="st3" d="M48.8,70.3c-0.3,0-0.6,0.3-0.6,0.6c0,0.3,0.3,0.6,0.6,0.6s0.6-0.3,0.6-0.6C49.4,70.6,49.1,70.3,48.8,70.3z"/>
		<path class="st3" d="M39.9,70.5c-0.2,0-0.4,0.2-0.4,0.4c0,0.2,0.2,0.4,0.4,0.4c0.2,0,0.4-0.2,0.4-0.4
			C40.3,70.7,40.1,70.5,39.9,70.5z"/>
		<path class="st3" d="M31.1,70.6c-0.1,0-0.2,0.1-0.2,0.2c0,0.1,0.1,0.2,0.2,0.2c0.1,0,0.2-0.1,0.2-0.2
			C31.3,70.8,31.2,70.6,31.1,70.6z"/>
		<path class="st3" d="M22.2,70.8C22.1,70.8,22.1,70.8,22.2,70.8c-0.1,0.2-0.1,0.2,0,0.2C22.2,71,22.3,70.9,22.2,70.8
			C22.3,70.8,22.2,70.8,22.2,70.8z"/>
		<path class="st3" d="M13.3,70.9C13.3,70.9,13.3,70.9,13.3,70.9C13.3,70.9,13.3,70.9,13.3,70.9C13.4,70.9,13.4,70.9,13.3,70.9
			C13.4,70.9,13.4,70.9,13.3,70.9z"/>
		<path class="st3" d="M265.8,62C265.8,62,265.7,62,265.8,62c-0.1,0.1,0,0.1,0,0.1C265.8,62.1,265.9,62.1,265.8,62
			C265.9,62,265.8,62,265.8,62z"/>
		<path class="st3" d="M256.9,61.9c-0.1,0-0.2,0.1-0.2,0.2c0,0.1,0.1,0.2,0.2,0.2s0.2-0.1,0.2-0.2C257.1,61.9,257,61.9,256.9,61.9z"
			/>
		<path class="st3" d="M248.1,61.7c-0.2,0-0.3,0.1-0.3,0.3c0,0.2,0.1,0.3,0.3,0.3c0.2,0,0.3-0.1,0.3-0.3
			C248.4,61.9,248.3,61.7,248.1,61.7z"/>
		<path class="st3" d="M239.2,61.6c-0.3,0-0.5,0.2-0.5,0.5s0.2,0.5,0.5,0.5c0.3,0,0.5-0.2,0.5-0.5C239.7,61.8,239.5,61.6,239.2,61.6
			z"/>
		<path class="st3" d="M230.4,61.4c-0.4,0-0.7,0.3-0.7,0.7c0,0.4,0.3,0.7,0.7,0.7c0.4,0,0.7-0.3,0.7-0.7
			C231,61.7,230.7,61.4,230.4,61.4z"/>
		<path class="st3" d="M221.5,61.1c-0.5,0-0.9,0.4-0.9,0.9c0,0.5,0.4,0.9,0.9,0.9c0.5,0,0.9-0.4,0.9-0.9
			C222.4,61.5,222,61.1,221.5,61.1z"/>
		<path class="st3" d="M212.7,60.9c-0.6,0-1.1,0.5-1.1,1.1c0,0.6,0.5,1.1,1.1,1.1c0.6,0,1.1-0.5,1.1-1.1
			C213.8,61.4,213.3,60.9,212.7,60.9z"/>
		<path class="st3" d="M203.8,60.7c-0.7,0-1.3,0.6-1.3,1.3c0,0.7,0.6,1.3,1.3,1.3c0.7,0,1.3-0.6,1.3-1.3
			C205.1,61.3,204.5,60.7,203.8,60.7z"/>
		<path class="st3" d="M194.9,60.5c-0.9,0-1.5,0.7-1.5,1.5c0,0.9,0.7,1.5,1.5,1.5c0.9,0,1.5-0.7,1.5-1.5
			C196.5,61.2,195.8,60.5,194.9,60.5z"/>
		<path class="st3" d="M186.1,60.3c-1,0-1.7,0.8-1.7,1.7c0,1,0.8,1.7,1.7,1.7c1,0,1.7-0.8,1.7-1.7C187.8,61.1,187,60.3,186.1,60.3z"
			/>
		<path class="st3" d="M177.2,60.1c-1.1,0-2,0.9-2,2c0,1.1,0.9,2,2,2c1.1,0,2-0.9,2-2C179.2,60.9,178.3,60.1,177.2,60.1z"/>
		<path class="st3" d="M168.4,59.9c-1.2,0-2.1,1-2.1,2.1c0,1.2,1,2.1,2.1,2.1c1.2,0,2.1-1,2.1-2.1C170.5,60.9,169.5,59.9,168.4,59.9
			z"/>
		<path class="st3" d="M159.5,59.8c-1.2,0-2.2,1-2.2,2.2s1,2.2,2.2,2.2c1.2,0,2.2-1,2.2-2.2C161.7,60.8,160.7,59.8,159.5,59.8z"/>
		<path class="st3" d="M150.6,59.7c-1.3,0-2.3,1-2.3,2.3c0,1.3,1,2.3,2.3,2.3c1.3,0,2.3-1,2.3-2.3C153,60.7,151.9,59.7,150.6,59.7z"
			/>
		<path class="st3" d="M141.8,59.7c-1.3,0-2.4,1.1-2.4,2.4c0,1.3,1.1,2.4,2.4,2.4c1.3,0,2.4-1.1,2.4-2.4
			C144.1,60.7,143.1,59.7,141.8,59.7z"/>
		<path class="st3" d="M132.9,59.7c-1.3,0-2.3,1-2.3,2.3c0,1.3,1,2.3,2.3,2.3c1.3,0,2.3-1,2.3-2.3S134.2,59.7,132.9,59.7z"/>
		<path class="st3" d="M124.1,59.8c-1.2,0-2.2,1-2.2,2.2c0,1.2,1,2.2,2.2,2.2c1.2,0,2.2-1,2.2-2.2C126.3,60.8,125.3,59.8,124.1,59.8
			z"/>
		<path class="st3" d="M115.2,59.9c-1.2,0-2.1,0.9-2.1,2.1s0.9,2.1,2.1,2.1c1.2,0,2.1-0.9,2.1-2.1S116.4,59.9,115.2,59.9z"/>
		<path class="st3" d="M106.4,60.1c-1.1,0-1.9,0.9-1.9,1.9c0,1.1,0.9,1.9,1.9,1.9c1.1,0,1.9-0.9,1.9-1.9
			C108.3,61,107.4,60.1,106.4,60.1z"/>
		<path class="st3" d="M97.5,60.3c-0.9,0-1.7,0.8-1.7,1.7c0,0.9,0.8,1.7,1.7,1.7c0.9,0,1.7-0.8,1.7-1.7
			C99.2,61.1,98.4,60.3,97.5,60.3z"/>
		<path class="st3" d="M88.6,60.5c-0.8,0-1.5,0.7-1.5,1.5c0,0.8,0.7,1.5,1.5,1.5c0.8,0,1.5-0.7,1.5-1.5
			C90.2,61.2,89.5,60.5,88.6,60.5z"/>
		<path class="st3" d="M79.8,60.8c-0.7,0-1.3,0.6-1.3,1.3s0.6,1.3,1.3,1.3c0.7,0,1.3-0.6,1.3-1.3C81.1,61.3,80.5,60.8,79.8,60.8z"/>
		<path class="st3" d="M70.9,61c-0.6,0-1.1,0.5-1.1,1.1c0,0.6,0.5,1.1,1.1,1.1c0.6,0,1.1-0.5,1.1-1.1C72,61.4,71.5,61,70.9,61z"/>
		<path class="st3" d="M62.1,61.2c-0.5,0-0.8,0.4-0.8,0.8s0.4,0.8,0.8,0.8c0.5,0,0.8-0.4,0.8-0.8S62.5,61.2,62.1,61.2z"/>
		<path class="st3" d="M53.2,61.4c-0.4,0-0.6,0.3-0.6,0.6c0,0.4,0.3,0.6,0.6,0.6c0.4,0,0.6-0.3,0.6-0.6
			C53.8,61.7,53.6,61.4,53.2,61.4z"/>
		<path class="st3" d="M44.3,61.6c-0.3,0-0.5,0.2-0.5,0.5c0,0.3,0.2,0.5,0.5,0.5c0.3,0,0.5-0.2,0.5-0.5
			C44.8,61.8,44.6,61.6,44.3,61.6z"/>
		<path class="st3" d="M35.5,61.7c-0.2,0-0.3,0.1-0.3,0.3c0,0.2,0.1,0.3,0.3,0.3c0.2,0,0.3-0.1,0.3-0.3
			C35.8,61.9,35.6,61.7,35.5,61.7z"/>
		<path class="st3" d="M26.6,61.9c-0.1,0-0.1,0.1-0.1,0.1c0,0.1,0.1,0.1,0.1,0.1c0.1,0,0.1-0.1,0.1-0.1C26.8,62,26.7,61.9,26.6,61.9
			z"/>
		<path class="st3" d="M17.8,62C17.7,62,17.7,62,17.8,62C17.7,62.1,17.7,62.1,17.8,62C17.8,62.1,17.8,62.1,17.8,62
			C17.8,62,17.8,62,17.8,62z"/>
		<path class="st3" d="M270.2,53.2C270.2,53.2,270.2,53.2,270.2,53.2C270.2,53.2,270.2,53.2,270.2,53.2
			C270.2,53.2,270.3,53.2,270.2,53.2C270.3,53.2,270.2,53.2,270.2,53.2z"/>
		<path class="st3" d="M261.4,53.1C261.3,53.1,261.3,53.1,261.4,53.1c-0.1,0.2-0.1,0.2,0,0.2C261.4,53.3,261.5,53.2,261.4,53.1
			C261.5,53.1,261.4,53.1,261.4,53.1z"/>
		<path class="st3" d="M252.5,53c-0.1,0-0.2,0.1-0.2,0.2c0,0.1,0.1,0.2,0.2,0.2c0.1,0,0.2-0.1,0.2-0.2C252.7,53.1,252.6,53,252.5,53
			z"/>
		<path class="st3" d="M243.7,52.9c-0.2,0-0.3,0.1-0.3,0.3c0,0.2,0.1,0.3,0.3,0.3c0.2,0,0.3-0.1,0.3-0.3
			C244,53,243.8,52.9,243.7,52.9z"/>
		<path class="st3" d="M234.8,52.7c-0.3,0-0.5,0.2-0.5,0.5c0,0.3,0.2,0.5,0.5,0.5c0.3,0,0.5-0.2,0.5-0.5
			C235.3,52.9,235.1,52.7,234.8,52.7z"/>
		<path class="st3" d="M225.9,52.5c-0.4,0-0.7,0.3-0.7,0.7c0,0.4,0.3,0.7,0.7,0.7c0.4,0,0.7-0.3,0.7-0.7
			C226.6,52.8,226.3,52.5,225.9,52.5z"/>
		<path class="st3" d="M217.1,52.3c-0.5,0-0.8,0.4-0.8,0.8c0,0.5,0.4,0.8,0.8,0.8s0.8-0.4,0.8-0.8C217.9,52.7,217.5,52.3,217.1,52.3
			z"/>
		<path class="st3" d="M208.2,52.2c-0.6,0-1,0.5-1,1s0.5,1,1,1c0.6,0,1-0.5,1-1C209.2,52.6,208.8,52.2,208.2,52.2z"/>
		<path class="st3" d="M199.4,52c-0.7,0-1.2,0.5-1.2,1.2c0,0.7,0.5,1.2,1.2,1.2c0.7,0,1.2-0.5,1.2-1.2C200.6,52.5,200,52,199.4,52z"
			/>
		<path class="st3" d="M190.5,51.8c-0.8,0-1.4,0.6-1.4,1.4c0,0.8,0.6,1.4,1.4,1.4c0.8,0,1.4-0.6,1.4-1.4
			C191.9,52.4,191.3,51.8,190.5,51.8z"/>
		<path class="st3" d="M181.6,51.7c-0.8,0-1.5,0.7-1.5,1.5c0,0.8,0.7,1.5,1.5,1.5c0.8,0,1.5-0.7,1.5-1.5
			C183.2,52.3,182.5,51.7,181.6,51.7z"/>
		<path class="st3" d="M172.8,51.5c-0.9,0-1.7,0.7-1.7,1.7c0,0.9,0.7,1.7,1.7,1.7c0.9,0,1.7-0.7,1.7-1.7S173.7,51.5,172.8,51.5z"/>
		<path class="st3" d="M163.9,51.4c-1,0-1.8,0.8-1.8,1.8c0,1,0.8,1.8,1.8,1.8c1,0,1.8-0.8,1.8-1.8C165.7,52.2,164.9,51.4,163.9,51.4
			z"/>
		<path class="st3" d="M155.1,51.4c-1,0-1.8,0.8-1.8,1.8c0,1,0.8,1.8,1.8,1.8c1,0,1.8-0.8,1.8-1.8C156.9,52.2,156.1,51.4,155.1,51.4
			z"/>
		<path class="st3" d="M146.2,51.3c-1,0-1.8,0.8-1.8,1.8c0,1,0.8,1.8,1.8,1.8c1,0,1.8-0.8,1.8-1.8C148.1,52.2,147.2,51.3,146.2,51.3
			z"/>
		<path class="st3" d="M137.4,51.4c-1,0-1.8,0.8-1.8,1.8c0,1,0.8,1.8,1.8,1.8c1,0,1.8-0.8,1.8-1.8C139.2,52.2,138.4,51.4,137.4,51.4
			z"/>
		<path class="st3" d="M128.5,51.4c-1,0-1.7,0.8-1.7,1.7c0,1,0.8,1.7,1.7,1.7c1,0,1.7-0.8,1.7-1.7C130.2,52.2,129.5,51.4,128.5,51.4
			z"/>
		<path class="st3" d="M119.6,51.5c-0.9,0-1.6,0.7-1.6,1.6c0,0.9,0.7,1.6,1.6,1.6c0.9,0,1.6-0.7,1.6-1.6
			C121.3,52.3,120.5,51.5,119.6,51.5z"/>
		<path class="st3" d="M110.8,51.7c-0.8,0-1.5,0.7-1.5,1.5c0,0.8,0.7,1.5,1.5,1.5c0.8,0,1.5-0.7,1.5-1.5
			C112.3,52.3,111.6,51.7,110.8,51.7z"/>
		<path class="st3" d="M101.9,51.8c-0.7,0-1.4,0.6-1.4,1.4c0,0.7,0.6,1.4,1.4,1.4c0.7,0,1.4-0.6,1.4-1.4
			C103.3,52.4,102.7,51.8,101.9,51.8z"/>
		<path class="st3" d="M93.1,52c-0.7,0-1.2,0.5-1.2,1.2c0,0.7,0.5,1.2,1.2,1.2c0.7,0,1.2-0.5,1.2-1.2C94.2,52.5,93.7,52,93.1,52z"/>
		<path class="st3" d="M84.2,52.2c-0.6,0-1,0.5-1,1c0,0.6,0.5,1,1,1c0.6,0,1-0.5,1-1C85.2,52.6,84.8,52.2,84.2,52.2z"/>
		<path class="st3" d="M75.3,52.4c-0.4,0-0.8,0.4-0.8,0.8c0,0.4,0.4,0.8,0.8,0.8c0.4,0,0.8-0.4,0.8-0.8
			C76.2,52.7,75.8,52.4,75.3,52.4z"/>
		<path class="st3" d="M66.5,52.6c-0.3,0-0.6,0.3-0.6,0.6s0.3,0.6,0.6,0.6c0.3,0,0.6-0.3,0.6-0.6S66.8,52.6,66.5,52.6z"/>
		<path class="st3" d="M57.6,52.7c-0.3,0-0.5,0.2-0.5,0.5c0,0.3,0.2,0.5,0.5,0.5c0.3,0,0.5-0.2,0.5-0.5
			C58.1,52.9,57.9,52.7,57.6,52.7z"/>
		<path class="st3" d="M48.8,52.9c-0.2,0-0.3,0.1-0.3,0.3c0,0.2,0.1,0.3,0.3,0.3c0.2,0,0.3-0.1,0.3-0.3C49.1,53,48.9,52.9,48.8,52.9
			z"/>
		<path class="st3" d="M39.9,53c-0.1,0-0.2,0.1-0.2,0.2c0,0.1,0.1,0.2,0.2,0.2c0.1,0,0.2-0.1,0.2-0.2S40,53,39.9,53z"/>
		<path class="st3" d="M31.1,53.1C31,53.1,31,53.1,31.1,53.1c-0.1,0.1,0,0.1,0,0.1C31.1,53.2,31.1,53.2,31.1,53.1
			C31.1,53.1,31.1,53.1,31.1,53.1z"/>
		<path class="st3" d="M22.2,53.2C22.2,53.2,22.2,53.2,22.2,53.2C22.2,53.2,22.2,53.2,22.2,53.2C22.2,53.2,22.2,53.2,22.2,53.2
			C22.2,53.2,22.2,53.2,22.2,53.2z"/>
		<path class="st3" d="M256.9,44.3C256.9,44.3,256.9,44.3,256.9,44.3C256.9,44.3,256.9,44.3,256.9,44.3
			C257,44.3,257,44.3,256.9,44.3C257,44.3,257,44.3,256.9,44.3z"/>
		<path class="st3" d="M248.1,44.2C248,44.2,248,44.3,248.1,44.2c-0.1,0.2-0.1,0.2,0,0.2C248.1,44.4,248.2,44.4,248.1,44.2
			C248.2,44.3,248.1,44.2,248.1,44.2z"/>
		<path class="st3" d="M239.2,44.1c-0.1,0-0.2,0.1-0.2,0.2c0,0.1,0.1,0.2,0.2,0.2c0.1,0,0.2-0.1,0.2-0.2
			C239.4,44.2,239.3,44.1,239.2,44.1z"/>
		<path class="st3" d="M230.4,44c-0.2,0-0.3,0.1-0.3,0.3c0,0.2,0.1,0.3,0.3,0.3c0.2,0,0.3-0.1,0.3-0.3C230.7,44.1,230.5,44,230.4,44
			z"/>
		<path class="st3" d="M221.5,43.9c-0.2,0-0.4,0.2-0.4,0.4c0,0.2,0.2,0.4,0.4,0.4c0.2,0,0.4-0.2,0.4-0.4
			C222,44.1,221.8,43.9,221.5,43.9z"/>
		<path class="st3" d="M212.7,43.7c-0.3,0-0.6,0.3-0.6,0.6c0,0.3,0.3,0.6,0.6,0.6c0.3,0,0.6-0.3,0.6-0.6
			C213.2,44,213,43.7,212.7,43.7z"/>
		<path class="st3" d="M203.8,43.6c-0.4,0-0.7,0.3-0.7,0.7c0,0.4,0.3,0.7,0.7,0.7c0.4,0,0.7-0.3,0.7-0.7
			C204.5,43.9,204.2,43.6,203.8,43.6z"/>
		<path class="st3" d="M194.9,43.4c-0.5,0-0.9,0.4-0.9,0.9c0,0.5,0.4,0.9,0.9,0.9s0.9-0.4,0.9-0.9C195.8,43.8,195.4,43.4,194.9,43.4
			z"/>
		<path class="st3" d="M186.1,43.3c-0.6,0-1,0.5-1,1c0,0.6,0.5,1,1,1s1-0.5,1-1C187.1,43.8,186.6,43.3,186.1,43.3z"/>
		<path class="st3" d="M177.2,43.2c-0.6,0-1.1,0.5-1.1,1.1c0,0.6,0.5,1.1,1.1,1.1c0.6,0,1.1-0.5,1.1-1.1
			C178.3,43.7,177.8,43.2,177.2,43.2z"/>
		<circle class="st3" cx="168.4" cy="44.3" r="1.3"/>
		<path class="st3" d="M159.5,43c-0.7,0-1.3,0.6-1.3,1.3c0,0.7,0.6,1.3,1.3,1.3c0.7,0,1.3-0.6,1.3-1.3C160.8,43.6,160.2,43,159.5,43
			z"/>
		<path class="st3" d="M150.6,42.9c-0.8,0-1.4,0.6-1.4,1.4c0,0.8,0.6,1.4,1.4,1.4c0.8,0,1.4-0.6,1.4-1.4
			C152,43.6,151.4,42.9,150.6,42.9z"/>
		<path class="st3" d="M141.8,42.9c-0.8,0-1.4,0.6-1.4,1.4c0,0.8,0.6,1.4,1.4,1.4c0.8,0,1.4-0.6,1.4-1.4
			C143.2,43.5,142.6,42.9,141.8,42.9z"/>
		<path class="st3" d="M132.9,42.9c-0.8,0-1.4,0.6-1.4,1.4c0,0.8,0.6,1.4,1.4,1.4c0.8,0,1.4-0.6,1.4-1.4
			C134.3,43.6,133.7,42.9,132.9,42.9z"/>
		<path class="st3" d="M124.1,43c-0.7,0-1.3,0.6-1.3,1.3c0,0.7,0.6,1.3,1.3,1.3c0.7,0,1.3-0.6,1.3-1.3C125.4,43.6,124.8,43,124.1,43
			z"/>
		<path class="st3" d="M115.2,43.1c-0.7,0-1.3,0.6-1.3,1.3c0,0.7,0.6,1.3,1.3,1.3c0.7,0,1.3-0.6,1.3-1.3
			C116.5,43.6,115.9,43.1,115.2,43.1z"/>
		<path class="st3" d="M106.4,43.2c-0.6,0-1.1,0.5-1.1,1.1c0,0.6,0.5,1.1,1.1,1.1c0.6,0,1.1-0.5,1.1-1.1
			C107.5,43.7,107,43.2,106.4,43.2z"/>
		<path class="st3" d="M97.5,43.3c-0.6,0-1,0.5-1,1c0,0.6,0.5,1,1,1c0.6,0,1-0.5,1-1C98.5,43.8,98,43.3,97.5,43.3z"/>
		<path class="st3" d="M88.6,43.5c-0.5,0-0.9,0.4-0.9,0.9c0,0.5,0.4,0.9,0.9,0.9c0.5,0,0.9-0.4,0.9-0.9
			C89.5,43.8,89.1,43.5,88.6,43.5z"/>
		<path class="st3" d="M79.8,43.6c-0.4,0-0.7,0.3-0.7,0.7c0,0.4,0.3,0.7,0.7,0.7c0.4,0,0.7-0.3,0.7-0.7
			C80.5,43.9,80.2,43.6,79.8,43.6z"/>
		<path class="st3" d="M70.9,43.8c-0.3,0-0.6,0.3-0.6,0.6c0,0.3,0.3,0.6,0.6,0.6c0.3,0,0.6-0.3,0.6-0.6C71.5,44,71.2,43.8,70.9,43.8
			z"/>
		<path class="st3" d="M62.1,43.9c-0.2,0-0.4,0.2-0.4,0.4c0,0.2,0.2,0.4,0.4,0.4c0.2,0,0.4-0.2,0.4-0.4
			C62.5,44.1,62.3,43.9,62.1,43.9z"/>
		<path class="st3" d="M53.2,44c-0.2,0-0.3,0.1-0.3,0.3c0,0.2,0.1,0.3,0.3,0.3c0.2,0,0.3-0.1,0.3-0.3C53.5,44.2,53.4,44,53.2,44z"/>
		<path class="st3" d="M44.3,44.1c-0.1,0-0.2,0.1-0.2,0.2c0,0.1,0.1,0.2,0.2,0.2c0.1,0,0.2-0.1,0.2-0.2
			C44.5,44.2,44.4,44.1,44.3,44.1z"/>
		<path class="st3" d="M35.5,44.2C35.4,44.2,35.4,44.3,35.5,44.2c-0.1,0.1,0,0.1,0,0.1C35.5,44.4,35.6,44.4,35.5,44.2
			C35.6,44.3,35.5,44.2,35.5,44.2z"/>
		<path class="st3" d="M26.6,44.3C26.6,44.3,26.6,44.3,26.6,44.3C26.6,44.3,26.6,44.3,26.6,44.3C26.6,44.3,26.6,44.3,26.6,44.3
			C26.6,44.3,26.6,44.3,26.6,44.3z"/>
		<path class="st3" d="M252.5,35.4C252.5,35.4,252.5,35.4,252.5,35.4C252.5,35.5,252.5,35.5,252.5,35.4
			C252.5,35.5,252.5,35.5,252.5,35.4C252.5,35.4,252.5,35.4,252.5,35.4z"/>
		<path class="st3" d="M243.7,35.4C243.6,35.4,243.6,35.4,243.7,35.4c-0.1,0.1,0,0.1,0,0.1C243.7,35.5,243.7,35.5,243.7,35.4
			C243.7,35.4,243.7,35.4,243.7,35.4z"/>
		<path class="st3" d="M234.8,35.3c-0.1,0-0.2,0.1-0.2,0.2c0,0.1,0.1,0.2,0.2,0.2c0.1,0,0.2-0.1,0.2-0.2
			C235,35.4,234.9,35.3,234.8,35.3z"/>
		<path class="st3" d="M225.9,35.2c-0.1,0-0.2,0.1-0.2,0.2c0,0.1,0.1,0.2,0.2,0.2c0.1,0,0.2-0.1,0.2-0.2
			C226.2,35.3,226.1,35.2,225.9,35.2z"/>
		<path class="st3" d="M217.1,35.1c-0.2,0-0.4,0.2-0.4,0.4s0.2,0.4,0.4,0.4c0.2,0,0.4-0.2,0.4-0.4C217.5,35.3,217.3,35.1,217.1,35.1
			z"/>
		<path class="st3" d="M208.2,35c-0.3,0-0.5,0.2-0.5,0.5c0,0.3,0.2,0.5,0.5,0.5c0.3,0,0.5-0.2,0.5-0.5C208.7,35.2,208.5,35,208.2,35
			z"/>
		<path class="st3" d="M199.4,34.9c-0.3,0-0.6,0.3-0.6,0.6c0,0.3,0.3,0.6,0.6,0.6c0.3,0,0.6-0.3,0.6-0.6
			C200,35.1,199.7,34.9,199.4,34.9z"/>
		<path class="st3" d="M190.5,34.7c-0.4,0-0.7,0.3-0.7,0.7c0,0.4,0.3,0.7,0.7,0.7c0.4,0,0.7-0.3,0.7-0.7
			C191.2,35.1,190.9,34.7,190.5,34.7z"/>
		<path class="st3" d="M181.6,34.7c-0.4,0-0.8,0.4-0.8,0.8c0,0.4,0.4,0.8,0.8,0.8c0.4,0,0.8-0.4,0.8-0.8
			C182.4,35,182.1,34.7,181.6,34.7z"/>
		<path class="st3" d="M172.8,34.6c-0.5,0-0.9,0.4-0.9,0.9c0,0.5,0.4,0.9,0.9,0.9s0.9-0.4,0.9-0.9C173.7,35,173.3,34.6,172.8,34.6z"
			/>
		<path class="st3" d="M163.9,34.5c-0.5,0-0.9,0.4-0.9,0.9c0,0.5,0.4,0.9,0.9,0.9c0.5,0,0.9-0.4,0.9-0.9
			C164.9,34.9,164.4,34.5,163.9,34.5z"/>
		<path class="st3" d="M155.1,34.5c-0.5,0-1,0.4-1,1c0,0.5,0.4,1,1,1c0.5,0,1-0.4,1-1C156.1,34.9,155.6,34.5,155.1,34.5z"/>
		<path class="st3" d="M146.2,34.5c-0.5,0-1,0.4-1,1c0,0.5,0.4,1,1,1c0.5,0,1-0.4,1-1C147.2,34.9,146.8,34.5,146.2,34.5z"/>
		<path class="st3" d="M137.4,34.5c-0.5,0-1,0.4-1,1c0,0.5,0.4,1,1,1c0.5,0,1-0.4,1-1C138.3,34.9,137.9,34.5,137.4,34.5z"/>
		<path class="st3" d="M128.5,34.5c-0.5,0-0.9,0.4-0.9,0.9c0,0.5,0.4,0.9,0.9,0.9c0.5,0,0.9-0.4,0.9-0.9
			C129.4,35,129,34.5,128.5,34.5z"/>
		<path class="st3" d="M119.6,34.6c-0.5,0-0.9,0.4-0.9,0.9c0,0.5,0.4,0.9,0.9,0.9c0.5,0,0.9-0.4,0.9-0.9
			C120.5,35,120.1,34.6,119.6,34.6z"/>
		<path class="st3" d="M110.8,34.7c-0.4,0-0.8,0.4-0.8,0.8c0,0.4,0.4,0.8,0.8,0.8c0.4,0,0.8-0.4,0.8-0.8
			C111.6,35,111.2,34.7,110.8,34.7z"/>
		<path class="st3" d="M101.9,34.8c-0.4,0-0.7,0.3-0.7,0.7c0,0.4,0.3,0.7,0.7,0.7c0.4,0,0.7-0.3,0.7-0.7
			C102.6,35.1,102.3,34.8,101.9,34.8z"/>
		<path class="st3" d="M93.1,34.9c-0.3,0-0.6,0.3-0.6,0.6c0,0.3,0.3,0.6,0.6,0.6c0.3,0,0.6-0.3,0.6-0.6
			C93.6,35.1,93.4,34.9,93.1,34.9z"/>
		<path class="st3" d="M84.2,35c-0.3,0-0.5,0.2-0.5,0.5c0,0.3,0.2,0.5,0.5,0.5c0.3,0,0.5-0.2,0.5-0.5C84.7,35.2,84.5,35,84.2,35z"/>
		<path class="st3" d="M75.3,35.1c-0.2,0-0.3,0.2-0.3,0.3c0,0.2,0.2,0.3,0.3,0.3c0.2,0,0.3-0.2,0.3-0.3
			C75.7,35.3,75.5,35.1,75.3,35.1z"/>
		<path class="st3" d="M66.5,35.2c-0.1,0-0.2,0.1-0.2,0.2c0,0.1,0.1,0.2,0.2,0.2c0.1,0,0.2-0.1,0.2-0.2
			C66.7,35.3,66.6,35.2,66.5,35.2z"/>
		<path class="st3" d="M57.6,35.3c-0.1,0-0.1,0.1-0.1,0.1c0,0.1,0.1,0.1,0.1,0.1c0.1,0,0.1-0.1,0.1-0.1
			C57.8,35.4,57.7,35.3,57.6,35.3z"/>
		<path class="st3" d="M48.8,35.4C48.7,35.4,48.7,35.4,48.8,35.4c-0.1,0.1,0,0.1,0,0.1C48.8,35.5,48.8,35.5,48.8,35.4
			C48.8,35.4,48.8,35.4,48.8,35.4z"/>
		<path class="st3" d="M39.9,35.4C39.9,35.4,39.9,35.4,39.9,35.4C39.9,35.5,39.9,35.5,39.9,35.4C39.9,35.5,39.9,35.5,39.9,35.4
			C39.9,35.4,39.9,35.4,39.9,35.4z"/>
		<path class="st3" d="M230.4,26.6C230.3,26.6,230.3,26.6,230.4,26.6C230.3,26.6,230.3,26.6,230.4,26.6
			C230.4,26.6,230.4,26.6,230.4,26.6C230.4,26.6,230.4,26.6,230.4,26.6z"/>
		<path class="st3" d="M221.5,26.5C221.5,26.5,221.4,26.5,221.5,26.5c-0.1,0.2-0.1,0.2,0,0.2C221.6,26.7,221.6,26.7,221.5,26.5
			C221.6,26.5,221.6,26.5,221.5,26.5z"/>
		<path class="st3" d="M212.7,26.4c-0.1,0-0.2,0.1-0.2,0.2c0,0.1,0.1,0.2,0.2,0.2c0.1,0,0.2-0.1,0.2-0.2
			C212.8,26.5,212.7,26.4,212.7,26.4z"/>
		<path class="st3" d="M203.8,26.3c-0.1,0-0.3,0.1-0.3,0.3c0,0.1,0.1,0.3,0.3,0.3c0.1,0,0.3-0.1,0.3-0.3
			C204.1,26.5,203.9,26.3,203.8,26.3z"/>
		<path class="st3" d="M194.9,26.3c-0.2,0-0.3,0.2-0.3,0.3s0.2,0.3,0.3,0.3c0.2,0,0.3-0.2,0.3-0.3C195.3,26.4,195.1,26.3,194.9,26.3
			z"/>
		<path class="st3" d="M186.1,26.2c-0.2,0-0.4,0.2-0.4,0.4c0,0.2,0.2,0.4,0.4,0.4c0.2,0,0.4-0.2,0.4-0.4
			C186.5,26.4,186.3,26.2,186.1,26.2z"/>
		<path class="st3" d="M177.2,26.1c-0.3,0-0.5,0.2-0.5,0.5c0,0.3,0.2,0.5,0.5,0.5c0.3,0,0.5-0.2,0.5-0.5
			C177.7,26.3,177.5,26.1,177.2,26.1z"/>
		<path class="st3" d="M168.4,26c-0.3,0-0.6,0.3-0.6,0.6c0,0.3,0.3,0.6,0.6,0.6c0.3,0,0.6-0.3,0.6-0.6C168.9,26.3,168.7,26,168.4,26
			z"/>
		<path class="st3" d="M159.5,26c-0.3,0-0.6,0.3-0.6,0.6c0,0.3,0.3,0.6,0.6,0.6c0.3,0,0.6-0.3,0.6-0.6C160.1,26.3,159.8,26,159.5,26
			z"/>
		<path class="st3" d="M150.6,26c-0.4,0-0.6,0.3-0.6,0.6c0,0.4,0.3,0.6,0.6,0.6c0.4,0,0.6-0.3,0.6-0.6C151.3,26.2,151,26,150.6,26z"
			/>
		<path class="st3" d="M141.8,26c-0.4,0-0.6,0.3-0.6,0.6c0,0.4,0.3,0.6,0.6,0.6c0.4,0,0.6-0.3,0.6-0.6C142.4,26.2,142.1,26,141.8,26
			z"/>
		<path class="st3" d="M132.9,26c-0.3,0-0.6,0.3-0.6,0.6c0,0.3,0.3,0.6,0.6,0.6c0.3,0,0.6-0.3,0.6-0.6C133.5,26.3,133.3,26,132.9,26
			z"/>
		<path class="st3" d="M124.1,26c-0.3,0-0.6,0.3-0.6,0.6s0.3,0.6,0.6,0.6c0.3,0,0.6-0.3,0.6-0.6C124.7,26.3,124.4,26,124.1,26z"/>
		<path class="st3" d="M115.2,26.1c-0.3,0-0.5,0.2-0.5,0.5c0,0.3,0.2,0.5,0.5,0.5c0.3,0,0.5-0.2,0.5-0.5
			C115.8,26.3,115.5,26.1,115.2,26.1z"/>
		<path class="st3" d="M106.4,26.1c-0.3,0-0.5,0.2-0.5,0.5c0,0.3,0.2,0.5,0.5,0.5c0.3,0,0.5-0.2,0.5-0.5
			C106.8,26.3,106.6,26.1,106.4,26.1z"/>
		<path class="st3" d="M97.5,26.2c-0.2,0-0.4,0.2-0.4,0.4c0,0.2,0.2,0.4,0.4,0.4c0.2,0,0.4-0.2,0.4-0.4
			C97.9,26.4,97.7,26.2,97.5,26.2z"/>
		<path class="st3" d="M88.6,26.3c-0.2,0-0.3,0.2-0.3,0.3c0,0.2,0.2,0.3,0.3,0.3c0.2,0,0.3-0.2,0.3-0.3C89,26.4,88.8,26.3,88.6,26.3
			z"/>
		<path class="st3" d="M79.8,26.4c-0.1,0-0.2,0.1-0.2,0.2c0,0.1,0.1,0.2,0.2,0.2c0.1,0,0.2-0.1,0.2-0.2C80,26.5,79.9,26.4,79.8,26.4
			z"/>
		<path class="st3" d="M70.9,26.4c-0.1,0-0.2,0.1-0.2,0.2c0,0.1,0.1,0.2,0.2,0.2c0.1,0,0.2-0.1,0.2-0.2C71.1,26.5,71,26.4,70.9,26.4
			z"/>
		<path class="st3" d="M62.1,26.5C62,26.5,62,26.5,62.1,26.5c-0.1,0.2-0.1,0.2,0,0.2C62.1,26.7,62.2,26.7,62.1,26.5
			C62.2,26.5,62.1,26.5,62.1,26.5z"/>
		<path class="st3" d="M53.2,26.6C53.2,26.6,53.2,26.6,53.2,26.6C53.2,26.6,53.2,26.6,53.2,26.6C53.2,26.6,53.2,26.6,53.2,26.6
			C53.2,26.6,53.2,26.6,53.2,26.6z"/>
		<path class="st3" d="M225.9,17.7C225.9,17.7,225.9,17.7,225.9,17.7C225.9,17.8,225.9,17.8,225.9,17.7
			C226,17.8,226,17.8,225.9,17.7C226,17.7,226,17.7,225.9,17.7z"/>
		<path class="st3" d="M217.1,17.7C217.1,17.7,217,17.7,217.1,17.7C217,17.8,217.1,17.8,217.1,17.7
			C217.1,17.8,217.1,17.8,217.1,17.7C217.1,17.7,217.1,17.7,217.1,17.7z"/>
		<path class="st3" d="M208.2,17.6C208.2,17.6,208.1,17.7,208.2,17.6c-0.1,0.2-0.1,0.2,0,0.2C208.3,17.8,208.3,17.8,208.2,17.6
			C208.3,17.7,208.3,17.6,208.2,17.6z"/>
		<path class="st3" d="M199.4,17.6c-0.1,0-0.1,0.1-0.1,0.1c0,0.1,0.1,0.1,0.1,0.1c0.1,0,0.1-0.1,0.1-0.1
			C199.5,17.7,199.4,17.6,199.4,17.6z"/>
		<path class="st3" d="M190.5,17.5c-0.1,0-0.2,0.1-0.2,0.2c0,0.1,0.1,0.2,0.2,0.2c0.1,0,0.2-0.1,0.2-0.2
			C190.7,17.6,190.6,17.5,190.5,17.5z"/>
		<path class="st3" d="M181.6,17.5c-0.1,0-0.2,0.1-0.2,0.2c0,0.1,0.1,0.2,0.2,0.2c0.1,0,0.2-0.1,0.2-0.2
			C181.9,17.6,181.8,17.5,181.6,17.5z"/>
		<path class="st3" d="M172.8,17.4c-0.2,0-0.3,0.1-0.3,0.3c0,0.2,0.1,0.3,0.3,0.3c0.2,0,0.3-0.1,0.3-0.3
			C173.1,17.6,173,17.4,172.8,17.4z"/>
		<path class="st3" d="M163.9,17.4c-0.2,0-0.3,0.2-0.3,0.3c0,0.2,0.2,0.3,0.3,0.3c0.2,0,0.3-0.2,0.3-0.3
			C164.3,17.6,164.1,17.4,163.9,17.4z"/>
		<path class="st3" d="M155.1,17.4c-0.2,0-0.3,0.2-0.3,0.3c0,0.2,0.2,0.3,0.3,0.3c0.2,0,0.3-0.2,0.3-0.3
			C155.4,17.6,155.3,17.4,155.1,17.4z"/>
		<path class="st3" d="M146.2,17.4c-0.2,0-0.4,0.2-0.4,0.4c0,0.2,0.2,0.4,0.4,0.4c0.2,0,0.4-0.2,0.4-0.4
			C146.6,17.5,146.4,17.4,146.2,17.4z"/>
		<path class="st3" d="M137.4,17.4c-0.2,0-0.3,0.2-0.3,0.3c0,0.2,0.2,0.3,0.3,0.3c0.2,0,0.3-0.2,0.3-0.3
			C137.7,17.6,137.5,17.4,137.4,17.4z"/>
		<path class="st3" d="M128.5,17.4c-0.2,0-0.3,0.1-0.3,0.3c0,0.2,0.1,0.3,0.3,0.3c0.2,0,0.3-0.1,0.3-0.3
			C128.8,17.6,128.7,17.4,128.5,17.4z"/>
		<path class="st3" d="M119.6,17.4c-0.2,0-0.3,0.1-0.3,0.3c0,0.2,0.1,0.3,0.3,0.3c0.2,0,0.3-0.1,0.3-0.3
			C119.9,17.6,119.8,17.4,119.6,17.4z"/>
		<path class="st3" d="M110.8,17.5c-0.1,0-0.2,0.1-0.2,0.2c0,0.1,0.1,0.2,0.2,0.2c0.1,0,0.2-0.1,0.2-0.2
			C111,17.6,110.9,17.5,110.8,17.5z"/>
		<path class="st3" d="M101.9,17.5c-0.1,0-0.2,0.1-0.2,0.2c0,0.1,0.1,0.2,0.2,0.2c0.1,0,0.2-0.1,0.2-0.2
			C102.1,17.6,102,17.5,101.9,17.5z"/>
		<path class="st3" d="M93.1,17.6c-0.1,0-0.1,0.1-0.1,0.1c0,0.1,0.1,0.1,0.1,0.1c0.1,0,0.1-0.1,0.1-0.1
			C93.2,17.7,93.1,17.6,93.1,17.6z"/>
		<path class="st3" d="M84.2,17.6C84.2,17.6,84.1,17.7,84.2,17.6c-0.1,0.2-0.1,0.2,0,0.2C84.3,17.8,84.3,17.8,84.2,17.6
			C84.3,17.7,84.3,17.6,84.2,17.6z"/>
		<path class="st3" d="M75.3,17.7C75.3,17.7,75.3,17.7,75.3,17.7C75.3,17.8,75.3,17.8,75.3,17.7C75.4,17.8,75.4,17.8,75.3,17.7
			C75.4,17.7,75.4,17.7,75.3,17.7z"/>
		<path class="st3" d="M66.5,17.7C66.5,17.7,66.5,17.7,66.5,17.7C66.5,17.8,66.5,17.8,66.5,17.7C66.5,17.8,66.5,17.8,66.5,17.7
			C66.5,17.7,66.5,17.7,66.5,17.7z"/>
		<path class="st3" d="M194.9,8.9C194.9,8.9,194.9,8.9,194.9,8.9C194.9,8.9,194.9,8.9,194.9,8.9C195,8.9,195,8.9,194.9,8.9
			C195,8.9,195,8.9,194.9,8.9z"/>
		<path class="st3" d="M186.1,8.8C186.1,8.8,186,8.9,186.1,8.8C186,8.9,186.1,8.9,186.1,8.8C186.1,8.9,186.1,8.9,186.1,8.8
			C186.1,8.9,186.1,8.8,186.1,8.8z"/>
		<path class="st3" d="M177.2,8.8C177.2,8.8,177.1,8.8,177.2,8.8c-0.1,0.2-0.1,0.2,0,0.2C177.3,9,177.3,8.9,177.2,8.8
			C177.3,8.8,177.3,8.8,177.2,8.8z"/>
		<path class="st3" d="M168.4,8.8C168.3,8.8,168.3,8.8,168.4,8.8c-0.1,0.2-0.1,0.2,0,0.2C168.4,9,168.5,8.9,168.4,8.8
			C168.5,8.8,168.4,8.8,168.4,8.8z"/>
		<path class="st3" d="M159.5,8.8c-0.1,0-0.1,0.1-0.1,0.1c0,0.1,0.1,0.1,0.1,0.1c0.1,0,0.1-0.1,0.1-0.1
			C159.6,8.8,159.6,8.8,159.5,8.8z"/>
		<path class="st3" d="M150.6,8.7c-0.1,0-0.1,0.1-0.1,0.1c0,0.1,0.1,0.1,0.1,0.1c0.1,0,0.1-0.1,0.1-0.1
			C150.8,8.8,150.7,8.7,150.6,8.7z"/>
		<path class="st3" d="M141.8,8.7c-0.1,0-0.1,0.1-0.1,0.1c0,0.1,0.1,0.1,0.1,0.1c0.1,0,0.1-0.1,0.1-0.1
			C141.9,8.8,141.9,8.7,141.8,8.7z"/>
		<path class="st3" d="M132.9,8.7c-0.1,0-0.1,0.1-0.1,0.1c0,0.1,0.1,0.1,0.1,0.1c0.1,0,0.1-0.1,0.1-0.1C133.1,8.8,133,8.7,132.9,8.7
			z"/>
		<path class="st3" d="M124.1,8.8c-0.1,0-0.1,0.1-0.1,0.1c0,0.1,0.1,0.1,0.1,0.1c0.1,0,0.1-0.1,0.1-0.1
			C124.2,8.8,124.1,8.8,124.1,8.8z"/>
		<path class="st3" d="M115.2,8.8C115.2,8.8,115.1,8.8,115.2,8.8c-0.1,0.2-0.1,0.2,0,0.2C115.3,9,115.3,8.9,115.2,8.8
			C115.3,8.8,115.3,8.8,115.2,8.8z"/>
		<path class="st3" d="M106.4,8.8C106.3,8.8,106.3,8.8,106.4,8.8c-0.1,0.1,0,0.1,0,0.1C106.4,9,106.4,8.9,106.4,8.8
			C106.4,8.8,106.4,8.8,106.4,8.8z"/>
		<path class="st3" d="M97.5,8.8C97.5,8.8,97.4,8.9,97.5,8.8C97.4,8.9,97.5,8.9,97.5,8.8C97.5,8.9,97.5,8.9,97.5,8.8
			C97.5,8.9,97.5,8.8,97.5,8.8z"/>
		<path class="st3" d="M88.6,8.9C88.6,8.9,88.6,8.9,88.6,8.9C88.6,8.9,88.6,8.9,88.6,8.9C88.6,8.9,88.7,8.9,88.6,8.9
			C88.7,8.9,88.6,8.9,88.6,8.9z"/>
		<path class="st3" d="M163.9,0C163.9,0,163.9,0,163.9,0C163.9,0,163.9,0,163.9,0C163.9,0,164,0,163.9,0C164,0,163.9,0,163.9,0z"/>
		<path class="st3" d="M155.1,0C155.1,0,155,0,155.1,0C155,0,155.1,0,155.1,0C155.1,0,155.1,0,155.1,0C155.1,0,155.1,0,155.1,0z"/>
		<path class="st3" d="M146.2,0C146.2,0,146.2,0,146.2,0C146.2,0,146.2,0,146.2,0C146.2,0,146.2,0,146.2,0C146.2,0,146.2,0,146.2,0z
			"/>
		<path class="st3" d="M137.4,0C137.3,0,137.3,0,137.4,0C137.3,0,137.3,0,137.4,0C137.4,0,137.4,0,137.4,0C137.4,0,137.4,0,137.4,0z
			"/>
		<path class="st3" d="M128.5,0C128.5,0,128.5,0,128.5,0C128.5,0,128.5,0,128.5,0C128.5,0,128.5,0,128.5,0C128.5,0,128.5,0,128.5,0z
			"/>
	</g>
</g>
</svg>
