<svg xmlns="http://www.w3.org/2000/svg" viewBox="0 0 33.89 39.37"><defs><style>.cls-1{fill:#c10a27;}.cls-2{fill:#fff;}</style></defs><g id="katman_2" data-name="katman 2"><g id="katman_3" data-name="katman 3"><path class="cls-1" d="M3.52,39.12a1,1,0,0,1-1-1V35.86a3.28,3.28,0,0,1,0-6.23v-.3a3.28,3.28,0,0,1,0-6.23v-.31a3.27,3.27,0,0,1,0-6.22v-.31a3.27,3.27,0,0,1,0-6.22V9.73a3.27,3.27,0,0,1,0-6.22V1.26a1,1,0,0,1,1-1H31.14a2.5,2.5,0,0,1,2.5,2.49v26a1,1,0,0,1-1,1,1,1,0,0,1-.71-.29,1,1,0,0,1-.3-.71v-26a.48.48,0,0,0-.48-.48h-.28a2.59,2.59,0,0,1,0,.48v3a1,1,0,0,1-2,0v-3a.49.49,0,0,0-.48-.48H4.53V3.51A3.28,3.28,0,0,1,6.79,6.62a1,1,0,1,1-2,0,1.28,1.28,0,0,0-.24-.74V10a3.28,3.28,0,0,1,2.26,3.11,1,1,0,1,1-2,0,1.28,1.28,0,0,0-.24-.74v4.16a3.28,3.28,0,0,1,2.26,3.11,1,1,0,0,1-2,0,1.28,1.28,0,0,0-.24-.74V23.1a3.28,3.28,0,0,1,2.26,3.11,1,1,0,0,1-2,0,1.28,1.28,0,0,0-.24-.74v4.17a3.26,3.26,0,0,1,2.26,3.11,1,1,0,0,1-2,0A1.29,1.29,0,0,0,4.53,32v5.1H28.41a.48.48,0,0,0,.48-.48V8a1,1,0,1,1,2,0V36.62a2.45,2.45,0,0,1,0,.48h.28a.47.47,0,0,0,.48-.48V31a1,1,0,0,1,2,0v5.65a2.5,2.5,0,0,1-2.5,2.5ZM2.51,32a1.24,1.24,0,0,0,0,1.49Zm0-6.53a1.24,1.24,0,0,0,0,1.49Zm0-6.53a1.24,1.24,0,0,0,0,1.49Zm0-6.53a1.24,1.24,0,0,0,0,1.49Zm0-6.53a1.22,1.22,0,0,0-.25.74,1.25,1.25,0,0,0,.25.75Z"/><path class="cls-2" d="M31.14.5a2.25,2.25,0,0,1,2.25,2.24v26a.76.76,0,0,1-.76.75.75.75,0,0,1-.76-.75v-26A.73.73,0,0,0,31.15,2h-.62a2.28,2.28,0,0,1,.12.73v3a.76.76,0,0,1-1.51,0v-3A.73.73,0,0,0,28.41,2H4.28V3.7A3,3,0,0,1,6.54,6.62.76.76,0,0,1,5,6.62a1.52,1.52,0,0,0-.74-1.3v4.91a3,3,0,0,1,2.26,2.92.76.76,0,1,1-1.52,0,1.52,1.52,0,0,0-.74-1.3v4.91a3,3,0,0,1,2.26,2.92.76.76,0,1,1-1.52,0,1.52,1.52,0,0,0-.74-1.3v4.91a3,3,0,0,1,2.26,2.92.76.76,0,0,1-1.52,0,1.52,1.52,0,0,0-.74-1.3v4.91a3,3,0,0,1,2.26,2.93.76.76,0,0,1-1.52,0,1.5,1.5,0,0,0-.74-1.3v5.9H28.41a.73.73,0,0,0,.73-.73V8a.76.76,0,1,1,1.51,0V36.62a2.19,2.19,0,0,1-.12.73h.61a.72.72,0,0,0,.73-.73V31a.76.76,0,0,1,1.52,0v5.65a2.25,2.25,0,0,1-2.25,2.25H3.52a.76.76,0,0,1-.76-.76V35.67a3,3,0,0,1,0-5.85v-.68a3,3,0,0,1,0-5.85v-.68a3,3,0,0,1,0-5.85v-.68a3,3,0,0,1,0-5.85V9.55a3,3,0,0,1,0-5.85V1.26A.76.76,0,0,1,3.52.5H31.14M2.76,7.92V5.32a1.5,1.5,0,0,0,0,2.6M5.39,7a.57.57,0,0,1-.17-.4.57.57,0,0,0,.17.4M2.76,14.45v-2.6a1.5,1.5,0,0,0,0,2.6m0,6.53v-2.6A1.53,1.53,0,0,0,2,19.68,1.5,1.5,0,0,0,2.76,21m3.41,4.26a2.81,2.81,0,0,0-.48-.82,2.81,2.81,0,0,1,.48.82M2.76,27.51v-2.6A1.53,1.53,0,0,0,2,26.21a1.5,1.5,0,0,0,.75,1.3m2.38,4.7a1.72,1.72,0,0,0-.6-.83,1.72,1.72,0,0,1,.6.83M2.76,34.05v-2.6A1.5,1.5,0,0,0,2,32.75a1.53,1.53,0,0,0,.75,1.3M31.14,0H3.52A1.26,1.26,0,0,0,2.26,1.26V3.33a3.52,3.52,0,0,0,0,6.56,3.52,3.52,0,0,0,0,6.53,3.52,3.52,0,0,0,0,6.53,3.52,3.52,0,0,0,0,6.53,3.52,3.52,0,0,0,0,6.55v2.08a1.27,1.27,0,0,0,1.26,1.26H31.14a2.75,2.75,0,0,0,2.75-2.75V31a1.27,1.27,0,0,0-.68-1.12,1.26,1.26,0,0,0,.68-1.11v-26A2.75,2.75,0,0,0,31.14,0ZM4.78,2.51H28.41a.23.23,0,0,1,.23.23v3a1.25,1.25,0,0,0,.67,1.11A1.26,1.26,0,0,0,28.64,8V36.62a.23.23,0,0,1-.23.23H4.78V33.5A1.26,1.26,0,0,0,7,32.75a3.51,3.51,0,0,0-2.26-3.29V27A1.26,1.26,0,0,0,7,26.21a3.5,3.5,0,0,0-2.26-3.28V20.44A1.26,1.26,0,0,0,7,19.68,3.5,3.5,0,0,0,4.78,16.4V13.91A1.26,1.26,0,0,0,7,13.15,3.5,3.5,0,0,0,4.78,9.87V7.38A1.26,1.26,0,0,0,7,6.62,3.53,3.53,0,0,0,4.78,3.33V2.51Zm26.36,0h0a.23.23,0,0,1,.22.23v26a1.26,1.26,0,0,0,.37.89,1.34,1.34,0,0,0,.31.22A1.27,1.27,0,0,0,31.37,31v5.65a.23.23,0,0,1-.23.23h0a1.69,1.69,0,0,0,0-.23V8a1.26,1.26,0,0,0-.67-1.12,1.25,1.25,0,0,0,.67-1.11v-3a1.85,1.85,0,0,0,0-.23Z"/><path class="cls-1" d="M10.09,18.07a1.75,1.75,0,0,1-1.75-1.75V12.84a1,1,0,0,1,2,0v3.22H24.88V7.4H10.36v3.23a1,1,0,0,1-2,0V7.14a1.75,1.75,0,0,1,1.75-1.75H25.14a1.74,1.74,0,0,1,1.75,1.75v9.18a1.75,1.75,0,0,1-1.75,1.75Z"/><path class="cls-2" d="M25.14,5.64a1.46,1.46,0,0,1,1.06.44,1.5,1.5,0,0,1,.44,1.06v9.18a1.5,1.5,0,0,1-1.5,1.5h-15a1.5,1.5,0,0,1-1.5-1.5V12.84a.76.76,0,0,1,1.52,0l0,3.47h15V7.15h-15v3.48a.76.76,0,0,1-1.52,0V7.14a1.5,1.5,0,0,1,1.5-1.5H25.14m0-.5h-15a2,2,0,0,0-2,2v3.48a1.26,1.26,0,0,0,.68,1.11,1.26,1.26,0,0,0-.68,1.11v3.48a2,2,0,0,0,2,2H25.14a2,2,0,0,0,2-2V7.14a2,2,0,0,0-2-2ZM9.93,11.73a1.26,1.26,0,0,0,.68-1.11v-3h14v8.17h-14v-3a1.27,1.27,0,0,0-.68-1.12Z"/><path class="cls-1" d="M10.09,34a1.76,1.76,0,0,1-1.75-1.75V23.05a1.75,1.75,0,0,1,1.75-1.75H25.14a1.74,1.74,0,0,1,1.75,1.75v9.18A1.75,1.75,0,0,1,25.14,34Zm13.82-2h1V23.31H10.36V32Z"/><path class="cls-2" d="M25.14,21.55A1.46,1.46,0,0,1,26.2,22a1.5,1.5,0,0,1,.44,1.06v9.18a1.5,1.5,0,0,1-1.5,1.5h-15a1.5,1.5,0,0,1-1.5-1.5V23.05a1.5,1.5,0,0,1,1.5-1.5H25.14m-15,10.66h13.8l1.22,0V23.06h-15v9.16m15-11.16h-15a2,2,0,0,0-2,2v9.18a2,2,0,0,0,2,2H25.14a2,2,0,0,0,2-2V23.05a2,2,0,0,0-.59-1.42,2,2,0,0,0-1.41-.58ZM10.61,31.71V23.55h14v8.16h-14Z"/></g></g></svg>