<svg xmlns="http://www.w3.org/2000/svg" viewBox="0 0 43.33 41.73"><defs><style>.cls-1{fill:#c10a27;}.cls-2{fill:#fff;}</style></defs><g id="katman_2" data-name="katman 2"><g id="katman_4" data-name="katman 4"><path class="cls-1" d="M41.58,11.52a.85.85,0,0,0-.84.84v25A1.74,1.74,0,0,1,39,39.14H22.5V37a18.79,18.79,0,0,1,5.59-1,33,33,0,0,1,9.37,1.24.75.75,0,0,0,.26,0,.78.78,0,0,0,.49-.16.82.82,0,0,0,.35-.67V8.18a.83.83,0,0,0-.66-.82s-.5-.11-1.37-.27l-.15,0a.84.84,0,0,0-.15,1.66l.66.13V35.33a37.2,37.2,0,0,0-8.8-1,20.39,20.39,0,0,0-6.39,1.21,15.23,15.23,0,0,0-5.82-1.21,43.17,43.17,0,0,0-9.44,1V8.83a41.82,41.82,0,0,1,9.44-1.1,13.89,13.89,0,0,1,4.95,1V33.87a.82.82,0,0,0,.42.72.77.77,0,0,0,.41.11.83.83,0,0,0,.44-.12,73.87,73.87,0,0,1,12-5.7.83.83,0,0,0,.57-.79V1.75a.81.81,0,0,0-.36-.68.8.8,0,0,0-.47-.15,1,1,0,0,0-.3,0A69.57,69.57,0,0,0,23.15,6.18a.84.84,0,0,0,.44,1.55A.9.9,0,0,0,24,7.6,68.82,68.82,0,0,1,33,3V27.49A71.93,71.93,0,0,0,22.5,32.42V8.18A.84.84,0,0,0,22,7.43a15,15,0,0,0-6.16-1.37A42.07,42.07,0,0,0,5.38,7.37a.84.84,0,0,0-.61.81V36.44a.84.84,0,0,0,.33.66.87.87,0,0,0,.51.17.91.91,0,0,0,.23,0,41.37,41.37,0,0,1,10-1.25,13.89,13.89,0,0,1,4.95,1v2.16H4.32a1.74,1.74,0,0,1-1.73-1.73v-25a.85.85,0,0,0-.84-.84.84.84,0,0,0-.83.84v25a3.41,3.41,0,0,0,3.4,3.4H39a3.4,3.4,0,0,0,3.4-3.4v-25A.84.84,0,0,0,41.58,11.52Z"/><path class="cls-2" d="M33.87.92a.8.8,0,0,1,.47.15.81.81,0,0,1,.36.68V28.09a.83.83,0,0,1-.57.79,73.87,73.87,0,0,0-12,5.7.83.83,0,0,1-.44.12.77.77,0,0,1-.41-.11.82.82,0,0,1-.42-.72V8.72a13.89,13.89,0,0,0-4.95-1,41.82,41.82,0,0,0-9.44,1.1V35.37a43.17,43.17,0,0,1,9.44-1,15.23,15.23,0,0,1,5.82,1.21,20.39,20.39,0,0,1,6.39-1.21,37.2,37.2,0,0,1,8.8,1V8.86l-.66-.13a.84.84,0,0,1,.15-1.66l.15,0c.87.16,1.37.27,1.37.27a.83.83,0,0,1,.66.82V36.44a.82.82,0,0,1-.35.67.78.78,0,0,1-.49.16.75.75,0,0,1-.26,0A33,33,0,0,0,28.09,36a18.79,18.79,0,0,0-5.59,1v2.12H39a1.74,1.74,0,0,0,1.73-1.73v-25a.85.85,0,0,1,.84-.84.84.84,0,0,1,.83.84v25a3.4,3.4,0,0,1-3.4,3.4H4.32a3.41,3.41,0,0,1-3.4-3.4v-25a.84.84,0,0,1,.83-.84.85.85,0,0,1,.84.84v25a1.74,1.74,0,0,0,1.73,1.73H20.83V37a13.89,13.89,0,0,0-4.95-1,41.37,41.37,0,0,0-10,1.25.91.91,0,0,1-.23,0,.87.87,0,0,1-.51-.17.84.84,0,0,1-.33-.66V8.18a.84.84,0,0,1,.61-.81,42.07,42.07,0,0,1,10.5-1.31A15,15,0,0,1,22,7.43a.84.84,0,0,1,.46.75V32.42A71.93,71.93,0,0,1,33,27.49V3A68.82,68.82,0,0,0,24,7.6a.9.9,0,0,1-.45.13.85.85,0,0,1-.71-.39.85.85,0,0,1,.27-1.16A69.57,69.57,0,0,1,33.57,1a1,1,0,0,1,.3,0m0-.92a1.88,1.88,0,0,0-.62.11A70.05,70.05,0,0,0,22.67,5.4a1.72,1.72,0,0,0-.75,1,16.09,16.09,0,0,0-6-1.23A43.16,43.16,0,0,0,5.12,6.49,1.77,1.77,0,0,0,3.85,8.18V36.44a1.77,1.77,0,0,0,1.76,1.75,1.55,1.55,0,0,0,.48-.07,40.31,40.31,0,0,1,9.79-1.21,12.65,12.65,0,0,1,4,.71v.6H4.32a.81.81,0,0,1-.81-.81v-25a1.76,1.76,0,1,0-3.51,0v25a4.33,4.33,0,0,0,4.32,4.32H39a4.33,4.33,0,0,0,4.32-4.32v-25a1.76,1.76,0,1,0-3.51,0v25a.81.81,0,0,1-.81.81H23.42v-.53a17,17,0,0,1,4.67-.78,32.45,32.45,0,0,1,9.08,1.19,1.74,1.74,0,0,0,1.57-.24,1.76,1.76,0,0,0,.74-1.42V8.18A1.76,1.76,0,0,0,38.1,6.46h0l-1.4-.27a1.73,1.73,0,0,0-.32,0,1.76,1.76,0,0,0-.76.17V1.75A1.76,1.76,0,0,0,34.87.31a1.79,1.79,0,0,0-1-.31ZM23.59,8.65a1.8,1.8,0,0,0,.93-.27,69.7,69.7,0,0,1,7.59-4V26.84a71.69,71.69,0,0,0-8.69,4V8.64ZM7.36,9.56a41.77,41.77,0,0,1,8.52-.91,12.65,12.65,0,0,1,4,.71V34a15.44,15.44,0,0,0-4-.55,45.24,45.24,0,0,0-8.52.83V9.56Zm18.46,24a62.52,62.52,0,0,1,8.6-3.81,1.75,1.75,0,0,0,1.2-1.66V9.49a2.09,2.09,0,0,0,.35.13V34.18a38.91,38.91,0,0,0-7.88-.78,16.73,16.73,0,0,0-2.27.16Z"/></g></g></svg>