<?xml version="1.0" encoding="UTF-8" standalone="no"?>
<!DOCTYPE svg PUBLIC "-//W3C//DTD SVG 1.1//EN" "http://www.w3.org/Graphics/SVG/1.1/DTD/svg11.dtd">
<svg width="100%" height="100%" viewBox="0 0 20 25" version="1.1" xmlns="http://www.w3.org/2000/svg" xmlns:xlink="http://www.w3.org/1999/xlink" xml:space="preserve" xmlns:serif="http://www.serif.com/" style="fill-rule:evenodd;clip-rule:evenodd;stroke-linejoin:round;stroke-miterlimit:2;">
    <g transform="matrix(1,0,0,1,-23.81,1.77636e-15)">
        <g>
            <path d="M33.57,5.79C31.376,5.79 29.57,7.596 29.57,9.79C29.57,11.984 31.376,13.79 33.57,13.79C35.764,13.79 37.57,11.984 37.57,9.79C37.57,7.596 35.764,5.79 33.57,5.79ZM33.57,11.08C32.85,11.075 32.26,10.48 32.26,9.76C32.26,9.036 32.856,8.44 33.58,8.44C34.304,8.44 34.9,9.036 34.9,9.76C34.9,9.76 34.9,9.76 34.9,9.76C34.9,10.484 34.304,11.08 33.58,11.08C33.577,11.08 33.573,11.08 33.57,11.08Z" style="fill:rgb(193,10,39);fill-rule:nonzero;"/>
            <path d="M33.57,14.23C33.557,14.23 33.543,14.23 33.53,14.23C31.078,14.23 29.06,12.212 29.06,9.76C29.06,7.308 31.078,5.29 33.53,5.29C35.982,5.29 38,7.308 38,9.76C37.995,12.195 36.005,14.203 33.57,14.23ZM33.57,6.29C33.557,6.29 33.543,6.29 33.53,6.29C31.626,6.29 30.06,7.856 30.06,9.76C30.06,11.663 31.626,13.23 33.53,13.23C35.433,13.23 37,11.663 37,9.76C36.995,7.873 35.456,6.317 33.57,6.29ZM33.57,11.58C32.575,11.575 31.76,10.755 31.76,9.76C31.76,8.762 32.582,7.94 33.58,7.94C34.578,7.94 35.4,8.762 35.4,9.76C35.4,9.76 35.4,9.76 35.4,9.76C35.4,10.758 34.578,11.58 33.58,11.58C33.577,11.58 33.573,11.58 33.57,11.58ZM33.57,8.94C33.124,8.945 32.76,9.314 32.76,9.76C32.76,10.21 33.13,10.58 33.58,10.58C34.03,10.58 34.4,10.21 34.4,9.76C34.4,9.76 34.4,9.76 34.4,9.76C34.4,9.31 34.03,8.94 33.58,8.94C33.577,8.94 33.573,8.94 33.57,8.94Z" style="fill:white;fill-rule:nonzero;"/>
            <path d="M33.57,0.5C28.492,0.505 24.315,4.682 24.31,9.76C24.31,14.51 31.74,22.93 32.59,23.87C32.841,24.161 33.206,24.328 33.59,24.328C33.974,24.328 34.339,24.161 34.59,23.87C35.43,22.93 42.86,14.51 42.86,9.76C42.855,4.678 38.672,0.5 33.59,0.5C33.583,0.5 33.577,0.5 33.57,0.5ZM33.57,20.97C30.68,17.54 27,12.28 27,9.76C27.137,6.228 30.08,3.397 33.615,3.397C37.15,3.397 40.093,6.228 40.23,9.76C40.19,12.28 36.46,17.54 33.57,21L33.57,20.97Z" style="fill:rgb(193,10,39);fill-rule:nonzero;"/>
            <path d="M33.57,24.81C33.056,24.809 32.566,24.591 32.22,24.21C30.81,22.64 23.81,14.59 23.81,9.76C23.81,4.406 28.216,-0 33.57,-0C38.924,-0 43.33,4.406 43.33,9.76C43.33,14.59 36.33,22.64 34.93,24.21C34.581,24.591 34.087,24.809 33.57,24.81ZM33.57,1C28.766,1.005 24.815,4.956 24.81,9.76C24.81,14.32 32.13,22.61 32.96,23.54C33.12,23.708 33.343,23.803 33.575,23.803C33.807,23.803 34.03,23.708 34.19,23.54C35.02,22.61 42.33,14.32 42.33,9.76C42.325,4.956 38.374,1.005 33.57,1ZM33.57,21.75L33.19,21.29C30.08,17.61 26.46,12.38 26.46,9.76C26.603,5.957 29.77,2.907 33.575,2.907C37.38,2.907 40.547,5.957 40.69,9.76C40.69,12.38 37.06,17.61 33.95,21.29L33.57,21.75ZM33.57,3.65C30.22,3.655 27.465,6.41 27.46,9.76C27.46,11.87 30.46,16.43 33.57,20.19C36.68,16.44 39.69,11.87 39.69,9.76C39.685,6.406 36.924,3.65 33.57,3.65Z" style="fill:white;fill-rule:nonzero;"/>
        </g>
    </g>
</svg>
