<?xml version="1.0" encoding="UTF-8" standalone="no"?>
<!DOCTYPE svg PUBLIC "-//W3C//DTD SVG 1.1//EN" "http://www.w3.org/Graphics/SVG/1.1/DTD/svg11.dtd">
<svg width="100%" height="100%" viewBox="0 0 589 488" version="1.1" xmlns="http://www.w3.org/2000/svg" xmlns:xlink="http://www.w3.org/1999/xlink" xml:space="preserve" xmlns:serif="http://www.serif.com/" style="fill-rule:evenodd;clip-rule:evenodd;stroke-linejoin:round;stroke-miterlimit:2;">
    <g transform="matrix(1,0,0,1,-80.5372,-32.7314)">
        <g transform="matrix(1,0,0,1,-10.4628,-5.20209)">
            <path d="M106,510L206.199,281L106,52.934L665,281L106,510Z" style="fill:rgb(193,11,37);"/>
            <path d="M92.258,503.987C89.809,509.585 91,516.109 95.269,520.48C99.538,524.852 106.032,526.197 111.686,523.88L670.686,294.88C676.324,292.571 680.004,287.081 680,280.989C679.996,274.897 676.307,269.413 670.666,267.111L111.666,39.045C106.009,36.737 99.516,38.091 95.253,42.469C90.99,46.847 89.809,53.373 92.267,58.967C92.267,58.967 173.971,244.935 189.821,281.012C173.993,317.187 92.258,503.987 92.258,503.987ZM106,510L206.199,281L106,52.934L665,281L106,510Z" style="fill:white;"/>
        </g>
    </g>
</svg>
