<?xml version="1.0" encoding="UTF-8" standalone="no"?>
<!DOCTYPE svg PUBLIC "-//W3C//DTD SVG 1.1//EN" "http://www.w3.org/Graphics/SVG/1.1/DTD/svg11.dtd">
<svg width="100%" height="100%" viewBox="0 0 48 48" version="1.1" xmlns="http://www.w3.org/2000/svg" xmlns:xlink="http://www.w3.org/1999/xlink" xml:space="preserve" xmlns:serif="http://www.serif.com/" style="fill-rule:evenodd;clip-rule:evenodd;stroke-linecap:round;stroke-linejoin:round;stroke-miterlimit:1.5;">
    <g transform="matrix(8.60321e-17,1.40501,-1.40501,8.60321e-17,57.1588,-22.2243)">
        <path d="M31.626,12.747C31.868,12.265 32.36,11.96 32.9,11.96C33.439,11.96 33.932,12.265 34.173,12.747C36.815,18.033 42.851,30.103 45.269,34.94C45.49,35.381 45.466,35.905 45.207,36.325C44.948,36.745 44.489,37 43.996,37C38.93,37 26.869,37 21.803,37C21.31,37 20.852,36.745 20.592,36.325C20.333,35.905 20.309,35.381 20.53,34.94C22.948,30.103 28.984,18.033 31.626,12.747Z" style="fill:rgb(193,11,37);stroke:white;stroke-width:1.42px;"/>
    </g>
</svg>
