<?xml version="1.0" encoding="utf-8"?>
<!-- Generator: Adobe Illustrator 24.1.1, SVG Export Plug-In . SVG Version: 6.00 Build 0)  -->
<svg version="1.1" id="katman_1" xmlns="http://www.w3.org/2000/svg" xmlns:xlink="http://www.w3.org/1999/xlink" x="0px" y="0px"
	 viewBox="0 0 48.2 48.2" style="enable-background:new 0 0 48.2 48.2;" xml:space="preserve">
<style type="text/css">
	.st0{fill:#C10A27;}
	.st1{fill:#FFFFFF;}
</style>
<g>
	<g>
		<g>
			<path class="st0" d="M25.7,8.2c-1-0.5-2.1-0.5-3.1,0.1l-10.5,6.4c-0.1,0-0.2,0.1-0.2,0.1H5.4c-0.4,0-0.7,0.3-0.7,0.7v17.4
				c0,0.4,0.3,0.7,0.7,0.7H12c0.1,0,0.2,0,0.2,0.1l10.5,6.4c0.9,0.6,2.1,0.6,3.1,0.1c1-0.5,1.5-1.5,1.5-2.6V10.8
				C27.3,9.7,26.7,8.7,25.7,8.2z M11.6,31.6c0,0.3-0.2,0.5-0.5,0.5H6.5c-0.3,0-0.5-0.2-0.5-0.5V16.6c0-0.3,0.2-0.5,0.5-0.5h4.6
				c0.3,0,0.5,0.2,0.5,0.5V31.6z M25.9,37.4c0,0.6-0.3,1.1-0.8,1.4c-0.3,0.1-0.5,0.2-0.8,0.2c-0.3,0-0.6-0.1-0.9-0.2l-10.2-6.2
				c-0.1-0.1-0.2-0.2-0.2-0.4V16c0-0.2,0.1-0.3,0.2-0.4l10.2-6.2c0.5-0.3,1.1-0.3,1.7,0c0.5,0.3,0.8,0.8,0.8,1.4V37.4z"/>
			<path class="st1" d="M24.3,7.8c0.5,0,1,0.1,1.5,0.4c1,0.5,1.5,1.5,1.5,2.6v26.5c0,1.1-0.6,2.1-1.5,2.6c-0.5,0.3-1,0.4-1.5,0.4
				c-0.5,0-1.1-0.1-1.6-0.4l-10.5-6.4c-0.1,0-0.2-0.1-0.2-0.1H5.4c-0.4,0-0.7-0.3-0.7-0.7V15.4c0-0.4,0.3-0.7,0.7-0.7H12
				c0.1,0,0.2,0,0.2-0.1l10.5-6.4C23.2,7.9,23.7,7.8,24.3,7.8 M24.3,39c0.3,0,0.5-0.1,0.8-0.2c0.5-0.3,0.8-0.8,0.8-1.4V10.8
				c0-0.6-0.3-1.1-0.8-1.4c-0.3-0.1-0.5-0.2-0.8-0.2c-0.3,0-0.6,0.1-0.9,0.2l-10.2,6.2C13.1,15.7,13,15.9,13,16v16.1
				c0,0.2,0.1,0.3,0.2,0.4l10.2,6.2C23.7,38.9,24,39,24.3,39 M6.5,32.1h4.6c0.3,0,0.5-0.2,0.5-0.5V16.6c0-0.3-0.2-0.5-0.5-0.5H6.5
				c-0.3,0-0.5,0.2-0.5,0.5v15.1C6.1,31.9,6.3,32.1,6.5,32.1 M24.3,6.8c-0.7,0-1.5,0.2-2.1,0.6l-10.4,6.3H5.4
				c-0.9,0-1.7,0.8-1.7,1.7v17.4c0,0.9,0.8,1.7,1.7,1.7h6.4l10.4,6.3c0.6,0.4,1.4,0.6,2.1,0.6c0.7,0,1.4-0.2,2-0.5
				c1.3-0.7,2.1-2,2.1-3.5V10.8c0-1.5-0.8-2.8-2.1-3.5C25.6,7,24.9,6.8,24.3,6.8L24.3,6.8z M14,16.3l9.9-6.1
				c0.1-0.1,0.2-0.1,0.3-0.1c0.1,0,0.2,0,0.3,0.1c0.2,0.1,0.3,0.3,0.3,0.6v26.5c0,0.2-0.1,0.4-0.3,0.6C24.5,38,24.4,38,24.3,38
				c-0.1,0-0.2,0-0.3-0.1L14,31.8V16.3L14,16.3z M7.1,17.1h3.5v14H7.1V17.1L7.1,17.1z"/>
		</g>
		<g>
			<path class="st0" d="M31.9,21.2c-0.2,0-0.4,0.1-0.5,0.2c-0.1,0.1-0.2,0.3-0.2,0.5s0.1,0.4,0.2,0.5c0.5,0.5,0.7,1.1,0.7,1.7
				c0,0.6-0.3,1.3-0.7,1.7c-0.3,0.3-0.3,0.7,0,1c0.3,0.3,0.7,0.3,1,0c1.5-1.5,1.5-3.9,0-5.4C32.3,21.3,32.1,21.2,31.9,21.2z"/>
			<path class="st1" d="M31.9,21.2c0.2,0,0.4,0.1,0.5,0.2c1.5,1.5,1.5,3.9,0,5.4c-0.1,0.1-0.3,0.2-0.5,0.2c-0.2,0-0.4-0.1-0.5-0.2
				c-0.3-0.3-0.3-0.7,0-1c0.5-0.5,0.7-1.1,0.7-1.7c0-0.6-0.3-1.3-0.7-1.7c-0.1-0.1-0.2-0.3-0.2-0.5s0.1-0.4,0.2-0.5
				C31.5,21.3,31.7,21.2,31.9,21.2 M31.9,20.2c-0.5,0-0.9,0.2-1.2,0.5c-0.3,0.3-0.5,0.7-0.5,1.2s0.2,0.9,0.5,1.2
				c0.3,0.3,0.4,0.6,0.4,1c0,0.4-0.1,0.7-0.4,1c-0.3,0.3-0.5,0.7-0.5,1.2c0,0.5,0.2,0.9,0.5,1.2c0.3,0.3,0.7,0.5,1.2,0.5
				c0.5,0,0.9-0.2,1.2-0.5c1.9-1.9,1.9-4.9,0-6.8C32.8,20.4,32.3,20.2,31.9,20.2L31.9,20.2z"/>
		</g>
		<g>
			<path class="st0" d="M35.9,17.9c-0.1-0.1-0.3-0.2-0.5-0.2c-0.2,0-0.4,0.1-0.5,0.2c-0.3,0.3-0.3,0.7,0,1c1.4,1.4,2.2,3.3,2.2,5.2
				s-0.8,3.8-2.2,5.2c-0.3,0.3-0.3,0.7,0,1c0.3,0.3,0.7,0.3,1,0C39.3,26.9,39.3,21.3,35.9,17.9z"/>
			<path class="st1" d="M35.4,17.7c0.2,0,0.4,0.1,0.5,0.2c3.4,3.4,3.4,9,0,12.4c-0.1,0.1-0.3,0.2-0.5,0.2s-0.4-0.1-0.5-0.2
				c-0.3-0.3-0.3-0.7,0-1c1.4-1.4,2.2-3.2,2.2-5.2c0-2-0.8-3.8-2.2-5.2c-0.3-0.3-0.3-0.7,0-1C35.1,17.8,35.2,17.7,35.4,17.7
				 M35.4,16.7c-0.5,0-0.9,0.2-1.2,0.5c-0.7,0.7-0.7,1.7,0,2.4c1.2,1.2,1.9,2.8,1.9,4.5c0,1.7-0.7,3.3-1.9,4.5
				c-0.7,0.7-0.7,1.7,0,2.4c0.3,0.3,0.7,0.5,1.2,0.5c0.5,0,0.9-0.2,1.2-0.5c3.8-3.8,3.8-10,0-13.8C36.3,16.9,35.9,16.7,35.4,16.7
				L35.4,16.7z"/>
		</g>
		<g>
			<path class="st0" d="M39.4,14.4c-0.1-0.1-0.3-0.2-0.5-0.2c-0.2,0-0.4,0.1-0.5,0.2c-0.1,0.1-0.2,0.3-0.2,0.5
				c0,0.2,0.1,0.4,0.2,0.5c4.9,4.9,4.9,12.6,0,17.5c-0.3,0.3-0.3,0.7,0,1c0.3,0.3,0.7,0.3,1,0C44.9,28.4,44.9,19.8,39.4,14.4z"/>
			<path class="st1" d="M38.9,14.2c0.2,0,0.4,0.1,0.5,0.2c5.5,5.5,5.5,14,0,19.5C39.3,34,39.1,34,38.9,34c-0.2,0-0.4-0.1-0.5-0.2
				c-0.3-0.3-0.3-0.7,0-1c4.9-4.9,4.9-12.6,0-17.5c-0.1-0.1-0.2-0.3-0.2-0.5c0-0.2,0.1-0.4,0.2-0.5C38.6,14.2,38.8,14.2,38.9,14.2
				 M38.9,13.2c-0.5,0-0.9,0.2-1.2,0.5c-0.3,0.3-0.5,0.7-0.5,1.2c0,0.5,0.2,0.9,0.5,1.2c4.5,4.5,4.5,11.6,0,16.1
				c-0.7,0.7-0.7,1.7,0,2.4c0.3,0.3,0.7,0.5,1.2,0.5c0.5,0,0.9-0.2,1.2-0.5c5.9-5.9,5.9-15,0-20.9C39.8,13.3,39.4,13.2,38.9,13.2
				L38.9,13.2z"/>
		</g>
	</g>
	<g id="katman_1-2_2_">
		<g>
			<path class="st0" d="M11.1,38.5c-0.3,0-0.6-0.1-0.9-0.3c-0.6-0.5-0.6-1.4-0.1-1.9c0,0,26.1-26.1,26.2-26.2
				c0.2-0.2,0.6-0.3,0.9-0.3c0.4,0,0.8,0.2,1,0.5c0.2,0.3,0.4,0.6,0.3,1s-0.2,0.7-0.5,0.9l-26,26C11.7,38.4,11.4,38.5,11.1,38.5z"/>
			<path class="st1" d="M37.1,10.2c0.2,0,0.5,0.1,0.6,0.3c0.3,0.4,0.3,0.9-0.1,1.2L25.3,24.1l-1.2,1.2L11.6,37.8
				c-0.2,0.1-0.4,0.2-0.6,0.2c-0.2,0-0.4-0.1-0.6-0.2c-0.4-0.3-0.4-0.8-0.1-1.2l12.4-12.4l1.2-1.2l12.4-12.4c0,0,0,0,0.1-0.1
				C36.7,10.3,36.9,10.2,37.1,10.2 M37.1,9.2c-0.5,0-0.9,0.2-1.2,0.5c0,0-0.1,0.1-0.1,0.1L23.4,22.2l-1.2,1.2L9.7,35.9c0,0,0,0,0,0
				c-0.3,0.4-0.5,0.8-0.5,1.3c0,0.5,0.2,0.9,0.6,1.3c0.3,0.3,0.8,0.5,1.2,0.5c0.5,0,0.9-0.2,1.2-0.5c0,0,0,0,0,0L24.8,26l1.2-1.2
				l12.4-12.4c0.7-0.7,0.8-1.8,0.1-2.6C38.2,9.4,37.7,9.2,37.1,9.2L37.1,9.2z"/>
		</g>
	</g>
</g>
</svg>
