<?xml version="1.0" encoding="UTF-8" standalone="no"?>
<!DOCTYPE svg PUBLIC "-//W3C//DTD SVG 1.1//EN" "http://www.w3.org/Graphics/SVG/1.1/DTD/svg11.dtd">
<svg width="100%" height="100%" viewBox="0 0 113 53" version="1.1" xmlns="http://www.w3.org/2000/svg" xmlns:xlink="http://www.w3.org/1999/xlink" xml:space="preserve" xmlns:serif="http://www.serif.com/" style="fill-rule:evenodd;clip-rule:evenodd;stroke-linecap:round;stroke-linejoin:round;stroke-miterlimit:1.5;">
    <g transform="matrix(1,0,0,1,-203.129,-83.75)">
        <g transform="matrix(1,0,0,1,-215.621,-475)">
            <path d="M448.352,593.75C448.352,593.75 450.8,596.198 452.679,598.078C453.242,598.641 453.558,599.404 453.558,600.199C453.558,600.995 453.242,601.758 452.679,602.321C451.035,603.965 448.766,606.234 447.121,607.879C446.559,608.441 445.796,608.757 445,608.757C444.204,608.757 443.441,608.441 442.879,607.879C438.16,603.16 426.84,591.84 422.121,587.121C421.559,586.559 421.243,585.796 421.243,585C421.243,584.204 421.559,583.441 422.121,582.879C426.84,578.16 438.16,566.84 442.879,562.121C443.441,561.559 444.204,561.243 445,561.243C445.796,561.243 446.559,561.559 447.121,562.121C448.766,563.766 451.035,566.035 452.679,567.679C453.242,568.242 453.558,569.005 453.558,569.801C453.558,570.596 453.242,571.359 452.679,571.922C450.8,573.802 448.352,576.25 448.352,576.25L527,576.25C528.657,576.25 530,577.593 530,579.25C530,582.464 530,587.536 530,590.75C530,592.407 528.657,593.75 527,593.75C512.275,593.75 448.352,593.75 448.352,593.75Z" style="fill:white;stroke:rgb(193,11,37);stroke-width:2.5px;"/>
        </g>
    </g>
</svg>
